<?xml version="1.0" encoding="UTF-8" standalone="no"?>
<!DOCTYPE svg PUBLIC "-//W3C//DTD SVG 1.1//EN" "http://www.w3.org/Graphics/SVG/1.1/DTD/svg11.dtd">
<svg width="100%" height="100%" viewBox="0 0 300 300" version="1.1" xmlns="http://www.w3.org/2000/svg" xmlns:xlink="http://www.w3.org/1999/xlink" xml:space="preserve" xmlns:serif="http://www.serif.com/" style="fill-rule:evenodd;clip-rule:evenodd;">
    <g transform="matrix(9.67742,0,0,9.67742,0,0)">
        <circle cx="15.5" cy="15.5" r="15" style="fill:none;stroke:black;stroke-width:1px;"/>
    </g>
    <g transform="matrix(9.67742,0,0,9.67742,0,0)">
        <circle cx="15.5" cy="15.5" r="13" style="fill:url(#_Linear1);stroke:black;stroke-width:1px;"/>
    </g>
    <path d="M116.129,203.226L106.452,203.226L106.452,270.968L116.129,270.968L116.129,203.226ZM193.548,203.226L203.226,203.226L203.226,266.129L193.548,270.968L193.548,203.226ZM106.452,183.871L96.774,183.871L96.774,203.226L106.452,203.226L106.452,183.871ZM212.903,174.194L203.226,174.194L203.226,203.226L212.903,203.226L212.903,174.194ZM96.774,164.516L87.097,164.516L87.097,183.871L96.774,183.871L96.774,164.516ZM212.903,106.452L212.903,135.484L203.226,135.484L203.226,145.161L212.903,145.161L212.903,174.194L222.581,174.194L222.581,106.452L212.903,106.452ZM154.839,154.839L135.484,154.839L135.484,164.516L154.839,164.516L154.839,154.839ZM183.871,154.839L164.516,154.839L164.516,164.516L183.871,164.516L183.871,154.839ZM87.097,125.806L77.419,125.806L77.419,164.516L87.097,164.516L87.097,125.806ZM135.484,145.161L96.774,145.161L96.774,154.839L135.484,154.839L135.484,145.161ZM203.226,87.097L183.871,87.097L183.871,154.839L203.226,154.839L203.226,145.161L193.548,145.161L193.548,96.774L203.226,96.774L203.226,87.097ZM183.871,77.419L154.839,77.419L154.839,154.839L164.516,154.839L164.516,87.097L183.871,87.097L183.871,77.419ZM145.161,125.806L135.484,125.806L135.484,145.161L145.161,145.161L145.161,125.806ZM96.774,116.129L87.097,116.129L87.097,125.806L135.484,125.806L135.484,77.419L125.806,77.419L125.806,116.129L106.452,116.129L106.452,77.419L96.774,77.419L96.774,116.129ZM212.903,96.774L203.226,96.774L203.226,106.452L212.903,106.452L212.903,96.774ZM154.839,67.742L135.484,67.742L135.484,77.419L154.839,77.419L154.839,67.742ZM125.806,67.742L106.452,67.742L106.452,77.419L125.806,77.419L125.806,67.742Z"/>
    <defs>
        <linearGradient id="_Linear1" x1="0" y1="0" x2="1" y2="0" gradientUnits="userSpaceOnUse" gradientTransform="matrix(1.65327e-15,27,-27,1.65327e-15,15.5,2)"><stop offset="0" style="stop-color:rgb(255,0,0);stop-opacity:0.55"/><stop offset="0.14" style="stop-color:rgb(255,145,0);stop-opacity:0.55"/><stop offset="0.28" style="stop-color:rgb(255,221,0);stop-opacity:0.55"/><stop offset="0.42" style="stop-color:rgb(149,215,35);stop-opacity:0.55"/><stop offset="0.56" style="stop-color:rgb(0,149,255);stop-opacity:0.55"/><stop offset="0.7" style="stop-color:rgb(0,81,255);stop-opacity:0.55"/><stop offset="0.86" style="stop-color:rgb(140,0,255);stop-opacity:0.55"/><stop offset="1" style="stop-color:rgb(140,0,255);stop-opacity:0.55"/></linearGradient>
    </defs>
</svg>
