<?xml version="1.0" encoding="UTF-8" standalone="no"?>
<!DOCTYPE svg PUBLIC "-//W3C//DTD SVG 1.1//EN" "http://www.w3.org/Graphics/SVG/1.1/DTD/svg11.dtd">
<svg width="100%" height="100%" viewBox="0 0 827 532" version="1.1" xmlns="http://www.w3.org/2000/svg" xmlns:xlink="http://www.w3.org/1999/xlink" xml:space="preserve" xmlns:serif="http://www.serif.com/" style="fill-rule:evenodd;clip-rule:evenodd;stroke-linejoin:round;stroke-miterlimit:2;">
    <g id="Motive" transform="matrix(4.16667,0,0,4.16667,0,0)">
        <g transform="matrix(1,0,0,1,38.7945,127.559)">
            <path d="M0,-127.559L-0.671,-124.122L-5.185,-100.989L-21.551,-100.989L-22.221,-97.552L-28.581,-64.956L-29.57,-59.89L-23.454,-59.89L-23.461,-59.855L-24.449,-54.789L10.156,-54.789L8.481,-46.202L-0.185,-46.202L-0.855,-42.764L-7.215,-10.167L-8.204,-5.101L-2.088,-5.101L-2.095,-5.066L-3.083,0L126.18,0L126.851,-3.438L131.394,-26.719L142.386,-26.719L143.058,-30.157L149.418,-62.754L150.406,-67.82L144.291,-67.82L144.297,-67.854L145.285,-72.921L138.427,-72.921L141.92,-90.822L142.909,-95.889L136.793,-95.889L136.8,-95.923L137.788,-100.989L84.653,-100.989L87.854,-117.392L88.842,-122.458L82.726,-122.458L82.732,-122.493L83.722,-127.559L0,-127.559Z" style="fill:white;fill-rule:nonzero;"/>
        </g>
        <g transform="matrix(-1,0,0,1,47.4174,9.353)">
            <path d="M-68.697,32.596L6.36,32.596L0,0L-75.057,0L-68.697,32.596Z" style="fill:rgb(7,38,53);fill-rule:nonzero;"/>
        </g>
        <g transform="matrix(-1,0,0,1,25.8674,35.9227)">
            <path d="M-144.314,32.596L6.36,32.596L0,0L-150.674,0L-144.314,32.596Z" style="fill:rgb(7,38,53);fill-rule:nonzero;"/>
        </g>
        <g transform="matrix(-1,0,0,1,61.1116,63.9917)">
            <path d="M-116.567,32.596L6.36,32.596L0,0L-122.927,0L-116.567,32.596Z" style="fill:rgb(7,38,53);fill-rule:nonzero;"/>
        </g>
        <g transform="matrix(-1,0,0,1,47.2322,90.711)">
            <path d="M-114.24,32.596L6.36,32.596L-0.001,0L-120.6,0L-114.24,32.596Z" style="fill:rgb(7,38,53);fill-rule:nonzero;"/>
        </g>
        <g transform="matrix(-1,0,0,1,42.297,4.252)">
            <path d="M-68.697,32.596L6.36,32.596L0,0L-75.057,0L-68.697,32.596Z" style="fill:rgb(235,91,91);fill-rule:nonzero;"/>
        </g>
        <g transform="matrix(-1,0,0,1,20.7469,30.8216)">
            <path d="M-144.314,32.596L6.36,32.596L0,0L-150.674,0L-144.314,32.596Z" style="fill:rgb(235,91,91);fill-rule:nonzero;"/>
        </g>
        <g transform="matrix(-1,0,0,1,55.9911,58.8907)">
            <path d="M-116.567,32.596L6.36,32.596L0,0L-122.927,0L-116.567,32.596Z" style="fill:rgb(252,225,65);fill-rule:nonzero;"/>
        </g>
        <g transform="matrix(-1,0,0,1,42.1118,85.61)">
            <path d="M-114.24,32.596L6.36,32.596L-0.001,0L-120.6,0L-114.24,32.596Z" style="fill:rgb(252,225,65);fill-rule:nonzero;"/>
        </g>
        <g transform="matrix(1,0,0,1,48.245,10.54)">
            <path d="M0,14.853C-0.893,13.965 -1.338,12.839 -1.338,11.474C-1.338,11.14 -1.298,10.72 -1.218,10.212L3.153,10.212C3.122,10.529 3.107,10.783 3.107,10.974C3.107,11.418 3.222,11.763 3.452,12.009C3.683,12.256 4.005,12.379 4.42,12.379C4.882,12.379 5.223,12.203 5.447,11.854C5.559,11.632 5.615,11.378 5.615,11.092C5.615,10.775 5.567,10.529 5.472,10.355C5.28,10.038 4.89,9.729 4.3,9.427L2.867,8.665C1.912,8.142 1.233,7.539 0.837,6.857C0.422,6.143 0.215,5.253 0.215,4.19C0.215,3.063 0.462,2.071 0.955,1.215C1.402,0.437 2.047,-0.182 2.89,-0.642C3.735,-1.102 4.802,-1.333 6.094,-1.333C7.972,-1.333 9.354,-0.888 10.239,0.001C11.122,0.889 11.564,2.016 11.564,3.381C11.564,3.745 11.524,4.167 11.445,4.642L7.072,4.642C7.104,4.293 7.12,4.039 7.12,3.881C7.12,3.42 7.012,3.071 6.797,2.833C6.582,2.594 6.269,2.476 5.854,2.476C5.375,2.476 5.033,2.651 4.827,2.999C4.698,3.19 4.635,3.428 4.635,3.713C4.635,3.953 4.69,4.175 4.802,4.381C4.898,4.539 5.03,4.686 5.197,4.821C5.363,4.955 5.639,5.135 6.022,5.356L7.455,6.166C8.347,6.657 9.009,7.268 9.439,7.999C9.852,8.713 10.059,9.601 10.059,10.664C10.059,11.743 9.804,12.728 9.295,13.616C8.849,14.393 8.207,15.017 7.37,15.484C6.535,15.952 5.472,16.186 4.182,16.186C2.285,16.186 0.892,15.743 0,14.853" style="fill:rgb(7,38,53);fill-rule:nonzero;"/>
        </g>
        <g transform="matrix(1,0,0,1,61.2438,11.6599)">
            <path d="M0,14.115C-0.75,13.512 -1.123,12.656 -1.123,11.545C-1.123,11.226 -1.083,10.829 -1.003,10.354L-0.168,6.069L-1.96,6.069L-1.267,2.618L0.502,2.618L0.812,1L5.495,-0.905L4.802,2.618L10.25,2.618L9.58,6.069L4.133,6.069L3.273,10.449C3.24,10.64 3.225,10.766 3.225,10.829C3.225,11.226 3.408,11.425 3.775,11.425C4.173,11.425 4.435,11.155 4.563,10.615L5.017,8.187L9.15,8.187L8.674,10.64C8.132,13.559 6.347,15.02 3.32,15.02C1.855,15.02 0.748,14.718 0,14.115" style="fill:rgb(7,38,53);fill-rule:nonzero;"/>
        </g>
        <g transform="matrix(1,0,0,1,75.1492,17.134)">
            <path d="M0,6.308C0.143,6.419 0.295,6.474 0.453,6.474C0.788,6.474 1.043,6.32 1.218,6.011C1.393,5.7 1.52,5.363 1.6,4.998L1.743,4.261L1.075,4.38C0.708,4.443 0.413,4.586 0.192,4.809C-0.048,5.031 -0.167,5.348 -0.167,5.76C-0.167,6.014 -0.112,6.197 0,6.308M-3.728,8.784C-4.27,8.276 -4.54,7.513 -4.54,6.499C-4.54,5.26 -4.198,4.301 -3.513,3.618C-2.828,2.936 -1.792,2.499 -0.407,2.308L2.173,1.951L2.222,1.762C2.302,1.397 2.342,1.111 2.342,0.905C2.342,0.651 2.282,0.463 2.162,0.346C2.043,0.226 1.84,0.166 1.553,0.166C0.915,0.166 0.517,0.619 0.358,1.523L-3.967,1.523C-3.84,0.825 -3.628,0.146 -3.333,-0.511C-3.038,-1.17 -2.47,-1.79 -1.625,-2.369C-0.782,-2.947 0.39,-3.238 1.887,-3.238C5.057,-3.238 6.642,-1.991 6.642,0.5C6.642,0.945 6.595,1.428 6.499,1.951L5.065,9.164L1.147,9.164L2.748,6.285L2.15,6.285C1.56,7.442 0.96,8.276 0.347,8.784C-0.267,9.292 -0.98,9.546 -1.792,9.546C-2.605,9.546 -3.25,9.292 -3.728,8.784" style="fill:rgb(7,38,53);fill-rule:nonzero;"/>
        </g>
        <g transform="matrix(1,0,0,1,84.0862,25.9163)">
            <path d="M0,-11.638L4.252,-11.638L2.173,-8.234L2.772,-8.234C3.392,-9.219 3.922,-9.976 4.36,-10.507C4.798,-11.04 5.243,-11.424 5.699,-11.663C6.152,-11.9 6.665,-12.02 7.239,-12.02C8.004,-12.02 8.58,-11.809 8.972,-11.389C9.362,-10.969 9.557,-10.393 9.557,-9.664C9.557,-9.299 9.505,-8.83 9.402,-8.259C9.299,-7.688 9.07,-6.537 8.72,-4.807L4.42,-4.807C4.738,-6.204 4.897,-7.069 4.897,-7.402C4.897,-7.545 4.853,-7.668 4.767,-7.771C4.678,-7.874 4.538,-7.925 4.348,-7.925C4.093,-7.925 3.882,-7.831 3.715,-7.64C3.547,-7.449 3.432,-7.188 3.368,-6.854L1.958,0.382L-2.342,0.382L0,-11.638Z" style="fill:rgb(7,38,53);fill-rule:nonzero;"/>
        </g>
        <g transform="matrix(1,0,0,1,95.4115,11.6599)">
            <path d="M0,14.115C-0.75,13.512 -1.123,12.656 -1.123,11.545C-1.123,11.226 -1.083,10.829 -1.003,10.354L-0.168,6.069L-1.96,6.069L-1.267,2.618L0.502,2.618L0.812,1L5.495,-0.905L4.802,2.618L10.25,2.618L9.58,6.069L4.133,6.069L3.273,10.449C3.24,10.64 3.225,10.766 3.225,10.829C3.225,11.226 3.408,11.425 3.775,11.425C4.173,11.425 4.435,11.155 4.563,10.615L5.017,8.187L9.15,8.187L8.674,10.64C8.132,13.559 6.347,15.02 3.32,15.02C1.855,15.02 0.748,14.718 0,14.115" style="fill:rgb(7,38,53);fill-rule:nonzero;"/>
        </g>
        <g transform="matrix(1,0,0,1,28.7506,37.4187)">
            <path d="M0,15.665C-1.028,15.031 -1.78,14.078 -2.258,12.807C-2.562,11.984 -2.713,11.062 -2.713,10.046C-2.713,9.126 -2.625,8.138 -2.45,7.084C-2.275,6.028 -2.028,5.072 -1.708,4.215C-1.057,2.453 -0.143,1.153 1.027,0.311C2.197,-0.529 3.707,-0.951 5.555,-0.951C6.957,-0.951 8.112,-0.697 9.019,-0.188C9.927,0.32 10.592,0.99 11.014,1.822C11.437,2.656 11.647,3.572 11.647,4.572C11.647,4.843 11.615,5.214 11.552,5.691L6.797,5.691C6.86,5.326 6.894,5.009 6.894,4.738C6.845,3.723 6.312,3.215 5.292,3.215C4.623,3.215 4.077,3.438 3.655,3.881C3.233,4.326 2.887,5 2.615,5.905C2.457,6.461 2.308,7.159 2.173,8.001C2.038,8.841 1.97,9.492 1.97,9.952C1.97,10.491 2.05,10.943 2.21,11.308C2.353,11.69 2.563,11.976 2.843,12.165C3.122,12.356 3.435,12.45 3.787,12.45C4.328,12.45 4.758,12.241 5.077,11.82C5.395,11.399 5.642,10.785 5.817,9.975L10.572,9.975C9.554,14.403 7.235,16.616 3.618,16.616C2.233,16.616 1.027,16.299 0,15.665" style="fill:rgb(7,38,53);fill-rule:nonzero;"/>
        </g>
        <g transform="matrix(1,0,0,1,44.2461,45.2046)">
            <path d="M0,4.736C0.175,4.99 0.422,5.118 0.74,5.118C1.17,5.118 1.537,4.904 1.838,4.475C2.11,4.078 2.308,3.542 2.437,2.868C2.563,2.194 2.628,1.586 2.628,1.047C2.628,0.572 2.54,0.215 2.365,-0.024C2.205,-0.262 1.958,-0.381 1.623,-0.381C1.21,-0.381 0.852,-0.167 0.548,0.261C0.278,0.643 0.078,1.174 -0.048,1.857C-0.177,2.539 -0.24,3.142 -0.24,3.665C-0.24,4.127 -0.16,4.484 0,4.736M-1.96,8.271C-2.662,7.946 -3.218,7.491 -3.633,6.903C-4.222,6.046 -4.517,4.95 -4.517,3.619C-4.517,2.808 -4.402,1.923 -4.17,0.964C-3.94,0.004 -3.568,-0.85 -3.058,-1.595C-1.897,-3.214 -0.255,-4.023 1.863,-4.023C2.818,-4.023 3.647,-3.86 4.348,-3.534C5.048,-3.209 5.599,-2.761 5.997,-2.189C6.585,-1.364 6.88,-0.262 6.88,1.118C6.88,1.943 6.769,2.832 6.547,3.785C6.324,4.736 5.949,5.578 5.424,6.308C4.308,7.942 2.675,8.759 0.525,8.759C-0.43,8.759 -1.26,8.596 -1.96,8.271" style="fill:rgb(7,38,53);fill-rule:nonzero;"/>
        </g>
        <g transform="matrix(1,0,0,1,56.0498,45.2046)">
            <path d="M0,4.736C0.175,4.99 0.422,5.118 0.74,5.118C1.17,5.118 1.537,4.904 1.838,4.475C2.11,4.078 2.308,3.542 2.437,2.868C2.563,2.194 2.628,1.586 2.628,1.047C2.628,0.572 2.54,0.215 2.365,-0.024C2.205,-0.262 1.958,-0.381 1.623,-0.381C1.21,-0.381 0.852,-0.167 0.548,0.261C0.278,0.643 0.078,1.174 -0.048,1.857C-0.177,2.539 -0.24,3.142 -0.24,3.665C-0.24,4.127 -0.16,4.484 0,4.736M-1.96,8.271C-2.662,7.946 -3.218,7.491 -3.633,6.903C-4.222,6.046 -4.517,4.95 -4.517,3.619C-4.517,2.808 -4.402,1.923 -4.17,0.964C-3.94,0.004 -3.568,-0.85 -3.058,-1.595C-1.897,-3.214 -0.255,-4.023 1.863,-4.023C2.818,-4.023 3.647,-3.86 4.348,-3.534C5.048,-3.209 5.599,-2.761 5.997,-2.189C6.585,-1.364 6.88,-0.262 6.88,1.118C6.88,1.943 6.769,2.832 6.547,3.785C6.324,4.736 5.949,5.578 5.424,6.308C4.308,7.942 2.675,8.759 0.525,8.759C-0.43,8.759 -1.26,8.596 -1.96,8.271" style="fill:rgb(7,38,53);fill-rule:nonzero;"/>
        </g>
        <g transform="matrix(1,0,0,1,68.3551,49.2745)">
            <path d="M0,0.5C0.175,0.723 0.422,0.834 0.74,0.834C1.153,0.834 1.512,0.62 1.815,0.191C2.07,-0.158 2.257,-0.634 2.377,-1.238C2.497,-1.841 2.557,-2.387 2.557,-2.881C2.557,-3.372 2.477,-3.712 2.317,-3.903C2.158,-4.142 1.918,-4.26 1.6,-4.26C1.17,-4.26 0.803,-4.046 0.502,-3.618C0.262,-3.269 0.078,-2.784 -0.048,-2.167C-0.177,-1.547 -0.24,-0.999 -0.24,-0.523C-0.24,-0.063 -0.16,0.278 0,0.5M-3.202,-7.712L1.098,-7.712L-0.622,-4.88L-0.025,-4.88C0.677,-6.102 1.293,-6.942 1.827,-7.403C2.36,-7.863 3.002,-8.093 3.75,-8.093C4.787,-8.093 5.575,-7.704 6.117,-6.927C6.642,-6.165 6.905,-5.054 6.905,-3.595C6.905,-2.53 6.762,-1.413 6.475,-0.237C6.189,0.937 5.759,1.936 5.185,2.761C4.292,4.047 3.162,4.689 1.792,4.689C0.995,4.689 0.353,4.395 -0.132,3.809C-0.618,3.221 -0.917,2.356 -1.028,1.214L-1.625,1.214L-1.243,4.309L-2.08,8.593L-6.38,8.593L-3.202,-7.712Z" style="fill:rgb(7,38,53);fill-rule:nonzero;"/>
        </g>
        <g transform="matrix(1,0,0,1,82.5706,49.0374)">
            <path d="M0,-2.929C0.063,-3.166 0.095,-3.42 0.095,-3.691C0.095,-4.023 0.015,-4.277 -0.143,-4.452C-0.303,-4.626 -0.533,-4.714 -0.837,-4.714C-1.378,-4.714 -1.817,-4.468 -2.15,-3.977C-2.358,-3.675 -2.517,-3.326 -2.628,-2.929L0,-2.929ZM-4.397,4.427C-5.065,4.093 -5.6,3.641 -5.999,3.07C-6.587,2.213 -6.882,1.117 -6.882,-0.214C-6.882,-1.025 -6.767,-1.91 -6.535,-2.869C-6.305,-3.829 -5.934,-4.682 -5.424,-5.428C-4.262,-7.047 -2.668,-7.855 -0.645,-7.855C0.9,-7.855 2.015,-7.439 2.7,-6.607C3.385,-5.773 3.727,-4.706 3.727,-3.404C3.727,-2.547 3.6,-1.516 3.345,-0.311L-3.058,-0.311L-3.058,-0.025C-3.058,0.579 -2.963,1.014 -2.772,1.285C-2.613,1.539 -2.365,1.665 -2.032,1.665C-1.553,1.665 -1.195,1.332 -0.957,0.666L3.273,0.666C2.843,1.982 2.218,3.022 1.397,3.784C0.577,4.546 -0.622,4.926 -2.198,4.926C-2.995,4.926 -3.728,4.76 -4.397,4.427" style="fill:rgb(7,38,53);fill-rule:nonzero;"/>
        </g>
        <g transform="matrix(1,0,0,1,88.5208,53.2032)">
            <path d="M0,-11.641L4.252,-11.641L2.173,-8.237L2.772,-8.237C3.392,-9.22 3.922,-9.979 4.36,-10.51C4.798,-11.042 5.243,-11.427 5.699,-11.664C6.152,-11.903 6.665,-12.021 7.239,-12.021C8.004,-12.021 8.58,-11.812 8.972,-11.39C9.362,-10.97 9.557,-10.396 9.557,-9.665C9.557,-9.3 9.505,-8.832 9.402,-8.26C9.299,-7.689 9.07,-6.539 8.72,-4.808L4.42,-4.808C4.738,-6.205 4.897,-7.07 4.897,-7.404C4.897,-7.546 4.853,-7.669 4.767,-7.772C4.678,-7.875 4.538,-7.928 4.348,-7.928C4.093,-7.928 3.882,-7.832 3.715,-7.641C3.547,-7.452 3.432,-7.189 3.368,-6.856L1.958,0.38L-2.342,0.38L0,-11.641Z" style="fill:rgb(7,38,53);fill-rule:nonzero;"/>
        </g>
        <g transform="matrix(1,0,0,1,102.068,44.4199)">
            <path d="M0,6.306C0.143,6.417 0.295,6.474 0.453,6.474C0.788,6.474 1.043,6.319 1.218,6.009C1.393,5.7 1.52,5.363 1.6,4.998L1.743,4.26L1.075,4.378C0.708,4.443 0.413,4.586 0.192,4.807C-0.048,5.029 -0.167,5.346 -0.167,5.76C-0.167,6.014 -0.112,6.196 0,6.306M-3.728,8.782C-4.27,8.275 -4.54,7.513 -4.54,6.497C-4.54,5.26 -4.198,4.3 -3.513,3.616C-2.828,2.935 -1.792,2.499 -0.407,2.308L2.173,1.951L2.222,1.76C2.302,1.396 2.342,1.109 2.342,0.903C2.342,0.649 2.282,0.463 2.162,0.344C2.043,0.226 1.84,0.166 1.553,0.166C0.915,0.166 0.517,0.617 0.358,1.522L-3.967,1.522C-3.84,0.823 -3.628,0.146 -3.333,-0.513C-3.038,-1.171 -2.47,-1.79 -1.625,-2.37C-0.782,-2.949 0.39,-3.238 1.887,-3.238C5.057,-3.238 6.642,-1.993 6.642,0.498C6.642,0.943 6.595,1.428 6.499,1.951L5.065,9.164L1.147,9.164L2.748,6.283L2.15,6.283C1.56,7.442 0.96,8.275 0.347,8.782C-0.267,9.29 -0.98,9.544 -1.792,9.544C-2.605,9.544 -3.25,9.29 -3.728,8.782" style="fill:rgb(7,38,53);fill-rule:nonzero;"/>
        </g>
        <g transform="matrix(1,0,0,1,111.292,38.9438)">
            <path d="M0,14.115C-0.75,13.512 -1.123,12.656 -1.123,11.545C-1.123,11.228 -1.083,10.831 -1.003,10.354L-0.168,6.07L-1.96,6.07L-1.267,2.618L0.502,2.618L0.812,1L5.495,-0.905L4.802,2.618L10.25,2.618L9.58,6.07L4.133,6.07L3.273,10.451C3.24,10.64 3.225,10.768 3.225,10.831C3.225,11.228 3.408,11.425 3.775,11.425C4.173,11.425 4.435,11.156 4.563,10.617L5.017,8.189L9.15,8.189L8.674,10.64C8.132,13.56 6.347,15.02 3.32,15.02C1.855,15.02 0.748,14.718 0,14.115" style="fill:rgb(7,38,53);fill-rule:nonzero;"/>
        </g>
        <g transform="matrix(1,0,0,1,123.55,53.5834)">
            <path d="M0,-16.662L4.397,-16.662L3.703,-13.212L-0.693,-13.212L0,-16.662ZM-0.86,-12.021L3.44,-12.021L1.075,0L-3.227,0L-0.86,-12.021Z" style="fill:rgb(7,38,53);fill-rule:nonzero;"/>
        </g>
        <g transform="matrix(1,0,0,1,127.779,53.5832)">
            <path d="M0,-12.021L4.348,-12.021L4.015,-4.237L3.775,-2.761L4.348,-2.761L4.66,-4.237L7.432,-12.021L11.899,-12.021L7.24,0L-0.095,0L0,-12.021Z" style="fill:rgb(7,38,53);fill-rule:nonzero;"/>
        </g>
        <g transform="matrix(1,0,0,1,145.292,49.0374)">
            <path d="M0,-2.929C0.063,-3.166 0.095,-3.42 0.095,-3.691C0.095,-4.023 0.015,-4.277 -0.143,-4.452C-0.303,-4.626 -0.533,-4.714 -0.837,-4.714C-1.378,-4.714 -1.817,-4.468 -2.15,-3.977C-2.358,-3.675 -2.517,-3.326 -2.628,-2.929L0,-2.929ZM-4.397,4.427C-5.065,4.093 -5.6,3.641 -5.999,3.07C-6.587,2.213 -6.882,1.117 -6.882,-0.214C-6.882,-1.025 -6.767,-1.91 -6.535,-2.869C-6.305,-3.829 -5.934,-4.682 -5.423,-5.428C-4.262,-7.047 -2.668,-7.855 -0.645,-7.855C0.9,-7.855 2.015,-7.439 2.7,-6.607C3.385,-5.773 3.727,-4.706 3.727,-3.404C3.727,-2.547 3.6,-1.516 3.345,-0.311L-3.058,-0.311L-3.058,-0.025C-3.058,0.579 -2.963,1.014 -2.772,1.285C-2.613,1.539 -2.365,1.665 -2.032,1.665C-1.553,1.665 -1.195,1.332 -0.957,0.666L3.273,0.666C2.843,1.982 2.218,3.022 1.397,3.784C0.577,4.546 -0.622,4.926 -2.198,4.926C-2.995,4.926 -3.728,4.76 -4.397,4.427" style="fill:rgb(7,38,53);fill-rule:nonzero;"/>
        </g>
        <g transform="matrix(1,0,0,1,149.999,42.2528)">
            <path d="M0,10.64C-0.702,9.926 -1.052,9.101 -1.052,8.164C-1.052,7.91 -1.027,7.688 -0.98,7.499L3.01,7.499C2.978,7.688 2.963,7.839 2.963,7.95C2.963,8.156 3.027,8.327 3.153,8.462C3.282,8.598 3.465,8.664 3.703,8.664C3.958,8.664 4.15,8.601 4.277,8.473C4.405,8.347 4.468,8.149 4.468,7.879C4.468,7.625 4.405,7.422 4.277,7.271C4.15,7.122 3.903,6.951 3.537,6.76L2.318,6.188C1.49,5.808 0.892,5.368 0.527,4.868C0.16,4.367 -0.023,3.738 -0.023,2.976C-0.023,1.833 0.327,0.913 1.028,0.214C1.855,-0.642 3.13,-1.071 4.85,-1.071C6.429,-1.071 7.59,-0.73 8.339,-0.048C9.089,0.634 9.462,1.468 9.462,2.451C9.462,2.705 9.439,2.927 9.39,3.118L5.4,3.118C5.432,2.959 5.449,2.801 5.449,2.642C5.449,2.419 5.377,2.25 5.233,2.13C5.09,2.011 4.907,1.951 4.683,1.951C4.428,1.951 4.237,2.016 4.11,2.142C3.998,2.253 3.943,2.419 3.943,2.642C3.943,2.833 4.002,2.999 4.122,3.142C4.242,3.284 4.46,3.436 4.778,3.595L6.069,4.189C6.914,4.603 7.515,5.063 7.874,5.569C8.232,6.077 8.41,6.728 8.41,7.522C8.41,8.759 8.06,9.728 7.36,10.426C6.467,11.283 5.185,11.711 3.513,11.711C1.872,11.711 0.702,11.354 0,10.64" style="fill:rgb(7,38,53);fill-rule:nonzero;"/>
        </g>
        <g transform="matrix(1,0,0,1,67.7597,78.404)">
            <path d="M0,-8.334L-3.895,-8.334L-3.082,-12.498L9.247,-12.498L8.435,-8.334L4.54,-8.334L2.103,4.164L-2.437,4.164L0,-8.334Z" style="fill:rgb(7,38,53);fill-rule:nonzero;"/>
        </g>
        <g transform="matrix(1,0,0,1,75.8833,82.1875)">
            <path d="M0,-11.641L4.252,-11.641L2.173,-8.237L2.772,-8.237C3.392,-9.22 3.922,-9.979 4.36,-10.51C4.798,-11.042 5.243,-11.427 5.699,-11.664C6.152,-11.903 6.665,-12.021 7.239,-12.021C8.004,-12.021 8.58,-11.812 8.972,-11.39C9.362,-10.97 9.557,-10.396 9.557,-9.665C9.557,-9.3 9.505,-8.832 9.402,-8.26C9.299,-7.689 9.07,-6.539 8.72,-4.808L4.42,-4.808C4.738,-6.205 4.897,-7.07 4.897,-7.404C4.897,-7.546 4.853,-7.669 4.767,-7.772C4.678,-7.875 4.538,-7.928 4.348,-7.928C4.093,-7.928 3.882,-7.832 3.715,-7.641C3.547,-7.452 3.432,-7.189 3.368,-6.856L1.958,0.38L-2.342,0.38L0,-11.641Z" style="fill:rgb(7,38,53);fill-rule:nonzero;"/>
        </g>
        <g transform="matrix(1,0,0,1,89.432,73.4042)">
            <path d="M0,6.306C0.143,6.417 0.295,6.474 0.453,6.474C0.788,6.474 1.043,6.319 1.218,6.009C1.393,5.7 1.52,5.363 1.6,4.998L1.743,4.26L1.075,4.378C0.708,4.443 0.413,4.586 0.192,4.807C-0.048,5.029 -0.167,5.346 -0.167,5.76C-0.167,6.014 -0.112,6.196 0,6.306M-3.728,8.782C-4.27,8.275 -4.54,7.513 -4.54,6.497C-4.54,5.26 -4.198,4.3 -3.513,3.616C-2.828,2.935 -1.792,2.499 -0.407,2.308L2.173,1.951L2.222,1.76C2.302,1.396 2.342,1.109 2.342,0.903C2.342,0.649 2.282,0.463 2.162,0.344C2.043,0.226 1.84,0.166 1.553,0.166C0.915,0.166 0.517,0.617 0.358,1.522L-3.967,1.522C-3.84,0.823 -3.628,0.146 -3.333,-0.513C-3.038,-1.171 -2.47,-1.79 -1.625,-2.37C-0.782,-2.949 0.39,-3.238 1.887,-3.238C5.057,-3.238 6.642,-1.993 6.642,0.498C6.642,0.943 6.595,1.428 6.499,1.951L5.065,9.164L1.147,9.164L2.748,6.283L2.15,6.283C1.56,7.442 0.96,8.275 0.347,8.782C-0.267,9.29 -0.98,9.544 -1.792,9.544C-2.605,9.544 -3.25,9.29 -3.728,8.782" style="fill:rgb(7,38,53);fill-rule:nonzero;"/>
        </g>
        <g transform="matrix(1,0,0,1,98.369,82.1875)">
            <path d="M0,-11.641L4.3,-11.641L2.58,-8.808L3.177,-8.808C3.925,-9.951 4.603,-10.773 5.208,-11.272C5.814,-11.772 6.522,-12.021 7.335,-12.021C8.259,-12.021 8.944,-11.756 9.39,-11.224C9.835,-10.693 10.059,-9.974 10.059,-9.071C10.059,-8.657 10.01,-8.221 9.915,-7.761L8.339,0.38L4.037,0.38L5.4,-6.618C5.447,-6.841 5.472,-7.038 5.472,-7.213C5.472,-7.801 5.192,-8.094 4.635,-8.094C3.965,-8.094 3.527,-7.578 3.32,-6.547L1.958,0.38L-2.342,0.38L0,-11.641Z" style="fill:rgb(7,38,53);fill-rule:nonzero;"/>
        </g>
        <g transform="matrix(1,0,0,1,109.334,71.237)">
            <path d="M0,10.64C-0.702,9.926 -1.052,9.101 -1.052,8.164C-1.052,7.91 -1.027,7.688 -0.98,7.499L3.01,7.499C2.978,7.688 2.963,7.839 2.963,7.95C2.963,8.156 3.027,8.327 3.153,8.462C3.282,8.598 3.465,8.664 3.703,8.664C3.958,8.664 4.15,8.601 4.277,8.473C4.405,8.347 4.468,8.149 4.468,7.879C4.468,7.625 4.405,7.422 4.277,7.271C4.15,7.122 3.903,6.951 3.537,6.76L2.318,6.188C1.49,5.808 0.892,5.368 0.527,4.868C0.16,4.367 -0.023,3.738 -0.023,2.976C-0.023,1.833 0.327,0.913 1.028,0.214C1.855,-0.642 3.13,-1.071 4.85,-1.071C6.429,-1.071 7.59,-0.73 8.339,-0.048C9.089,0.634 9.462,1.468 9.462,2.451C9.462,2.705 9.439,2.927 9.39,3.118L5.4,3.118C5.432,2.959 5.449,2.801 5.449,2.642C5.449,2.419 5.377,2.25 5.233,2.13C5.09,2.011 4.907,1.951 4.683,1.951C4.428,1.951 4.237,2.016 4.11,2.142C3.998,2.253 3.943,2.419 3.943,2.642C3.943,2.833 4.002,2.999 4.122,3.142C4.242,3.284 4.46,3.436 4.778,3.595L6.069,4.189C6.914,4.603 7.515,5.063 7.874,5.569C8.232,6.077 8.41,6.728 8.41,7.522C8.41,8.759 8.06,9.728 7.36,10.426C6.467,11.283 5.185,11.711 3.513,11.711C1.872,11.711 0.702,11.354 0,10.64" style="fill:rgb(7,38,53);fill-rule:nonzero;"/>
        </g>
        <g transform="matrix(1,0,0,1,121.15,70.6662)">
            <path d="M0,11.782C-0.677,11.448 -1.215,10.997 -1.613,10.425C-2.202,9.569 -2.497,8.473 -2.497,7.141C-2.497,6.331 -2.382,5.446 -2.15,4.486C-1.92,3.527 -1.548,2.673 -1.038,1.928C0.123,0.309 1.765,-0.5 3.883,-0.5C5.54,-0.5 6.747,-0.08 7.504,0.762C8.259,1.602 8.639,2.681 8.639,3.998C8.639,4.157 8.622,4.38 8.59,4.666L4.385,4.666C4.417,4.38 4.432,4.197 4.432,4.118C4.4,3.815 4.308,3.578 4.158,3.404C4.007,3.229 3.803,3.141 3.548,3.141C3.357,3.141 3.17,3.193 2.987,3.296C2.803,3.4 2.657,3.546 2.545,3.737C2.273,4.101 2.078,4.626 1.96,5.308C1.84,5.991 1.78,6.617 1.78,7.188C1.78,7.696 1.86,8.061 2.02,8.284C2.163,8.521 2.37,8.641 2.64,8.641C2.943,8.641 3.19,8.498 3.382,8.212C3.572,7.927 3.723,7.521 3.835,6.998L8.017,6.998C7.699,8.616 7.089,9.902 6.189,10.854C5.288,11.805 3.987,12.282 2.282,12.282C1.438,12.282 0.677,12.116 0,11.782" style="fill:rgb(7,38,53);fill-rule:nonzero;"/>
        </g>
        <g transform="matrix(1,0,0,1,136.717,78.0217)">
            <path d="M0,-2.929C0.063,-3.166 0.095,-3.42 0.095,-3.691C0.095,-4.023 0.015,-4.277 -0.143,-4.452C-0.303,-4.626 -0.533,-4.714 -0.837,-4.714C-1.378,-4.714 -1.817,-4.468 -2.15,-3.977C-2.358,-3.675 -2.517,-3.326 -2.628,-2.929L0,-2.929ZM-4.397,4.427C-5.065,4.093 -5.6,3.641 -5.999,3.07C-6.587,2.213 -6.882,1.117 -6.882,-0.214C-6.882,-1.025 -6.767,-1.91 -6.535,-2.869C-6.305,-3.829 -5.934,-4.682 -5.423,-5.428C-4.262,-7.047 -2.668,-7.855 -0.645,-7.855C0.9,-7.855 2.015,-7.439 2.7,-6.607C3.385,-5.773 3.727,-4.706 3.727,-3.404C3.727,-2.547 3.6,-1.516 3.345,-0.311L-3.058,-0.311L-3.058,-0.025C-3.058,0.579 -2.963,1.014 -2.772,1.285C-2.613,1.539 -2.365,1.665 -2.032,1.665C-1.553,1.665 -1.195,1.332 -0.957,0.666L3.273,0.666C2.843,1.982 2.218,3.022 1.397,3.784C0.577,4.546 -0.622,4.926 -2.198,4.926C-2.995,4.926 -3.728,4.76 -4.397,4.427" style="fill:rgb(7,38,53);fill-rule:nonzero;"/>
        </g>
        <g transform="matrix(1,0,0,1,142.667,82.1875)">
            <path d="M0,-11.641L4.3,-11.641L2.58,-8.808L3.177,-8.808C3.925,-9.951 4.603,-10.773 5.208,-11.272C5.814,-11.772 6.522,-12.021 7.335,-12.021C8.259,-12.021 8.944,-11.756 9.39,-11.224C9.835,-10.693 10.059,-9.974 10.059,-9.071C10.059,-8.657 10.01,-8.221 9.915,-7.761L8.339,0.38L4.037,0.38L5.4,-6.618C5.447,-6.841 5.472,-7.038 5.472,-7.213C5.472,-7.801 5.192,-8.094 4.635,-8.094C3.965,-8.094 3.527,-7.578 3.32,-6.547L1.958,0.38L-2.342,0.38L0,-11.641Z" style="fill:rgb(7,38,53);fill-rule:nonzero;"/>
        </g>
        <g transform="matrix(1,0,0,1,157.672,70.0948)">
            <path d="M0,8.664C0.175,8.886 0.422,8.998 0.74,8.998C1.155,8.998 1.513,8.784 1.815,8.355C2.07,8.006 2.258,7.53 2.377,6.926C2.497,6.323 2.557,5.777 2.557,5.283C2.557,4.792 2.477,4.452 2.317,4.261C2.158,4.022 1.918,3.904 1.6,3.904C1.17,3.904 0.803,4.118 0.502,4.546C0.263,4.895 0.08,5.38 -0.048,5.997C-0.175,6.617 -0.238,7.165 -0.238,7.641C-0.238,8.101 -0.16,8.441 0,8.664M-3.8,11.663C-4.31,10.934 -4.563,9.83 -4.563,8.355C-4.563,7.276 -4.42,6.148 -4.133,4.975C-3.847,3.801 -3.417,2.801 -2.843,1.976C-1.968,0.706 -0.837,0.071 0.55,0.071C1.345,0.071 1.987,0.365 2.473,0.951C2.958,1.539 3.257,2.396 3.368,3.522L3.967,3.522L3.583,0.452L4.468,-4.189L8.769,-4.189L5.52,12.473L1.242,12.473L2.938,9.615L2.342,9.615C1.64,10.854 1.023,11.703 0.49,12.162C-0.045,12.622 -0.685,12.853 -1.433,12.853C-2.47,12.853 -3.258,12.456 -3.8,11.663" style="fill:rgb(7,38,53);fill-rule:nonzero;"/>
        </g>
        <g transform="matrix(1,0,0,1,48.8828,93.6869)">
            <path d="M0,15.665C-1.028,15.031 -1.78,14.078 -2.258,12.807C-2.562,11.984 -2.713,11.062 -2.713,10.046C-2.713,9.126 -2.625,8.138 -2.45,7.084C-2.275,6.028 -2.028,5.072 -1.708,4.215C-1.057,2.453 -0.143,1.153 1.027,0.311C2.197,-0.529 3.707,-0.951 5.555,-0.951C6.957,-0.951 8.112,-0.697 9.019,-0.188C9.927,0.32 10.592,0.99 11.014,1.822C11.437,2.656 11.647,3.572 11.647,4.572C11.647,4.843 11.615,5.214 11.552,5.691L6.797,5.691C6.86,5.326 6.894,5.009 6.894,4.738C6.845,3.723 6.312,3.215 5.292,3.215C4.623,3.215 4.077,3.438 3.655,3.881C3.233,4.326 2.887,5 2.615,5.905C2.457,6.461 2.308,7.159 2.173,8.001C2.038,8.841 1.97,9.492 1.97,9.952C1.97,10.491 2.05,10.943 2.21,11.308C2.353,11.69 2.563,11.976 2.843,12.165C3.122,12.356 3.435,12.45 3.787,12.45C4.328,12.45 4.758,12.241 5.077,11.82C5.395,11.399 5.642,10.785 5.817,9.975L10.572,9.975C9.554,14.403 7.235,16.616 3.618,16.616C2.233,16.616 1.027,16.299 0,15.665" style="fill:rgb(7,38,53);fill-rule:nonzero;"/>
        </g>
        <g transform="matrix(1,0,0,1,64.1867,100.688)">
            <path d="M0,6.306C0.143,6.417 0.295,6.474 0.453,6.474C0.788,6.474 1.043,6.319 1.218,6.009C1.393,5.7 1.52,5.363 1.6,4.998L1.743,4.26L1.075,4.378C0.708,4.443 0.413,4.586 0.192,4.807C-0.048,5.029 -0.167,5.346 -0.167,5.76C-0.167,6.014 -0.112,6.196 0,6.306M-3.728,8.782C-4.27,8.275 -4.54,7.513 -4.54,6.497C-4.54,5.26 -4.198,4.3 -3.513,3.616C-2.828,2.935 -1.792,2.499 -0.407,2.308L2.173,1.951L2.222,1.76C2.302,1.396 2.342,1.109 2.342,0.903C2.342,0.649 2.282,0.463 2.162,0.344C2.043,0.226 1.84,0.166 1.553,0.166C0.915,0.166 0.517,0.617 0.358,1.522L-3.967,1.522C-3.84,0.823 -3.628,0.146 -3.333,-0.513C-3.038,-1.171 -2.47,-1.79 -1.625,-2.37C-0.782,-2.949 0.39,-3.238 1.887,-3.238C5.057,-3.238 6.642,-1.993 6.642,0.498C6.642,0.943 6.595,1.428 6.499,1.951L5.065,9.164L1.147,9.164L2.748,6.283L2.15,6.283C1.56,7.442 0.96,8.275 0.347,8.782C-0.267,9.29 -0.98,9.544 -1.792,9.544C-2.605,9.544 -3.25,9.29 -3.728,8.782" style="fill:rgb(7,38,53);fill-rule:nonzero;"/>
        </g>
        <g transform="matrix(1,0,0,1,76.3254,105.543)">
            <path d="M0,0.5C0.175,0.722 0.422,0.834 0.74,0.834C1.153,0.834 1.512,0.62 1.815,0.191C2.07,-0.158 2.257,-0.634 2.377,-1.238C2.497,-1.841 2.557,-2.387 2.557,-2.881C2.557,-3.372 2.477,-3.712 2.317,-3.903C2.158,-4.142 1.918,-4.26 1.6,-4.26C1.17,-4.26 0.803,-4.046 0.502,-3.618C0.262,-3.269 0.078,-2.784 -0.048,-2.167C-0.177,-1.547 -0.24,-0.999 -0.24,-0.523C-0.24,-0.063 -0.16,0.278 0,0.5M-3.202,-7.712L1.098,-7.712L-0.622,-4.88L-0.025,-4.88C0.677,-6.102 1.293,-6.942 1.827,-7.403C2.36,-7.863 3.002,-8.093 3.75,-8.093C4.787,-8.093 5.575,-7.704 6.117,-6.927C6.642,-6.165 6.905,-5.054 6.905,-3.595C6.905,-2.53 6.762,-1.413 6.475,-0.237C6.189,0.937 5.758,1.936 5.185,2.761C4.292,4.047 3.162,4.689 1.792,4.689C0.995,4.689 0.353,4.395 -0.132,3.809C-0.618,3.221 -0.917,2.356 -1.028,1.214L-1.625,1.214L-1.243,4.309L-2.08,8.593L-6.38,8.593L-3.202,-7.712Z" style="fill:rgb(7,38,53);fill-rule:nonzero;"/>
        </g>
        <g transform="matrix(1,0,0,1,86.3357,109.852)">
            <path d="M0,-16.662L4.397,-16.662L3.703,-13.212L-0.693,-13.212L0,-16.662ZM-0.86,-12.021L3.44,-12.021L1.075,0L-3.227,0L-0.86,-12.021Z" style="fill:rgb(7,38,53);fill-rule:nonzero;"/>
        </g>
        <g transform="matrix(1,0,0,1,91.8075,95.212)">
            <path d="M0,14.115C-0.75,13.512 -1.123,12.656 -1.123,11.545C-1.123,11.228 -1.083,10.831 -1.003,10.354L-0.168,6.07L-1.96,6.07L-1.267,2.618L0.502,2.618L0.812,1L5.495,-0.905L4.802,2.618L10.25,2.618L9.58,6.07L4.133,6.07L3.273,10.451C3.24,10.64 3.225,10.768 3.225,10.831C3.225,11.228 3.408,11.425 3.775,11.425C4.173,11.425 4.435,11.156 4.563,10.617L5.017,8.189L9.15,8.189L8.674,10.64C8.132,13.56 6.347,15.02 3.32,15.02C1.855,15.02 0.748,14.718 0,14.115" style="fill:rgb(7,38,53);fill-rule:nonzero;"/>
        </g>
        <g transform="matrix(1,0,0,1,105.715,100.688)">
            <path d="M0,6.306C0.143,6.417 0.295,6.474 0.453,6.474C0.788,6.474 1.043,6.319 1.218,6.009C1.393,5.7 1.52,5.363 1.6,4.998L1.743,4.26L1.075,4.378C0.708,4.443 0.413,4.586 0.192,4.807C-0.048,5.029 -0.167,5.346 -0.167,5.76C-0.167,6.014 -0.112,6.196 0,6.306M-3.728,8.782C-4.27,8.275 -4.54,7.513 -4.54,6.497C-4.54,5.26 -4.198,4.3 -3.513,3.616C-2.828,2.935 -1.792,2.499 -0.407,2.308L2.173,1.951L2.222,1.76C2.302,1.396 2.342,1.109 2.342,0.903C2.342,0.649 2.282,0.463 2.162,0.344C2.043,0.226 1.84,0.166 1.553,0.166C0.915,0.166 0.517,0.617 0.358,1.522L-3.967,1.522C-3.84,0.823 -3.628,0.146 -3.333,-0.513C-3.038,-1.171 -2.47,-1.79 -1.625,-2.37C-0.782,-2.949 0.39,-3.238 1.887,-3.238C5.057,-3.238 6.642,-1.993 6.642,0.498C6.642,0.943 6.595,1.428 6.499,1.951L5.065,9.164L1.147,9.164L2.748,6.283L2.15,6.283C1.56,7.442 0.96,8.275 0.347,8.782C-0.267,9.29 -0.98,9.544 -1.792,9.544C-2.605,9.544 -3.25,9.29 -3.728,8.782" style="fill:rgb(7,38,53);fill-rule:nonzero;"/>
        </g>
        <g transform="matrix(1,0,0,1,115.535,109.852)">
            <path d="M0,-16.662L4.302,-16.662L1.052,0L-3.25,0L0,-16.662Z" style="fill:rgb(7,38,53);fill-rule:nonzero;"/>
        </g>
        <g transform="matrix(1,0,0,1,121.483,109.852)">
            <path d="M0,-16.662L4.397,-16.662L3.703,-13.212L-0.693,-13.212L0,-16.662ZM-0.86,-12.021L3.44,-12.021L1.075,0L-3.227,0L-0.86,-12.021Z" style="fill:rgb(7,38,53);fill-rule:nonzero;"/>
        </g>
        <g transform="matrix(1,0,0,1,125.354,98.5209)">
            <path d="M0,10.64C-0.702,9.926 -1.052,9.101 -1.052,8.164C-1.052,7.91 -1.027,7.688 -0.98,7.499L3.01,7.499C2.978,7.688 2.963,7.839 2.963,7.95C2.963,8.156 3.027,8.327 3.153,8.462C3.282,8.598 3.465,8.664 3.703,8.664C3.958,8.664 4.15,8.601 4.277,8.473C4.405,8.347 4.468,8.149 4.468,7.879C4.468,7.625 4.405,7.422 4.277,7.271C4.15,7.122 3.903,6.951 3.537,6.76L2.318,6.188C1.49,5.808 0.892,5.368 0.527,4.868C0.16,4.367 -0.023,3.738 -0.023,2.976C-0.023,1.833 0.327,0.913 1.028,0.214C1.855,-0.642 3.13,-1.071 4.85,-1.071C6.429,-1.071 7.59,-0.73 8.339,-0.048C9.089,0.634 9.462,1.468 9.462,2.451C9.462,2.705 9.439,2.927 9.39,3.118L5.4,3.118C5.432,2.959 5.449,2.801 5.449,2.642C5.449,2.419 5.377,2.25 5.234,2.13C5.09,2.011 4.907,1.951 4.683,1.951C4.428,1.951 4.237,2.016 4.11,2.142C3.998,2.253 3.943,2.419 3.943,2.642C3.943,2.833 4.002,2.999 4.122,3.142C4.242,3.284 4.46,3.436 4.778,3.595L6.069,4.189C6.914,4.603 7.515,5.063 7.874,5.569C8.232,6.077 8.41,6.728 8.41,7.522C8.41,8.759 8.06,9.728 7.36,10.426C6.467,11.283 5.185,11.711 3.513,11.711C1.872,11.711 0.702,11.354 0,10.64" style="fill:rgb(7,38,53);fill-rule:nonzero;"/>
        </g>
        <g transform="matrix(1,0,0,1,136.489,109.471)">
            <path d="M0,-11.641L4.3,-11.641L2.628,-8.808L3.225,-8.808C3.878,-9.951 4.48,-10.773 5.028,-11.272C5.579,-11.772 6.235,-12.021 7,-12.021C7.59,-12.021 8.032,-11.867 8.327,-11.558C8.62,-11.247 8.769,-10.824 8.769,-10.284C8.769,-9.823 8.674,-9.331 8.482,-8.808L9.079,-8.808C9.892,-10.95 11.11,-12.021 12.735,-12.021C13.674,-12.021 14.347,-11.772 14.754,-11.272C15.16,-10.773 15.364,-10.07 15.364,-9.165C15.364,-8.642 15.299,-8.038 15.172,-7.356L13.667,0.38L9.365,0.38L10.775,-6.856C10.824,-7.095 10.847,-7.309 10.847,-7.498C10.847,-7.706 10.804,-7.857 10.715,-7.952C10.629,-8.046 10.472,-8.094 10.25,-8.094C9.724,-8.094 9.39,-7.721 9.247,-6.975L7.812,0.38L3.512,0.38L4.922,-6.856C4.968,-7.095 4.993,-7.309 4.993,-7.498C4.993,-7.706 4.948,-7.857 4.862,-7.952C4.773,-8.046 4.618,-8.094 4.395,-8.094C3.87,-8.094 3.535,-7.721 3.392,-6.975L1.958,0.38L-2.342,0.38L0,-11.641Z" style="fill:rgb(7,38,53);fill-rule:nonzero;"/>
        </g>
    </g>
</svg>
