<?xml version="1.0" encoding="UTF-8" standalone="no"?>
<!DOCTYPE svg PUBLIC "-//W3C//DTD SVG 1.1//EN" "http://www.w3.org/Graphics/SVG/1.1/DTD/svg11.dtd">
<svg width="100%" height="100%" viewBox="0 0 473 473" version="1.1" xmlns="http://www.w3.org/2000/svg" xmlns:xlink="http://www.w3.org/1999/xlink" xml:space="preserve" xmlns:serif="http://www.serif.com/" style="fill-rule:evenodd;clip-rule:evenodd;stroke-linejoin:round;stroke-miterlimit:2;">
    <g id="Motive" transform="matrix(4.19148,0,0,4.19148,-0.00478942,-2.80896)">
        <g transform="matrix(0.252219,0,0,0.252219,-8.58795,-9.18003)">
            <circle cx="257.5" cy="262.5" r="222.5" style="fill:rgb(235,91,91);"/>
        </g>
        <g transform="matrix(1.13702,0,0,1.13702,28.413,37.2247)">
            <path d="M0,-1.273C0.636,-1.273 1.107,-1.532 1.414,-2.051C1.626,-2.427 1.856,-3.476 2.104,-5.197C2.351,-6.917 2.475,-8.036 2.475,-8.555C2.475,-8.837 2.404,-9.085 2.262,-9.297C2.074,-9.65 1.732,-9.827 1.237,-9.827L1.061,-9.827L-0.141,-1.273L0,-1.273ZM-2.545,-13.008L1.626,-13.008C2.616,-13.008 3.476,-12.808 4.207,-12.408C4.937,-12.007 5.491,-11.453 5.868,-10.746C6.268,-10.086 6.469,-9.344 6.469,-8.52C6.469,-7.506 6.315,-6.133 6.009,-4.401C5.703,-2.669 5.349,-1.461 4.949,-0.778C3.912,0.989 2.286,1.873 0.071,1.873L-0.565,1.873L-1.944,11.735L-6.009,11.735L-2.545,-13.008Z" style="fill:white;fill-rule:nonzero;"/>
        </g>
        <g transform="matrix(1.13702,0,0,1.13702,38.1392,50.5672)">
            <path d="M0,-24.743L7.882,-24.743L7.353,-20.926L3.535,-20.926L2.616,-14.28L6.15,-14.28L5.585,-10.463L2.085,-10.463L1.131,-3.817L4.949,-3.817L4.418,0L-3.464,0L0,-24.743Z" style="fill:white;fill-rule:nonzero;"/>
        </g>
        <g transform="matrix(1.13702,0,0,1.13702,50.1156,26.2914)">
            <path d="M0,17.957C0.118,18.193 0.294,18.311 0.53,18.311C0.813,18.311 1.061,18.123 1.272,17.745C1.461,17.274 1.926,14.44 2.668,9.244C3.411,4.048 3.782,1.132 3.782,0.496C3.782,0.283 3.758,0.119 3.711,0C3.665,-0.093 3.594,-0.176 3.5,-0.247C3.405,-0.317 3.299,-0.353 3.182,-0.353C2.875,-0.353 2.639,-0.164 2.475,0.213C2.262,0.685 1.786,3.512 1.043,8.696C0.301,13.881 -0.071,16.803 -0.071,17.462C-0.071,17.674 -0.047,17.839 0,17.957M-2.421,20.962C-3.164,20.514 -3.676,19.878 -3.959,19.053C-4.1,18.629 -4.171,18.099 -4.171,17.462C-4.171,16.685 -3.994,14.93 -3.641,12.195C-3.287,9.462 -2.893,6.799 -2.457,4.207C-2.021,1.615 -1.685,0.013 -1.449,-0.6C-1.049,-1.613 -0.477,-2.379 0.265,-2.898C1.008,-3.416 2.049,-3.676 3.393,-3.676C4.477,-3.676 5.385,-3.451 6.116,-3.004C6.846,-2.556 7.352,-1.92 7.635,-1.095C7.799,-0.694 7.883,-0.164 7.883,0.496C7.883,1.273 7.706,3.029 7.352,5.762C6.999,8.496 6.604,11.159 6.168,13.751C5.733,16.343 5.397,17.946 5.161,18.558C4.76,19.572 4.182,20.338 3.428,20.856C2.674,21.374 1.625,21.633 0.283,21.633C-0.777,21.633 -1.679,21.409 -2.421,20.962" style="fill:white;fill-rule:nonzero;"/>
        </g>
        <g transform="matrix(1.13702,0,0,1.13702,64.6243,37.2247)">
            <path d="M0,-1.273C0.637,-1.273 1.107,-1.532 1.414,-2.051C1.626,-2.427 1.855,-3.476 2.104,-5.197C2.351,-6.917 2.475,-8.036 2.475,-8.555C2.475,-8.837 2.403,-9.085 2.263,-9.297C2.073,-9.65 1.732,-9.827 1.237,-9.827L1.061,-9.827L-0.142,-1.273L0,-1.273ZM-2.545,-13.008L1.626,-13.008C2.616,-13.008 3.476,-12.808 4.206,-12.408C4.937,-12.007 5.49,-11.453 5.868,-10.746C6.269,-10.086 6.469,-9.344 6.469,-8.52C6.469,-7.506 6.315,-6.133 6.009,-4.401C5.703,-2.669 5.35,-1.461 4.949,-0.778C3.911,0.989 2.285,1.873 0.071,1.873L-0.565,1.873L-1.944,11.735L-6.009,11.735L-2.545,-13.008Z" style="fill:white;fill-rule:nonzero;"/>
        </g>
        <g transform="matrix(1.13702,0,0,1.13702,74.35,50.5672)">
            <path d="M0,-24.743L4.065,-24.743L1.131,-3.817L5.09,-3.817L4.524,0L-3.464,0L0,-24.743Z" style="fill:white;fill-rule:nonzero;"/>
        </g>
        <g transform="matrix(1.13702,0,0,1.13702,84.7996,50.5672)">
            <path d="M0,-24.743L7.883,-24.743L7.353,-20.926L3.535,-20.926L2.616,-14.28L6.15,-14.28L5.585,-10.463L2.086,-10.463L1.131,-3.817L4.948,-3.817L4.419,0L-3.464,0L0,-24.743Z" style="fill:white;fill-rule:nonzero;"/>
        </g>
        <g transform="matrix(1.13702,0,0,1.13702,28.0405,79.4253)">
            <path d="M0,-1.273C0.636,-1.273 1.107,-1.532 1.414,-2.05C1.626,-2.427 1.856,-3.476 2.104,-5.197C2.351,-6.917 2.475,-8.036 2.475,-8.555C2.475,-8.837 2.404,-9.085 2.262,-9.297C2.074,-9.651 1.732,-9.828 1.237,-9.828L1.061,-9.828L-0.141,-1.273L0,-1.273ZM-2.545,-13.008L1.626,-13.008C2.616,-13.008 3.476,-12.808 4.207,-12.408C4.937,-12.006 5.491,-11.454 5.868,-10.747C6.268,-10.086 6.469,-9.344 6.469,-8.519C6.469,-7.505 6.315,-6.133 6.009,-4.401C5.703,-2.669 5.349,-1.461 4.949,-0.778C3.912,0.989 2.286,1.873 0.071,1.873L-0.565,1.873L-1.944,11.735L-6.009,11.735L-2.545,-13.008Z" style="fill:white;fill-rule:nonzero;"/>
        </g>
        <g transform="matrix(1.13702,0,0,1.13702,41.0224,80.5903)">
            <path d="M0,-3.323C0.589,-3.323 1.025,-3.57 1.308,-4.065C1.472,-4.371 1.667,-5.285 1.891,-6.804C2.115,-8.325 2.227,-9.284 2.227,-9.685C2.227,-9.921 2.167,-10.121 2.05,-10.286C1.838,-10.663 1.508,-10.852 1.061,-10.852L0.777,-10.852L-0.283,-3.323L0,-3.323ZM-2.863,-14.033L1.449,-14.033C3.381,-14.033 4.795,-13.302 5.691,-11.842C6.044,-11.181 6.221,-10.499 6.221,-9.792C6.221,-8.802 6.109,-7.558 5.885,-6.062C5.661,-4.565 5.361,-3.487 4.984,-2.828C4.441,-1.909 3.452,-1.32 2.015,-1.06L2.015,-0.495L3.676,-0.071L3.57,10.71L-0.248,10.71L-0.248,0.707L-0.849,0.707L-2.262,10.71L-6.327,10.71L-2.863,-14.033Z" style="fill:white;fill-rule:nonzero;"/>
        </g>
        <g transform="matrix(1.13702,0,0,1.13702,52.1948,68.4932)">
            <path d="M0,17.956C0.117,18.192 0.295,18.31 0.529,18.31C0.812,18.31 1.061,18.121 1.271,17.744C1.461,17.273 1.926,14.439 2.668,9.243C3.41,4.047 3.781,1.131 3.781,0.494C3.781,0.282 3.758,0.118 3.711,0C3.664,-0.095 3.594,-0.177 3.5,-0.248C3.404,-0.318 3.299,-0.354 3.182,-0.354C2.875,-0.354 2.639,-0.165 2.475,0.212C2.262,0.684 1.785,3.511 1.043,8.695C0.301,13.88 -0.07,16.802 -0.07,17.461C-0.07,17.674 -0.049,17.839 0,17.956M-2.422,20.961C-3.164,20.514 -3.677,19.877 -3.959,19.052C-4.101,18.628 -4.171,18.098 -4.171,17.461C-4.171,16.684 -3.995,14.929 -3.641,12.194C-3.288,9.461 -2.894,6.799 -2.457,4.206C-2.021,1.614 -1.686,0.012 -1.45,-0.602C-1.049,-1.614 -0.479,-2.38 0.266,-2.898C1.008,-3.417 2.049,-3.677 3.393,-3.677C4.477,-3.677 5.385,-3.452 6.115,-3.005C6.846,-2.557 7.352,-1.921 7.635,-1.096C7.799,-0.695 7.883,-0.165 7.883,0.494C7.883,1.272 7.705,3.028 7.352,5.762C6.998,8.495 6.604,11.158 6.168,13.75C5.732,16.343 5.396,17.944 5.16,18.558C4.76,19.57 4.182,20.337 3.428,20.854C2.674,21.373 1.625,21.633 0.283,21.633C-0.777,21.633 -1.679,21.408 -2.422,20.961" style="fill:white;fill-rule:nonzero;"/>
        </g>
        <g transform="matrix(1.13702,0,0,1.13702,63.8093,92.7678)">
            <path d="M0,-24.743L7.883,-24.743L7.353,-20.926L3.535,-20.926L2.616,-14.28L6.15,-14.28L5.585,-10.463L2.086,-10.463L0.601,0L-3.464,0L0,-24.743Z" style="fill:white;fill-rule:nonzero;"/>
        </g>
        <g transform="matrix(1.13702,0,0,1.13702,74.2989,92.7678)">
            <path d="M0,-24.743L4.065,-24.743L0.601,0L-3.464,0L0,-24.743Z" style="fill:white;fill-rule:nonzero;"/>
        </g>
        <g transform="matrix(1.13702,0,0,1.13702,82.6577,88.4282)">
            <path d="M0,-17.109L-2.65,-17.109L-2.12,-20.926L7.282,-20.926L6.752,-17.109L4.065,-17.109L1.132,3.817L-2.934,3.817L0,-17.109Z" style="fill:white;fill-rule:nonzero;"/>
        </g>
        <g transform="matrix(-1.13502,0.0673176,0.0673176,1.13502,28.7992,51.9975)">
            <path d="M-40.701,15.328L2.826,15.328L-0.454,-1.206L-43.981,-1.206L-40.701,15.328Z" style="fill:rgb(30,30,28);fill-rule:nonzero;"/>
        </g>
        <g transform="matrix(1.13702,0,0,1.13702,33.3634,56.7072)">
            <path d="M0,5.061C0.314,5.803 0.796,6.37 1.446,6.756C2.095,7.144 2.858,7.311 3.737,7.259C4.786,7.197 5.684,6.84 6.432,6.19C7.179,5.54 7.704,4.7 8.003,3.669C8.176,3.038 8.242,2.377 8.202,1.689C8.166,1.09 8.037,0.526 7.815,-0.001C7.501,-0.744 7.019,-1.31 6.37,-1.696C5.721,-2.084 4.952,-2.251 4.063,-2.199C3.015,-2.136 2.116,-1.779 1.369,-1.129C0.621,-0.479 0.102,0.361 -0.188,1.39C-0.364,1.971 -0.43,2.631 -0.386,3.371C-0.348,4.01 -0.22,4.573 0,5.061M0.928,7.403C0.134,6.934 -0.445,6.255 -0.809,5.365C-1.053,4.788 -1.196,4.16 -1.236,3.482C-1.281,2.712 -1.202,1.945 -0.997,1.183C-0.657,-0.01 -0.042,-0.979 0.845,-1.722C1.733,-2.466 2.811,-2.875 4.079,-2.95C5.157,-3.014 6.091,-2.812 6.88,-2.343C7.669,-1.874 8.25,-1.194 8.625,-0.305C8.858,0.262 8.996,0.891 9.037,1.579C9.082,2.348 9.002,3.114 8.797,3.877C8.457,5.071 7.843,6.039 6.956,6.783C6.068,7.528 4.995,7.936 3.737,8.01C2.659,8.075 1.722,7.873 0.928,7.403" style="fill:rgb(235,91,91);fill-rule:nonzero;"/>
        </g>
        <g transform="matrix(1.13702,0,0,1.13702,44.9123,64.383)">
            <path d="M0,-9.852L0.823,-9.901L2.962,-0.695L2.999,-0.081L3.164,-0.09L3.322,-0.715L7.923,-10.322L8.836,-10.376L3.572,0.457L2.433,0.524L0,-9.852Z" style="fill:rgb(235,91,91);fill-rule:nonzero;"/>
        </g>
        <g transform="matrix(1.13702,0,0,1.13702,56.8315,64.139)">
            <path d="M0,-10.259L5.812,-10.604L5.705,-9.846L0.688,-9.548L0.139,-5.399L5.006,-5.687L4.9,-4.928L0.032,-4.64L-0.516,-0.459L4.501,-0.757L4.396,0L-1.415,0.345L0,-10.259Z" style="fill:rgb(235,91,91);fill-rule:nonzero;"/>
        </g>
        <g transform="matrix(1.13702,0,0,1.13702,69.0778,58.3713)">
            <path d="M0,-0.97C0.659,-1.009 1.212,-1.145 1.659,-1.377C2.106,-1.61 2.429,-1.927 2.625,-2.328C2.796,-2.649 2.87,-3.014 2.846,-3.423C2.824,-3.783 2.725,-4.103 2.548,-4.384C2.175,-4.922 1.54,-5.165 0.642,-5.112L-1.83,-4.965L-2.381,-0.829L0,-0.97ZM-2.518,-5.676L0.627,-5.862C1.236,-5.898 1.764,-5.827 2.21,-5.647C2.656,-5.469 3.001,-5.192 3.244,-4.815C3.484,-4.478 3.62,-4.046 3.651,-3.516C3.683,-2.987 3.591,-2.511 3.375,-2.088C3.116,-1.572 2.682,-1.154 2.074,-0.838C1.467,-0.521 0.699,-0.336 -0.229,-0.282L-0.395,-0.272L-0.384,-0.091L-0.057,0.1L2.642,4.539L1.743,4.592L-1.095,-0.169L-2.473,-0.088L-3.14,4.882L-3.934,4.928L-2.518,-5.676Z" style="fill:rgb(235,91,91);fill-rule:nonzero;"/>
        </g>
    </g>
</svg>
