<svg width="217" height="227" viewBox="0 0 217 227" fill="none" xmlns="http://www.w3.org/2000/svg">
<path fill-rule="evenodd" clip-rule="evenodd" d="M14.6198 112.085C14.5104 111.343 14.5678 104.031 14.5678 102.621V45.7208C14.5678 45.6355 14.5699 45.5504 14.5745 45.4653C14.9772 37.7865 20.3435 30.6964 29.8563 25.0109C42.0114 17.7461 61.24 12.4306 82.7178 9.68851C114.491 5.63176 151.185 7.13433 176.557 15.4494C195.178 21.5521 207.744 31.6132 209.979 44.9124C210.024 45.1796 210.046 45.4499 210.046 45.7208V100.303C209.684 105.658 207.952 106.92 205.997 106.834C204.47 106.766 203.058 106.73 200.401 101.57C197.909 96.7305 194.41 91.9169 187.991 88.0763C176.905 81.4442 160.463 76.8494 142.169 74.4939C118.769 71.4808 92.3439 72.1749 69.9143 77.3845C96.3738 81.2397 140.495 82.7719 167.654 92.37C183.646 98.0212 193.914 106.775 194.546 118.843C194.55 118.928 194.553 119.013 194.553 119.098V182.95C194.294 188.384 192.515 191.756 192.253 192.294C187.989 201.058 177.154 207.639 163.697 212.006C135.127 221.278 94.9081 221.569 94.9081 221.569C92.9425 221.582 91.159 220.424 90.3762 218.626C89.5933 216.828 89.9622 214.738 91.3135 213.315L119.407 183.723L92.0805 164.827C90.3325 163.619 89.5649 161.424 90.1797 159.394C90.7944 157.363 92.6516 155.959 94.7785 155.917C113.301 155.547 126.791 154.251 137.944 151.994C118.244 147.354 95.7253 145.685 75.6565 143.241C57.121 140.985 40.5887 138.007 29.6978 131.997C21.2565 127.338 15.9201 120.911 14.6198 112.085Z" fill="#FFE141"/>
<path fill-rule="evenodd" clip-rule="evenodd" d="M19.474 102.621C45.8132 52.4149 194.553 60.9112 205.14 100.303V45.7208C196.877 -3.45508 21.5398 6.32859 19.474 45.7208V102.621Z" fill="#0A2A46"/>
<path fill-rule="evenodd" clip-rule="evenodd" d="M56.1424 79.7061C40.1322 85.3704 24.8968 94.6391 19.474 111.374C26.1879 156.946 168.73 120.901 189.646 182.95V119.098C187.839 84.598 87.9044 88.2025 56.1424 79.7061Z" fill="#0A2A46"/>
<path fill-rule="evenodd" clip-rule="evenodd" d="M187.839 190.159C183.707 171.106 168.988 160.035 150.654 153.856C136.968 157.976 120.699 160.293 94.8766 160.808L126.897 182.95L94.8766 216.678C94.8766 216.678 175.185 216.163 187.839 190.159Z" fill="#0A2A46"/>
<path d="M67.8644 130.696L63.3812 129.218L60.3185 125.527L58.7189 119.101L58.3118 108.34L58.7592 97.8589L60.4092 92.1156L63.5801 89.3913L68.2384 89.0109L72.862 90.6684L75.9706 94.2381L77.5326 100.274L77.7885 110.446L77.1576 120.695L75.4354 126.686L72.34 129.877L67.8644 130.696ZM64.4201 109.061L64.4634 115.789L64.9118 119.541C65.3598 121.074 66.224 122.344 67.9572 122.484C69.6402 122.621 70.5319 121.524 71.0198 120.065L71.5887 116.451L71.7771 109.849L71.7666 103.292L71.2829 99.6664C70.8122 98.1237 69.9134 96.9298 68.2147 96.7068C66.5467 96.4877 65.5863 97.3625 65.0648 98.8743L64.5591 102.422L64.4201 109.061Z" fill="#FFE141" stroke="#0A2A46" stroke-miterlimit="2" stroke-linejoin="round"/>
<path d="M85.3847 131.391L84.9155 131.151L84.6794 130.578L80.8271 92.3658L80.7936 92.0784L81.7131 91.2524L85.8973 91.6812L86.3799 91.9124L86.6192 92.4476L88.8246 116.813L88.9305 117.127L89.1172 117.265L89.4325 116.868L93.0678 93.0658L93.8297 92.4327L97.7728 92.7873L98.4751 93.5607L100.444 117.916L100.547 118.229L100.732 118.369L101.047 117.977L104.847 94.1377L105.122 93.6309L105.61 93.4831L109.694 93.8532C110.493 93.9269 110.575 94.5522 110.462 95.207L104.404 132.58L104.149 133.122L103.677 133.27L98.1217 132.629L97.6559 132.375L97.4227 131.786L95.4851 109.574L95.1971 109.062L95.0219 109.165L94.8766 109.514L91.6641 131.207L91.4086 131.74L90.9337 131.896L85.3847 131.391Z" fill="#FFE141" stroke="#0A2A46" stroke-miterlimit="2" stroke-linejoin="round"/>
<path d="M113.11 134.544L112.592 134.15L112.382 133.372L113.93 95.2456L114.196 94.5734L114.743 94.3309L119.422 94.8044L120.27 95.8068L124.213 115.98L124.497 116.332L124.775 115.944L125.802 96.5537L126.071 95.8588L126.612 95.6153L130.811 96.15L131.309 96.5324L131.485 97.2996L129.87 136.411L129.639 137.15L129.115 137.376L124.494 136.46L123.612 135.305L119.34 114.41L119.018 114.06L118.739 114.45L118.095 134.245L117.859 134.966L117.331 135.202L113.11 134.544Z" fill="#FFE141" stroke="#0A2A46" stroke-miterlimit="2" stroke-linejoin="round"/>
<path d="M135.668 138.83L135.148 138.367L134.93 137.515L136.499 98.0455L136.766 97.3291L137.3 97.0898L150.337 99.5217L150.82 99.9711L150.991 100.814L150.649 107.253L150.39 108.041L149.867 108.278L142.032 106.518L141.635 107.037L141.336 112.97L141.672 113.663L149.244 115.451L149.737 115.956L149.919 116.888L149.677 123.815L149.432 124.64L148.91 124.881L141.295 122.995L140.907 123.536L140.716 130.483L141.073 131.185L149.18 133.3L149.691 133.821L149.904 134.756L149.907 141.502L149.694 142.275L149.177 142.474L135.668 138.83Z" fill="#FFE141" stroke="#0A2A46" stroke-miterlimit="2" stroke-linejoin="round"/>
<path d="M154.984 144.339L154.455 143.798L154.217 142.87L155.284 101.851L155.54 101.098L156.056 100.88L163.403 102.949C166.885 104.025 168.766 107.083 169.888 110.297L171.45 117.925L171.833 128.276L171.327 138.295L169.65 144.685C168.114 147.681 165.784 148.31 162.731 147.135L154.984 144.339ZM159.799 135.805L160.166 136.571L162.549 137.421C164.182 138.017 165.018 136.861 165.497 135.496L166.063 131.923L166.248 126.05L166.241 120.155L165.793 116.202C165.423 114.73 164.691 112.813 163.022 112.255L160.715 111.504L160.334 112.011L159.799 135.805Z" fill="#FFE141" stroke="#0A2A46" stroke-miterlimit="2" stroke-linejoin="round"/>
<path d="M29.5489 81.5387L29.1396 81.5083L28.885 80.7784C26.3159 62.3633 26.4326 63.2323 25.4991 44.6253L25.4823 44.2203L26.2305 42.1769L29.7148 39.6015L30.1322 39.6053L30.3259 40.2536L31.8239 62.4219L31.9247 62.6264L32.0998 62.6236L32.3917 62.0641L36.4377 36.5869L37.2313 35.115L41.3829 33.0803L42.1331 33.7808L44.0078 56.1527L44.1309 56.372L44.3473 56.3906L44.7121 55.8605L49.4586 30.7929L49.7933 29.9178L50.3824 29.428L55.4349 27.7349C56.5612 27.3819 56.5253 28.4906 56.4187 29.1825C49.5918 68.1359 49.5127 68.0509 49.3779 70.1327L49.1149 71.1107L48.5528 71.6436L42.0281 74.3235L41.4884 74.2411L41.1766 73.4924L38.5109 52.0343L38.2125 51.7842L38.0255 51.9803L37.8669 52.3627C35.5562 64.762 35.095 78.5519 35.1602 76.6019L34.9664 77.6199L34.5274 78.2136L29.5489 81.5387Z" fill="#FFE141" stroke="#0A2A46" stroke-miterlimit="2" stroke-linejoin="round"/>
<path d="M72.1542 66.276C69.9724 66.7116 67.759 66.6885 65.6875 65.7907C63.8324 64.9877 62.3656 63.6802 61.2811 61.9891L59.0268 55.6363L58.7277 46.4704L59.857 37.395L62.3745 30.5763L66.6931 25.3131C68.5254 23.8066 70.5813 22.8404 72.9128 22.383C75.0167 21.971 77.1651 22.0097 79.1724 22.831C80.926 23.5481 82.3786 24.7101 83.4565 26.2634L85.6134 32.0393L85.9439 40.9104L85.1983 50.4493L82.9336 57.7213L78.5955 63.2281C76.7138 64.8011 74.5588 65.7967 72.1542 66.276ZM66.8474 44.3718L66.7822 50.0979L67.4078 53.4388C68.2807 55.2638 69.8771 55.6887 71.7579 55.3187C73.8587 54.9062 75.2901 53.6788 76.1047 51.7202L76.8753 48.0859L77.1627 42.2728L77.27 36.6952L76.6875 33.5969C75.8575 31.8769 74.2609 31.5651 72.5283 31.9227C70.4909 32.3439 69.0195 33.5019 68.1298 35.3712L67.2798 38.7601L66.8474 44.3718Z" fill="#FFE141" stroke="#0A2A46" stroke-miterlimit="2" stroke-linejoin="round"/>
<path d="M94.425 61.9088L93.5673 61.5266L93.1463 60.4957C92.522 50.2187 92.8608 50.5557 93.17 21.6556L93.517 20.7253L94.3103 20.2607L106.72 19.4216C109.147 19.3206 111.457 19.7994 113.566 21.0232C115.499 22.1451 117.048 23.7066 118.141 25.6525C119.24 27.6078 119.763 29.7088 119.775 31.9464L118.381 37.408L114.348 41.7662L113.716 42.785L113.968 43.6281L120.453 58.1386L120.719 59.2424C120.784 60.0345 120.559 60.6702 119.646 60.6718L112.88 60.7693L111.222 59.527L104.822 44.7595L104.048 44.289L102.221 44.3997L101.637 45.0076L102.229 59.7397L101.944 60.8244L101.141 61.3439L94.425 61.9088ZM101.676 35.9551L102.251 36.4461L106.518 36.1898L109.452 34.9365L110.638 32.1154L109.523 29.2651L106.604 28.2724L102.381 28.528L101.795 29.1223L101.676 35.9551Z" fill="#FFE141" stroke="#0A2A46" stroke-miterlimit="2" stroke-linejoin="round"/>
<path d="M128.556 60.8064L127.689 60.3276L127.243 59.2732L125.845 20.5856L126.156 19.751L126.936 19.4165L133.303 19.7688L134.103 20.1851L134.477 21.0432L134.889 34.8647L135.068 35.2239L135.412 35.3797L135.859 35.1409L143.569 21.3044L144.785 20.8655L151.221 21.7623L152.062 22.2109L152.407 23.0915L152.243 23.7994L143.57 38.4199L143.266 39.2583L143.63 40.1689L154.547 60.573L154.867 61.6863L154.68 62.7037L153.89 62.9875L147.146 62.1196L145.582 60.8493L136.098 43.1421L135.63 42.8279L135.293 42.9466L135.135 43.3042L136.196 59.6889L135.945 60.7052L135.176 61.1069L128.556 60.8064Z" fill="#FFE141" stroke="#0A2A46" stroke-miterlimit="2" stroke-linejoin="round"/>
<path d="M160.592 64.0964L159.821 63.5209L159.405 62.4429L157.151 23.9148L157.405 23.1764L158.098 22.9723L175.418 27.4474L176.07 27.985L176.394 28.8377L176.742 34.7428L176.511 35.4017L175.902 35.5203L165.768 32.7502L165.302 33.1736L165.527 38.4303L166.04 39.0825L175.791 41.7303L176.425 42.2548L176.716 43.1025L176.937 49.2353L176.706 49.9527L176.103 50.0975L166.395 47.4077L165.934 47.8701L166.333 54.6204L166.867 55.369L177.053 58.265L177.686 58.8538L178.005 59.8431L178.606 67.3105L178.446 68.2282L177.887 68.4598L160.592 64.0964Z" fill="#FFE141" stroke="#0A2A46" stroke-miterlimit="2" stroke-linejoin="round"/>
<path d="M184.279 70.8787L183.695 70.2154L183.37 69.116L181.576 30.737L181.774 30.0858L182.332 30.0001L190.783 34.0325L194.926 37.9963L197.425 43.8285L198.129 50.4917L197.325 55.536L195.295 58.5425L194.97 59.3635L195.086 60.3349L197.888 77.0606L198.001 78.1712L197.595 79.0615L194.658 76.6355L193.834 74.8961L190.182 58.0391L189.724 57.256L188.634 56.6745L188.292 57.084L189.029 71.7738L188.901 72.6591L188.448 72.8351L184.279 70.8787ZM188.118 47.6286L188.492 48.3601L191.074 49.7344L192.749 49.5646L193.404 47.1518L192.746 43.9129L190.996 41.8386L188.353 40.4631L187.993 40.8089L188.118 47.6286Z" fill="#FFE141" stroke="#0A2A46" stroke-miterlimit="2" stroke-linejoin="round"/>
</svg>
