<svg width="239" height="110" viewBox="0 0 239 110" fill="none" xmlns="http://www.w3.org/2000/svg">
<path fill-rule="evenodd" clip-rule="evenodd" d="M213.595 6H25.4055C24.5155 17.0599 16.3138 25.8825 6 26.9017V83.0983C16.3138 84.1175 24.5155 92.9401 25.4055 104H213.595C214.484 92.9401 222.686 84.1175 233 83.0983V26.9017C222.686 25.8825 214.484 17.0599 213.595 6Z" fill="#C3C3FE"/>
<path fill-rule="evenodd" clip-rule="evenodd" d="M19.8689 0H219.131L219.575 5.51876C220.256 13.9796 226.448 20.225 233.59 20.9307L239 21.4653V88.5347L233.59 89.0692C226.448 89.775 220.256 96.0204 219.575 104.481L219.131 110H19.8689L19.4248 104.481C18.744 96.0204 12.5521 89.775 5.40999 89.0692L0 88.5347V21.4653L5.40999 20.9308C12.5521 20.225 18.744 13.9796 19.4248 5.51876L19.8689 0ZM6 26.9017C16.3138 25.8825 24.5155 17.0599 25.4055 6H213.595C214.484 17.0599 222.686 25.8825 233 26.9017V83.0983C222.686 84.1175 214.484 92.9401 213.595 104H25.4055C24.5155 92.9401 16.3138 84.1175 6 83.0983V26.9017Z" fill="#C3C3FE"/>
<mask id="path-3-inside-1_69_192" fill="white">
<path fill-rule="evenodd" clip-rule="evenodd" d="M213.595 6H25.4055C24.5155 17.0599 16.3138 25.8825 6 26.9017V83.0983C16.3138 84.1175 24.5155 92.9401 25.4055 104H213.595C214.484 92.9401 222.686 84.1175 233 83.0983V26.9017C222.686 25.8825 214.484 17.0599 213.595 6Z"/>
</mask>
<path fill-rule="evenodd" clip-rule="evenodd" d="M213.595 6H25.4055C24.5155 17.0599 16.3138 25.8825 6 26.9017V83.0983C16.3138 84.1175 24.5155 92.9401 25.4055 104H213.595C214.484 92.9401 222.686 84.1175 233 83.0983V26.9017C222.686 25.8825 214.484 17.0599 213.595 6Z" fill="#C3C3FE"/>
<path d="M25.4055 6V4H23.56L23.4119 5.83959L25.4055 6ZM213.595 6L215.588 5.83959L215.44 4H213.595V6ZM6 26.9017L5.80333 24.9114L4 25.0896V26.9017H6ZM6 83.0983H4V84.9104L5.80333 85.0886L6 83.0983ZM25.4055 104L23.4119 104.16L23.56 106H25.4055V104ZM213.595 104V106H215.44L215.588 104.16L213.595 104ZM233 83.0983L233.197 85.0886L235 84.9104V83.0983H233ZM233 26.9017H235V25.0896L233.197 24.9114L233 26.9017ZM25.4055 8H213.595V4H25.4055V8ZM6.19667 28.892C17.5677 27.7684 26.4394 18.0867 27.3991 6.16041L23.4119 5.83959C22.5917 16.0332 15.0599 23.9967 5.80333 24.9114L6.19667 28.892ZM8 83.0983V26.9017H4V83.0983H8ZM5.80333 85.0886C15.0599 86.0033 22.5917 93.9668 23.4119 104.16L27.3991 103.84C26.4394 91.9133 17.5677 82.2316 6.19667 81.108L5.80333 85.0886ZM213.595 102H25.4055V106H213.595V102ZM232.803 81.108C221.432 82.2316 212.561 91.9133 211.601 103.84L215.588 104.16C216.408 93.9668 223.94 86.0033 233.197 85.0886L232.803 81.108ZM231 26.9017V83.0983H235V26.9017H231ZM211.601 6.16041C212.561 18.0867 221.432 27.7684 232.803 28.892L233.197 24.9114C223.94 23.9967 216.408 16.0332 215.588 5.83959L211.601 6.16041Z" fill="#41415D" mask="url(#path-3-inside-1_69_192)"/>
<path d="M54.537 38.35L57.687 21.235H61.152L56.322 45H51.772L46.662 21.235H51.212L54.537 38.35ZM63.4844 21.235H67.4044V45H63.4844V21.235ZM70.978 45V21.235H74.898V41.185H81.233V45H70.978ZM83.6327 45V21.235H87.5527V41.185H93.8877V45H83.6327ZM94.8173 45L100.207 21.235H105.142L110.112 45H105.492L104.547 40.03H99.4373L98.4223 45H94.8173ZM102.027 26.24L99.8573 36.81H104.127L102.027 26.24ZM122.447 45V41.745C121.887 43.845 120.487 45.35 117.337 45.35C114.222 45.35 111.772 43.075 111.772 38.28V27.99C111.772 23.16 114.572 20.885 118.457 20.885C122.412 20.885 124.862 23.16 124.862 27.99V29.04L121.537 29.285V28.375C121.537 25.75 120.312 24.665 118.632 24.665C116.952 24.665 115.692 25.75 115.692 28.375V37.825C115.692 40.485 116.952 41.57 118.667 41.57C120.382 41.57 121.607 40.065 121.607 37.405V35.55H118.247V32.61H125.107V45H122.447ZM128.262 45V21.235H139.182V25.015H132.182V31.28H137.362V34.535H132.182V41.185H139.217V45H128.262ZM153.792 24.7C152.112 24.7 150.852 25.75 150.852 28.375V37.86C150.852 40.485 152.112 41.57 153.792 41.57C155.472 41.57 156.697 40.485 156.697 37.86V28.375C156.697 25.75 155.472 24.7 153.792 24.7ZM153.792 20.885C157.712 20.885 160.652 23.16 160.652 27.99V38.28C160.652 43.075 157.712 45.35 153.792 45.35C149.872 45.35 146.932 43.075 146.932 38.28V27.99C146.932 23.16 149.872 20.885 153.792 20.885ZM163.867 21.235H168.452L174.087 36.95V21.235H177.272V45H173.387L167.017 28.13V45H163.867V21.235ZM180.829 45V21.235H191.749V25.015H184.749V31.28H189.929V34.535H184.749V41.185H191.784V45H180.829ZM64.9749 63.235V67.015H60.8099V87H56.8899V67.015H52.7249V63.235H64.9749ZM89.1583 63.235L85.2033 87H81.0033L77.6083 70.165L74.3533 87H70.4333L66.2333 63.235H70.6783L73.1283 79.755L76.3133 63.235H79.6733L83.1383 79.79L85.4483 63.235H89.1583ZM97.8673 66.7C96.1873 66.7 94.9273 67.75 94.9273 70.375V79.86C94.9273 82.485 96.1873 83.57 97.8673 83.57C99.5473 83.57 100.772 82.485 100.772 79.86V70.375C100.772 67.75 99.5473 66.7 97.8673 66.7ZM97.8673 62.885C101.787 62.885 104.727 65.16 104.727 69.99V80.28C104.727 85.075 101.787 87.35 97.8673 87.35C93.9473 87.35 91.0073 85.075 91.0073 80.28V69.99C91.0073 65.16 93.9473 62.885 97.8673 62.885ZM126.145 63.235L120.65 76.255V87H116.73V76.325L111.165 63.235H115.75L119.04 72.09L122.47 63.235H126.145ZM128.398 87V63.235H139.318V67.015H132.318V73.28H137.498V76.535H132.318V83.185H139.353V87H128.398ZM140.643 87L146.033 63.235H150.968L155.938 87H151.318L150.373 82.03H145.263L144.248 87H140.643ZM147.853 68.24L145.683 78.81H149.953L147.853 68.24ZM164.379 73.7C166.024 73.7 166.969 72.895 166.969 71.11V69.36C166.969 67.68 165.989 66.875 164.344 66.875H162.209V73.7H164.379ZM171.309 86.44V87H168.229C167.179 87 166.899 86.3 166.829 85.18L166.549 79.37C166.444 77.34 165.359 76.745 164.029 76.745H162.174V87H158.254V63.235H165.219C168.754 63.235 170.889 65.09 170.889 68.66V71.11C170.889 73.455 169.349 74.715 167.879 75.17V75.31C168.999 75.555 170.329 76.535 170.504 79.16L170.819 84.515C170.889 85.495 171.029 86.16 171.309 86.44ZM179.584 87.35C175.559 87.35 173.284 85.32 173.284 80.315V78.915L176.434 78.6V79.965C176.434 83.08 177.134 84.13 179.094 84.13C180.739 84.13 181.824 82.975 181.824 80.49C181.824 78.845 181.194 77.83 180.074 77.2L177.064 75.31C174.264 73.49 173.459 72.23 173.459 69.01C173.459 65.79 175.454 62.885 179.409 62.885C182.839 62.885 185.394 64.53 185.394 68.66V70.48L182.244 70.76V69.185C182.244 67.19 181.579 65.965 179.899 65.965C178.324 65.965 177.484 67.225 177.484 69.01C177.484 70.865 178.009 71.565 179.654 72.51L182.839 74.47C184.904 75.765 185.954 77.305 185.954 80.525C185.954 84.445 184.099 87.35 179.584 87.35Z" fill="#242437"/>
<path d="M23 74.0652L16.21 74.0652L16.21 72.3152C16.21 71.3452 16.72 70.7552 17.69 70.7552L18.37 70.7552C19.14 70.7552 19.4 71.2552 19.52 71.5152L19.56 71.5152C19.65 71.2252 19.92 70.6952 20.85 70.6952L21.39 70.6952C22.47 70.6952 23 71.2852 23 72.2852L23 74.0652ZM16.97 73.2252L19.21 73.2252L19.21 72.3752C19.21 72.0252 19 71.5852 18.39 71.5852L17.81 71.5852C17.22 71.5852 16.97 71.9252 16.97 72.4652L16.97 73.2252ZM19.9 73.2252L22.25 73.2252L22.25 72.4252C22.25 71.8652 21.99 71.5252 21.3 71.5252L20.84 71.5252C20.11 71.5252 19.9 71.9652 19.9 72.3752L19.9 73.2252ZM23 69.8464L16.21 69.8464L16.21 66.9364L17 66.9364L17 69.0064L19.18 69.0064L19.18 67.4264L19.89 67.4264L19.89 69.0064L22.21 69.0064L22.21 66.9164L23 66.9164L23 69.8464ZM19.25 64.5548C19.25 64.0048 18.99 63.6748 18.4 63.6748L17.82 63.6748C17.24 63.6748 16.98 64.0148 16.98 64.5548L16.98 65.3148L19.25 65.3148L19.25 64.5548ZM22.86 62.7348L23 62.7348L23 63.3648C23 63.6348 22.83 63.7048 22.51 63.7248L20.77 63.8148C20.11 63.8448 19.94 64.2248 19.94 64.6548L19.94 65.3248L23 65.3248L23 66.1648L16.21 66.1648L16.21 64.3948C16.21 63.4248 16.72 62.8348 17.72 62.8348L18.4 62.8348C19.07 62.8348 19.46 63.2848 19.59 63.7148L19.62 63.7148C19.68 63.4148 19.95 63.0148 20.75 62.9648L22.31 62.8748C22.59 62.8548 22.79 62.8048 22.86 62.7348ZM23 61.9558L16.21 61.9558L16.21 61.1158L22.21 61.1158L22.21 59.2258L23 59.2258L23 61.9558ZM16.21 58.5769L16.21 57.7369L23 57.7369L23 58.5769L16.21 58.5769ZM16.21 56.7214L16.21 55.7714L21.15 53.9014L16.21 53.9014L16.21 53.1714L23 53.1714L23 54.0014L17.83 56.0014L23 56.0014L23 56.7214L16.21 56.7214ZM20.5 52.2997L19.82 52.2997L19.82 50.1597L20.5 50.1597L20.5 52.2997ZM16.21 43.7061L23 44.8261L23 45.7261L17.79 46.7561L23 47.7761L23 48.6161L16.21 49.7861L16.21 48.8661L21.47 48.0861L16.21 47.0861L16.21 46.3161L21.47 45.2761L16.21 44.5161L16.21 43.7061ZM23 43.0105L16.21 43.0105L16.21 40.1005L17 40.1005L17 42.1705L19.18 42.1705L19.18 40.5905L19.89 40.5905L19.89 42.1705L22.21 42.1705L22.21 40.0805L23 40.0805L23 43.0105ZM22.23 38.4889L22.23 37.6489C22.23 37.0989 21.87 36.6889 20.99 36.6889L18.22 36.6889C17.35 36.6889 16.98 37.0989 16.98 37.6489L16.98 38.4889L22.23 38.4889ZM23 37.6089L23 39.3289L16.21 39.3289L16.21 37.6089C16.21 36.5489 16.83 35.8389 18.17 35.8389L21.05 35.8389C22.39 35.8389 23 36.5489 23 37.6089Z" fill="#41415D"/>
<path d="M216.69 35.1437C216.69 35.4837 216.88 35.7037 217.52 35.7037L222.79 35.7037L222.79 36.5437L217.4 36.5437C216.38 36.5437 215.9 36.1237 215.9 35.2737C215.9 34.8937 215.97 34.6037 216.07 34.3937L216.92 34.4437C216.77 34.6237 216.69 34.8437 216.69 35.1437ZM222.79 40.3171L222.79 41.0571L217.91 41.0571C216.5 41.0571 215.9 40.3271 215.9 39.2971C215.9 38.2471 216.51 37.5171 217.87 37.5171L222.79 37.5171L222.79 38.3771L217.95 38.3771C217.05 38.3771 216.69 38.7971 216.69 39.3371C216.69 39.8871 217.05 40.3171 217.96 40.3171L222.79 40.3171ZM222.79 42.7893L216 42.7893L216 42.4293C216 42.0893 216.14 41.9893 216.47 41.9893L222.79 41.9893L222.79 42.7893ZM222.79 47.2985L219.17 45.7485L216 45.7485L216 44.9085L219.15 44.9085L222.79 43.3485L222.79 44.2985L220.05 45.3785L222.79 46.4785L222.79 47.2985ZM216 49.1766L222.32 49.1766L222.79 49.8766L222.79 50.0266L216 50.0266L216 49.1766ZM220.09 53.3844L220.99 53.3844C221.76 53.3844 222.14 53.0644 222.14 52.5044C222.14 51.9444 221.76 51.6144 220.99 51.6144L220.09 51.6144C219.33 51.6144 218.93 51.9344 218.93 52.5044C218.93 53.0644 219.33 53.3844 220.09 53.3844ZM217.91 53.3944L218.96 53.3944C218.55 53.2544 218.27 52.9044 218.27 52.2944C218.27 51.3944 218.85 50.8344 220.03 50.8344L221 50.8344C222.26 50.8344 222.89 51.4344 222.89 52.5344C222.89 53.6244 222.26 54.2344 221 54.2344L217.92 54.2344C216.67 54.2344 215.9 53.6544 215.9 52.5344C215.9 51.4044 216.53 50.8744 217.53 50.8744L217.72 50.8744L217.79 51.6444L217.61 51.6444C216.97 51.6444 216.66 51.9444 216.66 52.5044C216.66 53.0644 217.12 53.3944 217.91 53.3944ZM216 54.9069L217.11 54.9069L217.11 55.9169L216.1 55.9169L214.16 55.6169L214.16 55.1069L216 55.3869L216 54.9069ZM221 61.4295L220.77 61.4295C219.57 61.4295 218.51 60.2195 216.76 59.1395L216.76 61.3195L216 61.3195L216 58.0495L216.58 58.0495C218.84 59.5695 219.8 60.5995 220.78 60.5995L220.99 60.5995C221.75 60.5995 222.13 60.2795 222.13 59.7195C222.13 59.1795 221.76 58.8495 220.89 58.8495L220.51 58.8495L220.57 58.0795L220.95 58.0795C222.25 58.0795 222.89 58.6795 222.89 59.7395C222.89 60.8695 222.23 61.4295 221 61.4295ZM222.13 63.8051C222.13 63.2651 221.77 62.9451 220.9 62.9451L217.89 62.9451C217.01 62.9451 216.65 63.2651 216.65 63.8051C216.65 64.3551 217.01 64.6651 217.89 64.6651L220.9 64.6651C221.77 64.6651 222.13 64.3551 222.13 63.8051ZM222.89 63.8051C222.89 64.8751 222.25 65.5151 220.91 65.5151L217.87 65.5151C216.53 65.5151 215.9 64.8751 215.9 63.8051C215.9 62.7451 216.53 62.1051 217.87 62.1051L220.91 62.1051C222.25 62.1051 222.89 62.7451 222.89 63.8051ZM221 69.5741L220.77 69.5741C219.57 69.5741 218.51 68.3641 216.76 67.2841L216.76 69.4641L216 69.4641L216 66.1941L216.58 66.1941C218.84 67.7141 219.8 68.7441 220.78 68.7441L220.99 68.7441C221.75 68.7441 222.13 68.4241 222.13 67.8641C222.13 67.3241 221.76 66.9941 220.89 66.9941L220.51 66.9941L220.57 66.2241L220.95 66.2241C222.25 66.2241 222.89 66.8241 222.89 67.8841C222.89 69.0141 222.23 69.5741 221 69.5741ZM218.38 72.1124L221.6 72.1124L218.38 70.5924L218.38 72.1124ZM218.34 69.8824L222.79 71.9924L222.79 72.9024L218.39 72.9024L218.39 73.5624L217.67 73.5624L217.67 72.9024L216 72.9024L216 72.1024L217.67 72.1024L217.67 69.8824L218.34 69.8824Z" fill="#41415D"/>
<path d="M32 30L32 80" stroke="#41415D"/>
<path d="M35 30L35 80" stroke="#41415D"/>
<path d="M107 54L43 54" stroke="#242437" stroke-width="2"/>
<path d="M196 54L132 54" stroke="#242437" stroke-width="2"/>
<path d="M207 30L207 80" stroke="#41415D"/>
<path d="M204 30L204 80" stroke="#41415D"/>
<path d="M114 50L114.898 52.7639H117.804L115.453 54.4721L116.351 57.2361L114 55.5279L111.649 57.2361L112.547 54.4721L110.196 52.7639H113.102L114 50Z" fill="#242437"/>
<path d="M124 50L124.898 52.7639H127.804L125.453 54.4721L126.351 57.2361L124 55.5279L121.649 57.2361L122.547 54.4721L120.196 52.7639H123.102L124 50Z" fill="#242437"/>
</svg>
