<svg width="509" height="139" viewBox="0 0 509 139" fill="none" xmlns="http://www.w3.org/2000/svg">
<path fill-rule="evenodd" clip-rule="evenodd" d="M483.05 70.8477C481.403 68.9563 479.034 66.8564 475.941 64.5478C475.27 64.0469 474.565 63.5362 473.826 63.0156C470.956 60.9943 467.572 58.825 463.676 56.5075C463.656 56.4959 463.637 56.4843 463.617 56.4727C463.306 56.2886 463.005 56.1068 462.714 55.9271C461.627 55.256 460.678 54.6155 459.867 54.0056C458.32 52.8416 457.278 51.789 456.74 50.8477C456.706 50.7886 456.674 50.73 456.644 50.6719C455.812 49.1201 455.383 46.835 455.357 43.8164C455.356 43.7195 455.355 43.6218 455.355 43.5234C455.355 43.1264 455.365 42.7456 455.384 42.3811C455.424 41.6363 455.504 40.9594 455.624 40.3505C455.809 39.4103 456.091 38.632 456.469 38.0156C457.099 37.0384 457.958 36.4555 459.047 36.2669C459.307 36.2218 459.581 36.1992 459.867 36.1992C461.234 36.1992 462.211 36.6484 462.797 37.5469C463.149 38.0864 463.395 39.0554 463.535 40.4541C463.594 41.0354 463.634 41.691 463.656 42.4207C463.658 42.4985 463.66 42.5772 463.662 42.6567C463.669 42.9353 463.673 43.2242 463.675 43.5234C463.675 43.62 463.676 43.7177 463.676 43.8164V50.8477H486.586V47.0977C486.586 39.5586 485.844 34.2266 484.359 31.1016C484.32 31.0165 484.28 30.9319 484.239 30.8477C483.086 28.4823 481.055 26.4283 478.144 24.6857C477.301 24.181 476.385 23.7025 475.394 23.25C471.095 21.2686 465.919 20.2354 459.867 20.1503C459.595 20.1464 459.322 20.1445 459.047 20.1445C453.187 20.1445 448.187 21.1016 444.047 23.0156C443.364 23.3248 442.712 23.6543 442.091 24.0038C438.945 25.774 436.589 28.0618 435.023 30.8672C433.187 34.2266 432.269 39.5391 432.269 46.8047C432.269 51.8438 432.914 55.9844 434.203 59.2266C434.774 60.6193 435.405 61.8824 436.098 63.0156C437.019 64.5205 438.047 65.7965 439.184 66.8438C440.172 67.7543 441.669 68.9388 443.676 70.3972C443.878 70.5445 444.086 70.6947 444.3 70.8477C446.23 72.2329 448.587 73.8475 451.371 75.6914C453.07 76.8059 454.593 77.832 455.941 78.7696C458.384 80.4683 460.25 81.8768 461.542 82.9951C461.55 83.0019 461.558 83.0088 461.565 83.0156C462.124 83.5001 462.573 83.9298 462.914 84.3047C464.373 85.9502 465.133 89.3682 465.195 94.5586C465.198 94.7895 465.199 95.0238 465.199 95.2617C465.199 95.5075 465.195 95.7474 465.188 95.9814C465.184 96.092 465.179 96.2013 465.174 96.3092C465.129 97.213 465.025 98.0253 464.86 98.7459C464.655 99.6394 464.358 100.392 463.969 101.004C463.344 102.034 462.446 102.652 461.273 102.859C460.978 102.911 460.666 102.938 460.336 102.938C458.695 102.938 457.543 102.43 456.879 101.414C456.524 100.838 456.27 99.8526 456.117 98.4587C456.043 97.7856 455.992 97.017 455.965 96.1531C455.962 96.0716 455.96 95.9893 455.958 95.9061C455.952 95.6967 455.948 95.4819 455.946 95.2617C455.943 95.0331 455.941 94.7988 455.941 94.5586V83.0156H433.031V89.2266C433.031 94.83 433.48 99.4263 434.378 103.016C434.619 103.98 434.893 104.872 435.199 105.691C436.168 108.283 437.855 110.567 440.262 112.545C441.447 113.518 442.806 114.417 444.34 115.242C448.804 117.623 454.136 118.87 460.336 118.984C460.646 118.989 460.959 118.992 461.273 118.992C467.289 118.992 472.562 117.918 477.094 115.77C477.475 115.585 477.846 115.397 478.207 115.206C482.128 113.124 484.803 110.617 486.234 107.684C487.836 104.48 488.637 99.5 488.637 92.7422C488.637 83.4453 487.211 76.707 484.359 72.5273C483.991 71.987 483.554 71.4271 483.05 70.8477ZM504.166 116.54C499.96 125.098 492.71 130.439 485.789 133.781L485.725 133.811L485.662 133.841C477.971 137.488 469.669 138.992 461.273 138.992C452.172 138.992 443.132 137.265 434.928 132.889L434.897 132.873L434.867 132.856C427.685 128.994 420.996 123.11 417.23 114.573C419.283 113.362 420.947 112.018 422.222 110.541C423.002 109.639 423.636 108.686 424.125 107.684C425.726 104.48 426.527 99.5 426.527 92.7422C426.527 91.5266 426.503 90.3547 426.454 89.2266C426.357 86.9833 426.164 84.913 425.874 83.0156C425.797 82.5134 425.714 82.0233 425.624 81.5452C424.916 77.7921 423.791 74.7861 422.25 72.5273C421.032 70.7422 419.073 68.7432 416.373 66.5305C416.314 66.4824 416.255 66.4343 416.196 66.386C415.886 66.1342 415.567 65.8796 415.238 65.6223C414.545 65.0795 413.809 64.5244 413.031 63.9572V63.0156H414.378C413.2 59.0215 412.603 54.9026 412.378 50.8477H424.476V47.0977C424.476 46.9996 424.476 46.902 424.476 46.8047C424.457 39.4203 423.715 34.1859 422.25 31.1016C421.102 28.5891 418.982 26.4214 415.888 24.5986C416.357 23.4663 416.883 22.3562 417.473 21.2759L417.516 21.1977L417.559 21.1199C421.865 13.4049 428.444 8.1407 435.725 4.82884C443.113 1.42899 451.109 0.144531 459.047 0.144531C467.513 0.144531 475.973 1.50122 483.736 5.07268C490.737 8.27666 498.328 13.6547 502.491 22.6607C505.987 30.1191 506.586 39.3381 506.586 47.0977V70.8477H505.579C507.982 77.9704 508.637 85.6728 508.637 92.7422C508.637 100.289 507.869 109.078 504.166 116.54Z" fill="black"/>
<path fill-rule="evenodd" clip-rule="evenodd" d="M420.94 70.8477C419.294 68.9563 416.925 66.8564 413.832 64.5478C413.161 64.0469 412.456 63.5362 411.717 63.0156C408.847 60.9943 405.463 58.825 401.566 56.5075C401.547 56.4959 401.527 56.4843 401.508 56.4727C401.197 56.2886 400.896 56.1068 400.605 55.9271C399.517 55.256 398.568 54.6155 397.758 54.0056C396.211 52.8416 395.169 51.789 394.63 50.8477C394.597 50.7886 394.565 50.73 394.535 50.6719C393.703 49.1201 393.273 46.835 393.247 43.8164C393.247 43.7195 393.246 43.6218 393.246 43.5234C393.246 43.1264 393.256 42.7456 393.275 42.3811C393.315 41.6363 393.394 40.9594 393.514 40.3505C393.7 39.4103 393.982 38.632 394.359 38.0156C394.99 37.0384 395.849 36.4555 396.938 36.2669C397.198 36.2218 397.471 36.1992 397.758 36.1992C399.125 36.1992 400.102 36.6484 400.688 37.5469C401.039 38.0864 401.286 39.0554 401.426 40.4541C401.485 41.0354 401.525 41.691 401.547 42.4207C401.549 42.4985 401.551 42.5772 401.553 42.6567C401.56 42.9353 401.564 43.2242 401.566 43.5234C401.566 43.62 401.566 43.7177 401.566 43.8164V50.8477H424.477V47.0977C424.477 39.5586 423.734 34.2266 422.25 31.1016C422.211 31.0165 422.171 30.9319 422.13 30.8477C420.977 28.4823 418.945 26.4283 416.035 24.6857C415.192 24.181 414.275 23.7025 413.285 23.25C408.986 21.2686 403.81 20.2354 397.758 20.1503C397.486 20.1464 397.213 20.1445 396.938 20.1445C391.078 20.1445 386.078 21.1016 381.938 23.0156C381.255 23.3248 380.603 23.6543 379.981 24.0038C376.836 25.774 374.48 28.0618 372.914 30.8672C371.078 34.2266 370.16 39.5391 370.16 46.8047C370.16 51.8438 370.805 55.9844 372.094 59.2266C372.664 60.6193 373.296 61.8824 373.989 63.0156C374.909 64.5205 375.938 65.7965 377.074 66.8438C378.062 67.7543 379.56 68.9388 381.566 70.3972C381.769 70.5445 381.977 70.6947 382.19 70.8477C384.121 72.2329 386.478 73.8475 389.262 75.6914C390.96 76.8059 392.484 77.832 393.832 78.7696C396.274 80.4683 398.141 81.8768 399.433 82.9951C399.44 83.0019 399.448 83.0088 399.456 83.0156C400.014 83.5001 400.464 83.9298 400.805 84.3047C402.263 85.9502 403.024 89.3682 403.086 94.5586C403.088 94.7895 403.09 95.0238 403.09 95.2617C403.09 95.5075 403.086 95.7474 403.078 95.9814C403.075 96.092 403.07 96.2013 403.065 96.3092C403.02 97.213 402.915 98.0253 402.75 98.7459C402.546 99.6394 402.249 100.392 401.859 101.004C401.235 102.034 400.337 102.652 399.164 102.859C398.869 102.911 398.556 102.938 398.227 102.938C396.586 102.938 395.434 102.43 394.77 101.414C394.415 100.838 394.161 99.8526 394.007 98.4587C393.933 97.7856 393.883 97.017 393.856 96.1531C393.853 96.0716 393.851 95.9893 393.849 95.9061C393.843 95.6967 393.839 95.4819 393.836 95.2617C393.833 95.0331 393.832 94.7988 393.832 94.5586V83.0156H370.922V89.2266C370.922 94.83 371.371 99.4263 372.269 103.016C372.51 103.98 372.784 104.872 373.09 105.691C374.058 108.283 375.746 110.567 378.153 112.545C379.338 113.518 380.697 114.417 382.23 115.242C386.695 117.623 392.027 118.87 398.227 118.984C398.537 118.989 398.849 118.992 399.164 118.992C405.18 118.992 410.453 117.918 414.984 115.77C415.366 115.585 415.737 115.397 416.098 115.206C420.018 113.124 422.694 110.617 424.125 107.684C425.727 104.48 426.527 99.5 426.527 92.7422C426.527 83.4453 425.102 76.707 422.25 72.5273C421.881 71.987 421.445 71.4271 420.94 70.8477ZM442.057 116.54C437.851 125.098 430.601 130.439 423.679 133.781L423.616 133.811L423.553 133.841C415.862 137.488 407.56 138.992 399.164 138.992C390.063 138.992 381.023 137.265 372.819 132.889L372.788 132.873L372.757 132.856C366.277 129.371 360.199 124.241 356.306 117H365.062V98.0156H351.278C351.022 95.0971 350.922 92.1457 350.922 89.2266V77.1562H362.367V59.1094H351.301C350.468 55.008 350.16 50.8413 350.16 46.8047C350.16 44.9701 350.205 43.064 350.325 41.1211H363.422V22.1367H354.91C355.057 21.8478 355.208 21.5608 355.364 21.2759L355.407 21.1977L355.45 21.1199C359.756 13.4049 366.335 8.1407 373.616 4.82884C381.004 1.42899 389 0.144531 396.938 0.144531C405.404 0.144531 413.864 1.50122 421.627 5.07268C428.627 8.27666 436.219 13.6547 440.382 22.6607C440.67 23.2755 440.938 23.9023 441.188 24.5393C438.491 26.2275 436.436 28.3368 435.023 30.8672C433.188 34.2266 432.27 39.5391 432.27 46.8047C432.27 46.9027 432.27 47.0003 432.27 47.0977C432.277 48.4094 432.328 49.6594 432.423 50.8477C432.524 52.1129 432.676 53.3082 432.877 54.4334C433.195 56.2045 433.637 57.8022 434.203 59.2266C434.781 60.6377 435.422 61.9157 436.126 63.0605C437.039 64.5458 438.059 65.8069 439.184 66.8438C440.09 67.6793 441.426 68.7453 443.19 70.042C443.543 70.3013 443.913 70.5699 444.3 70.8477H443.47C444.801 74.7945 445.596 78.9192 446.04 83.0156H433.031V89.2266C433.031 90.4461 433.053 91.618 433.095 92.7422C433.3 98.1712 434.002 102.488 435.199 105.691C436.5 109.173 439.099 112.1 442.996 114.473C442.706 115.172 442.394 115.862 442.057 116.54Z" fill="black"/>
<path fill-rule="evenodd" clip-rule="evenodd" d="M302.289 2.13672H383.422V22.3848C382.915 22.582 382.421 22.7923 381.938 23.0156C377.797 24.8906 374.789 27.5078 372.914 30.8672C371.803 32.8997 371.029 35.6471 370.59 39.1094C370.508 39.7551 370.438 40.4257 370.379 41.1211C370.233 42.8601 370.16 44.7547 370.16 46.8047C370.16 51.7832 370.789 55.8848 372.048 59.1094C372.063 59.1486 372.078 59.1876 372.094 59.2266C372.364 59.8873 372.649 60.5188 372.947 61.1211C374.112 63.4744 375.488 65.382 377.074 66.8438C378.19 67.8716 379.954 69.2485 382.367 70.9743V78.0156H385.062V83.0156H370.922V89.2266C370.922 92.1425 371.043 94.7857 371.287 97.1562C371.316 97.4468 371.348 97.7333 371.381 98.0156C371.741 101.046 372.31 103.605 373.09 105.691C374.535 109.559 377.582 112.742 382.23 115.242C383.139 115.727 384.083 116.164 385.062 116.554V137H302.289V117H316.254V98.0156H302.289V2.13672ZM346.957 77.1562H362.367V59.1094H346.957V41.1211H363.422V22.1367H322.289V117H365.062V98.0156H346.957V77.1562Z" fill="black"/>
<path fill-rule="evenodd" clip-rule="evenodd" d="M321.254 2.13672V78.0156H322.289V117H336.254V137H256.586V116.074C256.809 115.975 257.03 115.874 257.25 115.77C261.781 113.582 264.828 110.887 266.391 107.684C267.992 104.48 268.793 99.5 268.793 92.7422C268.793 83.4453 267.367 76.707 264.516 72.5273C263.008 70.3175 260.365 67.7801 256.586 64.9151V50.8477H266.742V47.0977C266.742 39.5586 266 34.2266 264.516 31.1016C263.183 28.185 260.54 25.7332 256.586 23.7459V2.13672H321.254ZM276.586 117V22.1367H301.254V98.0156H316.254V117H276.586Z" fill="black"/>
<path fill-rule="evenodd" clip-rule="evenodd" d="M263.206 70.8477C261.56 68.9563 259.19 66.8564 256.098 64.5478C255.427 64.0469 254.721 63.5362 253.982 63.0156C251.112 60.9943 247.729 58.825 243.832 56.5075C243.812 56.4959 243.793 56.4843 243.773 56.4727C243.462 56.2886 243.161 56.1068 242.87 55.9271C241.783 55.256 240.834 54.6155 240.023 54.0056C238.477 52.8416 237.434 51.789 236.896 50.8477C236.862 50.7886 236.83 50.73 236.801 50.6719C235.968 49.1201 235.539 46.835 235.513 43.8164C235.512 43.7195 235.512 43.6218 235.512 43.5234C235.512 43.1264 235.521 42.7456 235.541 42.3811C235.58 41.6363 235.66 40.9594 235.78 40.3505C235.965 39.4103 236.247 38.632 236.625 38.0156C237.255 37.0384 238.115 36.4555 239.203 36.2669C239.463 36.2218 239.737 36.1992 240.023 36.1992C241.391 36.1992 242.367 36.6484 242.953 37.5469C243.305 38.0864 243.551 39.0554 243.692 40.4541C243.75 41.0354 243.79 41.691 243.812 42.4207C243.815 42.4985 243.817 42.5772 243.819 42.6567C243.825 42.9353 243.829 43.2242 243.831 43.5234C243.832 43.62 243.832 43.7177 243.832 43.8164V50.8477H266.742V47.0977C266.742 39.5586 266 34.2266 264.516 31.1016C264.477 31.0165 264.437 30.9319 264.396 30.8477C263.242 28.4823 261.211 26.4283 258.3 24.6857C257.458 24.181 256.541 23.7025 255.551 23.25C251.251 21.2686 246.076 20.2354 240.023 20.1503C239.752 20.1464 239.478 20.1445 239.203 20.1445C233.344 20.1445 228.344 21.1016 224.203 23.0156C223.52 23.3248 222.868 23.6543 222.247 24.0038C219.101 25.774 216.745 28.0618 215.18 30.8672C213.344 34.2266 212.426 39.5391 212.426 46.8047C212.426 51.8438 213.07 55.9844 214.359 59.2266C214.93 60.6193 215.562 61.8824 216.255 63.0156C217.175 64.5205 218.203 65.7965 219.34 66.8438C220.328 67.7543 221.825 68.9388 223.832 70.3972C224.035 70.5445 224.243 70.6947 224.456 70.8477C226.386 72.2329 228.744 73.8475 231.527 75.6914C233.226 76.8059 234.749 77.832 236.098 78.7696C238.54 80.4683 240.407 81.8768 241.698 82.9951C241.706 83.0019 241.714 83.0088 241.722 83.0156C242.28 83.5001 242.729 83.9298 243.07 84.3047C244.529 85.9502 245.289 89.3682 245.351 94.5586C245.354 94.7895 245.355 95.0238 245.355 95.2617C245.355 95.5075 245.352 95.7474 245.344 95.9814C245.34 96.092 245.336 96.2013 245.33 96.3092C245.286 97.213 245.181 98.0253 245.016 98.7459C244.811 99.6394 244.514 100.392 244.125 101.004C243.501 102.034 242.602 102.652 241.43 102.859C241.134 102.911 240.822 102.938 240.492 102.938C238.851 102.938 237.699 102.43 237.035 101.414C236.68 100.838 236.426 99.8526 236.273 98.4587C236.199 97.7856 236.148 97.017 236.121 96.1531C236.119 96.0716 236.116 95.9893 236.114 95.9061C236.109 95.6967 236.105 95.4819 236.102 95.2617C236.099 95.0331 236.098 94.7988 236.098 94.5586V83.0156H213.187V89.2266C213.187 94.83 213.636 99.4263 214.534 103.016C214.775 103.98 215.049 104.872 215.355 105.691C216.324 108.283 218.011 110.567 220.418 112.545C221.603 113.518 222.962 114.417 224.496 115.242C228.96 117.623 234.292 118.87 240.492 118.984C240.802 118.989 241.115 118.992 241.43 118.992C247.445 118.992 252.719 117.918 257.25 115.77C257.632 115.585 258.003 115.397 258.363 115.206C262.284 113.124 264.96 110.617 266.391 107.684C267.992 104.48 268.793 99.5 268.793 92.7422C268.793 83.4453 267.367 76.707 264.516 72.5273C264.147 71.987 263.71 71.4271 263.206 70.8477ZM276.586 117H284.092C279.855 125.29 272.741 130.5 265.945 133.781L265.882 133.811L265.818 133.841C258.128 137.488 249.826 138.992 241.43 138.992C232.329 138.992 223.289 137.265 215.084 132.889L215.054 132.873L215.023 132.856C207.841 128.994 201.152 123.11 197.386 114.573C199.439 113.362 201.103 112.018 202.378 110.541C203.158 109.639 203.792 108.686 204.281 107.684C205.883 104.48 206.684 99.5 206.684 92.7422C206.684 91.5266 206.659 90.3547 206.61 89.2266C206.513 86.9833 206.32 84.913 206.03 83.0156C205.954 82.5134 205.87 82.0233 205.78 81.5452C205.072 77.7921 203.947 74.7861 202.406 72.5273C201.188 70.7422 199.229 68.7432 196.529 66.5305C196.47 66.4824 196.411 66.4343 196.352 66.386C196.042 66.1342 195.723 65.8796 195.395 65.6223C194.701 65.0795 193.965 64.5244 193.187 63.9572V63.0156H194.534C193.356 59.0215 192.76 54.9026 192.535 50.8477H204.633V47.0977C204.633 46.9996 204.633 46.902 204.632 46.8047C204.613 39.4203 203.871 34.1859 202.406 31.1016C201.258 28.5891 199.138 26.4214 196.044 24.5986C196.513 23.4663 197.039 22.3562 197.629 21.2759L197.672 21.1977L197.716 21.1199C202.022 13.4049 208.601 8.14069 215.882 4.82883C223.27 1.42899 231.265 0.144531 239.203 0.144531C247.669 0.144531 256.127 1.50088 263.89 5.07132C270.754 8.21253 278.187 13.444 282.399 22.1367H276.586V117Z" fill="black"/>
<path fill-rule="evenodd" clip-rule="evenodd" d="M201.097 70.8477C199.45 68.9563 197.081 66.8564 193.988 64.5478C193.317 64.0469 192.612 63.5362 191.873 63.0156C189.003 60.9943 185.619 58.825 181.723 56.5075C181.703 56.4959 181.683 56.4843 181.664 56.4727C181.353 56.2886 181.052 56.1068 180.761 55.9271C179.673 55.256 178.724 54.6155 177.914 54.0056C176.367 52.8416 175.325 51.789 174.787 50.8477C174.753 50.7886 174.721 50.73 174.691 50.6719C173.859 49.1201 173.429 46.835 173.403 43.8164C173.403 43.7195 173.402 43.6218 173.402 43.5234C173.402 43.1264 173.412 42.7456 173.431 42.3811C173.471 41.6363 173.55 40.9594 173.671 40.3505C173.856 39.4103 174.138 38.632 174.516 38.0156C175.146 37.0384 176.005 36.4555 177.094 36.2669C177.354 36.2218 177.627 36.1992 177.914 36.1992C179.281 36.1992 180.258 36.6484 180.844 37.5469C181.195 38.0864 181.442 39.0554 181.582 40.4541C181.641 41.0354 181.681 41.691 181.703 42.4207C181.705 42.4985 181.707 42.5772 181.709 42.6567C181.716 42.9353 181.72 43.2242 181.722 43.5234C181.722 43.62 181.723 43.7177 181.723 43.8164V50.8477H204.633V47.0977C204.633 39.5586 203.891 34.2266 202.406 31.1016C202.367 31.0165 202.327 30.9319 202.286 30.8477C201.133 28.4823 199.101 26.4283 196.191 24.6857C195.348 24.181 194.432 23.7025 193.441 23.25C189.142 21.2686 183.966 20.2354 177.914 20.1503C177.642 20.1464 177.369 20.1445 177.094 20.1445C171.234 20.1445 166.234 21.1016 162.094 23.0156C161.411 23.3248 160.759 23.6543 160.138 24.0038C156.992 25.774 154.636 28.0618 153.07 30.8672C151.234 34.2266 150.316 39.5391 150.316 46.8047C150.316 51.8438 150.961 55.9844 152.25 59.2266C152.82 60.6193 153.452 61.8824 154.145 63.0156C155.066 64.5205 156.094 65.7965 157.23 66.8438C158.218 67.7543 159.716 68.9388 161.723 70.3972C161.925 70.5445 162.133 70.6947 162.347 70.8477C164.277 72.2329 166.634 73.8475 169.418 75.6914C171.117 76.8059 172.64 77.832 173.988 78.7696C176.43 80.4683 178.297 81.8768 179.589 82.9951C179.597 83.0019 179.604 83.0088 179.612 83.0156C180.171 83.5001 180.62 83.9298 180.961 84.3047C182.419 85.9502 183.18 89.3682 183.242 94.5586C183.245 94.7895 183.246 95.0238 183.246 95.2617C183.246 95.5075 183.242 95.7474 183.234 95.9814C183.231 96.092 183.226 96.2013 183.221 96.3092C183.176 97.213 183.071 98.0253 182.906 98.7459C182.702 99.6394 182.405 100.392 182.016 101.004C181.391 102.034 180.493 102.652 179.32 102.859C179.025 102.911 178.713 102.938 178.383 102.938C176.742 102.938 175.59 102.43 174.926 101.414C174.571 100.838 174.317 99.8526 174.164 98.4587C174.089 97.7856 174.039 97.017 174.012 96.1531C174.009 96.0716 174.007 95.9893 174.005 95.9061C173.999 95.6967 173.995 95.4819 173.992 95.2617C173.99 95.0331 173.988 94.7988 173.988 94.5586V83.0156H151.078V89.2266C151.078 94.83 151.527 99.4263 152.425 103.016C152.666 103.98 152.94 104.872 153.246 105.691C154.214 108.283 155.902 110.567 158.309 112.545C159.494 113.518 160.853 114.417 162.387 115.242C166.851 117.623 172.183 118.87 178.383 118.984C178.693 118.989 179.006 118.992 179.32 118.992C185.336 118.992 190.609 117.918 195.141 115.77C195.522 115.585 195.893 115.397 196.254 115.206C200.175 113.124 202.85 110.617 204.281 107.684C205.883 104.48 206.683 99.5 206.683 92.7422C206.683 83.4453 205.258 76.707 202.406 72.5273C202.038 71.987 201.601 71.4271 201.097 70.8477ZM222.213 116.541C218.007 125.098 210.757 130.439 203.835 133.781L203.772 133.811L203.709 133.841C196.018 137.488 187.716 138.992 179.32 138.992C170.219 138.992 161.179 137.265 152.975 132.889L152.944 132.873L152.913 132.856C145.231 128.725 138.112 122.279 134.532 112.748C134.576 112.711 134.62 112.674 134.664 112.636C135.997 111.5 137.171 110.22 138.187 108.797C140.57 105.516 141.976 101.902 142.406 97.957C142.656 95.8342 142.839 92.924 142.956 89.2266C143.015 87.3574 143.057 85.2871 143.082 83.0156C143.089 82.3625 143.095 81.6927 143.099 81.0063C143.106 79.9389 143.109 78.8314 143.109 77.6836V61.4531C143.109 55.471 143.021 50.5881 142.845 46.8047C142.734 44.4118 142.588 42.4587 142.406 40.9453C141.937 37.0391 140.473 33.4258 138.012 30.1055C136.734 28.382 135.241 26.8849 133.532 25.614C134.096 24.1289 134.754 22.6774 135.52 21.2759L135.563 21.1977L135.606 21.1199C139.912 13.4049 146.491 8.14069 153.772 4.82883C161.16 1.42899 169.156 0.144531 177.094 0.144531C185.559 0.144531 194.018 1.50088 201.78 5.07132C208.781 8.27486 216.373 13.6525 220.537 22.6583C220.825 23.2739 221.094 23.9015 221.345 24.5393C218.647 26.2275 216.592 28.3368 215.18 30.8672C213.344 34.2266 212.426 39.5391 212.426 46.8047C212.426 46.9027 212.426 47.0003 212.426 47.0977C212.433 48.4094 212.484 49.6594 212.579 50.8477C212.68 52.1129 212.832 53.3082 213.034 54.4334C213.351 56.2045 213.793 57.8022 214.359 59.2266C214.937 60.6377 215.578 61.9157 216.282 63.0605C217.195 64.5458 218.215 65.8069 219.34 66.8438C220.246 67.6793 221.582 68.7453 223.346 70.042C223.699 70.3013 224.069 70.5699 224.456 70.8477H223.626C224.957 74.7945 225.752 78.9192 226.196 83.0156H213.187V89.2266C213.187 90.4461 213.209 91.618 213.251 92.7422C213.457 98.1712 214.158 102.488 215.355 105.691C216.656 109.173 219.255 112.1 223.152 114.473C222.862 115.172 222.55 115.862 222.213 116.541Z" fill="black"/>
<path fill-rule="evenodd" clip-rule="evenodd" d="M118.129 98.5393C118.324 96.7599 118.428 94.183 118.44 90.8086C118.441 90.5779 118.441 90.3436 118.441 90.1055V46.5117C118.441 44.9001 118.408 43.502 118.34 42.3173C118.338 42.2888 118.337 42.2605 118.335 42.2323C118.296 41.5686 118.246 40.9731 118.185 40.4458C118.061 39.3731 117.893 38.5825 117.68 38.0742C117.211 36.8242 116.215 36.1992 114.691 36.1992C114.652 36.1992 114.613 36.1997 114.574 36.2006C113.342 36.2307 112.385 36.738 111.703 37.7227C111.389 38.1842 111.15 39.0819 110.984 40.4158C110.977 40.4741 110.97 40.5331 110.963 40.593C110.951 40.6947 110.94 40.7988 110.929 40.9053C110.781 42.3394 110.707 44.2082 110.707 46.5117V90.8086C110.707 94.1897 110.788 96.7759 110.95 98.5672C110.954 98.6146 110.959 98.6615 110.963 98.7077C111.063 99.7617 111.193 100.527 111.352 101.004C111.82 102.293 112.875 102.938 114.516 102.938C114.535 102.938 114.555 102.937 114.574 102.937C116.22 102.92 117.275 102.178 117.738 100.711C117.883 100.253 118.005 99.6005 118.105 98.7527C118.106 98.7453 118.107 98.7379 118.108 98.7304C118.115 98.6678 118.122 98.604 118.129 98.5393ZM96.0243 25.2936C97.3854 24.3311 98.8812 23.4936 100.512 22.7812C104.535 21.0234 109.223 20.1445 114.574 20.1445C114.613 20.1445 114.652 20.1446 114.691 20.1447C119.722 20.1575 124.234 20.9973 128.227 22.6641C130.147 23.4397 131.889 24.4031 133.452 25.5542C135.194 26.8378 136.714 28.3549 138.012 30.1055C140.473 33.4258 141.938 37.0391 142.406 40.9453C142.875 44.8516 143.109 51.6875 143.109 61.4531V77.6836C143.109 87.2148 142.875 93.9727 142.406 97.957C141.977 101.902 140.57 105.516 138.188 108.797C136.816 110.717 135.156 112.377 133.209 113.776C131.829 114.767 130.305 115.627 128.637 116.355C124.613 118.113 119.926 118.992 114.574 118.992C114.555 118.992 114.535 118.992 114.516 118.992C109.461 118.986 104.91 118.166 100.863 116.531C98.9118 115.717 97.144 114.709 95.5601 113.508C93.8785 112.233 92.404 110.741 91.1367 109.031C88.6758 105.711 87.2109 102.098 86.7422 98.1914C86.2734 94.2852 86.0391 87.4492 86.0391 77.6836V61.4531C86.0391 51.9219 86.2539 45.1836 86.6836 41.2383C87.1523 37.2539 88.5586 33.6211 90.9023 30.3398C92.3195 28.3883 94.0268 26.7063 96.0243 25.2936ZM154.417 120.485C149.793 126.932 143.651 131.621 136.644 134.683C129.606 137.757 122.093 138.992 114.574 138.992C107.333 138.992 100.164 137.818 93.374 135.076L93.2659 135.032L93.1582 134.987C85.9986 131.999 79.7961 127.318 75.0689 120.94C73.4915 118.812 72.1131 116.569 70.9514 114.222C72.9862 113.008 74.5389 111.258 75.6094 108.973C76.7183 106.667 77.413 103.436 77.6935 99.2773C77.7884 97.8692 77.8359 96.3549 77.8359 94.7344V85.9453C77.8359 82.7666 77.5665 80.0127 77.0277 77.6836C76.5204 75.4905 75.7741 73.6741 74.7891 72.2344C73.1168 69.7581 70.2001 67.8643 66.0391 66.553V65.0296C69.1087 64.08 71.3667 62.8879 72.8129 61.4531C73.0429 61.2249 73.2524 60.9905 73.4414 60.75C75.1992 58.5625 76.0781 54.6953 76.0781 49.1484C76.0781 45.7035 75.8611 42.6581 75.4271 40.0123C75.4216 39.9788 75.4161 39.9454 75.4105 39.912C74.809 36.305 73.8011 33.4463 72.3867 31.3359C71.5418 30.0618 70.6048 28.9351 69.5757 27.9557C70.8661 24.7074 72.5553 21.6164 74.6277 18.7151L74.6732 18.6513L74.7193 18.5879C79.3656 12.1897 85.4982 7.51512 92.5047 4.45402C99.5423 1.37933 107.056 0.144531 114.574 0.144531C121.829 0.144531 129.024 1.34294 135.825 4.16363C143.044 7.1001 149.315 11.7685 154.08 18.1964C155.71 20.3959 157.127 22.7178 158.313 25.1504C156.065 26.7278 154.317 28.6334 153.07 30.8672C151.87 33.0627 151.063 36.0925 150.647 39.9564C150.427 42.0047 150.316 44.2875 150.316 46.8047C150.316 51.8438 150.961 55.9844 152.25 59.2266C152.571 60.0098 152.911 60.752 153.271 61.4531C154.4 63.6544 155.72 65.4513 157.23 66.8438C158.434 67.9531 160.394 69.4689 163.109 71.3912V77.6836C163.109 79.5279 163.101 81.3072 163.083 83.0156H151.078V89.2266C151.078 92.9071 151.272 96.1532 151.659 98.9648C151.663 98.9922 151.667 99.0196 151.671 99.047C152.031 101.631 152.556 103.846 153.246 105.691C154.279 108.456 156.132 110.872 158.803 112.938C157.61 115.577 156.143 118.099 154.417 120.485Z" fill="black"/>
<path fill-rule="evenodd" clip-rule="evenodd" d="M0.414062 2.13672H45.0234C53.3653 2.13672 61.6048 2.73338 68.4529 4.81037C77.1959 7.44915 84.1628 12.9231 89.0295 20.2446C90.654 22.6768 91.9201 25.2766 92.9015 27.9615C92.1809 28.704 91.5146 29.4968 90.9023 30.3398C88.5586 33.6211 87.1523 37.2539 86.6836 41.2383C86.4709 43.1909 86.3109 45.8276 86.2035 49.1484C86.146 50.9251 86.1036 52.8975 86.0763 55.0658C86.0515 57.0336 86.0391 59.1627 86.0391 61.4531V77.6836C86.0391 80.7209 86.0617 83.4748 86.1071 85.9453C86.1713 89.4431 86.2809 92.3728 86.436 94.7344C86.5236 96.0678 86.6256 97.2202 86.7422 98.1914C87.2109 102.098 88.6758 105.711 91.1367 109.031C92.3511 110.67 93.7557 112.108 95.3505 113.347C94.8813 114.779 94.3284 116.184 93.6782 117.547C89.9622 125.421 83.5428 131.243 75.3051 134.156C71.2386 135.594 66.7368 136.181 63.0323 136.501C58.9711 136.852 54.2285 137 48.9492 137H0.414062V2.13672ZM75.6094 108.973C77.0938 105.887 77.8359 101.141 77.8359 94.7344V85.9453C77.8359 84.5299 77.7825 83.1987 77.6757 81.9518C77.3167 77.7614 76.3545 74.5223 74.7891 72.2344C73.8427 70.8331 72.4979 69.6183 70.7547 68.5901C70.3184 68.3328 69.8573 68.0872 69.3711 67.8532C67.63 67.0154 65.5688 66.3273 63.1875 65.7891C63.9988 65.6033 64.7674 65.4047 65.4933 65.1934C65.5903 65.1651 65.6864 65.1367 65.7818 65.108C66.6884 64.8356 67.5262 64.5425 68.2952 64.229C69.6323 63.6838 70.7616 63.0764 71.6829 62.407C72.3923 61.8915 72.9785 61.3392 73.4414 60.75C75.1992 58.5625 76.0781 54.6953 76.0781 49.1484C76.0781 49.0824 76.078 49.0166 76.0779 48.9509C76.0582 40.8499 74.8279 34.9783 72.3867 31.3359C70.3368 28.2447 67.7447 26.0209 64.6105 24.6644C63.9822 24.3924 63.3321 24.1553 62.6602 23.9531C60.8545 23.4043 58.6598 22.9799 56.0759 22.6798C55.9941 22.6703 55.9119 22.661 55.8294 22.6517C52.8409 22.3169 49.3417 22.1454 45.3317 22.137C45.2293 22.1368 45.1265 22.1367 45.0234 22.1367H20.4141V117H48.9492C54.1253 117 58.3872 116.846 61.7347 116.538C64.804 116.255 67.1046 115.843 68.6367 115.301C71.8398 114.168 74.1641 112.059 75.6094 108.973ZM52.758 42.4412C52.6447 41.9436 52.5079 41.5231 52.3477 41.1797C51.8008 39.9688 51.0781 39.207 50.1797 38.8945C49.3203 38.582 47.6211 38.4062 45.082 38.3672V59.4609C45.2449 59.4549 45.4021 59.4493 45.5538 59.4442C46.3845 59.4163 47.0475 59.4023 47.543 59.4023C49.9648 59.4023 51.5078 58.8164 52.1719 57.6445C52.4511 57.1353 52.6717 56.2358 52.8335 54.9459C53.0565 53.1686 53.168 50.6502 53.168 47.3906C53.168 45.2918 53.0313 43.642 52.758 42.4412ZM45.082 100.77C46.6193 100.718 47.9084 100.582 48.9492 100.362C50.2622 100.085 51.1802 99.6736 51.7031 99.1289C52.1393 98.6927 52.4781 97.9721 52.7194 96.967C53.0185 95.7218 53.168 94.0401 53.168 91.9219V83.0742C53.168 81.4279 53.0974 80.0446 52.9563 78.9243C52.7491 77.2802 52.39 76.2025 51.8789 75.6914C51.2316 75.0441 49.7862 74.6073 47.543 74.3811C46.9592 74.3222 46.3215 74.2776 45.6297 74.2472C45.4507 74.2394 45.2682 74.2325 45.082 74.2266V100.77Z" fill="black"/>
</svg>
