<?xml version="1.0" encoding="UTF-8" standalone="no"?>
<!DOCTYPE svg PUBLIC "-//W3C//DTD SVG 1.1//EN" "http://www.w3.org/Graphics/SVG/1.1/DTD/svg11.dtd">
<svg width="100%" height="100%" viewBox="0 0 827 319" version="1.1" xmlns="http://www.w3.org/2000/svg" xmlns:xlink="http://www.w3.org/1999/xlink" xml:space="preserve" xmlns:serif="http://www.serif.com/" style="fill-rule:evenodd;clip-rule:evenodd;stroke-linejoin:round;stroke-miterlimit:2;">
    <g id="Motive" transform="matrix(4.16667,0,0,4.16667,0,0)">
        <g transform="matrix(1,0,0,1,198.428,55.8276)">
            <path d="M0,-35.205C0,-42.374 -5.581,-47.578 -13.271,-47.578C-15.37,-47.578 -17.386,-47.198 -19.278,-46.449C-20.215,-46.851 -21.225,-47.06 -22.245,-47.06L-29.409,-47.06C-29.96,-51.556 -33.696,-54.93 -38.364,-54.93C-41.096,-54.93 -43.647,-53.705 -45.357,-51.646C-46.177,-51.945 -47.043,-52.1 -47.925,-52.1L-48.615,-52.1C-51.702,-52.1 -54.527,-50.166 -55.645,-47.288C-55.828,-46.816 -55.963,-46.503 -56.059,-46.296C-57.547,-49.689 -61.16,-51.962 -65.285,-51.962C-69.655,-51.962 -73.397,-49.622 -75.892,-47.5C-76.836,-47.362 -77.754,-47.046 -78.58,-46.569L-79.887,-45.815C-81.93,-46.972 -84.303,-47.578 -86.823,-47.578C-89.956,-47.578 -92.929,-46.667 -95.503,-44.93C-97.907,-46.647 -100.851,-47.578 -103.942,-47.578C-106.642,-47.578 -109.269,-46.936 -111.614,-45.713C-113.493,-46.923 -115.809,-47.578 -118.266,-47.578C-119.898,-47.578 -121.668,-47.281 -123.537,-46.694C-124.997,-47.281 -126.599,-47.578 -128.31,-47.578C-129.312,-47.578 -130.373,-47.466 -131.472,-47.243C-132.191,-47.466 -132.937,-47.578 -133.695,-47.578L-134.35,-47.578C-135.671,-47.578 -136.974,-47.229 -138.119,-46.569L-139.746,-45.63C-141.881,-46.908 -144.418,-47.578 -147.156,-47.578C-148.497,-47.578 -149.812,-47.421 -151.085,-47.11C-153.986,-52.528 -159.675,-55.828 -166.311,-55.828L-180.187,-55.828C-192.72,-55.828 -198.428,-47.589 -198.428,-39.933C-198.428,-34.079 -195.172,-29.265 -190.245,-27.43C-190.363,-27.13 -190.461,-26.822 -190.54,-26.508L-190.678,-25.955C-191.246,-23.686 -190.746,-21.328 -189.307,-19.484C-187.868,-17.641 -185.701,-16.584 -183.363,-16.584L-173.493,-16.584C-174.28,-14.706 -174.699,-12.669 -174.699,-10.631C-174.699,-2.922 -169.336,2.674 -161.946,2.674C-161.111,2.674 -160.289,2.601 -159.486,2.457L-159.21,5.797C-158.89,9.678 -155.589,12.718 -151.695,12.718L-150.866,12.718C-148.227,12.718 -145.765,11.323 -144.406,9.068C-143.073,11.258 -140.659,12.718 -137.957,12.718L-137.129,12.718C-134.445,12.718 -131.943,11.275 -130.6,8.952L-129.528,7.098C-126.413,10.989 -121.679,13.236 -116.351,13.236C-113.588,13.236 -110.902,12.635 -108.35,11.447C-107.118,12.274 -105.672,12.718 -104.168,12.718L-94.779,12.718C-93.062,12.718 -91.418,12.132 -90.102,11.093C-88.786,12.132 -87.142,12.718 -85.425,12.718L-71.033,12.718C-68.973,12.718 -67.029,11.858 -65.632,10.43C-59.987,17.547 -53.671,20.623 -44.938,20.623C-39.95,20.623 -34.882,18.743 -31.034,15.466C-26.568,11.66 -24.108,6.388 -24.108,0.621C-24.108,-3.826 -25.539,-7.424 -27.774,-10.113C-26.597,-9.82 -25.299,-9.646 -23.867,-9.646C-18.541,-9.646 -13.917,-12.322 -11.99,-16.41C-9.453,-16.957 -7.122,-18.143 -5.198,-19.874C-2.399,-22.393 -0.794,-25.779 -0.794,-29.164C-0.794,-29.912 -0.883,-30.645 -1.058,-31.355C-0.371,-32.514 0,-33.85 0,-35.205" style="fill:white;fill-rule:nonzero;"/>
        </g>
        <g transform="matrix(1,0,0,1,196.596,55.8286)">
            <path d="M0,-35.206C0,-41.314 -4.811,-45.747 -11.439,-45.747C-13.632,-45.747 -15.679,-45.277 -17.506,-44.43C-18.377,-44.945 -19.377,-45.229 -20.413,-45.229L-29.373,-45.229C-29.352,-45.452 -29.339,-45.678 -29.339,-45.906C-29.339,-49.94 -32.498,-53.099 -36.532,-53.099C-39.285,-53.099 -41.685,-51.559 -42.916,-49.296C-43.845,-49.919 -44.946,-50.269 -46.093,-50.269L-46.782,-50.269C-49.138,-50.269 -51.252,-48.822 -52.104,-46.626C-52.891,-44.599 -53.136,-44.52 -53.726,-44.328C-54.006,-44.237 -54.272,-44.118 -54.53,-43.988C-54.857,-44.203 -55.202,-44.399 -55.561,-44.576C-56.411,-47.798 -59.569,-50.131 -63.453,-50.131C-67.069,-50.131 -70.506,-48.226 -73.294,-45.738C-74.186,-45.689 -75.056,-45.431 -75.833,-44.983L-78.094,-43.679C-79.957,-44.976 -82.349,-45.747 -84.991,-45.747C-88.293,-45.747 -91.304,-44.59 -93.711,-42.619C-95.9,-44.582 -98.817,-45.747 -102.11,-45.747C-104.991,-45.747 -107.655,-44.941 -109.905,-43.534C-111.597,-44.954 -113.892,-45.747 -116.433,-45.747C-118.21,-45.747 -120.084,-45.331 -121.798,-44.735C-123.159,-45.391 -124.746,-45.747 -126.478,-45.747C-127.598,-45.747 -128.713,-45.586 -129.757,-45.344C-130.419,-45.607 -131.132,-45.747 -131.863,-45.747L-132.518,-45.747C-133.519,-45.747 -134.503,-45.483 -135.371,-44.983L-137.981,-43.477C-139.927,-44.915 -142.454,-45.747 -145.323,-45.747C-147.065,-45.747 -148.714,-45.45 -150.235,-44.905C-152.505,-50.411 -157.809,-53.996 -164.479,-53.996L-178.355,-53.996C-189.629,-53.996 -194.764,-46.707 -194.764,-39.935C-194.764,-33.903 -190.983,-29.372 -185.556,-28.584C-186.206,-27.891 -186.688,-27.031 -186.93,-26.064L-187.068,-25.512C-187.495,-23.806 -187.112,-21.999 -186.03,-20.613C-184.949,-19.227 -183.289,-18.417 -181.53,-18.417L-168.655,-18.417C-168.625,-18.417 -168.595,-18.419 -168.564,-18.419C-170.229,-16.063 -171.035,-13.308 -171.035,-10.632C-171.035,-3.985 -166.442,0.84 -160.114,0.84C-158.654,0.84 -157.269,0.584 -156.008,0.116L-155.552,5.646C-155.308,8.607 -152.833,10.885 -149.862,10.885L-149.034,10.885C-146.993,10.885 -145.107,9.796 -144.088,8.028L-141.925,4.275L-141.815,5.636C-141.575,8.601 -139.099,10.885 -136.125,10.885L-135.296,10.885C-133.258,10.885 -131.374,9.798 -130.354,8.034L-127.797,3.612C-125.282,8.381 -120.451,11.403 -114.519,11.403C-111.594,11.403 -108.798,10.636 -106.292,9.283C-105.235,10.3 -103.822,10.885 -102.335,10.885L-92.947,10.885C-91.041,10.885 -89.314,9.942 -88.27,8.451C-87.212,9.961 -85.473,10.885 -83.593,10.885L-78.622,10.885C-78.616,10.885 -78.609,10.884 -78.603,10.884C-78.598,10.884 -78.593,10.885 -78.589,10.885L-69.2,10.885C-66.825,10.885 -64.727,9.42 -63.882,7.253C-58.424,15.032 -52.523,18.79 -43.105,18.79C-38.546,18.79 -33.912,17.069 -30.39,14.07C-26.339,10.618 -24.108,5.842 -24.108,0.62C-24.108,-8.917 -31.495,-14.063 -38.446,-14.063C-38.543,-14.063 -38.641,-14.062 -38.738,-14.061C-38.472,-14.837 -38.328,-15.68 -38.328,-16.569C-38.328,-17.185 -38.421,-17.805 -38.584,-18.417L-38.499,-18.417C-38.262,-18.417 -38.029,-18.436 -37.798,-18.465C-37.563,-18.435 -37.325,-18.417 -37.084,-18.417L-35.911,-18.417C-35.334,-18.417 -35.138,-18.417 -33.183,-16.608C-31.014,-14.557 -27.738,-11.479 -22.035,-11.479C-16.952,-11.479 -12.78,-14.208 -11.474,-18.035C-8.909,-18.402 -6.515,-19.506 -4.591,-21.237C-2.178,-23.409 -0.794,-26.299 -0.794,-29.166C-0.794,-30.049 -0.949,-30.89 -1.233,-31.663C-0.453,-32.647 0,-33.886 0,-35.206" style="fill:rgb(231,85,152);fill-rule:nonzero;"/>
        </g>
        <g transform="matrix(1,0,0,1,27.5263,30.5641)">
            <path d="M0,-21.884C-0.656,-21.884 -1.105,-21.504 -1.277,-20.848L-6.179,-1.036C-6.317,-0.38 -6.075,0 -5.419,0L0.414,0C6.834,0 12.012,-5.385 12.012,-14.463C12.012,-20.089 8.836,-21.884 4.349,-21.884L0,-21.884ZM-12.461,1.139L-12.323,0.586C-9.251,0.414 -8.56,0.241 -7.835,-2.727L-3.762,-19.157C-3.279,-21.263 -3.452,-21.884 -6.04,-21.884L-9.285,-21.884C-14.98,-21.884 -18.639,-19.088 -18.639,-14.67C-18.639,-12.012 -17.19,-10.045 -14.773,-10.045C-13.324,-10.045 -12.392,-10.493 -12.392,-11.563C-12.392,-12.288 -12.979,-12.84 -12.979,-13.738C-12.979,-14.67 -12.288,-15.291 -11.425,-15.291C-10.355,-15.291 -9.63,-14.428 -9.63,-13.324C-9.63,-10.839 -11.77,-8.906 -14.773,-8.906C-18.018,-8.906 -19.985,-11.218 -19.985,-14.67C-19.985,-18.95 -16.741,-23.023 -9.285,-23.023L4.591,-23.023C10.389,-23.023 14.324,-19.261 14.324,-13.393C14.324,-5.178 8.111,1.139 0.414,1.139L-12.461,1.139Z" style="fill:white;fill-rule:nonzero;"/>
        </g>
        <g transform="matrix(1,0,0,1,55.1041,27.8717)">
            <path d="M0,-7.732C0,-10.183 -1.588,-11.08 -3.797,-11.08C-7.904,-11.08 -9.63,-7.663 -10.217,-4.522L0,-7.732ZM-3.831,-12.081C-1.105,-12.081 1.899,-10.735 1.899,-7.249L-10.355,-3.417C-10.424,-2.831 -10.424,-2.416 -10.424,-1.968C-10.424,0.897 -9.147,3.348 -5.523,3.348C-2.865,3.348 -1.312,1.829 -1.312,0.828C-1.312,0.138 -1.726,-0.242 -1.726,-0.863C-1.726,-1.899 -0.897,-2.52 -0.173,-2.52C0.794,-2.52 1.105,-1.795 1.105,-1.208C1.105,1.208 -1.691,4.349 -5.764,4.349C-10.148,4.349 -12.599,1.346 -12.599,-2.451C-12.599,-8.491 -8.457,-12.081 -3.831,-12.081" style="fill:white;fill-rule:nonzero;"/>
        </g>
        <g transform="matrix(1,0,0,1,66.3558,15.7909)">
            <path d="M0,15.912L0.138,15.36C2.209,15.187 2.796,14.773 3.141,13.427L5.385,4.349C5.937,2.14 5.04,1.173 3.245,1.173C1.415,1.173 -0.518,1.829 -2.347,2.865L-4.936,13.427C-5.281,14.773 -4.936,15.187 -2.934,15.36L-3.072,15.912L-10.044,15.912L-9.906,15.36C-7.835,15.187 -7.248,14.773 -6.903,13.427L-4.591,4.142C-4.418,3.279 -4.66,2.968 -5.488,2.968L-6.834,2.968L-6.765,2.588L-2.278,0L-1.622,0L-2.036,1.691C-0.518,0.897 1.83,0 3.762,0C5.074,0 6.869,0.414 7.387,2.036C9.147,1.001 11.839,0 13.807,0C15.602,0 18.294,0.759 17.397,4.314L15.153,13.427C14.808,14.773 15.153,15.187 17.155,15.36L17.017,15.912L12.564,15.912L15.429,4.349C15.981,2.14 15.084,1.173 13.289,1.173C11.391,1.173 9.389,1.864 7.525,2.968C7.525,3.382 7.456,3.831 7.352,4.314L5.109,13.427C4.763,14.773 5.109,15.187 7.111,15.36L6.972,15.912L0,15.912Z" style="fill:white;fill-rule:nonzero;"/>
        </g>
        <g transform="matrix(1,0,0,1,99.146,26.0412)">
            <path d="M0,-4.072C0,-7.144 -1.553,-9.25 -4.867,-9.25C-9.665,-9.25 -11.598,-3.934 -11.598,0.001C-11.598,3.073 -10.044,5.179 -6.731,5.179C-1.898,5.179 0,-0.137 0,-4.072M2.14,-3.278C2.14,1.83 -1.519,6.179 -6.938,6.179C-11.011,6.179 -13.738,3.245 -13.738,-0.793C-13.738,-5.902 -10.079,-10.251 -4.66,-10.251C-0.587,-10.251 2.14,-7.317 2.14,-3.278" style="fill:white;fill-rule:nonzero;"/>
        </g>
        <g transform="matrix(1,0,0,1,114.298,28.6993)">
            <path d="M0,-9.388C0,-10.7 -0.794,-11.908 -2.796,-11.908C-7.801,-11.908 -9.216,-5.971 -9.216,-2.588C-9.216,0.691 -7.559,2.52 -4.66,2.52C-2.278,2.52 -0.345,0.898 1.208,-1.622L2.105,-1.035C0.449,1.726 -1.795,3.521 -4.66,3.521C-9.078,3.521 -11.425,0.932 -11.425,-2.795C-11.425,-8.076 -8.042,-12.909 -2.692,-12.909C0.38,-12.909 2.451,-11.183 2.451,-9.319C2.451,-8.352 1.864,-7.973 1.277,-7.973C0.587,-7.973 0,-8.491 0,-9.388" style="fill:white;fill-rule:nonzero;"/>
        </g>
        <g transform="matrix(1,0,0,1,115.85,11.4069)">
            <path d="M0,20.296L0.138,19.744C2.209,19.571 2.796,19.157 3.141,17.811L5.453,8.526C5.661,7.663 5.384,7.352 4.556,7.352L3.21,7.352L3.279,6.972L7.766,4.384L8.422,4.384L7.766,7.007C9.941,3.659 13.945,0 17.293,0C18.605,0 19.709,0.656 19.709,1.588C19.709,2.14 19.295,2.9 18.397,2.9C17.017,2.9 17.12,1.622 15.912,1.622C13.392,1.622 9.388,5.454 7.11,9.699L5.108,17.811C4.763,19.157 5.108,19.571 7.11,19.744L6.972,20.296L0,20.296Z" style="fill:white;fill-rule:nonzero;"/>
        </g>
        <g transform="matrix(1,0,0,1,137.25,23.9367)">
            <path d="M0,0.069C-6.109,0.172 -9.388,1.933 -9.388,4.936C-9.388,6.385 -8.319,7.145 -6.731,7.145C-5.178,7.145 -3.21,6.42 -1.208,5.039L0,0.069ZM-7.248,8.215C-9.872,8.215 -11.667,7.076 -11.667,4.97C-11.667,1.139 -7.352,-0.76 0.207,-0.829L0.863,-3.417C1.588,-6.282 0.414,-7.18 -1.726,-7.18C-3.521,-7.18 -4.936,-6.489 -5.626,-4.902C-6.075,-3.866 -6.627,-3.452 -7.145,-3.452C-7.663,-3.452 -8.042,-3.762 -8.042,-4.315C-8.042,-6.351 -5.212,-8.146 -1.657,-8.146C0.967,-8.146 3.762,-7.076 2.83,-3.417L0.794,4.763C0.449,6.178 0.587,6.903 1.45,6.903C1.83,6.903 2.313,6.765 2.969,6.454L2.727,7.421C2.002,7.87 1.277,8.111 0.345,8.111C-0.794,8.111 -1.449,7.49 -1.415,6.178C-3.003,7.317 -4.729,8.215 -7.248,8.215" style="fill:white;fill-rule:nonzero;"/>
        </g>
        <g transform="matrix(1,0,0,1,149.779,11.9587)">
            <path d="M0,19.399C-0.794,19.779 -2.071,20.089 -2.934,20.089C-4.729,20.089 -6.213,19.364 -5.419,16.223L-2.727,5.351L-5.247,5.351L-5.143,4.971C-2.278,4.039 -1.105,2.244 0.035,-0.69L0.725,-0.69L-0.552,4.35L3.728,4.35L3.486,5.351L-0.794,5.351L-3.555,16.396C-3.969,18.018 -3.624,18.881 -2.105,18.881C-1.277,18.881 -0.621,18.743 0.242,18.432L0,19.399Z" style="fill:white;fill-rule:nonzero;"/>
        </g>
        <g transform="matrix(1,0,0,1,161.549,30.2186)">
            <path d="M0,-20.296C0,-19.467 -0.69,-18.777 -1.588,-18.777C-2.416,-18.777 -3.037,-19.398 -3.037,-20.227C-3.037,-21.09 -2.347,-21.78 -1.484,-21.78C-0.621,-21.78 0,-21.159 0,-20.296M-10.424,1.484L-10.286,0.932C-8.215,0.76 -7.628,0.345 -7.283,-1.001L-4.971,-10.286C-4.798,-11.149 -5.04,-11.46 -5.868,-11.46L-7.214,-11.46L-7.145,-11.839L-2.658,-14.428L-2.002,-14.428L-5.316,-1.001C-5.661,0.345 -5.316,0.76 -3.314,0.932L-3.452,1.484L-10.424,1.484Z" style="fill:white;fill-rule:nonzero;"/>
        </g>
        <g transform="matrix(1,0,0,1,167.312,19.8981)">
            <path d="M0,15.153C-2.796,12.564 -4.142,11.805 -6.627,11.805L-7.801,11.805L-7.663,11.252L5.73,-2.589L3.486,-2.589C-0.173,-2.589 -1.933,-2.002 -4.349,0.621L-4.832,0.311L-2.347,-3.59L8.871,-3.59L8.767,-3.037L-4.867,11.011C-3.21,11.218 -1.933,12.046 0.587,14.29C2.52,15.981 4.556,17.742 7.248,17.742C10.113,17.742 9.63,14.221 11.529,14.221C12.115,14.221 12.53,14.601 12.53,15.326C12.53,17.017 10.493,18.743 7.248,18.743C3.831,18.743 1.898,16.948 0,15.153" style="fill:white;fill-rule:nonzero;"/>
        </g>
        <g transform="matrix(1,0,0,1,188.989,27.8717)">
            <path d="M0,-7.732C0,-10.183 -1.588,-11.08 -3.797,-11.08C-7.904,-11.08 -9.63,-7.663 -10.217,-4.522L0,-7.732ZM-3.831,-12.081C-1.105,-12.081 1.899,-10.735 1.899,-7.249L-10.355,-3.417C-10.424,-2.831 -10.424,-2.416 -10.424,-1.968C-10.424,0.897 -9.147,3.348 -5.523,3.348C-2.865,3.348 -1.312,1.829 -1.312,0.828C-1.312,0.138 -1.726,-0.242 -1.726,-0.863C-1.726,-1.899 -0.897,-2.52 -0.173,-2.52C0.794,-2.52 1.105,-1.795 1.105,-1.208C1.105,1.208 -1.691,4.349 -5.764,4.349C-10.148,4.349 -12.599,1.346 -12.599,-2.451C-12.599,-8.491 -8.457,-12.081 -3.831,-12.081" style="fill:white;fill-rule:nonzero;"/>
        </g>
        <g transform="matrix(1,0,0,1,69.9979,61.005)">
            <path d="M0,-24.162L7.249,-24.162L7.111,-23.61C5.212,-23.437 4.349,-22.574 3.038,-20.296L-8.698,0L-9.526,0L-11.114,-19.64L-22.436,0L-23.264,0L-24.99,-20.917C-25.163,-22.816 -25.68,-23.023 -27.096,-23.023L-28.028,-23.023C-33.723,-23.023 -37.382,-20.227 -37.382,-15.809C-37.382,-13.151 -35.932,-11.183 -33.516,-11.183C-32.066,-11.183 -31.134,-11.632 -31.134,-12.702C-31.134,-13.531 -31.721,-13.945 -31.721,-14.877C-31.721,-15.809 -31.031,-16.43 -30.168,-16.43C-29.098,-16.43 -28.373,-15.567 -28.373,-14.463C-28.373,-11.977 -30.513,-10.045 -33.516,-10.045C-36.76,-10.045 -38.728,-12.357 -38.728,-15.809C-38.728,-20.089 -35.483,-24.162 -28.028,-24.162L-19.157,-24.162L-19.295,-23.61C-22.194,-23.437 -23.023,-22.85 -22.885,-21.09L-21.504,-3.728L-11.287,-21.47C-11.46,-22.954 -11.943,-23.472 -13.53,-23.61L-13.393,-24.162L-5.419,-24.162L-5.557,-23.61C-8.457,-23.437 -9.285,-22.85 -9.147,-21.09L-7.732,-3.762L1.795,-20.296C3.107,-22.574 2.934,-23.437 -0.138,-23.61L0,-24.162Z" style="fill:white;fill-rule:nonzero;"/>
        </g>
        <g transform="matrix(1,0,0,1,93.1919,52.5478)">
            <path d="M0,-7.248C0,-11.977 -2.313,-15.083 -7.249,-15.083C-15.015,-15.083 -18.294,-6.074 -18.294,0.001C-18.294,4.729 -15.981,7.836 -11.045,7.836C-3.314,7.836 0,-1.173 0,-7.248M2.243,-6.178C2.243,1.554 -3.486,8.975 -11.115,8.975C-16.672,8.975 -20.572,4.936 -20.572,-1.07C-20.572,-8.801 -14.808,-16.223 -7.214,-16.223C-1.657,-16.223 2.243,-12.184 2.243,-6.178" style="fill:white;fill-rule:nonzero;"/>
        </g>
        <g transform="matrix(1,0,0,1,106.722,59.8662)">
            <path d="M0,-21.884C-0.656,-21.884 -1.105,-21.504 -1.277,-20.848L-3.417,-12.185L3.452,-12.185C8.146,-12.185 10.735,-14.049 10.735,-17.742C10.735,-20.4 8.802,-21.884 4.832,-21.884L0,-21.884ZM7.352,-1.484C7.87,-0.449 8.871,0.448 11.391,0.586L11.252,1.139L6.282,1.139L0.345,-11.046L-3.693,-11.046L-5.73,-2.727C-6.455,0.241 -5.937,0.414 -2.934,0.586L-3.072,1.139L-12.461,1.139L-12.323,0.586C-9.251,0.414 -8.56,0.241 -7.835,-2.727L-3.762,-19.157C-3.037,-22.126 -3.383,-22.298 -6.627,-22.471L-6.489,-23.023L4.97,-23.023C9.699,-23.023 13.186,-21.47 13.186,-17.811C13.186,-12.875 8.388,-11.046 2.692,-11.046L7.352,-1.484Z" style="fill:white;fill-rule:nonzero;"/>
        </g>
        <g transform="matrix(1,0,0,1,118.007,44.16)">
            <path d="M0,16.845L0.138,16.293C3.21,16.12 3.866,15.948 4.591,12.979L8.664,-3.451C9.389,-6.419 8.836,-6.592 5.833,-6.765L5.971,-7.317L15.36,-7.317L15.222,-6.765C12.15,-6.592 11.494,-6.419 10.769,-3.451L8.319,6.421L9.457,5.247C18.052,-3.624 23.575,-7.904 29.201,-7.904C31.617,-7.904 34.551,-6.765 34.551,-4.901C34.551,-4.21 34.241,-3.244 32.825,-3.244C30.34,-3.244 31.894,-6.765 28.407,-6.765C25.025,-6.765 20.469,-3.762 14.117,2.244C20.365,14.325 25.404,23.438 35.483,23.438C40.523,23.438 47.461,19.572 47.461,12.289C47.461,7.422 43.975,4.453 40.143,4.453C37.071,4.453 34.275,6.248 34.275,8.388C34.275,10.736 36.898,10.425 36.898,12.392C36.898,13.29 36.243,14.118 35.173,14.118C33.619,14.118 32.377,12.703 32.377,10.011C32.377,6.421 35.656,3.314 40.143,3.314C44.423,3.314 48.772,6.455 48.772,12.289C48.772,19.951 41.8,24.749 35.483,24.749C25.197,24.749 20.469,19.537 12.599,3.728L7.766,8.63L6.696,12.979C5.971,15.948 6.524,16.12 9.526,16.293L9.389,16.845L0,16.845Z" style="fill:white;fill-rule:nonzero;"/>
        </g>
    </g>
</svg>
