<svg width="149" height="166" viewBox="0 0 149 166" fill="none" xmlns="http://www.w3.org/2000/svg">
<g clip-path="url(#clip0_286_3)">
<path d="M71.5156 4.55859C73.3641 3.49882 75.6359 3.49882 77.4844 4.55859L141.334 41.1748C143.199 42.2443 144.349 44.2301 144.349 46.3799V119.553C144.349 121.703 143.199 123.688 141.334 124.758L77.4854 161.374C75.6368 162.434 73.3642 162.434 71.5156 161.374L7.66602 124.758C5.80119 123.688 4.65137 121.702 4.65137 119.553V46.3799C4.65137 44.2301 5.80112 42.2443 7.66602 41.1748L71.5156 4.55859Z" fill="#5A835E" stroke="black" stroke-width="2"/>
<path d="M72.7588 6.72754C73.8372 6.10912 75.1628 6.10912 76.2412 6.72754L140.09 43.3438C141.178 43.9676 141.849 45.1258 141.849 46.3799V119.553C141.849 120.807 141.178 121.966 140.09 122.59L76.2412 159.205C75.1628 159.824 73.8372 159.824 72.7588 159.205L8.91016 122.59C7.82227 121.966 7.15137 120.807 7.15137 119.553V46.3799C7.15137 45.1258 7.82228 43.9676 8.91016 43.3438L72.7588 6.72754Z" stroke="white" stroke-width="3"/>
<path d="M58.4607 45.7607C57.4707 45.7607 56.8107 45.1007 56.8107 44.1107V43.2107H58.0107V44.1907C58.0107 44.4607 58.1907 44.6407 58.4607 44.6407C58.7307 44.6407 58.9107 44.4607 58.9107 44.1907V43.6107C58.9107 42.3607 56.8107 41.9607 56.8107 40.1107V39.5107C56.8107 38.5107 57.4607 37.8607 58.4607 37.8607C59.4507 37.8607 60.1107 38.5207 60.1107 39.5107V40.4107H58.9107V39.4307C58.9107 39.1607 58.7307 38.9807 58.4607 38.9807C58.1907 38.9807 58.0107 39.1607 58.0107 39.4307V40.0107C58.0107 41.2507 60.1107 41.6607 60.1107 43.5107V44.1107C60.1107 45.1107 59.4607 45.7607 58.4607 45.7607ZM64.0588 45.7607C63.0688 45.7607 62.4088 45.1007 62.4088 44.1107V38.0107H63.6088V44.1907C63.6088 44.4607 63.7888 44.6407 64.0588 44.6407C64.3288 44.6407 64.5088 44.4607 64.5088 44.1907V38.0107H65.7088V44.1107C65.7088 45.1107 65.0588 45.7607 64.0588 45.7607ZM68.2595 45.6107V38.0107H69.9095C70.8995 38.0107 71.5595 38.6707 71.5595 39.6607V41.1607C71.5595 42.1607 70.9095 42.8107 69.9095 42.8107H69.4595V45.6107H68.2595ZM69.4595 41.6907H69.9095C70.1795 41.6907 70.3595 41.5107 70.3595 41.2407V39.5807C70.3595 39.3107 70.1795 39.1307 69.9095 39.1307H69.4595V41.6907ZM73.8552 45.6107V38.0107H75.5052C76.4952 38.0107 77.1552 38.6707 77.1552 39.6607V41.1607C77.1552 42.1607 76.5052 42.8107 75.5052 42.8107H75.0552V45.6107H73.8552ZM75.0552 41.6907H75.5052C75.7752 41.6907 75.9552 41.5107 75.9552 41.2407V39.5807C75.9552 39.3107 75.7752 39.1307 75.5052 39.1307H75.0552V41.6907ZM81.0009 45.7607C80.0109 45.7607 79.3509 45.1007 79.3509 44.1107V39.5107C79.3509 38.5107 80.0009 37.8607 81.0009 37.8607C81.9909 37.8607 82.6509 38.5207 82.6509 39.5107V44.1107C82.6509 45.1107 82.0009 45.7607 81.0009 45.7607ZM81.0009 44.6407C81.2709 44.6407 81.4509 44.4607 81.4509 44.1907V39.4307C81.4509 39.1607 81.2709 38.9807 81.0009 38.9807C80.7309 38.9807 80.5509 39.1607 80.5509 39.4307V44.1907C80.5509 44.4607 80.7309 44.6407 81.0009 44.6407ZM85.1541 45.6107V38.0107H86.8041C87.7941 38.0107 88.4541 38.6707 88.4541 39.6607V41.1607C88.4541 41.8007 88.1841 42.3007 87.7241 42.5707L88.6541 45.6107H87.4041L86.5441 42.8107H86.3541V45.6107H85.1541ZM86.3541 41.6907H86.8041C87.0741 41.6907 87.2541 41.5107 87.2541 41.2407V39.5807C87.2541 39.3107 87.0741 39.1307 86.8041 39.1307H86.3541V41.6907ZM91.706 45.6107V39.1307H90.356V38.0107H94.256V39.1307H92.906V45.6107H91.706ZM49.4119 129.611V122.011H51.0619C52.0519 122.011 52.7119 122.671 52.7119 123.661V124.611C52.7119 125.111 52.5419 125.521 52.2519 125.811C52.5419 126.101 52.7119 126.511 52.7119 127.011V127.961C52.7119 128.961 52.0619 129.611 51.0619 129.611H49.4119ZM50.6119 125.251H51.0619C51.3319 125.251 51.5119 125.071 51.5119 124.801V123.581C51.5119 123.311 51.3319 123.131 51.0619 123.131H50.6119V125.251ZM50.6119 128.491H51.0619C51.3319 128.491 51.5119 128.311 51.5119 128.041V126.821C51.5119 126.551 51.3319 126.371 51.0619 126.371H50.6119V128.491ZM56.6662 129.761C55.6762 129.761 55.0162 129.101 55.0162 128.111V122.011H56.2162V128.191C56.2162 128.461 56.3962 128.641 56.6662 128.641C56.9362 128.641 57.1162 128.461 57.1162 128.191V122.011H58.3162V128.111C58.3162 129.111 57.6662 129.761 56.6662 129.761ZM62.367 129.761C61.377 129.761 60.717 129.101 60.717 128.111V127.211H61.917V128.191C61.917 128.461 62.097 128.641 62.367 128.641C62.637 128.641 62.817 128.461 62.817 128.191V127.611C62.817 126.361 60.717 125.961 60.717 124.111V123.511C60.717 122.511 61.367 121.861 62.367 121.861C63.357 121.861 64.017 122.521 64.017 123.511V124.411H62.817V123.431C62.817 123.161 62.637 122.981 62.367 122.981C62.097 122.981 61.917 123.161 61.917 123.431V124.011C61.917 125.251 64.017 125.661 64.017 127.511V128.111C64.017 129.111 63.367 129.761 62.367 129.761ZM66.4627 129.611V122.011H67.6627V129.611H66.4627ZM70.2615 129.611V122.011H71.2515L72.5615 125.731V122.011H73.7615V129.611H72.7615L71.4615 125.921V129.611H70.2615ZM76.365 129.611V122.011H79.465V123.131H77.565V125.251H79.065V126.371H77.565V128.491H79.465V129.611H76.365ZM83.2166 129.761C82.2266 129.761 81.5666 129.101 81.5666 128.111V127.211H82.7666V128.191C82.7666 128.461 82.9466 128.641 83.2166 128.641C83.4866 128.641 83.6666 128.461 83.6666 128.191V127.611C83.6666 126.361 81.5666 125.961 81.5666 124.111V123.511C81.5666 122.511 82.2166 121.861 83.2166 121.861C84.2066 121.861 84.8666 122.521 84.8666 123.511V124.411H83.6666V123.431C83.6666 123.161 83.4866 122.981 83.2166 122.981C82.9466 122.981 82.7666 123.161 82.7666 123.431V124.011C82.7666 125.251 84.8666 125.661 84.8666 127.511V128.111C84.8666 129.111 84.2166 129.761 83.2166 129.761ZM88.8123 129.761C87.8223 129.761 87.1623 129.101 87.1623 128.111V127.211H88.3623V128.191C88.3623 128.461 88.5423 128.641 88.8123 128.641C89.0823 128.641 89.2623 128.461 89.2623 128.191V127.611C89.2623 126.361 87.1623 125.961 87.1623 124.111V123.511C87.1623 122.511 87.8123 121.861 88.8123 121.861C89.8023 121.861 90.4623 122.521 90.4623 123.511V124.411H89.2623V123.431C89.2623 123.161 89.0823 122.981 88.8123 122.981C88.5423 122.981 88.3623 123.161 88.3623 123.431V124.011C88.3623 125.251 90.4623 125.661 90.4623 127.511V128.111C90.4623 129.111 89.8123 129.761 88.8123 129.761ZM92.908 129.611V122.011H96.008V123.131H94.108V125.251H95.608V126.371H94.108V128.491H96.008V129.611H92.908ZM99.7595 129.761C98.7695 129.761 98.1095 129.101 98.1095 128.111V127.211H99.3095V128.191C99.3095 128.461 99.4895 128.641 99.7595 128.641C100.03 128.641 100.21 128.461 100.21 128.191V127.611C100.21 126.361 98.1095 125.961 98.1095 124.111V123.511C98.1095 122.511 98.7595 121.861 99.7595 121.861C100.75 121.861 101.41 122.521 101.41 123.511V124.411H100.21V123.431C100.21 123.161 100.03 122.981 99.7595 122.981C99.4895 122.981 99.3095 123.161 99.3095 123.431V124.011C99.3095 125.251 101.41 125.661 101.41 127.511V128.111C101.41 129.111 100.76 129.761 99.7595 129.761Z" fill="white"/>
<path d="M44.3672 78.349L42.3272 80.389H36.8872L35.9012 72.569L35.1872 78.349L33.1472 80.389H27.7072L24.7832 54.549L26.8232 52.509H30.9372L31.8552 62.573L32.9772 54.549L35.0172 52.509H39.0972L40.4912 62.233L41.1712 54.549L43.2112 52.509H47.2912L44.3672 78.349ZM34.5752 77.669L37.0572 58.663L39.5392 77.669H43.7892L46.5092 53.189H43.7892L41.6472 74.949L38.4852 53.189H35.6292L32.4672 74.949L30.3252 53.189H27.6052L30.3592 77.669H34.5752ZM53.5876 80.899C50.2216 80.899 47.9776 78.655 47.9776 75.289V59.649C47.9776 57.949 48.5216 56.555 49.5076 55.569L51.5476 53.529C52.5336 52.543 53.9276 51.999 55.6276 51.999C58.9936 51.999 61.2376 54.243 61.2376 57.609V73.249C61.2376 74.949 60.6936 76.343 59.7076 77.329L57.6676 79.369C56.6816 80.355 55.2876 80.899 53.5876 80.899ZM55.6276 78.179C58.5856 78.179 60.5576 76.207 60.5576 73.249V57.609C60.5576 54.651 58.5856 52.679 55.6276 52.679C52.6696 52.679 50.6976 54.651 50.6976 57.609V73.249C50.6976 76.207 52.6696 78.179 55.6276 78.179ZM55.6276 75.731C54.3016 75.731 53.4176 74.847 53.4176 73.521V57.337C53.4176 56.011 54.3016 55.127 55.6276 55.127C56.9536 55.127 57.8376 56.011 57.8376 57.337V73.521C57.8376 74.847 56.9536 75.731 55.6276 75.731ZM55.1176 74.983V59.377C55.1176 58.629 54.7096 58.119 54.0976 57.915V73.521C54.0976 74.269 54.5056 74.779 55.1176 74.983ZM74.7462 68.013L77.9082 78.349L75.8682 80.389H71.6182L70.0882 75.425V78.349L68.0482 80.389H63.9682V54.549L66.0082 52.509H71.6182C74.9842 52.509 77.2282 54.753 77.2282 58.119V63.219C77.2282 65.395 76.3102 67.095 74.7462 68.013ZM74.1342 77.669H76.9902L73.9302 67.673C75.5622 66.925 76.5482 65.327 76.5482 63.219V58.119C76.5482 55.161 74.5762 53.189 71.6182 53.189H66.6882V77.669H69.4082V68.149H71.2442L74.1342 77.669ZM71.6182 55.637C72.9442 55.637 73.8282 56.521 73.8282 57.847V63.491C73.8282 64.817 72.9442 65.701 71.6182 65.701H69.4082V55.637H71.6182ZM71.1082 65.021V59.887C71.1082 59.139 70.7002 58.629 70.0882 58.425V65.021H71.1082ZM80.1169 80.389V54.549L82.1569 52.509H86.2369V57.779L87.6989 54.549L89.7389 52.509H94.2269L89.7049 62.471L94.4649 78.349L92.4249 80.389H88.1409L86.2369 73.963V78.349L84.1969 80.389H80.1169ZM82.8369 77.669H85.5569V70.019L87.2909 66.211L90.6909 77.669H93.5469L88.9909 62.437L93.1729 53.189H90.1809L85.5569 63.423V53.189H82.8369V77.669ZM95.1366 80.389V54.549L97.1766 52.509H107.717V56.317L105.677 58.357H101.257V63.525H106.357V67.333L104.317 69.373H101.257V74.541H107.717V78.349L105.677 80.389H95.1366ZM97.8566 77.669H107.037V75.221H100.577V66.653H105.677V64.205H100.577V55.637H107.037V53.189H97.8566V77.669ZM120.37 68.013L123.532 78.349L121.492 80.389H117.242L115.712 75.425V78.349L113.672 80.389H109.592V54.549L111.632 52.509H117.242C120.608 52.509 122.852 54.753 122.852 58.119V63.219C122.852 65.395 121.934 67.095 120.37 68.013ZM119.758 77.669H122.614L119.554 67.673C121.186 66.925 122.172 65.327 122.172 63.219V58.119C122.172 55.161 120.2 53.189 117.242 53.189H112.312V77.669H115.032V68.149H116.868L119.758 77.669ZM117.242 55.637C118.568 55.637 119.452 56.521 119.452 57.847V63.491C119.452 64.817 118.568 65.701 117.242 65.701H115.032V55.637H117.242ZM116.732 65.021V59.887C116.732 59.139 116.324 58.629 115.712 58.425V65.021H116.732ZM39.2545 113.899C35.8885 113.899 33.6445 111.655 33.6445 108.289V92.649C33.6445 90.949 34.1885 89.555 35.1745 88.569L37.2145 86.529C38.2005 85.543 39.5945 84.999 41.2945 84.999C44.6605 84.999 46.9045 87.243 46.9045 90.609V106.249C46.9045 107.949 46.3605 109.343 45.3745 110.329L43.3345 112.369C42.3485 113.355 40.9545 113.899 39.2545 113.899ZM41.2945 111.179C44.2525 111.179 46.2245 109.207 46.2245 106.249V90.609C46.2245 87.651 44.2525 85.679 41.2945 85.679C38.3365 85.679 36.3645 87.651 36.3645 90.609V106.249C36.3645 109.207 38.3365 111.179 41.2945 111.179ZM41.2945 108.731C39.9685 108.731 39.0845 107.847 39.0845 106.521V90.337C39.0845 89.011 39.9685 88.127 41.2945 88.127C42.6205 88.127 43.5045 89.011 43.5045 90.337V106.521C43.5045 107.847 42.6205 108.731 41.2945 108.731ZM40.7845 107.983V92.377C40.7845 91.629 40.3765 91.119 39.7645 90.915V106.521C39.7645 107.269 40.1725 107.779 40.7845 107.983ZM67.1791 111.349L65.1391 113.389H59.6991L58.7131 105.569L57.9991 111.349L55.9591 113.389H50.5191L47.5951 87.549L49.6351 85.509H53.7491L54.6671 95.573L55.7891 87.549L57.8291 85.509H61.9091L63.3031 95.233L63.9831 87.549L66.0231 85.509H70.1031L67.1791 111.349ZM57.3871 110.669L59.8691 91.663L62.3511 110.669H66.6011L69.3211 86.189H66.6011L64.4591 107.949L61.2971 86.189H58.4411L55.2791 107.949L53.1371 86.189H50.4171L53.1711 110.669H57.3871ZM71.1295 113.389V87.549L73.1695 85.509H76.5355L78.9495 92.377V87.549L80.9895 85.509H85.0695V111.349L83.0295 113.389H79.6295L77.2495 106.623V111.349L75.2095 113.389H71.1295ZM73.8495 110.669H76.5695V94.995L82.1455 110.669H84.3895V86.189H81.6695V101.931L76.0595 86.189H73.8495V110.669ZM88.1414 113.389V87.549L90.1814 85.509H100.721V89.317L98.6814 91.357H94.2614V96.525H99.3614V100.333L97.3214 102.373H94.2614V107.541H100.721V111.349L98.6814 113.389H88.1414ZM90.8614 110.669H100.041V108.221H93.5814V99.653H98.6814V97.205H93.5814V88.637H100.041V86.189H90.8614V110.669ZM102.597 113.389V87.549L104.637 85.509H110.247C113.613 85.509 115.857 87.753 115.857 91.119V105.739C115.857 107.439 115.313 108.833 114.327 109.819L112.287 111.859C111.301 112.845 109.907 113.389 108.207 113.389H102.597ZM105.317 110.669H110.247C113.205 110.669 115.177 108.697 115.177 105.739V91.119C115.177 88.161 113.205 86.189 110.247 86.189H105.317V110.669ZM108.037 108.221V88.637H110.247C111.573 88.637 112.457 89.521 112.457 90.847V106.011C112.457 107.337 111.573 108.221 110.247 108.221H108.037ZM108.717 107.541H109.737V92.887C109.737 92.139 109.329 91.629 108.717 91.425V107.541Z" fill="black"/>
<path d="M34.5752 77.669H30.3592L27.6052 53.189H30.3252L32.4672 74.949L35.6292 53.189H38.4852L41.6472 74.949L43.7892 53.189H46.5092L43.7892 77.669H39.5392L37.0572 58.663L34.5752 77.669ZM55.6276 78.179C52.6696 78.179 50.6976 76.207 50.6976 73.249V57.609C50.6976 54.651 52.6696 52.679 55.6276 52.679C58.5856 52.679 60.5576 54.651 60.5576 57.609V73.249C60.5576 76.207 58.5856 78.179 55.6276 78.179ZM55.6276 75.731C56.9536 75.731 57.8376 74.847 57.8376 73.521V57.337C57.8376 56.011 56.9536 55.127 55.6276 55.127C54.3016 55.127 53.4176 56.011 53.4176 57.337V73.521C53.4176 74.847 54.3016 75.731 55.6276 75.731ZM66.6882 77.669V53.189H71.6182C74.5762 53.189 76.5482 55.161 76.5482 58.119V63.219C76.5482 65.327 75.5622 66.925 73.9302 67.673L76.9902 77.669H74.1342L71.2442 68.149H69.4082V77.669H66.6882ZM69.4082 65.701H71.6182C72.9442 65.701 73.8282 64.817 73.8282 63.491V57.847C73.8282 56.521 72.9442 55.637 71.6182 55.637H69.4082V65.701ZM82.8369 77.669V53.189H85.5569V63.423L90.1809 53.189H93.1729L88.9909 62.437L93.5469 77.669H90.6909L87.2909 66.211L85.5569 70.019V77.669H82.8369ZM97.8566 77.669V53.189H107.037V55.637H100.577V64.205H105.677V66.653H100.577V75.221H107.037V77.669H97.8566ZM112.312 77.669V53.189H117.242C120.2 53.189 122.172 55.161 122.172 58.119V63.219C122.172 65.327 121.186 66.925 119.554 67.673L122.614 77.669H119.758L116.868 68.149H115.032V77.669H112.312ZM115.032 65.701H117.242C118.568 65.701 119.452 64.817 119.452 63.491V57.847C119.452 56.521 118.568 55.637 117.242 55.637H115.032V65.701ZM41.2945 111.179C38.3365 111.179 36.3645 109.207 36.3645 106.249V90.609C36.3645 87.651 38.3365 85.679 41.2945 85.679C44.2525 85.679 46.2245 87.651 46.2245 90.609V106.249C46.2245 109.207 44.2525 111.179 41.2945 111.179ZM41.2945 108.731C42.6205 108.731 43.5045 107.847 43.5045 106.521V90.337C43.5045 89.011 42.6205 88.127 41.2945 88.127C39.9685 88.127 39.0845 89.011 39.0845 90.337V106.521C39.0845 107.847 39.9685 108.731 41.2945 108.731ZM57.3871 110.669H53.1711L50.4171 86.189H53.1371L55.2791 107.949L58.4411 86.189H61.2971L64.4591 107.949L66.6011 86.189H69.3211L66.6011 110.669H62.3511L59.8691 91.663L57.3871 110.669ZM73.8495 110.669V86.189H76.0595L81.6695 101.931V86.189H84.3895V110.669H82.1455L76.5695 94.995V110.669H73.8495ZM90.8614 110.669V86.189H100.041V88.637H93.5814V97.205H98.6814V99.653H93.5814V108.221H100.041V110.669H90.8614ZM105.317 110.669V86.189H110.247C113.205 86.189 115.177 88.161 115.177 91.119V105.739C115.177 108.697 113.205 110.669 110.247 110.669H105.317ZM108.037 108.221H110.247C111.573 108.221 112.457 107.337 112.457 106.011V90.847C112.457 89.521 111.573 88.637 110.247 88.637H108.037V108.221Z" fill="white"/>
</g>
<defs>
<clipPath id="clip0_286_3">
<rect width="149" height="166" fill="white"/>
</clipPath>
</defs>
</svg>
