<svg width="315" height="207" viewBox="0 0 315 207" fill="none" xmlns="http://www.w3.org/2000/svg">
<rect x="3" y="4" width="309" height="198" rx="17" fill="black"/>
<path d="M43.5 65.9722C41.3 65.9722 39.225 62.3472 38 62.3472C37.275 62.3472 36.65 63.7472 35.95 65.7722L34 65.0222C35.025 61.6722 36.375 59.5472 38.2 59.5472C40.4 59.5472 42.375 63.1722 43.6 63.1722C44.325 63.1722 44.925 61.7722 45.65 59.7222L47.625 60.4972C46.55 63.9472 45.325 65.9722 43.5 65.9722ZM69.8 58.5972C69.8 59.2472 70.6 59.8972 71.7 60.6222L72.3 57.3972C70.55 57.4222 69.825 57.8722 69.8 58.5972ZM74.475 66.4722C74.475 65.7972 73.675 65.1222 72.6 64.4222L71.975 67.8222C73.725 67.7222 74.475 67.2472 74.475 66.4722ZM71.425 73.4222L68.7 73.3972L69.3 70.3722C68.3 70.3722 67.225 70.2972 66.025 70.1472L66.575 67.2972C67.975 67.5472 69.175 67.6972 70.2 67.7722L71 63.4472C68.85 62.1722 66.5 60.7222 66.525 58.8472C66.525 56.9972 68.15 55.2722 72.325 54.9222L72.875 51.8222L75.6 51.8472L74.975 54.8972C75.8 54.9472 76.675 55.0222 77.625 55.1472L77.25 57.9972C76.025 57.7472 74.95 57.5972 74.075 57.4972L73.325 61.6222C75.45 62.9222 77.8 64.4222 77.775 66.3472C77.775 68.1972 76.125 69.8972 71.925 70.2972L71.425 73.4222Z" fill="white" fill-opacity="0.42"/>
<path d="M104.9 56.4722V68.7722H109.025L108.8 71.2222H97.775V68.7722H101.725V56.4722H97.775V54.0222H108.875V56.4722H104.9ZM139.225 57.2722L139.325 59.9222C134.175 59.4722 132.6 60.0722 132.6 61.0722C132.6 62.9472 140.025 63.7222 140.025 67.1972C140.025 69.5972 137.45 71.7222 129.5 71.3722L129.6 68.7222C135.125 69.0972 136.825 68.4472 136.825 67.3722C136.825 65.3972 129.425 64.8972 129.425 61.4222C129.425 59.0472 132 56.7722 139.225 57.2722ZM155.425 71.5472C146.475 71.6472 144.15 69.0472 144.15 64.5722C144.15 60.2972 147.25 57.0472 150.875 57.0472C154.75 57.0472 156.6 60.0972 156.1 64.8972L147.2 65.1222C147.525 67.9222 149.6 68.8472 155.725 68.9722L155.425 71.5472ZM150.325 59.5472C148.45 59.5472 147.325 60.7222 147.175 63.2972C148.65 63.2722 151.475 63.1722 153.2 63.1472C153.125 60.8972 152.275 59.5472 150.325 59.5472ZM160.175 64.5472C160.175 60.6972 162.725 57.2472 170.975 57.1972L171.175 60.1222C164.275 59.8972 163.225 61.4722 163.225 64.1472C163.225 67.6972 165.15 69.1472 171.375 68.7972L171.075 71.3222C162.475 72.0472 160.175 68.8222 160.175 64.5472ZM185.975 71.2222H175.625V68.9222H179C178.95 65.1472 178.925 62.2722 178.85 59.7972L175.575 59.5972L175.825 57.4222H181.55C181.55 57.5472 181.725 59.1472 181.775 59.7972C183.025 58.3722 185 57.2222 187.625 56.8722L187.75 60.1222C185.35 60.2972 183.425 60.7722 181.875 61.5472C181.95 63.6472 181.975 65.9472 182.025 68.9222H186.25L185.975 71.2222ZM202.3 71.5472C193.35 71.6472 191.025 69.0472 191.025 64.5722C191.025 60.2972 194.125 57.0472 197.75 57.0472C201.625 57.0472 203.475 60.0972 202.975 64.8972L194.075 65.1222C194.4 67.9222 196.475 68.8472 202.6 68.9722L202.3 71.5472ZM197.2 59.5472C195.325 59.5472 194.2 60.7222 194.05 63.2972C195.525 63.2722 198.35 63.1722 200.075 63.1472C200 60.8972 199.15 59.5472 197.2 59.5472ZM217.9 71.4222C211.675 71.5472 209.65 70.1722 209.65 66.6222V59.7472H206.825L207.1 57.4222H209.65V53.6972L212.7 53.4222V57.4222H217.925V59.7472H212.7V66.1472C212.7 68.3222 214.025 68.8222 218.225 68.8972L217.9 71.4222ZM233.975 71.2222H222.6V68.9222H226.875V54.2222L222.75 54.0222L223 51.8222H229.95V68.9222H234.25L233.975 71.2222ZM238.25 76.1472L238 73.3722C241.3 72.9222 242.175 72.5972 242.95 70.7222L242.425 70.5222C241.15 67.5972 238.275 60.2722 237.225 57.5222L240.35 57.2972C241.475 60.3722 242.95 64.5222 244.225 67.5972H244.525C245.4 64.9472 247.275 58.3472 247.625 57.4222H250.575C249.6 60.5472 248.225 64.6972 246.675 68.8222C244.7 74.3722 243.225 75.6722 238.25 76.1472ZM42.975 104.222L40.725 97.3222L38.55 104.222H35.85C35.375 101.222 34.775 95.6472 34.525 90.4222H37.5C37.625 94.0472 37.75 96.8472 37.9 100.572H38.025C38.4 99.3472 39.675 95.5222 39.975 94.5222H41.75C42.075 95.5222 43.4 99.4222 43.775 100.622H43.875C44 96.9222 44.125 94.0722 44.225 90.4222H47.1C46.825 95.6472 46.175 101.222 45.75 104.222H42.975ZM58.525 88.3472H55.325L55.525 84.4472H58.75L58.525 88.3472ZM63.15 104.222H50.675V101.922H55.5V92.7972L50.625 92.5722L50.875 90.4222H58.6V101.922H63.4L63.15 104.222ZM76.725 90.2722L76.825 92.9222C71.675 92.4722 70.1 93.0722 70.1 94.0722C70.1 95.9472 77.525 96.7222 77.525 100.197C77.525 102.597 74.95 104.722 67 104.372L67.1 101.722C72.625 102.097 74.325 101.447 74.325 100.372C74.325 98.3972 66.925 97.8972 66.925 94.4222C66.925 92.0472 69.5 89.7722 76.725 90.2722ZM88 92.6722C86.975 92.6722 86.075 92.9972 85.25 93.5472V104.222H82.175V84.7722L85.25 84.4972V91.6722C86.325 90.7722 87.675 90.0472 89.425 90.0472C91.85 90.0472 93.4 91.4472 93.4 94.8222V104.222H90.325V95.8972C90.325 93.4472 89.425 92.6722 88 92.6722ZM124.15 104.422C117.925 104.547 115.9 103.172 115.9 99.6222V92.7472H113.075L113.35 90.4222H115.9V86.6972L118.95 86.4222V90.4222H124.175V92.7472H118.95V99.1472C118.95 101.322 120.275 101.822 124.475 101.897L124.15 104.422ZM134.125 104.647C130.7 104.647 128.275 102.122 128.275 97.6222C128.275 93.1472 131.325 89.9972 135 89.9972C138.45 89.9972 140.875 92.5222 140.875 96.9972C140.875 101.622 137.8 104.647 134.125 104.647ZM134.675 102.147C136.55 102.147 137.775 100.597 137.775 97.5472C137.775 94.2222 136.475 92.4972 134.475 92.4972C132.625 92.4972 131.4 94.0222 131.4 97.0722C131.4 100.422 132.65 102.147 134.675 102.147ZM166.125 92.6722C165.025 92.6722 164.125 93.0472 163.275 93.6222C163.35 96.1972 163.4 99.7722 163.4 104.222H160.325C160.325 98.0222 160.275 93.6472 160.1 90.4972L162.95 90.3472L163.125 91.9222C164.225 90.9222 165.65 90.0472 167.55 90.0472C169.975 90.0472 171.525 91.4472 171.525 94.8222V104.222H168.45V95.8972C168.45 93.4472 167.55 92.6722 166.125 92.6722ZM186.675 104.547C177.725 104.647 175.4 102.047 175.4 97.5722C175.4 93.2972 178.5 90.0472 182.125 90.0472C186 90.0472 187.85 93.0972 187.35 97.8972L178.45 98.1222C178.775 100.922 180.85 101.847 186.975 101.972L186.675 104.547ZM181.575 92.5472C179.7 92.5472 178.575 93.7222 178.425 96.2972C179.9 96.2722 182.725 96.1722 184.45 96.1472C184.375 93.8972 183.525 92.5472 181.575 92.5472ZM197.225 101.222C198.5 97.6472 199.65 93.9722 200.7 90.4222H203.8C202.375 94.9972 200.65 99.7472 198.925 104.322H195.175C193.45 99.7472 191.8 95.0722 190.375 90.5222L193.475 90.2972C194.55 93.8972 195.725 97.5972 197.025 101.222H197.225ZM217.925 104.547C208.975 104.647 206.65 102.047 206.65 97.5722C206.65 93.2972 209.75 90.0472 213.375 90.0472C217.25 90.0472 219.1 93.0972 218.6 97.8972L209.7 98.1222C210.025 100.922 212.1 101.847 218.225 101.972L217.925 104.547ZM212.825 92.5472C210.95 92.5472 209.825 93.7222 209.675 96.2972C211.15 96.2722 213.975 96.1722 215.7 96.1472C215.625 93.8972 214.775 92.5472 212.825 92.5472ZM232.85 104.222H222.5V101.922H225.875C225.825 98.1472 225.8 95.2722 225.725 92.7972L222.45 92.5972L222.7 90.4222H228.425C228.425 90.5472 228.6 92.1472 228.65 92.7972C229.9 91.3722 231.875 90.2222 234.5 89.8722L234.625 93.1222C232.225 93.2972 230.3 93.7722 228.75 94.5472C228.825 96.6472 228.85 98.9472 228.9 101.922H233.125L232.85 104.222ZM46.025 137.422C39.8 137.547 37.775 136.172 37.775 132.622V125.747H34.95L35.225 123.422H37.775V119.697L40.825 119.422V123.422H46.05V125.747H40.825V132.147C40.825 134.322 42.15 134.822 46.35 134.897L46.025 137.422ZM56 137.647C52.575 137.647 50.15 135.122 50.15 130.622C50.15 126.147 53.2 122.997 56.875 122.997C60.325 122.997 62.75 125.522 62.75 129.997C62.75 134.622 59.675 137.647 56 137.647ZM56.55 135.147C58.425 135.147 59.65 133.597 59.65 130.547C59.65 127.222 58.35 125.497 56.35 125.497C54.5 125.497 53.275 127.022 53.275 130.072C53.275 133.422 54.525 135.147 56.55 135.147ZM74.925 137.297L74.75 135.722C73.65 136.697 72.25 137.572 70.35 137.572C67.925 137.572 66.4 136.197 66.4 132.822V123.497L69.475 123.322V131.722C69.475 134.197 70.35 134.972 71.775 134.972C72.825 134.972 73.725 134.597 74.575 134.022C74.525 131.447 74.475 127.897 74.475 123.422H77.55C77.55 129.622 77.6 133.972 77.775 137.122L74.925 137.297ZM82.05 130.547C82.05 126.697 84.6 123.247 92.85 123.197L93.05 126.122C86.15 125.897 85.1 127.472 85.1 130.147C85.1 133.697 87.025 135.147 93.25 134.797L92.95 137.322C84.35 138.047 82.05 134.822 82.05 130.547ZM103.625 125.672C102.6 125.672 101.7 125.997 100.875 126.547V137.222H97.8V117.772L100.875 117.497V124.672C101.95 123.772 103.3 123.047 105.05 123.047C107.475 123.047 109.025 124.447 109.025 127.822V137.222H105.95V128.897C105.95 126.447 105.05 125.672 103.625 125.672ZM133.95 135.197C135.025 135.197 136.175 134.772 137.125 134.097C137.075 133.322 137.075 132.397 137.05 131.247C132.75 130.797 131.625 131.722 131.625 133.247C131.625 134.497 132.525 135.197 133.95 135.197ZM137.5 137.322C137.475 137.197 137.35 136.322 137.25 135.647C136.2 136.672 134.725 137.572 132.725 137.572C130.275 137.572 128.55 136.222 128.55 133.972C128.55 131.222 131.175 128.997 137.025 129.222C136.85 126.572 135.3 125.897 129.375 125.722L129.675 123.122C138 123.247 140.05 124.972 140.05 130.372C140.05 133.072 140.2 135.247 140.325 137.147L137.5 137.322ZM160.175 130.547C160.175 126.697 162.725 123.247 170.975 123.197L171.175 126.122C164.275 125.897 163.225 127.472 163.225 130.147C163.225 133.697 165.15 135.147 171.375 134.797L171.075 137.322C162.475 138.047 160.175 134.822 160.175 130.547ZM181 137.647C177.575 137.647 175.15 135.122 175.15 130.622C175.15 126.147 178.2 122.997 181.875 122.997C185.325 122.997 187.75 125.522 187.75 129.997C187.75 134.622 184.675 137.647 181 137.647ZM181.55 135.147C183.425 135.147 184.65 133.597 184.65 130.547C184.65 127.222 183.35 125.497 181.35 125.497C179.5 125.497 178.275 127.022 178.275 130.072C178.275 133.422 179.525 135.147 181.55 135.147ZM195.075 125.672C194.55 125.672 194 125.922 193.5 126.397C193.55 128.997 193.6 132.672 193.6 137.222H190.75C190.75 131.022 190.725 126.647 190.625 123.497L193.25 123.347L193.35 124.547C194.1 123.697 195.075 123.047 196.2 123.047C197.3 123.047 197.95 123.622 198.225 124.547C198.975 123.722 199.925 123.047 201.15 123.047C202.75 123.047 203.525 124.147 203.525 126.222V137.222H200.675V127.272C200.675 126.072 200.35 125.672 199.625 125.672C199.1 125.672 198.675 125.897 198.25 126.297V137.222H196.075V127.247C196.075 126.072 195.75 125.672 195.075 125.672ZM212.15 134.947C214.275 134.947 215.9 133.422 215.9 130.372C215.9 127.197 214.55 125.572 212.675 125.572C211.85 125.572 210.975 125.897 210.225 126.447C210.25 128.447 210.3 131.022 210.325 134.597C210.925 134.822 211.475 134.947 212.15 134.947ZM210.325 141.772L207.275 142.047V137.322C207.275 130.197 207.25 126.272 207.125 123.497L209.925 123.347L210.075 124.747C211.025 123.822 212.325 123.047 213.925 123.047C216.825 123.047 218.95 125.622 218.95 129.622C218.95 134.672 215.425 137.572 211.1 137.572C210.85 137.572 210.575 137.572 210.325 137.547V141.772ZM231.175 137.297L231 135.722C229.9 136.697 228.5 137.572 226.6 137.572C224.175 137.572 222.65 136.197 222.65 132.822V123.497L225.725 123.322V131.722C225.725 134.197 226.6 134.972 228.025 134.972C229.075 134.972 229.975 134.597 230.825 134.022C230.775 131.447 230.725 127.897 230.725 123.422H233.8C233.8 129.622 233.85 133.972 234.025 137.122L231.175 137.297ZM249.15 137.422C242.925 137.547 240.9 136.172 240.9 132.622V125.747H238.075L238.35 123.422H240.9V119.697L243.95 119.422V123.422H249.175V125.747H243.95V132.147C243.95 134.322 245.275 134.822 249.475 134.897L249.15 137.422ZM264.8 137.547C255.85 137.647 253.525 135.047 253.525 130.572C253.525 126.297 256.625 123.047 260.25 123.047C264.125 123.047 265.975 126.097 265.475 130.897L256.575 131.122C256.9 133.922 258.975 134.847 265.1 134.972L264.8 137.547ZM259.7 125.547C257.825 125.547 256.7 126.722 256.55 129.297C258.025 129.272 260.85 129.172 262.575 129.147C262.5 126.897 261.65 125.547 259.7 125.547ZM279.725 137.222H269.375V134.922H272.75C272.7 131.147 272.675 128.272 272.6 125.797L269.325 125.597L269.575 123.422H275.3C275.3 123.547 275.475 125.147 275.525 125.797C276.775 124.372 278.75 123.222 281.375 122.872L281.5 126.122C279.1 126.297 277.175 126.772 275.625 127.547C275.7 129.647 275.725 131.947 275.775 134.922H280L279.725 137.222ZM46.05 170.547C37.1 170.647 34.775 168.047 34.775 163.572C34.775 159.297 37.875 156.047 41.5 156.047C45.375 156.047 47.225 159.097 46.725 163.897L37.825 164.122C38.15 166.922 40.225 167.847 46.35 167.972L46.05 170.547ZM40.95 158.547C39.075 158.547 37.95 159.722 37.8 162.297C39.275 162.272 42.1 162.172 43.825 162.147C43.75 159.897 42.9 158.547 40.95 158.547ZM56.6 167.222C57.875 163.647 59.025 159.972 60.075 156.422H63.175C61.75 160.997 60.025 165.747 58.3 170.322H54.55C52.825 165.747 51.175 161.072 49.75 156.522L52.85 156.297C53.925 159.897 55.1 163.597 56.4 167.222H56.6ZM77.3 170.547C68.35 170.647 66.025 168.047 66.025 163.572C66.025 159.297 69.125 156.047 72.75 156.047C76.625 156.047 78.475 159.097 77.975 163.897L69.075 164.122C69.4 166.922 71.475 167.847 77.6 167.972L77.3 170.547ZM72.2 158.547C70.325 158.547 69.2 159.722 69.05 162.297C70.525 162.272 73.35 162.172 75.075 162.147C75 159.897 74.15 158.547 72.2 158.547ZM92.225 170.222H81.875V167.922H85.25C85.2 164.147 85.175 161.272 85.1 158.797L81.825 158.597L82.075 156.422H87.8C87.8 156.547 87.975 158.147 88.025 158.797C89.275 157.372 91.25 156.222 93.875 155.872L94 159.122C91.6 159.297 89.675 159.772 88.125 160.547C88.2 162.647 88.225 164.947 88.275 167.922H92.5L92.225 170.222ZM118.325 168.197C119.4 168.197 120.55 167.772 121.5 167.097C121.45 166.322 121.45 165.397 121.425 164.247C117.125 163.797 116 164.722 116 166.247C116 167.497 116.9 168.197 118.325 168.197ZM121.875 170.322C121.85 170.197 121.725 169.322 121.625 168.647C120.575 169.672 119.1 170.572 117.1 170.572C114.65 170.572 112.925 169.222 112.925 166.972C112.925 164.222 115.55 161.997 121.4 162.222C121.225 159.572 119.675 158.897 113.75 158.722L114.05 156.122C122.375 156.247 124.425 157.972 124.425 163.372C124.425 166.072 124.575 168.247 124.7 170.147L121.875 170.322ZM130.325 175.097L130.025 172.322C136.15 171.822 136.925 171.322 137 167.822C136.1 168.497 134.9 168.997 133.425 168.997C130.55 168.997 128.35 166.797 128.35 163.247C128.35 158.872 131.75 156.072 135.825 156.072C137.225 156.072 138.6 156.322 140 156.747C140.05 158.272 140.075 164.247 140.075 166.497C140.075 171.522 138.175 174.697 130.325 175.097ZM134.625 166.597C135.45 166.597 136.275 166.372 137 165.997C137 164.322 137 161.122 137 159.047C136.225 158.797 135.475 158.672 134.725 158.672C132.75 158.672 131.375 159.997 131.375 162.547C131.375 165.297 132.8 166.597 134.625 166.597ZM149.575 168.197C150.65 168.197 151.8 167.772 152.75 167.097C152.7 166.322 152.7 165.397 152.675 164.247C148.375 163.797 147.25 164.722 147.25 166.247C147.25 167.497 148.15 168.197 149.575 168.197ZM153.125 170.322C153.1 170.197 152.975 169.322 152.875 168.647C151.825 169.672 150.35 170.572 148.35 170.572C145.9 170.572 144.175 169.222 144.175 166.972C144.175 164.222 146.8 161.997 152.65 162.222C152.475 159.572 150.925 158.897 145 158.722L145.3 156.122C153.625 156.247 155.675 157.972 155.675 163.372C155.675 166.072 155.825 168.247 155.95 170.147L153.125 170.322ZM167.9 154.347H164.7L164.9 150.447H168.125L167.9 154.347ZM172.525 170.222H160.05V167.922H164.875V158.797L160 158.572L160.25 156.422H167.975V167.922H172.775L172.525 170.222ZM181.75 158.672C180.65 158.672 179.75 159.047 178.9 159.622C178.975 162.197 179.025 165.772 179.025 170.222H175.95C175.95 164.022 175.9 159.647 175.725 156.497L178.575 156.347L178.75 157.922C179.85 156.922 181.275 156.047 183.175 156.047C185.6 156.047 187.15 157.447 187.15 160.822V170.222H184.075V161.897C184.075 159.447 183.175 158.672 181.75 158.672Z" fill="white"/>
<ellipse cx="20" cy="21.0899" rx="8" ry="8.04233" fill="#FF0055"/>
<ellipse cx="41" cy="21.0899" rx="8" ry="8.04233" fill="#FFE141"/>
<ellipse cx="62" cy="21.0899" rx="8" ry="8.04233" fill="#00CA37"/>
</svg>
