<?xml version="1.0" encoding="UTF-8" standalone="no"?>
<!DOCTYPE svg PUBLIC "-//W3C//DTD SVG 1.1//EN" "http://www.w3.org/Graphics/SVG/1.1/DTD/svg11.dtd">
<svg width="100%" height="100%" viewBox="0 0 752 539" version="1.1" xmlns="http://www.w3.org/2000/svg" xmlns:xlink="http://www.w3.org/1999/xlink" xml:space="preserve" xmlns:serif="http://www.serif.com/" style="fill-rule:evenodd;clip-rule:evenodd;stroke-linejoin:round;stroke-miterlimit:2;">
    <path d="M749.056,179.556L749.075,179.556C739.017,121.048 707.602,83.425 656.804,52.418C596.061,13.751 540.168,5.809 468.756,1.072C443.63,-0.601 398.04,-0.225 371.889,1.57C325.932,4.719 274.589,10.039 228.096,26.27C140.902,56.704 50.765,105.521 17.611,194.002C-6.651,255.15 -5.814,323.151 19.933,383.661C30.198,411.801 44.58,434.527 61.302,459.462C75.158,480.102 123.136,533.92 207.416,537.924C248.946,539.888 284.76,539.38 321.946,534.587C328.169,533.788 334.702,532.989 341.461,532.153C362.808,529.54 386.402,526.654 409.348,522.594C465.353,512.707 507.964,500.291 561.187,480.957C641.933,447.3 714.52,379.967 740.474,297.361C749.535,258.731 756.049,220.027 749.056,179.556Z" style="fill:rgb(255,236,0);fill-rule:nonzero;"/>
    <path d="M429.398,323.33C435.161,329.74 438.037,339.167 438.037,351.602L438.037,413.831L407.6,413.831L407.6,358.078C407.6,346.949 402.759,341.385 393.067,341.385C387.568,341.385 383.188,343.284 379.907,347.081C376.768,350.878 375.198,356.179 375.198,362.984L375.198,413.831L344.761,413.831L344.761,316.46L375.198,316.46L367.932,342.175L371.861,342.175C377.492,323.067 388.292,313.508 404.263,313.508C415.392,313.508 423.768,316.779 429.398,323.321L429.398,323.33ZM154.814,168.456L127.131,272.313L125.956,287.229L122.027,287.229L121.049,272.313L93.366,168.456L58.812,168.456L97.69,305.886L150.509,305.886L189.19,168.456L154.814,168.456ZM290.325,263.084L320.762,263.084L320.762,125.654L290.325,125.654L290.325,263.084ZM384.589,91.226L354.32,88.049L339.957,224.718L370.225,227.894L384.589,91.226ZM465.137,436.671L551.533,436.671L551.533,407.224L497.145,407.224L497.145,382.092L549.569,382.092L549.569,353.622L497.145,353.622L497.145,328.687L551.533,328.687L551.533,299.241L465.137,299.241L465.137,436.671ZM234.639,131.5C238.174,134.122 242.554,135.429 247.799,135.429C253.044,135.429 257.359,134.122 260.762,131.5C264.165,128.878 265.866,125.344 265.866,120.898C265.866,116.453 264.165,112.721 260.762,110.099C257.359,107.477 253.035,106.17 247.799,106.17C242.563,106.17 238.174,107.477 234.639,110.099C231.236,112.712 229.535,116.312 229.535,120.898C229.535,125.485 231.236,128.878 234.639,131.5ZM232.477,243.797L262.914,243.797L262.914,146.416L232.477,146.416L232.477,243.797ZM306.211,383.116C306.211,393.323 304.641,402.684 301.502,411.19C296.529,424.931 288.154,435.731 276.366,443.588C264.719,451.446 250.779,455.365 234.545,455.365C218.311,455.365 204.108,451.502 192.33,443.785C180.551,435.937 172.167,425.072 167.194,411.2C164.186,402.562 162.682,393.201 162.682,383.125C162.682,373.05 164.186,363.689 167.194,355.051C172.167,341.31 180.542,330.511 192.33,322.653C204.108,314.796 218.114,310.877 234.348,310.877C250.582,310.877 264.785,314.805 276.563,322.653C288.342,330.511 296.661,341.301 301.502,355.051C304.641,363.426 306.211,372.787 306.211,383.125L306.211,383.116ZM272.634,383.116C272.634,376.443 271.657,370.352 269.692,364.854C266.947,357.26 262.491,351.31 256.344,346.987C250.187,342.541 242.864,340.314 234.357,340.314C225.85,340.314 218.518,342.541 212.361,346.987C206.336,351.31 201.955,357.26 199.21,364.854C197.246,369.826 196.268,375.917 196.268,383.116C196.268,390.316 197.246,396.133 199.21,401.378C201.955,408.972 206.345,414.922 212.361,419.245C218.518,423.559 225.841,425.721 234.357,425.721C242.874,425.721 250.196,423.625 256.344,419.443C262.501,415.119 266.947,409.104 269.692,401.378C271.657,395.616 272.634,389.535 272.634,383.116ZM707.611,217.067C705.91,227.011 700.872,235.066 692.496,241.213C684.121,247.237 673.846,250.245 661.673,250.245C652.245,250.245 644.001,248.675 636.932,245.536C629.995,242.265 624.43,237.556 620.247,231.4C614.222,222.763 611.214,211.963 611.214,199.002C611.214,186.041 614.354,175.054 620.642,166.022C624.966,159.866 630.522,155.157 637.337,151.886C644.274,148.615 651.935,146.98 660.31,146.98C675.36,146.98 686.95,151.491 695.062,160.524C703.306,169.556 707.433,182.254 707.433,198.608L707.433,206.465L640.476,206.465C641.256,212.227 642.77,216.672 644.988,219.811C648.391,224.652 653.759,227.077 661.091,227.077C665.02,227.077 668.357,226.221 671.102,224.52C673.978,222.819 676.008,220.328 677.183,217.058L707.621,217.058L707.611,217.067ZM640.852,187.818L678.358,187.818C678.227,181.793 676.591,177.282 673.452,174.274C670.444,171.135 666.054,169.565 660.301,169.565C653.495,169.565 648.325,172.178 644.791,177.423C642.695,180.299 641.388,183.767 640.862,187.827L640.852,187.818ZM491.486,167.131L491.486,229.774L461.641,229.774L468.709,204.059L464.78,204.059C462.158,213.871 458.172,221.137 452.805,225.855C447.437,230.432 440.368,232.725 431.598,232.725C427.152,232.725 423.025,232.002 419.228,230.564C415.43,229.126 412.225,227.096 409.602,224.473C404.498,219.37 401.941,212.894 401.941,205.036C401.941,196.794 404.432,190.177 409.405,185.205C415.562,179.049 424.52,175.524 436.308,174.603L460.851,172.441L460.851,167.14C460.851,162.695 459.544,159.283 456.922,156.933C454.309,154.574 450.577,153.399 445.726,153.399C439.569,153.399 435.518,155.035 433.553,158.305C431.72,161.445 430.809,164.33 430.809,166.943L430.809,167.535L399.986,167.535L399.986,166.943C399.986,163.277 400.841,158.7 402.543,153.202C404.376,147.704 408.7,142.403 415.505,137.299C422.442,132.064 432.848,129.442 446.723,129.442C460.597,129.442 472.31,132.647 479.905,139.057C487.632,145.467 491.486,154.828 491.486,167.131ZM460.851,189.726L446.319,191.493C441.741,192.019 438.272,193.457 435.913,195.816C434.211,197.517 433.356,199.745 433.356,202.489C433.356,205.234 434.146,207.396 435.715,208.965C437.417,210.666 439.842,211.522 442.982,211.522C447.174,211.522 450.577,210.347 453.19,207.988C455.935,205.497 457.899,202.621 459.084,199.35C460.259,195.948 460.851,192.94 460.851,190.318L460.851,189.726ZM604.869,74.553L604.869,157.008C604.869,192.348 588.306,210.018 555.19,210.018C539.877,210.018 528.155,206.813 520.043,200.393C512.062,193.983 507.804,184.82 507.278,172.911L536.728,172.911C537.771,182.075 543.929,186.652 555.18,186.652C561.206,186.652 565.915,184.951 569.318,181.549C572.721,178.146 574.422,173.174 574.422,166.633L574.422,163.099L583.061,136.792L579.132,136.792C576.772,146.35 572.787,153.54 567.156,158.39C561.525,163.23 554.851,165.655 547.125,165.655C540.582,165.655 534.622,164.283 529.255,161.529C523.888,158.785 519.441,154.856 515.907,149.753C510.145,141.378 507.268,131.04 507.268,118.736C507.268,106.433 510.145,95.897 515.907,87.523C519.441,82.419 523.888,78.491 529.255,75.746C534.622,73.002 540.573,71.62 547.125,71.62C554.851,71.62 561.525,74.045 567.156,78.885C572.787,83.726 576.782,90.925 579.132,100.484L583.061,100.484L574.817,74.571L604.86,74.571L604.869,74.553ZM575.616,118.727C575.616,112.571 574.244,107.599 571.489,103.811C568.087,98.839 563.114,96.348 556.572,96.348C550.029,96.348 545.057,98.839 541.654,103.811C538.909,107.608 537.527,112.58 537.527,118.727C537.527,124.874 538.9,129.658 541.654,133.455C545.057,138.427 550.029,140.918 556.572,140.918C563.114,140.918 568.087,138.427 571.489,133.455C574.234,129.658 575.616,124.752 575.616,118.727Z" style="fill:rgb(0,38,54);fill-rule:nonzero;"/>
</svg>
