<svg width="752" height="539" viewBox="0 0 752 539" fill="none" xmlns="http://www.w3.org/2000/svg">
<g clip-path="url(#clip0_69_253)">
<path fill-rule="evenodd" clip-rule="evenodd" d="M656.804 52.4087C707.602 83.4156 739.017 121.039 749.075 179.557H749.056C756.049 220.019 749.535 258.723 740.474 297.353C714.52 379.96 641.942 447.293 561.187 480.951C507.964 500.284 465.353 512.7 409.348 522.588C386.402 526.638 362.799 529.533 341.461 532.146C334.702 532.973 328.16 533.772 321.946 534.581C284.76 539.383 248.946 539.891 207.416 537.917C123.136 533.923 75.1579 480.095 61.3022 459.455C44.5796 434.52 30.1975 411.794 19.9327 383.653C-5.81403 323.143 -6.65063 255.142 17.6109 193.993C50.7648 105.522 140.902 56.704 228.096 26.2704C274.589 10.0385 325.932 4.71876 371.889 1.57014C398.04 -0.225047 443.63 -0.601003 468.756 1.072C540.168 5.80903 596.061 13.7511 656.813 52.4087H656.804ZM555.189 210.018C539.877 210.018 528.155 206.813 520.043 200.394C512.062 193.984 507.804 184.82 507.277 172.912H536.728C537.771 182.076 543.928 186.653 555.18 186.653C561.205 186.653 565.915 184.952 569.318 181.549C572.721 178.147 574.422 173.175 574.422 166.633V163.099L583.061 136.792H579.131C576.772 146.35 572.786 153.541 567.156 158.39C561.525 163.231 554.851 165.656 547.124 165.656C540.582 165.656 534.622 164.284 529.255 161.53C523.887 158.785 519.441 154.856 515.907 149.753C510.145 141.378 507.268 131.04 507.268 118.737C507.268 106.433 510.145 95.8973 515.907 87.5229C519.441 82.4193 523.887 78.4906 529.255 75.7461C534.622 73.0016 540.572 71.62 547.124 71.62C554.851 71.62 561.525 74.0449 567.156 78.8853C572.786 83.7257 576.781 90.9253 579.131 100.484H583.061L574.817 74.5712H604.859V157.028C604.859 192.367 588.296 210.037 555.18 210.037L555.189 210.018ZM537.517 118.727C537.517 124.752 538.89 129.658 541.644 133.455C545.047 138.427 550.019 140.918 556.562 140.918C563.104 140.918 568.077 138.427 571.48 133.455C574.225 129.658 575.606 124.752 575.606 118.727C575.606 112.702 574.234 107.599 571.48 103.811C568.077 98.8391 563.104 96.3484 556.562 96.3484C550.019 96.3484 545.047 98.8391 541.644 103.811C538.899 107.608 537.517 112.58 537.517 118.727ZM354.33 88.0398L384.598 91.2166L370.234 227.886L339.966 224.709L354.33 88.0398ZM232.477 146.416H262.914V243.798H232.477V146.416ZM229.535 120.898C229.535 116.321 231.236 112.721 234.639 110.099C238.173 107.477 242.554 106.17 247.799 106.17C253.044 106.17 257.359 107.477 260.762 110.099C264.164 112.712 265.866 116.312 265.866 120.898C265.866 125.485 264.164 128.878 260.762 131.5C257.359 134.123 253.035 135.429 247.799 135.429C242.563 135.429 238.173 134.123 234.639 131.5C231.236 128.878 229.535 125.344 229.535 120.898ZM58.8018 168.457H93.3564L121.039 272.314L122.017 287.23H125.946L127.121 272.314L154.804 168.457H189.162L150.48 305.887H97.6616L58.783 168.457H58.8018ZM320.762 125.654H290.325V263.085H320.762V125.654ZM419.218 230.564C423.016 232.002 427.133 232.726 431.588 232.726C440.359 232.726 447.427 230.433 452.795 225.856C458.162 221.147 462.157 213.881 464.771 204.06H468.7L461.631 229.775H491.476V167.15C491.476 154.847 487.613 145.486 479.895 139.076C472.3 132.666 461.246 129.461 446.713 129.461C432.181 129.461 422.433 132.074 415.496 137.318C408.69 142.422 404.366 147.723 402.533 153.221C400.832 158.719 399.976 163.297 399.976 166.962V167.554H430.799V166.962C430.799 164.34 431.72 161.464 433.544 158.325C435.508 155.054 439.569 153.418 445.717 153.418C450.558 153.418 454.289 154.593 456.912 156.952C459.535 159.312 460.841 162.714 460.841 167.16V172.461L436.298 174.622C424.52 175.543 415.552 179.068 409.395 185.224C404.422 190.196 401.931 196.804 401.931 205.056C401.931 213.308 404.488 219.389 409.592 224.493C412.215 227.115 415.42 229.136 419.218 230.583V230.564ZM435.715 208.966C434.145 207.396 433.356 205.234 433.356 202.49C433.356 199.745 434.211 197.518 435.912 195.817C438.272 193.458 441.74 192.02 446.318 191.493L460.851 189.726V190.318C460.851 192.941 460.259 195.948 459.084 199.351C457.909 202.622 455.944 205.507 453.19 207.988C450.567 210.347 447.164 211.522 442.981 211.522C439.842 211.522 437.416 210.667 435.715 208.966ZM192.329 443.778C204.108 451.504 218.179 455.357 234.545 455.357C250.91 455.357 264.719 451.429 276.366 443.581C288.144 435.723 296.519 424.933 301.501 411.183C304.641 402.677 306.211 393.315 306.211 383.108C306.211 372.901 304.641 363.408 301.501 355.034C296.66 341.293 288.341 330.493 276.563 322.636C264.785 314.778 250.713 310.859 234.347 310.859C217.982 310.859 204.108 314.788 192.329 322.636C180.551 330.493 172.166 341.283 167.194 355.034C164.186 363.671 162.682 373.033 162.682 383.108C162.682 393.184 164.186 402.545 167.194 411.183C172.166 425.055 180.542 435.921 192.329 443.769V443.778ZM199.201 401.37C197.236 396.135 196.259 390.045 196.259 383.108C196.259 376.172 197.236 369.828 199.201 364.846C201.946 357.252 206.335 351.302 212.351 346.979C218.508 342.533 225.831 340.306 234.347 340.306C242.864 340.306 250.187 342.533 256.334 346.979C262.491 351.302 266.937 357.252 269.682 364.846C271.647 370.345 272.624 376.426 272.624 383.108C272.624 389.791 271.647 395.609 269.682 401.37C266.937 409.096 262.482 415.111 256.334 419.435C250.177 423.627 242.855 425.713 234.347 425.713C225.84 425.713 218.508 423.552 212.351 419.237C206.326 414.914 201.946 408.965 199.201 401.37ZM344.779 316.451H375.216L367.95 342.167H371.879C377.51 323.059 388.311 313.5 404.281 313.5C415.411 313.5 423.786 316.771 429.417 323.313C435.179 329.723 438.056 339.15 438.056 351.584V413.814H407.618V358.06C407.618 346.932 402.777 341.368 393.086 341.368C387.587 341.368 383.206 343.266 379.926 347.064C376.786 350.861 375.216 356.162 375.216 362.966V413.814H344.779V316.442V316.451ZM551.542 299.242H465.147V436.672H551.542V407.226H497.154V382.093H549.578V353.624H497.154V328.689H551.542V299.242ZM661.664 250.246C652.235 250.246 643.992 248.676 636.923 245.537C629.986 242.266 624.421 237.557 620.238 231.401C614.212 222.763 611.204 211.964 611.204 199.003C611.204 186.042 614.344 175.055 620.633 166.022C624.957 159.866 630.512 155.157 637.318 151.886C644.255 148.616 651.916 146.98 660.291 146.98C675.341 146.98 686.931 151.492 695.043 160.524C703.287 169.556 707.414 182.254 707.414 198.608V206.466H640.457C641.237 212.227 642.751 216.673 644.969 219.812C648.372 224.653 653.739 227.077 661.071 227.077C665.001 227.077 668.338 226.222 671.082 224.521C673.959 222.82 675.989 220.329 677.164 217.058H707.602C705.9 227.002 700.862 235.057 692.486 241.204C684.111 247.229 673.837 250.236 661.664 250.236V250.246ZM678.349 187.818C678.217 181.794 676.581 177.282 673.442 174.275C670.434 171.135 666.044 169.566 660.291 169.566C653.486 169.566 648.316 172.179 644.781 177.423C642.685 180.299 641.378 183.767 640.852 187.828H678.358L678.349 187.818Z" fill="#002636"/>
</g>
<defs>
<clipPath id="clip0_69_253">
<rect width="752" height="539" fill="white"/>
</clipPath>
</defs>
</svg>
