<?xml version="1.0" encoding="UTF-8" standalone="no"?>
<!DOCTYPE svg PUBLIC "-//W3C//DTD SVG 1.1//EN" "http://www.w3.org/Graphics/SVG/1.1/DTD/svg11.dtd">
<svg width="100%" height="100%" viewBox="0 0 473 473" version="1.1" xmlns="http://www.w3.org/2000/svg" xmlns:xlink="http://www.w3.org/1999/xlink" xml:space="preserve" xmlns:serif="http://www.serif.com/" style="fill-rule:evenodd;clip-rule:evenodd;stroke-linejoin:round;stroke-miterlimit:2;">
    <g id="Motive" transform="matrix(4.16667,0,0,4.16667,0,0)">
        <g transform="matrix(0,1,1,0,0.9585,0.3434)">
            <path d="M0.968,-0.959L2.246,-0.959L0.318,0.968L-0.32,0.33L0.968,-0.959Z" style="fill:rgb(153,153,153);fill-rule:nonzero;"/>
        </g>
        <g transform="matrix(1,0,0,1,0,17.1517)">
            <path d="M0,0.327L0.159,0.486L0.062,0.582L0,0.523L0,1.128L0.221,1.283L1.114,0.39L0,-0.956L0,0.327Z" style="fill:rgb(153,153,153);fill-rule:nonzero;"/>
        </g>
        <g transform="matrix(1,0,0,1,0.9171,15.4031)">
            <path d="M0,-5.581L2.697,-2.342L3.258,-1.781L3.162,-1.685L2.589,-2.234L0.596,-3.687L-0.05,-3.042L1.353,-0.996L1.9,-0.425L1.805,-0.329L1.25,-0.894L-0.917,-2.755L-0.917,-1.597L1.709,0.627L2.601,-0.266L1.256,-2.246L0.826,-2.696L0.917,-2.787L1.37,-2.358L3.32,-0.984L4.213,-1.877L0.629,-6.208L0,-5.581Z" style="fill:rgb(153,153,153);fill-rule:nonzero;"/>
        </g>
        <g transform="matrix(0.707458,0.706755,0.706755,-0.707458,5.75142,11.3146)">
            <path d="M0.501,-0.209C0.093,-0.21 -0.203,0.103 -0.202,0.503C-0.203,0.911 0.094,1.215 0.501,1.214C0.909,1.215 1.213,0.911 1.213,0.502C1.212,0.102 0.916,-0.21 0.501,-0.209" style="fill:rgb(153,153,153);fill-rule:nonzero;"/>
        </g>
        <g transform="matrix(1,0,0,1,4.0419,6.5114)">
            <path d="M0,0.187L0.718,-0.531L4.699,1.9L5.094,2.25L5.19,2.154L4.84,1.758L2.408,-2.222L3.127,-2.94L6.066,2.036L4.976,3.127L0,0.187Z" style="fill:rgb(153,153,153);fill-rule:nonzero;"/>
        </g>
        <g transform="matrix(1,0,0,1,11.4345,0.6531)">
            <path d="M0,5.347L0.967,4.38L-1.77,1.644L-2.736,2.611L-3.348,2L-0.736,-0.611L-0.125,-0.001L-1.092,0.966L1.645,3.702L2.611,2.736L3.222,3.347L0.61,5.958L0,5.347Z" style="fill:rgb(153,153,153);fill-rule:nonzero;"/>
        </g>
        <g transform="matrix(1,0,0,1,12.1865,1.8319)">
            <path d="M0,-3.279L0.68,-3.958L4.004,-0.633L5.836,-2.465L6.469,-1.831L3.959,0.679L0,-3.279Z" style="fill:rgb(153,153,153);fill-rule:nonzero;"/>
        </g>
        <g transform="matrix(1,0,0,1,-3.377,33.4598)">
            <path d="M0,-3.279L0.68,-3.958L4.004,-0.633L5.836,-2.465L6.469,-1.831L3.959,0.679L0,-3.279Z" style="fill:rgb(153,153,153);fill-rule:nonzero;"/>
        </g>
        <g transform="matrix(1,0,0,1,0.414,29.6693)">
            <path d="M0,-3.279L0.679,-3.958L4.004,-0.633L5.835,-2.465L6.469,-1.831L3.958,0.679L0,-3.279Z" style="fill:rgb(153,153,153);fill-rule:nonzero;"/>
        </g>
        <g transform="matrix(1,0,0,1,7.6425,25.0145)">
            <path d="M0,-1.78L-1.635,-2.759L-2.036,-3.104L-2.133,-3.008L-1.787,-2.606L-0.814,-0.966L0,-1.78ZM-2.98,-2.872L-1.9,-3.952L3.137,-1.073L2.408,-0.344L0.773,-1.322L-0.352,-0.198L0.621,1.443L-0.108,2.172L-2.98,-2.872Z" style="fill:rgb(153,153,153);fill-rule:nonzero;"/>
        </g>
        <g transform="matrix(1,0,0,1,9.4707,18.3741)">
            <path d="M0,2.919C-1.386,1.534 -1.539,0.317 -0.471,-0.751C0.361,-1.582 1.52,-1.53 2.385,-0.655L1.684,0.046C1.158,-0.479 0.594,-0.536 0.158,-0.101C-0.459,0.516 -0.295,1.2 0.712,2.207C1.724,3.218 2.402,3.421 2.945,2.879C3.369,2.455 3.284,1.873 2.713,1.2L1.876,2.037L1.277,1.438L2.753,-0.039L4.834,2.042L4.2,2.675L3.5,1.647L3.402,1.743C3.906,2.517 3.918,3.139 3.386,3.67C2.555,4.501 1.34,4.259 0,2.919" style="fill:rgb(153,153,153);fill-rule:nonzero;"/>
        </g>
        <g transform="matrix(1,0,0,1,11.6269,16.7279)">
            <path d="M0,-1.55L2.408,-3.958L3.041,-3.325L1.311,-1.594L2.34,-0.565L4.014,-2.239L4.641,-1.612L2.967,0.062L3.996,1.092L5.727,-0.639L6.365,0L3.957,2.408L0,-1.55Z" style="fill:rgb(153,153,153);fill-rule:nonzero;"/>
        </g>
        <g transform="matrix(0.707458,0.706755,0.706755,-0.707458,18.8109,14.3195)">
            <path d="M0.501,-0.209C0.093,-0.21 -0.203,0.104 -0.202,0.503C-0.203,0.911 0.094,1.215 0.501,1.214C0.909,1.215 1.213,0.911 1.213,0.502C1.212,0.103 0.916,-0.21 0.501,-0.209" style="fill:rgb(153,153,153);fill-rule:nonzero;"/>
        </g>
        <g transform="matrix(1,0,0,1,22.6367,8.1244)">
            <path d="M0,2.862C0.549,2.314 0.346,1.612 -0.632,0.634C-1.61,-0.345 -2.313,-0.547 -2.86,0.001C-3.408,0.549 -3.205,1.25 -2.227,2.229C-1.248,3.207 -0.548,3.41 0,2.862M-2.939,2.941C-4.296,1.584 -4.488,0.351 -3.5,-0.638C-2.51,-1.628 -1.277,-1.435 0.08,-0.078C1.437,1.279 1.629,2.511 0.639,3.501C-0.35,4.49 -1.582,4.298 -2.939,2.941" style="fill:rgb(153,153,153);fill-rule:nonzero;"/>
        </g>
        <g transform="matrix(1,0,0,1,23.7705,5.9527)">
            <path d="M0,-0.374L-0.689,-0.928L-0.786,-0.831L2.521,2.476L1.872,3.126L-2.087,-0.832L-1.058,-1.861L2.465,0.011L3.155,0.564L3.251,0.469L-0.068,-2.851L0.581,-3.5L4.54,0.458L3.511,1.486L0,-0.374Z" style="fill:rgb(153,153,153);fill-rule:nonzero;"/>
        </g>
        <g transform="matrix(1,0,0,1,25.6552,2.699)">
            <path d="M0,-1.55L2.408,-3.958L3.042,-3.325L1.312,-1.594L2.341,-0.565L4.015,-2.239L4.642,-1.612L2.968,0.062L3.997,1.092L5.728,-0.639L6.366,0L3.958,2.408L0,-1.55Z" style="fill:rgb(153,153,153);fill-rule:nonzero;"/>
        </g>
        <g transform="matrix(1,0,0,1,-1.8213,47.6075)">
            <path d="M0,-0.373L-0.688,-0.927L-0.785,-0.831L2.521,2.477L1.872,3.127L-2.086,-0.831L-1.057,-1.86L2.465,0.012L3.156,0.565L3.252,0.469L-0.067,-2.85L0.582,-3.5L4.541,0.458L3.512,1.487L0,-0.373Z" style="fill:rgb(153,153,153);fill-rule:nonzero;"/>
        </g>
        <g transform="matrix(1,0,0,1,0.0634,44.3538)">
            <path d="M0,-1.549L2.409,-3.958L3.043,-3.324L1.312,-1.594L2.342,-0.565L4.016,-2.238L4.643,-1.611L2.969,0.063L3.998,1.092L5.729,-0.638L6.367,-0L3.959,2.409L0,-1.549Z" style="fill:rgb(153,153,153);fill-rule:nonzero;"/>
        </g>
        <g transform="matrix(1,0,0,1,6.372,36.9222)">
            <path d="M0,-0.425L0.633,-1.058L3.826,1.684L4.381,2.25L4.477,2.154L3.929,1.582L2.526,-0.464L3.172,-1.109L5.167,0.344L5.738,0.893L5.834,0.797L5.273,0.237L2.577,-3.003L3.205,-3.63L6.79,0.7L5.896,1.594L3.946,0.22L3.494,-0.209L3.403,-0.119L3.833,0.333L5.178,2.312L4.285,3.205L0,-0.425Z" style="fill:rgb(153,153,153);fill-rule:nonzero;"/>
        </g>
        <g transform="matrix(1,0,0,1,10.3876,32.9046)">
            <path d="M0,-0.424L0.634,-1.057L3.828,1.685L4.383,2.251L4.479,2.155L3.93,1.583L2.527,-0.463L3.173,-1.108L5.168,0.345L5.739,0.894L5.836,0.798L5.275,0.238L2.578,-3.002L3.206,-3.63L6.791,0.701L5.897,1.595L3.947,0.221L3.494,-0.208L3.404,-0.118L3.834,0.334L5.18,2.313L4.287,3.206L0,-0.424Z" style="fill:rgb(153,153,153);fill-rule:nonzero;"/>
        </g>
        <g transform="matrix(1,0,0,1,14.4043,28.8885)">
            <path d="M0,-0.424L0.634,-1.057L3.827,1.685L4.382,2.251L4.478,2.155L3.93,1.583L2.527,-0.463L3.173,-1.108L5.167,0.345L5.739,0.894L5.835,0.798L5.274,0.238L2.577,-3.002L3.206,-3.63L6.79,0.701L5.897,1.595L3.947,0.221L3.494,-0.208L3.403,-0.118L3.834,0.334L5.179,2.313L4.286,3.206L0,-0.424Z" style="fill:rgb(153,153,153);fill-rule:nonzero;"/>
        </g>
        <g transform="matrix(0.707458,0.706755,0.706755,-0.707458,21.8158,27.3791)">
            <path d="M0.501,-0.209C0.093,-0.21 -0.203,0.103 -0.202,0.503C-0.203,0.911 0.094,1.215 0.501,1.214C0.909,1.215 1.213,0.911 1.213,0.502C1.212,0.102 0.916,-0.21 0.501,-0.209" style="fill:rgb(153,153,153);fill-rule:nonzero;"/>
        </g>
        <g transform="matrix(1,0,0,1,20.1064,22.5758)">
            <path d="M0,0.187L0.718,-0.531L4.699,1.9L5.094,2.25L5.19,2.154L4.84,1.758L2.408,-2.222L3.127,-2.94L6.066,2.036L4.976,3.127L0,0.187Z" style="fill:rgb(153,153,153);fill-rule:nonzero;"/>
        </g>
        <g transform="matrix(1,0,0,1,27.499,16.7176)">
            <path d="M0,5.347L0.967,4.38L-1.77,1.644L-2.736,2.611L-3.348,2L-0.736,-0.611L-0.125,-0.001L-1.092,0.966L1.645,3.702L2.611,2.736L3.222,3.347L0.61,5.958L0,5.347Z" style="fill:rgb(153,153,153);fill-rule:nonzero;"/>
        </g>
        <g transform="matrix(1,0,0,1,28.2509,17.8963)">
            <path d="M0,-3.279L0.68,-3.958L4.004,-0.633L5.836,-2.465L6.469,-1.831L3.959,0.679L0,-3.279Z" style="fill:rgb(153,153,153);fill-rule:nonzero;"/>
        </g>
        <g transform="matrix(1,0,0,1,32.0419,14.1058)">
            <path d="M0,-3.279L0.679,-3.958L4.004,-0.633L5.835,-2.465L6.469,-1.831L3.958,0.679L0,-3.279Z" style="fill:rgb(153,153,153);fill-rule:nonzero;"/>
        </g>
        <g transform="matrix(1,0,0,1,39.2705,9.451)">
            <path d="M0,-1.78L-1.635,-2.759L-2.036,-3.104L-2.133,-3.008L-1.787,-2.606L-0.814,-0.966L0,-1.78ZM-2.98,-2.872L-1.9,-3.952L3.137,-1.073L2.408,-0.344L0.773,-1.322L-0.352,-0.198L0.621,1.443L-0.108,2.172L-2.98,-2.872Z" style="fill:rgb(153,153,153);fill-rule:nonzero;"/>
        </g>
        <g transform="matrix(1,0,0,1,41.0986,2.8106)">
            <path d="M0,2.919C-1.386,1.534 -1.539,0.317 -0.471,-0.751C0.361,-1.582 1.52,-1.53 2.385,-0.655L1.684,0.046C1.158,-0.479 0.594,-0.536 0.158,-0.101C-0.459,0.516 -0.295,1.2 0.712,2.207C1.724,3.218 2.402,3.421 2.945,2.879C3.369,2.455 3.284,1.873 2.713,1.2L1.876,2.037L1.277,1.438L2.753,-0.039L4.834,2.042L4.2,2.675L3.5,1.647L3.402,1.743C3.906,2.517 3.918,3.139 3.386,3.67C2.555,4.501 1.34,4.259 0,2.919" style="fill:rgb(153,153,153);fill-rule:nonzero;"/>
        </g>
        <g transform="matrix(1,0,0,1,43.2548,1.1644)">
            <path d="M0,-1.55L2.408,-3.958L3.041,-3.325L1.311,-1.594L2.34,-0.565L4.014,-2.239L4.641,-1.612L2.967,0.062L3.996,1.092L5.727,-0.639L6.365,0L3.957,2.408L0,-1.55Z" style="fill:rgb(153,153,153);fill-rule:nonzero;"/>
        </g>
        <g transform="matrix(1,0,0,1,-5.1758,64.534)">
            <path d="M0,-0.426L0.634,-1.059L3.828,1.683L4.383,2.25L4.479,2.153L3.93,1.582L2.527,-0.465L3.173,-1.11L5.168,0.344L5.739,0.892L5.836,0.797L5.275,0.236L2.578,-3.003L3.206,-3.631L6.791,0.7L5.897,1.594L3.947,0.22L3.494,-0.209L3.404,-0.119L3.834,0.332L5.18,2.312L4.287,3.205L0,-0.426Z" style="fill:rgb(153,153,153);fill-rule:nonzero;"/>
        </g>
        <g transform="matrix(1,0,0,1,-1.1592,60.5164)">
            <path d="M0,-0.424L0.634,-1.057L3.827,1.685L4.382,2.251L4.478,2.154L3.93,1.583L2.527,-0.463L3.173,-1.108L5.167,0.346L5.739,0.894L5.835,0.798L5.274,0.238L2.577,-3.002L3.206,-3.63L6.79,0.701L5.897,1.596L3.947,0.221L3.494,-0.208L3.403,-0.117L3.834,0.334L5.179,2.313L4.286,3.206L0,-0.424Z" style="fill:rgb(153,153,153);fill-rule:nonzero;"/>
        </g>
        <g transform="matrix(0.707107,0.707107,0.707107,-0.707107,6.25267,59.0063)">
            <path d="M0.501,-0.209C0.094,-0.211 -0.203,0.103 -0.202,0.502C-0.203,0.91 0.094,1.215 0.501,1.213C0.908,1.215 1.212,0.911 1.212,0.502C1.212,0.102 0.917,-0.211 0.501,-0.209" style="fill:rgb(153,153,153);fill-rule:nonzero;"/>
        </g>
        <g transform="matrix(1,0,0,1,4.5429,54.2037)">
            <path d="M0,0.187L0.718,-0.531L4.699,1.9L5.094,2.25L5.19,2.154L4.84,1.758L2.408,-2.222L3.127,-2.94L6.066,2.036L4.976,3.127L0,0.187Z" style="fill:rgb(153,153,153);fill-rule:nonzero;"/>
        </g>
        <g transform="matrix(1,0,0,1,11.9355,48.3455)">
            <path d="M0,5.347L0.967,4.38L-1.77,1.644L-2.736,2.611L-3.348,2L-0.736,-0.611L-0.125,-0.001L-1.092,0.966L1.645,3.702L2.611,2.736L3.222,3.347L0.61,5.958L0,5.347Z" style="fill:rgb(153,153,153);fill-rule:nonzero;"/>
        </g>
        <g transform="matrix(1,0,0,1,12.6875,49.5242)">
            <path d="M0,-3.279L0.68,-3.958L4.004,-0.633L5.836,-2.465L6.469,-1.831L3.959,0.679L0,-3.279Z" style="fill:rgb(153,153,153);fill-rule:nonzero;"/>
        </g>
        <g transform="matrix(1,0,0,1,16.4785,45.7337)">
            <path d="M0,-3.279L0.679,-3.958L4.004,-0.633L5.835,-2.465L6.469,-1.831L3.958,0.679L0,-3.279Z" style="fill:rgb(153,153,153);fill-rule:nonzero;"/>
        </g>
        <g transform="matrix(1,0,0,1,23.707,41.0789)">
            <path d="M0,-1.78L-1.635,-2.759L-2.036,-3.104L-2.133,-3.008L-1.787,-2.606L-0.814,-0.966L0,-1.78ZM-2.98,-2.872L-1.9,-3.952L3.137,-1.073L2.408,-0.344L0.773,-1.322L-0.352,-0.198L0.621,1.443L-0.108,2.172L-2.98,-2.872Z" style="fill:rgb(153,153,153);fill-rule:nonzero;"/>
        </g>
        <g transform="matrix(1,0,0,1,25.5351,34.4385)">
            <path d="M0,2.919C-1.386,1.534 -1.539,0.317 -0.471,-0.751C0.361,-1.582 1.52,-1.53 2.385,-0.655L1.684,0.046C1.158,-0.479 0.594,-0.536 0.158,-0.101C-0.459,0.516 -0.295,1.2 0.712,2.207C1.724,3.218 2.402,3.421 2.945,2.879C3.369,2.455 3.284,1.873 2.713,1.2L1.876,2.037L1.277,1.438L2.753,-0.039L4.834,2.042L4.2,2.675L3.5,1.647L3.402,1.743C3.906,2.517 3.918,3.139 3.386,3.67C2.555,4.501 1.34,4.259 0,2.919" style="fill:rgb(153,153,153);fill-rule:nonzero;"/>
        </g>
        <g transform="matrix(1,0,0,1,27.6914,32.7923)">
            <path d="M0,-1.55L2.408,-3.958L3.041,-3.325L1.311,-1.594L2.34,-0.565L4.014,-2.239L4.641,-1.612L2.967,0.062L3.996,1.092L5.727,-0.639L6.365,0L3.957,2.408L0,-1.55Z" style="fill:rgb(153,153,153);fill-rule:nonzero;"/>
        </g>
        <g transform="matrix(0.707458,0.706755,0.706755,-0.707458,34.8754,30.384)">
            <path d="M0.501,-0.209C0.093,-0.21 -0.203,0.104 -0.202,0.503C-0.203,0.911 0.094,1.215 0.501,1.214C0.909,1.215 1.213,0.911 1.213,0.502C1.212,0.103 0.916,-0.21 0.501,-0.209" style="fill:rgb(153,153,153);fill-rule:nonzero;"/>
        </g>
        <g transform="matrix(1,0,0,1,38.7011,24.1889)">
            <path d="M0,2.862C0.549,2.314 0.346,1.612 -0.632,0.634C-1.61,-0.345 -2.313,-0.547 -2.86,0.001C-3.408,0.549 -3.205,1.25 -2.227,2.229C-1.248,3.207 -0.548,3.41 0,2.862M-2.939,2.941C-4.296,1.584 -4.488,0.351 -3.5,-0.638C-2.51,-1.628 -1.277,-1.435 0.08,-0.078C1.437,1.279 1.629,2.511 0.639,3.501C-0.35,4.49 -1.582,4.298 -2.939,2.941" style="fill:rgb(153,153,153);fill-rule:nonzero;"/>
        </g>
        <g transform="matrix(1,0,0,1,39.8349,22.0172)">
            <path d="M0,-0.374L-0.689,-0.928L-0.786,-0.831L2.521,2.476L1.872,3.126L-2.087,-0.832L-1.058,-1.861L2.465,0.011L3.155,0.564L3.251,0.469L-0.068,-2.851L0.581,-3.5L4.54,0.458L3.511,1.486L0,-0.374Z" style="fill:rgb(153,153,153);fill-rule:nonzero;"/>
        </g>
        <g transform="matrix(1,0,0,1,41.7197,18.7635)">
            <path d="M0,-1.55L2.408,-3.958L3.042,-3.325L1.312,-1.594L2.341,-0.565L4.015,-2.239L4.642,-1.612L2.968,0.062L3.997,1.092L5.728,-0.639L6.366,0L3.958,2.408L0,-1.55Z" style="fill:rgb(153,153,153);fill-rule:nonzero;"/>
        </g>
        <g transform="matrix(1,0,0,1,48.0273,11.3304)">
            <path d="M0,-0.424L0.633,-1.057L3.826,1.685L4.381,2.251L4.478,2.155L3.93,1.583L2.527,-0.463L3.172,-1.108L5.167,0.345L5.738,0.894L5.834,0.798L5.274,0.238L2.577,-3.002L3.205,-3.63L6.79,0.701L5.896,1.595L3.947,0.221L3.494,-0.208L3.403,-0.118L3.834,0.334L5.178,2.313L4.285,3.206L0,-0.424Z" style="fill:rgb(153,153,153);fill-rule:nonzero;"/>
        </g>
        <g transform="matrix(1,0,0,1,52.0429,7.3143)">
            <path d="M0,-0.424L0.633,-1.057L3.827,1.685L4.382,2.251L4.479,2.155L3.93,1.583L2.527,-0.463L3.172,-1.108L5.168,0.345L5.738,0.894L5.835,0.798L5.275,0.238L2.578,-3.002L3.205,-3.63L6.791,0.701L5.896,1.595L3.947,0.221L3.494,-0.209L3.404,-0.118L3.834,0.334L5.18,2.313L4.286,3.206L0,-0.424Z" style="fill:rgb(153,153,153);fill-rule:nonzero;"/>
        </g>
        <g transform="matrix(1,0,0,1,56.0605,3.2982)">
            <path d="M0,-0.425L0.633,-1.058L3.826,1.684L4.381,2.25L4.477,2.154L3.929,1.582L2.526,-0.464L3.172,-1.109L5.167,0.344L5.738,0.893L5.834,0.797L5.273,0.237L2.577,-3.003L3.205,-3.63L6.79,0.7L5.896,1.594L3.946,0.22L3.494,-0.209L3.403,-0.119L3.833,0.333L5.178,2.312L4.285,3.205L0,-0.425Z" style="fill:rgb(153,153,153);fill-rule:nonzero;"/>
        </g>
        <g transform="matrix(0.707107,0.707107,0.707107,-0.707107,63.4703,1.78798)">
            <path d="M0.501,-0.209C0.094,-0.209 -0.201,0.103 -0.202,0.503C-0.203,0.911 0.094,1.215 0.501,1.215C0.909,1.215 1.213,0.911 1.213,0.503C1.213,0.103 0.917,-0.209 0.501,-0.209" style="fill:rgb(153,153,153);fill-rule:nonzero;"/>
        </g>
        <g transform="matrix(1,0,0,1,61.7607,-3.0145)">
            <path d="M0,0.187L0.718,-0.531L4.699,1.9L5.095,2.25L5.19,2.154L4.841,1.758L2.409,-2.222L3.127,-2.94L6.067,2.036L4.976,3.127L0,0.187Z" style="fill:rgb(153,153,153);fill-rule:nonzero;"/>
        </g>
        <g transform="matrix(1,0,0,1,-1.8838,82.7337)">
            <path d="M0,-1.78L-1.634,-2.759L-2.035,-3.104L-2.132,-3.008L-1.787,-2.606L-0.814,-0.966L0,-1.78ZM-2.98,-2.872L-1.9,-3.952L3.137,-1.073L2.408,-0.344L0.773,-1.323L-0.352,-0.198L0.621,1.443L-0.108,2.172L-2.98,-2.872Z" style="fill:rgb(153,153,153);fill-rule:nonzero;"/>
        </g>
        <g transform="matrix(1,0,0,1,-0.0567,76.0943)">
            <path d="M0,2.919C-1.386,1.533 -1.538,0.317 -0.47,-0.751C0.362,-1.582 1.521,-1.531 2.386,-0.655L1.685,0.046C1.159,-0.479 0.595,-0.537 0.158,-0.101C-0.458,0.516 -0.294,1.199 0.713,2.206C1.725,3.218 2.403,3.422 2.946,2.879C3.37,2.455 3.284,1.873 2.714,1.199L1.877,2.036L1.278,1.438L2.753,-0.039L4.834,2.042L4.2,2.676L3.501,1.647L3.403,1.742C3.907,2.517 3.919,3.139 3.387,3.67C2.556,4.501 1.34,4.259 0,2.919" style="fill:rgb(153,153,153);fill-rule:nonzero;"/>
        </g>
        <g transform="matrix(1,0,0,1,2.0996,74.4471)">
            <path d="M0,-1.549L2.409,-3.958L3.042,-3.324L1.312,-1.594L2.341,-0.565L4.015,-2.238L4.642,-1.611L2.968,0.063L3.997,1.093L5.728,-0.638L6.366,0.001L3.958,2.409L0,-1.549Z" style="fill:rgb(153,153,153);fill-rule:nonzero;"/>
        </g>
        <g transform="matrix(0.707809,0.706404,0.706404,-0.707809,9.28426,72.0399)">
            <path d="M0.501,-0.209C0.092,-0.209 -0.203,0.104 -0.203,0.505C-0.202,0.912 0.095,1.216 0.501,1.215C0.91,1.215 1.213,0.91 1.212,0.502C1.211,0.103 0.915,-0.209 0.501,-0.209" style="fill:rgb(153,153,153);fill-rule:nonzero;"/>
        </g>
        <g transform="matrix(1,0,0,1,13.1113,65.8447)">
            <path d="M0,2.861C0.548,2.312 0.345,1.611 -0.633,0.633C-1.611,-0.345 -2.313,-0.548 -2.86,0C-3.409,0.548 -3.206,1.25 -2.228,2.228C-1.249,3.206 -0.548,3.41 0,2.861M-2.939,2.94C-4.296,1.584 -4.489,0.351 -3.5,-0.639C-2.511,-1.629 -1.277,-1.436 0.079,-0.078C1.437,1.277 1.628,2.509 0.639,3.5C-0.351,4.49 -1.583,4.297 -2.939,2.94" style="fill:rgb(153,153,153);fill-rule:nonzero;"/>
        </g>
        <g transform="matrix(1,0,0,1,14.2431,63.6714)">
            <path d="M0,-0.372L-0.688,-0.927L-0.785,-0.83L2.521,2.478L1.872,3.127L-2.086,-0.831L-1.057,-1.86L2.465,0.013L3.156,0.565L3.252,0.47L-0.067,-2.85L0.582,-3.499L4.541,0.458L3.512,1.487L0,-0.372Z" style="fill:rgb(153,153,153);fill-rule:nonzero;"/>
        </g>
        <g transform="matrix(1,0,0,1,16.1279,60.4177)">
            <path d="M0,-1.548L2.409,-3.957L3.043,-3.324L1.312,-1.593L2.342,-0.564L4.016,-2.237L4.643,-1.61L2.969,0.063L3.998,1.093L5.729,-0.638L6.367,0.001L3.959,2.409L0,-1.548Z" style="fill:rgb(153,153,153);fill-rule:nonzero;"/>
        </g>
        <g transform="matrix(1,0,0,1,22.4365,52.9866)">
            <path d="M0,-0.425L0.633,-1.058L3.826,1.684L4.381,2.25L4.477,2.154L3.929,1.582L2.526,-0.464L3.172,-1.109L5.167,0.344L5.738,0.893L5.834,0.797L5.273,0.237L2.577,-3.003L3.205,-3.63L6.79,0.7L5.896,1.594L3.946,0.22L3.494,-0.209L3.403,-0.119L3.833,0.333L5.178,2.312L4.285,3.205L0,-0.425Z" style="fill:rgb(153,153,153);fill-rule:nonzero;"/>
        </g>
        <g transform="matrix(1,0,0,1,26.4521,48.969)">
            <path d="M0,-0.424L0.634,-1.057L3.828,1.685L4.383,2.251L4.479,2.155L3.93,1.583L2.527,-0.463L3.173,-1.108L5.168,0.345L5.739,0.894L5.836,0.798L5.275,0.238L2.578,-3.002L3.206,-3.63L6.791,0.701L5.897,1.595L3.947,0.221L3.494,-0.208L3.404,-0.118L3.834,0.334L5.18,2.313L4.287,3.206L0,-0.424Z" style="fill:rgb(153,153,153);fill-rule:nonzero;"/>
        </g>
        <g transform="matrix(1,0,0,1,30.4687,44.9529)">
            <path d="M0,-0.424L0.634,-1.057L3.827,1.685L4.382,2.251L4.478,2.155L3.93,1.583L2.527,-0.463L3.173,-1.108L5.167,0.345L5.739,0.894L5.835,0.798L5.274,0.238L2.577,-3.002L3.206,-3.63L6.79,0.701L5.897,1.595L3.947,0.221L3.494,-0.208L3.403,-0.118L3.834,0.334L5.179,2.313L4.286,3.206L0,-0.424Z" style="fill:rgb(153,153,153);fill-rule:nonzero;"/>
        </g>
        <g transform="matrix(0.707458,0.706755,0.706755,-0.707458,37.8803,43.4435)">
            <path d="M0.501,-0.209C0.093,-0.21 -0.203,0.103 -0.202,0.503C-0.203,0.911 0.094,1.215 0.501,1.214C0.909,1.215 1.213,0.911 1.213,0.502C1.212,0.102 0.916,-0.21 0.501,-0.209" style="fill:rgb(153,153,153);fill-rule:nonzero;"/>
        </g>
        <g transform="matrix(1,0,0,1,36.1709,38.6403)">
            <path d="M0,0.187L0.718,-0.531L4.699,1.9L5.094,2.25L5.19,2.154L4.84,1.758L2.408,-2.222L3.127,-2.94L6.066,2.036L4.976,3.127L0,0.187Z" style="fill:rgb(153,153,153);fill-rule:nonzero;"/>
        </g>
        <g transform="matrix(1,0,0,1,43.5634,32.782)">
            <path d="M0,5.347L0.967,4.38L-1.77,1.644L-2.736,2.611L-3.348,2L-0.736,-0.611L-0.125,-0.001L-1.092,0.966L1.645,3.702L2.611,2.736L3.222,3.347L0.61,5.958L0,5.347Z" style="fill:rgb(153,153,153);fill-rule:nonzero;"/>
        </g>
        <g transform="matrix(1,0,0,1,44.3154,33.9608)">
            <path d="M0,-3.279L0.68,-3.958L4.004,-0.633L5.836,-2.465L6.469,-1.831L3.959,0.679L0,-3.279Z" style="fill:rgb(153,153,153);fill-rule:nonzero;"/>
        </g>
        <g transform="matrix(1,0,0,1,48.1064,30.1702)">
            <path d="M0,-3.279L0.679,-3.958L4.004,-0.633L5.835,-2.465L6.469,-1.831L3.958,0.679L0,-3.279Z" style="fill:rgb(153,153,153);fill-rule:nonzero;"/>
        </g>
        <g transform="matrix(1,0,0,1,55.3349,25.5155)">
            <path d="M0,-1.78L-1.635,-2.759L-2.036,-3.104L-2.133,-3.008L-1.787,-2.606L-0.814,-0.966L0,-1.78ZM-2.98,-2.872L-1.9,-3.952L3.137,-1.073L2.408,-0.344L0.773,-1.322L-0.352,-0.198L0.621,1.443L-0.108,2.172L-2.98,-2.872Z" style="fill:rgb(153,153,153);fill-rule:nonzero;"/>
        </g>
        <g transform="matrix(1,0,0,1,57.163,18.8751)">
            <path d="M0,2.919C-1.386,1.534 -1.539,0.317 -0.471,-0.751C0.361,-1.582 1.52,-1.53 2.385,-0.655L1.684,0.046C1.158,-0.479 0.594,-0.536 0.158,-0.101C-0.459,0.516 -0.295,1.2 0.712,2.207C1.724,3.218 2.402,3.421 2.945,2.879C3.369,2.455 3.284,1.873 2.713,1.2L1.876,2.037L1.277,1.438L2.753,-0.039L4.834,2.042L4.2,2.675L3.5,1.647L3.402,1.743C3.906,2.517 3.918,3.139 3.386,3.67C2.555,4.501 1.34,4.259 0,2.919" style="fill:rgb(153,153,153);fill-rule:nonzero;"/>
        </g>
        <g transform="matrix(1,0,0,1,59.3193,17.2288)">
            <path d="M0,-1.55L2.408,-3.958L3.041,-3.325L1.311,-1.594L2.34,-0.565L4.014,-2.239L4.641,-1.612L2.967,0.062L3.996,1.092L5.727,-0.639L6.365,0L3.957,2.408L0,-1.55Z" style="fill:rgb(153,153,153);fill-rule:nonzero;"/>
        </g>
        <g transform="matrix(0.707458,0.706755,0.706755,-0.707458,66.5033,14.8205)">
            <path d="M0.501,-0.209C0.093,-0.21 -0.203,0.104 -0.202,0.503C-0.203,0.911 0.094,1.215 0.501,1.214C0.909,1.215 1.213,0.911 1.213,0.502C1.212,0.103 0.916,-0.21 0.501,-0.209" style="fill:rgb(153,153,153);fill-rule:nonzero;"/>
        </g>
        <g transform="matrix(1,0,0,1,70.3291,8.6254)">
            <path d="M0,2.862C0.549,2.314 0.346,1.612 -0.632,0.634C-1.61,-0.345 -2.313,-0.547 -2.86,0.001C-3.408,0.549 -3.205,1.25 -2.227,2.229C-1.248,3.207 -0.548,3.41 0,2.862M-2.939,2.941C-4.296,1.584 -4.488,0.351 -3.5,-0.638C-2.51,-1.628 -1.277,-1.435 0.08,-0.078C1.437,1.279 1.629,2.511 0.639,3.501C-0.35,4.49 -1.582,4.298 -2.939,2.941" style="fill:rgb(153,153,153);fill-rule:nonzero;"/>
        </g>
        <g transform="matrix(1,0,0,1,71.4628,6.4537)">
            <path d="M0,-0.374L-0.689,-0.928L-0.786,-0.831L2.521,2.476L1.872,3.126L-2.087,-0.832L-1.058,-1.861L2.465,0.011L3.155,0.564L3.251,0.469L-0.068,-2.851L0.581,-3.5L4.54,0.458L3.511,1.486L0,-0.374Z" style="fill:rgb(153,153,153);fill-rule:nonzero;"/>
        </g>
        <g transform="matrix(1,0,0,1,73.3476,3.2)">
            <path d="M0,-1.55L2.408,-3.958L3.042,-3.325L1.312,-1.594L2.341,-0.565L4.015,-2.239L4.642,-1.612L2.968,0.062L3.997,1.092L5.728,-0.639L6.366,0L3.958,2.408L0,-1.55Z" style="fill:rgb(153,153,153);fill-rule:nonzero;"/>
        </g>
        <g transform="matrix(1,0,0,1,-1.3204,95.2994)">
            <path d="M0,-0.373L-0.688,-0.927L-0.785,-0.83L2.521,2.477L1.872,3.127L-2.086,-0.831L-1.057,-1.859L2.465,0.012L3.156,0.566L3.252,0.47L-0.067,-2.85L0.582,-3.5L4.541,0.459L3.512,1.488L0,-0.373Z" style="fill:rgb(153,153,153);fill-rule:nonzero;"/>
        </g>
        <g transform="matrix(1,0,0,1,0.5644,92.0477)">
            <path d="M0,-1.551L2.409,-3.959L3.043,-3.326L1.312,-1.596L2.342,-0.567L4.016,-2.24L4.643,-1.613L2.969,0.061L3.998,1.091L5.729,-0.64L6.367,-0.001L3.959,2.408L0,-1.551Z" style="fill:rgb(153,153,153);fill-rule:nonzero;"/>
        </g>
        <g transform="matrix(1,0,0,1,6.873,84.6151)">
            <path d="M0,-0.425L0.633,-1.058L3.826,1.684L4.381,2.249L4.477,2.153L3.929,1.582L2.526,-0.464L3.172,-1.109L5.167,0.344L5.738,0.893L5.834,0.797L5.273,0.237L2.577,-3.003L3.205,-3.63L6.79,0.7L5.896,1.594L3.946,0.22L3.494,-0.21L3.403,-0.119L3.833,0.333L5.178,2.311L4.285,3.205L0,-0.425Z" style="fill:rgb(153,153,153);fill-rule:nonzero;"/>
        </g>
        <g transform="matrix(1,0,0,1,10.8886,80.5985)">
            <path d="M0,-0.426L0.634,-1.059L3.828,1.683L4.383,2.25L4.479,2.153L3.93,1.582L2.527,-0.465L3.173,-1.11L5.168,0.344L5.739,0.892L5.836,0.797L5.275,0.236L2.578,-3.003L3.206,-3.631L6.791,0.7L5.897,1.594L3.947,0.22L3.494,-0.209L3.404,-0.119L3.834,0.332L5.18,2.312L4.287,3.205L0,-0.426Z" style="fill:rgb(153,153,153);fill-rule:nonzero;"/>
        </g>
        <g transform="matrix(1,0,0,1,14.9052,76.5819)">
            <path d="M0,-0.425L0.634,-1.058L3.827,1.684L4.382,2.25L4.478,2.153L3.93,1.582L2.527,-0.464L3.173,-1.109L5.167,0.345L5.739,0.893L5.835,0.797L5.274,0.237L2.577,-3.003L3.206,-3.63L6.79,0.7L5.897,1.595L3.947,0.22L3.494,-0.209L3.403,-0.118L3.834,0.333L5.179,2.312L4.286,3.205L0,-0.425Z" style="fill:rgb(153,153,153);fill-rule:nonzero;"/>
        </g>
        <g transform="matrix(0.707107,0.707107,0.707107,-0.707107,22.3172,75.0708)">
            <path d="M0.501,-0.209C0.094,-0.211 -0.203,0.103 -0.202,0.502C-0.203,0.91 0.094,1.215 0.501,1.213C0.908,1.215 1.212,0.911 1.212,0.502C1.212,0.102 0.917,-0.211 0.501,-0.209" style="fill:rgb(153,153,153);fill-rule:nonzero;"/>
        </g>
        <g transform="matrix(1,0,0,1,20.6074,70.2677)">
            <path d="M0,0.188L0.718,-0.531L4.699,1.901L5.094,2.251L5.19,2.155L4.84,1.758L2.408,-2.221L3.127,-2.939L6.066,2.037L4.976,3.127L0,0.188Z" style="fill:rgb(153,153,153);fill-rule:nonzero;"/>
        </g>
        <g transform="matrix(1,0,0,1,28,64.4095)">
            <path d="M0,5.347L0.967,4.38L-1.77,1.644L-2.736,2.611L-3.348,2L-0.736,-0.611L-0.125,-0.001L-1.092,0.966L1.645,3.702L2.611,2.736L3.222,3.347L0.61,5.958L0,5.347Z" style="fill:rgb(153,153,153);fill-rule:nonzero;"/>
        </g>
        <g transform="matrix(1,0,0,1,28.7519,65.5892)">
            <path d="M0,-3.28L0.68,-3.959L4.004,-0.634L5.836,-2.466L6.469,-1.832L3.959,0.679L0,-3.28Z" style="fill:rgb(153,153,153);fill-rule:nonzero;"/>
        </g>
        <g transform="matrix(1,0,0,1,32.5429,61.7982)">
            <path d="M0,-3.279L0.679,-3.958L4.004,-0.633L5.835,-2.465L6.469,-1.831L3.958,0.679L0,-3.279Z" style="fill:rgb(153,153,153);fill-rule:nonzero;"/>
        </g>
        <g transform="matrix(1,0,0,1,39.7714,57.1434)">
            <path d="M0,-1.78L-1.635,-2.759L-2.036,-3.104L-2.133,-3.008L-1.787,-2.606L-0.814,-0.966L0,-1.78ZM-2.98,-2.872L-1.9,-3.952L3.137,-1.073L2.408,-0.344L0.773,-1.322L-0.352,-0.198L0.621,1.443L-0.108,2.172L-2.98,-2.872Z" style="fill:rgb(153,153,153);fill-rule:nonzero;"/>
        </g>
        <g transform="matrix(1,0,0,1,41.5996,50.503)">
            <path d="M0,2.919C-1.386,1.534 -1.539,0.317 -0.471,-0.751C0.361,-1.582 1.52,-1.53 2.385,-0.655L1.684,0.046C1.158,-0.479 0.594,-0.536 0.158,-0.101C-0.459,0.516 -0.295,1.2 0.712,2.207C1.724,3.218 2.402,3.421 2.945,2.879C3.369,2.455 3.284,1.873 2.713,1.2L1.876,2.037L1.277,1.438L2.753,-0.039L4.834,2.042L4.2,2.675L3.5,1.647L3.402,1.743C3.906,2.517 3.918,3.139 3.386,3.67C2.555,4.501 1.34,4.259 0,2.919" style="fill:rgb(153,153,153);fill-rule:nonzero;"/>
        </g>
        <g transform="matrix(1,0,0,1,43.7558,48.8568)">
            <path d="M0,-1.55L2.408,-3.958L3.041,-3.325L1.311,-1.594L2.34,-0.565L4.014,-2.239L4.641,-1.612L2.967,0.062L3.996,1.092L5.727,-0.639L6.365,0L3.957,2.408L0,-1.55Z" style="fill:rgb(153,153,153);fill-rule:nonzero;"/>
        </g>
        <g transform="matrix(0.707458,0.706755,0.706755,-0.707458,50.9398,46.4484)">
            <path d="M0.501,-0.209C0.093,-0.21 -0.203,0.104 -0.202,0.503C-0.203,0.911 0.094,1.215 0.501,1.214C0.909,1.215 1.213,0.911 1.213,0.502C1.212,0.103 0.916,-0.21 0.501,-0.209" style="fill:rgb(153,153,153);fill-rule:nonzero;"/>
        </g>
        <g transform="matrix(1,0,0,1,54.7656,40.2534)">
            <path d="M0,2.862C0.549,2.314 0.346,1.612 -0.632,0.634C-1.61,-0.345 -2.313,-0.547 -2.86,0.001C-3.408,0.549 -3.205,1.25 -2.227,2.229C-1.248,3.207 -0.548,3.41 0,2.862M-2.939,2.941C-4.296,1.584 -4.488,0.351 -3.5,-0.638C-2.51,-1.628 -1.277,-1.435 0.08,-0.078C1.437,1.279 1.629,2.511 0.639,3.501C-0.35,4.49 -1.582,4.298 -2.939,2.941" style="fill:rgb(153,153,153);fill-rule:nonzero;"/>
        </g>
        <g transform="matrix(1,0,0,1,55.8994,38.0816)">
            <path d="M0,-0.374L-0.689,-0.928L-0.786,-0.831L2.521,2.476L1.872,3.126L-2.087,-0.832L-1.058,-1.861L2.465,0.011L3.155,0.564L3.251,0.469L-0.068,-2.851L0.581,-3.5L4.54,0.458L3.511,1.486L0,-0.374Z" style="fill:rgb(153,153,153);fill-rule:nonzero;"/>
        </g>
        <g transform="matrix(1,0,0,1,57.7841,34.828)">
            <path d="M0,-1.55L2.408,-3.958L3.042,-3.325L1.312,-1.594L2.341,-0.565L4.015,-2.239L4.642,-1.612L2.968,0.062L3.997,1.092L5.728,-0.639L6.366,0L3.958,2.408L0,-1.55Z" style="fill:rgb(153,153,153);fill-rule:nonzero;"/>
        </g>
        <g transform="matrix(1,0,0,1,64.0918,27.3948)">
            <path d="M0,-0.424L0.633,-1.057L3.826,1.685L4.381,2.251L4.478,2.155L3.93,1.583L2.527,-0.463L3.172,-1.108L5.167,0.345L5.738,0.894L5.834,0.798L5.274,0.238L2.577,-3.002L3.205,-3.63L6.79,0.701L5.896,1.595L3.947,0.221L3.494,-0.208L3.403,-0.118L3.834,0.334L5.178,2.313L4.285,3.206L0,-0.424Z" style="fill:rgb(153,153,153);fill-rule:nonzero;"/>
        </g>
        <g transform="matrix(1,0,0,1,68.1074,23.3787)">
            <path d="M0,-0.424L0.633,-1.057L3.827,1.685L4.382,2.251L4.479,2.155L3.93,1.583L2.527,-0.463L3.172,-1.108L5.168,0.345L5.738,0.894L5.835,0.798L5.275,0.238L2.578,-3.002L3.205,-3.63L6.791,0.701L5.896,1.595L3.947,0.221L3.494,-0.209L3.404,-0.118L3.834,0.334L5.18,2.313L4.286,3.206L0,-0.424Z" style="fill:rgb(153,153,153);fill-rule:nonzero;"/>
        </g>
        <g transform="matrix(1,0,0,1,72.125,19.3626)">
            <path d="M0,-0.425L0.633,-1.058L3.826,1.684L4.381,2.25L4.477,2.154L3.929,1.582L2.526,-0.464L3.172,-1.109L5.167,0.344L5.738,0.893L5.834,0.797L5.273,0.237L2.577,-3.003L3.205,-3.63L6.79,0.7L5.896,1.594L3.946,0.22L3.494,-0.209L3.403,-0.119L3.833,0.333L5.178,2.312L4.285,3.205L0,-0.425Z" style="fill:rgb(153,153,153);fill-rule:nonzero;"/>
        </g>
        <g transform="matrix(0.707107,0.707107,0.707107,-0.707107,79.5348,17.8525)">
            <path d="M0.501,-0.209C0.094,-0.209 -0.201,0.103 -0.202,0.503C-0.203,0.911 0.094,1.215 0.501,1.215C0.909,1.215 1.213,0.911 1.213,0.503C1.213,0.103 0.917,-0.209 0.501,-0.209" style="fill:rgb(153,153,153);fill-rule:nonzero;"/>
        </g>
        <g transform="matrix(1,0,0,1,77.8251,13.0499)">
            <path d="M0,0.187L0.718,-0.531L4.699,1.9L5.095,2.25L5.19,2.154L4.841,1.758L2.409,-2.222L3.127,-2.94L6.067,2.036L4.976,3.127L0,0.187Z" style="fill:rgb(153,153,153);fill-rule:nonzero;"/>
        </g>
        <g transform="matrix(1,0,0,1,85.2177,7.1917)">
            <path d="M0,5.347L0.967,4.38L-1.77,1.644L-2.736,2.611L-3.347,2L-0.735,-0.611L-0.125,-0.001L-1.091,0.966L1.646,3.702L2.611,2.736L3.222,3.347L0.61,5.958L0,5.347Z" style="fill:rgb(153,153,153);fill-rule:nonzero;"/>
        </g>
        <g transform="matrix(1,0,0,1,85.9716,8.3695)">
            <path d="M0,-3.279L0.679,-3.958L4.003,-0.633L5.835,-2.465L6.468,-1.831L3.958,0.679L0,-3.279Z" style="fill:rgb(153,153,153);fill-rule:nonzero;"/>
        </g>
        <g transform="matrix(1,0,0,1,89.7617,4.5799)">
            <path d="M0,-3.279L0.678,-3.958L4.003,-0.633L5.834,-2.465L6.468,-1.831L3.957,0.679L0,-3.279Z" style="fill:rgb(153,153,153);fill-rule:nonzero;"/>
        </g>
        <g transform="matrix(1,0,0,1,96.9902,-0.0748)">
            <path d="M0,-1.781L-1.635,-2.759L-2.036,-3.104L-2.132,-3.009L-1.787,-2.607L-0.814,-0.967L0,-1.781ZM-2.98,-2.872L-1.9,-3.952L3.137,-1.074L2.408,-0.345L0.773,-1.323L-0.352,-0.198L0.621,1.442L-0.108,2.171L-2.98,-2.872Z" style="fill:rgb(153,153,153);fill-rule:nonzero;"/>
        </g>
        <g transform="matrix(1,0,0,1,-4.9834,111.923)">
            <path d="M0,0.187L0.718,-0.531L4.699,1.9L5.094,2.251L5.19,2.155L4.84,1.759L2.408,-2.221L3.127,-2.94L6.066,2.037L4.976,3.127L0,0.187Z" style="fill:rgb(153,153,153);fill-rule:nonzero;"/>
        </g>
        <g transform="matrix(1,0,0,1,2.4082,106.065)">
            <path d="M0,5.348L0.967,4.381L-1.77,1.645L-2.736,2.612L-3.347,2L-0.735,-0.611L-0.124,0L-1.091,0.966L1.646,3.702L2.612,2.737L3.223,3.347L0.61,5.959L0,5.348Z" style="fill:rgb(153,153,153);fill-rule:nonzero;"/>
        </g>
        <g transform="matrix(1,0,0,1,3.1611,107.242)">
            <path d="M0,-3.277L0.68,-3.957L4.004,-0.631L5.836,-2.464L6.469,-1.83L3.959,0.68L0,-3.277Z" style="fill:rgb(153,153,153);fill-rule:nonzero;"/>
        </g>
        <g transform="matrix(1,0,0,1,6.9521,103.453)">
            <path d="M0,-3.279L0.679,-3.958L4.004,-0.633L5.835,-2.465L6.469,-1.832L3.958,0.679L0,-3.279Z" style="fill:rgb(153,153,153);fill-rule:nonzero;"/>
        </g>
        <g transform="matrix(1,0,0,1,14.1806,98.7982)">
            <path d="M0,-1.78L-1.634,-2.759L-2.035,-3.104L-2.132,-3.008L-1.787,-2.606L-0.814,-0.966L0,-1.78ZM-2.98,-2.872L-1.9,-3.952L3.137,-1.073L2.408,-0.344L0.773,-1.323L-0.352,-0.198L0.621,1.443L-0.108,2.172L-2.98,-2.872Z" style="fill:rgb(153,153,153);fill-rule:nonzero;"/>
        </g>
        <g transform="matrix(1,0,0,1,16.0078,92.1588)">
            <path d="M0,2.919C-1.386,1.533 -1.538,0.317 -0.47,-0.751C0.362,-1.582 1.521,-1.531 2.386,-0.655L1.685,0.046C1.159,-0.479 0.595,-0.537 0.158,-0.101C-0.458,0.516 -0.294,1.199 0.713,2.206C1.725,3.218 2.403,3.422 2.946,2.879C3.37,2.455 3.284,1.873 2.714,1.199L1.877,2.036L1.278,1.438L2.753,-0.039L4.834,2.042L4.2,2.676L3.501,1.647L3.403,1.742C3.907,2.517 3.919,3.139 3.387,3.67C2.556,4.501 1.34,4.259 0,2.919" style="fill:rgb(153,153,153);fill-rule:nonzero;"/>
        </g>
        <g transform="matrix(1,0,0,1,18.164,90.5115)">
            <path d="M0,-1.549L2.409,-3.958L3.042,-3.324L1.312,-1.594L2.341,-0.565L4.015,-2.238L4.642,-1.611L2.968,0.063L3.997,1.093L5.728,-0.638L6.366,0.001L3.958,2.409L0,-1.549Z" style="fill:rgb(153,153,153);fill-rule:nonzero;"/>
        </g>
        <g transform="matrix(0.707809,0.706404,0.706404,-0.707809,25.3487,88.1044)">
            <path d="M0.501,-0.209C0.092,-0.209 -0.203,0.104 -0.203,0.505C-0.202,0.912 0.095,1.216 0.501,1.215C0.91,1.215 1.213,0.91 1.212,0.502C1.211,0.103 0.915,-0.209 0.501,-0.209" style="fill:rgb(153,153,153);fill-rule:nonzero;"/>
        </g>
        <g transform="matrix(1,0,0,1,29.1757,81.9091)">
            <path d="M0,2.861C0.548,2.312 0.345,1.611 -0.633,0.633C-1.611,-0.345 -2.313,-0.548 -2.86,0C-3.409,0.548 -3.206,1.25 -2.228,2.228C-1.249,3.206 -0.548,3.41 0,2.861M-2.939,2.94C-4.296,1.584 -4.489,0.351 -3.5,-0.639C-2.511,-1.629 -1.277,-1.436 0.079,-0.078C1.437,1.277 1.628,2.509 0.639,3.5C-0.351,4.49 -1.583,4.297 -2.939,2.94" style="fill:rgb(153,153,153);fill-rule:nonzero;"/>
        </g>
        <g transform="matrix(1,0,0,1,30.3076,79.7359)">
            <path d="M0,-0.372L-0.688,-0.927L-0.785,-0.83L2.521,2.478L1.872,3.127L-2.086,-0.831L-1.057,-1.86L2.465,0.013L3.156,0.565L3.252,0.47L-0.067,-2.85L0.582,-3.499L4.541,0.458L3.512,1.487L0,-0.372Z" style="fill:rgb(153,153,153);fill-rule:nonzero;"/>
        </g>
        <g transform="matrix(1,0,0,1,32.1923,76.4822)">
            <path d="M0,-1.548L2.409,-3.957L3.043,-3.323L1.312,-1.593L2.342,-0.564L4.016,-2.237L4.643,-1.61L2.969,0.063L3.998,1.093L5.729,-0.638L6.367,0.001L3.959,2.409L0,-1.548Z" style="fill:rgb(153,153,153);fill-rule:nonzero;"/>
        </g>
        <g transform="matrix(1,0,0,1,38.5009,69.0516)">
            <path d="M0,-0.426L0.633,-1.059L3.826,1.683L4.381,2.25L4.477,2.154L3.929,1.582L2.526,-0.464L3.172,-1.11L5.167,0.344L5.738,0.892L5.834,0.797L5.273,0.236L2.577,-3.003L3.205,-3.631L6.79,0.7L5.896,1.594L3.946,0.22L3.494,-0.209L3.403,-0.119L3.833,0.333L5.178,2.312L4.285,3.205L0,-0.426Z" style="fill:rgb(153,153,153);fill-rule:nonzero;"/>
        </g>
        <g transform="matrix(1,0,0,1,42.5166,65.033)">
            <path d="M0,-0.423L0.634,-1.057L3.828,1.686L4.383,2.251L4.479,2.155L3.93,1.583L2.527,-0.462L3.173,-1.108L5.168,0.346L5.739,0.894L5.836,0.798L5.275,0.238L2.578,-3.001L3.206,-3.629L6.791,0.702L5.897,1.596L3.947,0.222L3.494,-0.208L3.404,-0.117L3.834,0.335L5.18,2.313L4.287,3.206L0,-0.423Z" style="fill:rgb(153,153,153);fill-rule:nonzero;"/>
        </g>
        <g transform="matrix(1,0,0,1,46.5332,61.0174)">
            <path d="M0,-0.424L0.634,-1.058L3.827,1.685L4.382,2.251L4.478,2.155L3.93,1.583L2.527,-0.463L3.173,-1.109L5.167,0.345L5.739,0.893L5.835,0.798L5.274,0.237L2.577,-3.002L3.206,-3.63L6.79,0.702L5.897,1.595L3.947,0.221L3.494,-0.208L3.403,-0.118L3.834,0.334L5.179,2.313L4.286,3.206L0,-0.424Z" style="fill:rgb(153,153,153);fill-rule:nonzero;"/>
        </g>
        <g transform="matrix(0.707809,0.706404,0.706404,-0.707809,53.9444,59.5087)">
            <path d="M0.501,-0.209C0.092,-0.209 -0.203,0.104 -0.203,0.505C-0.202,0.912 0.095,1.216 0.501,1.215C0.91,1.215 1.213,0.91 1.212,0.502C1.211,0.103 0.915,-0.209 0.501,-0.209" style="fill:rgb(153,153,153);fill-rule:nonzero;"/>
        </g>
        <g transform="matrix(1,0,0,1,52.2353,54.7047)">
            <path d="M0,0.187L0.718,-0.531L4.699,1.9L5.094,2.25L5.19,2.154L4.84,1.758L2.408,-2.222L3.127,-2.94L6.066,2.036L4.976,3.127L0,0.187Z" style="fill:rgb(153,153,153);fill-rule:nonzero;"/>
        </g>
        <g transform="matrix(1,0,0,1,59.6279,48.8465)">
            <path d="M0,5.347L0.967,4.38L-1.77,1.644L-2.736,2.611L-3.348,2L-0.736,-0.611L-0.125,-0.001L-1.092,0.966L1.645,3.702L2.611,2.736L3.222,3.347L0.61,5.958L0,5.347Z" style="fill:rgb(153,153,153);fill-rule:nonzero;"/>
        </g>
        <g transform="matrix(1,0,0,1,60.3798,50.0252)">
            <path d="M0,-3.279L0.68,-3.958L4.004,-0.633L5.836,-2.465L6.469,-1.831L3.959,0.679L0,-3.279Z" style="fill:rgb(153,153,153);fill-rule:nonzero;"/>
        </g>
        <g transform="matrix(1,0,0,1,64.1709,46.2347)">
            <path d="M0,-3.279L0.679,-3.958L4.004,-0.633L5.835,-2.465L6.469,-1.831L3.958,0.679L0,-3.279Z" style="fill:rgb(153,153,153);fill-rule:nonzero;"/>
        </g>
        <g transform="matrix(1,0,0,1,71.3994,41.5799)">
            <path d="M0,-1.78L-1.635,-2.759L-2.036,-3.104L-2.133,-3.008L-1.787,-2.606L-0.814,-0.966L0,-1.78ZM-2.98,-2.872L-1.9,-3.952L3.137,-1.073L2.408,-0.344L0.773,-1.322L-0.352,-0.198L0.621,1.443L-0.108,2.172L-2.98,-2.872Z" style="fill:rgb(153,153,153);fill-rule:nonzero;"/>
        </g>
        <g transform="matrix(1,0,0,1,73.2275,34.9395)">
            <path d="M0,2.919C-1.386,1.534 -1.539,0.317 -0.471,-0.751C0.361,-1.582 1.52,-1.53 2.385,-0.655L1.684,0.046C1.158,-0.479 0.594,-0.536 0.158,-0.101C-0.459,0.516 -0.295,1.2 0.712,2.207C1.724,3.218 2.402,3.421 2.945,2.879C3.369,2.455 3.284,1.873 2.713,1.2L1.876,2.037L1.277,1.438L2.753,-0.039L4.834,2.042L4.2,2.675L3.5,1.647L3.402,1.743C3.906,2.517 3.918,3.139 3.386,3.67C2.555,4.501 1.34,4.259 0,2.919" style="fill:rgb(153,153,153);fill-rule:nonzero;"/>
        </g>
        <g transform="matrix(1,0,0,1,75.3837,33.2933)">
            <path d="M0,-1.55L2.408,-3.958L3.041,-3.325L1.311,-1.594L2.34,-0.565L4.014,-2.239L4.641,-1.612L2.967,0.062L3.996,1.092L5.727,-0.639L6.365,0L3.957,2.408L0,-1.55Z" style="fill:rgb(153,153,153);fill-rule:nonzero;"/>
        </g>
        <g transform="matrix(0.707458,0.706755,0.706755,-0.707458,82.5678,30.8849)">
            <path d="M0.501,-0.209C0.093,-0.21 -0.203,0.104 -0.202,0.503C-0.203,0.911 0.094,1.215 0.501,1.214C0.909,1.215 1.213,0.911 1.213,0.502C1.212,0.103 0.916,-0.21 0.501,-0.209" style="fill:rgb(153,153,153);fill-rule:nonzero;"/>
        </g>
        <g transform="matrix(1,0,0,1,86.3935,24.6899)">
            <path d="M0,2.862C0.549,2.314 0.346,1.612 -0.632,0.634C-1.61,-0.345 -2.313,-0.547 -2.86,0.001C-3.408,0.549 -3.205,1.25 -2.227,2.229C-1.248,3.207 -0.548,3.41 0,2.862M-2.939,2.941C-4.296,1.584 -4.488,0.351 -3.5,-0.638C-2.51,-1.628 -1.277,-1.435 0.08,-0.078C1.437,1.279 1.629,2.511 0.639,3.501C-0.35,4.49 -1.582,4.298 -2.939,2.941" style="fill:rgb(153,153,153);fill-rule:nonzero;"/>
        </g>
        <g transform="matrix(1,0,0,1,87.5273,22.5182)">
            <path d="M0,-0.374L-0.689,-0.928L-0.786,-0.831L2.521,2.476L1.872,3.126L-2.087,-0.832L-1.058,-1.861L2.465,0.011L3.155,0.564L3.251,0.469L-0.068,-2.851L0.581,-3.5L4.54,0.458L3.511,1.486L0,-0.374Z" style="fill:rgb(153,153,153);fill-rule:nonzero;"/>
        </g>
        <g transform="matrix(1,0,0,1,89.4121,19.2645)">
            <path d="M0,-1.55L2.408,-3.958L3.042,-3.325L1.312,-1.594L2.341,-0.565L4.015,-2.239L4.642,-1.612L2.968,0.062L3.997,1.092L5.728,-0.639L6.366,0L3.958,2.408L0,-1.55Z" style="fill:rgb(153,153,153);fill-rule:nonzero;"/>
        </g>
        <g transform="matrix(1,0,0,1,95.7197,11.8313)">
            <path d="M0,-0.424L0.633,-1.057L3.826,1.685L4.381,2.251L4.478,2.155L3.93,1.583L2.527,-0.463L3.172,-1.108L5.167,0.345L5.738,0.894L5.834,0.798L5.274,0.238L2.577,-3.002L3.205,-3.63L6.79,0.701L5.896,1.595L3.947,0.221L3.494,-0.208L3.403,-0.118L3.834,0.334L5.178,2.313L4.285,3.206L0,-0.424Z" style="fill:rgb(153,153,153);fill-rule:nonzero;"/>
        </g>
        <g transform="matrix(1,0,0,1,99.7353,7.8152)">
            <path d="M0,-0.424L0.633,-1.057L3.827,1.685L4.382,2.251L4.479,2.155L3.93,1.583L2.527,-0.463L3.172,-1.108L5.168,0.345L5.738,0.894L5.835,0.798L5.275,0.238L2.578,-3.002L3.205,-3.63L6.791,0.701L5.896,1.595L3.947,0.221L3.494,-0.209L3.404,-0.118L3.834,0.334L5.18,2.313L4.286,3.206L0,-0.424Z" style="fill:rgb(153,153,153);fill-rule:nonzero;"/>
        </g>
        <g transform="matrix(1,0,0,1,103.753,3.7991)">
            <path d="M0,-0.425L0.633,-1.058L3.826,1.684L4.381,2.25L4.477,2.154L3.929,1.582L2.526,-0.464L3.172,-1.109L5.167,0.344L5.738,0.893L5.834,0.797L5.273,0.237L2.577,-3.003L3.205,-3.63L6.79,0.7L5.896,1.594L3.946,0.22L3.494,-0.209L3.403,-0.119L3.833,0.333L5.178,2.312L4.285,3.205L0,-0.425Z" style="fill:rgb(153,153,153);fill-rule:nonzero;"/>
        </g>
        <g transform="matrix(0.707107,0.707107,0.707107,-0.707107,111.163,2.28898)">
            <path d="M0.501,-0.209C0.094,-0.209 -0.201,0.103 -0.202,0.503C-0.203,0.911 0.094,1.215 0.501,1.215C0.909,1.215 1.213,0.911 1.213,0.503C1.213,0.103 0.917,-0.209 0.501,-0.209" style="fill:rgb(153,153,153);fill-rule:nonzero;"/>
        </g>
        <g transform="matrix(1,0,0,1,109.453,-2.5135)">
            <path d="M0,0.187L0.718,-0.531L4.699,1.9L5.095,2.25L5.19,2.154L4.841,1.758L2.409,-2.222L3.127,-2.94L6.067,2.036L4.976,3.127L0,0.187Z" style="fill:rgb(153,153,153);fill-rule:nonzero;"/>
        </g>
        <g transform="matrix(1,0,0,1,13.6123,113.537)">
            <path d="M0,2.861C0.548,2.313 0.345,1.612 -0.633,0.633C-1.611,-0.345 -2.313,-0.548 -2.86,0.001C-3.409,0.548 -3.206,1.249 -2.228,2.227C-1.249,3.206 -0.548,3.409 0,2.861M-2.939,2.94C-4.296,1.583 -4.489,0.35 -3.5,-0.639C-2.511,-1.628 -1.277,-1.436 0.079,-0.079C1.437,1.278 1.628,2.51 0.639,3.5C-0.351,4.489 -1.583,4.297 -2.939,2.94" style="fill:rgb(153,153,153);fill-rule:nonzero;"/>
        </g>
        <g transform="matrix(1,0,0,1,14.7441,111.364)">
            <path d="M0,-0.373L-0.688,-0.927L-0.785,-0.83L2.521,2.477L1.872,3.127L-2.086,-0.831L-1.057,-1.859L2.465,0.012L3.156,0.566L3.252,0.47L-0.067,-2.85L0.582,-3.5L4.541,0.459L3.512,1.488L0,-0.373Z" style="fill:rgb(153,153,153);fill-rule:nonzero;"/>
        </g>
        <g transform="matrix(1,0,0,1,16.6289,108.112)">
            <path d="M0,-1.551L2.409,-3.959L3.043,-3.326L1.312,-1.596L2.342,-0.567L4.016,-2.24L4.643,-1.613L2.969,0.061L3.998,1.091L5.729,-0.64L6.367,-0.001L3.959,2.408L0,-1.551Z" style="fill:rgb(153,153,153);fill-rule:nonzero;"/>
        </g>
        <g transform="matrix(1,0,0,1,22.9375,100.679)">
            <path d="M0,-0.425L0.633,-1.058L3.826,1.684L4.381,2.249L4.477,2.153L3.929,1.582L2.526,-0.464L3.172,-1.109L5.167,0.344L5.738,0.893L5.834,0.797L5.273,0.237L2.577,-3.003L3.205,-3.63L6.79,0.7L5.896,1.594L3.946,0.22L3.494,-0.21L3.403,-0.119L3.833,0.333L5.178,2.311L4.285,3.205L0,-0.425Z" style="fill:rgb(153,153,153);fill-rule:nonzero;"/>
        </g>
        <g transform="matrix(1,0,0,1,26.9531,96.6629)">
            <path d="M0,-0.426L0.634,-1.059L3.828,1.683L4.383,2.25L4.479,2.153L3.93,1.582L2.527,-0.465L3.173,-1.11L5.168,0.344L5.739,0.892L5.836,0.797L5.275,0.236L2.578,-3.003L3.206,-3.631L6.791,0.7L5.897,1.594L3.947,0.22L3.494,-0.209L3.404,-0.119L3.834,0.332L5.18,2.312L4.287,3.205L0,-0.426Z" style="fill:rgb(153,153,153);fill-rule:nonzero;"/>
        </g>
        <g transform="matrix(1,0,0,1,30.9697,92.6463)">
            <path d="M0,-0.425L0.634,-1.058L3.827,1.684L4.382,2.25L4.478,2.153L3.93,1.582L2.527,-0.464L3.173,-1.109L5.167,0.345L5.739,0.893L5.835,0.797L5.274,0.237L2.577,-3.003L3.206,-3.63L6.79,0.7L5.897,1.595L3.947,0.22L3.494,-0.209L3.403,-0.118L3.834,0.333L5.179,2.312L4.286,3.205L0,-0.425Z" style="fill:rgb(153,153,153);fill-rule:nonzero;"/>
        </g>
        <g transform="matrix(0.707107,0.707107,0.707107,-0.707107,38.3816,91.1352)">
            <path d="M0.501,-0.209C0.094,-0.211 -0.203,0.103 -0.202,0.502C-0.203,0.91 0.094,1.215 0.501,1.213C0.908,1.215 1.212,0.911 1.212,0.502C1.212,0.102 0.917,-0.211 0.501,-0.209" style="fill:rgb(153,153,153);fill-rule:nonzero;"/>
        </g>
        <g transform="matrix(1,0,0,1,36.6718,86.3321)">
            <path d="M0,0.188L0.718,-0.531L4.699,1.901L5.094,2.251L5.19,2.155L4.84,1.758L2.408,-2.221L3.127,-2.939L6.066,2.037L4.976,3.127L0,0.188Z" style="fill:rgb(153,153,153);fill-rule:nonzero;"/>
        </g>
        <g transform="matrix(1,0,0,1,44.0644,80.4739)">
            <path d="M0,5.347L0.967,4.38L-1.77,1.644L-2.736,2.611L-3.348,2L-0.736,-0.611L-0.125,-0.001L-1.092,0.966L1.645,3.702L2.611,2.736L3.222,3.347L0.61,5.958L0,5.347Z" style="fill:rgb(153,153,153);fill-rule:nonzero;"/>
        </g>
        <g transform="matrix(1,0,0,1,44.8164,81.6537)">
            <path d="M0,-3.28L0.68,-3.959L4.004,-0.634L5.836,-2.466L6.469,-1.832L3.959,0.679L0,-3.28Z" style="fill:rgb(153,153,153);fill-rule:nonzero;"/>
        </g>
        <g transform="matrix(1,0,0,1,48.6074,77.8626)">
            <path d="M0,-3.279L0.679,-3.958L4.004,-0.633L5.835,-2.465L6.469,-1.831L3.958,0.679L0,-3.279Z" style="fill:rgb(153,153,153);fill-rule:nonzero;"/>
        </g>
        <g transform="matrix(1,0,0,1,55.8359,73.2073)">
            <path d="M0,-1.779L-1.635,-2.758L-2.036,-3.103L-2.133,-3.008L-1.787,-2.605L-0.814,-0.966L0,-1.779ZM-2.98,-2.871L-1.9,-3.951L3.137,-1.073L2.408,-0.343L0.773,-1.322L-0.352,-0.197L0.621,1.444L-0.108,2.172L-2.98,-2.871Z" style="fill:rgb(153,153,153);fill-rule:nonzero;"/>
        </g>
        <g transform="matrix(1,0,0,1,57.664,66.5669)">
            <path d="M0,2.92C-1.386,1.534 -1.539,0.318 -0.471,-0.75C0.361,-1.582 1.52,-1.529 2.385,-0.654L1.684,0.047C1.158,-0.478 0.594,-0.535 0.158,-0.1C-0.459,0.516 -0.295,1.2 0.712,2.207C1.724,3.219 2.402,3.422 2.945,2.879C3.369,2.455 3.284,1.873 2.713,1.2L1.876,2.037L1.277,1.438L2.753,-0.038L4.834,2.043L4.2,2.676L3.5,1.647L3.402,1.744C3.906,2.518 3.918,3.139 3.386,3.671C2.555,4.502 1.34,4.26 0,2.92" style="fill:rgb(153,153,153);fill-rule:nonzero;"/>
        </g>
        <g transform="matrix(1,0,0,1,59.8203,64.9207)">
            <path d="M0,-1.549L2.408,-3.957L3.041,-3.324L1.311,-1.594L2.34,-0.565L4.014,-2.238L4.641,-1.611L2.967,0.062L3.996,1.092L5.727,-0.639L6.365,0L3.957,2.408L0,-1.549Z" style="fill:rgb(153,153,153);fill-rule:nonzero;"/>
        </g>
        <g transform="matrix(0.707107,0.707107,0.707107,-0.707107,67.0047,62.5122)">
            <path d="M0.501,-0.209C0.094,-0.211 -0.203,0.103 -0.202,0.502C-0.203,0.91 0.094,1.215 0.501,1.213C0.908,1.215 1.212,0.911 1.212,0.502C1.212,0.103 0.917,-0.211 0.501,-0.209" style="fill:rgb(153,153,153);fill-rule:nonzero;"/>
        </g>
        <g transform="matrix(1,0,0,1,70.83,56.3173)">
            <path d="M0,2.863C0.549,2.314 0.346,1.613 -0.632,0.634C-1.61,-0.344 -2.313,-0.547 -2.86,0.002C-3.408,0.55 -3.205,1.251 -2.227,2.229C-1.248,3.207 -0.548,3.411 0,2.863M-2.939,2.941C-4.296,1.585 -4.488,0.352 -3.5,-0.637C-2.51,-1.627 -1.277,-1.434 0.08,-0.077C1.437,1.279 1.629,2.511 0.639,3.502C-0.35,4.49 -1.582,4.299 -2.939,2.941" style="fill:rgb(153,153,153);fill-rule:nonzero;"/>
        </g>
        <g transform="matrix(1,0,0,1,71.9638,54.1461)">
            <path d="M0,-0.374L-0.689,-0.928L-0.786,-0.831L2.521,2.476L1.872,3.126L-2.087,-0.832L-1.058,-1.861L2.465,0.011L3.155,0.564L3.251,0.469L-0.068,-2.851L0.581,-3.5L4.54,0.458L3.511,1.486L0,-0.374Z" style="fill:rgb(153,153,153);fill-rule:nonzero;"/>
        </g>
        <g transform="matrix(1,0,0,1,73.8486,50.8924)">
            <path d="M0,-1.55L2.408,-3.958L3.042,-3.325L1.312,-1.594L2.341,-0.565L4.015,-2.239L4.642,-1.612L2.968,0.062L3.997,1.092L5.728,-0.639L6.366,0L3.958,2.408L0,-1.55Z" style="fill:rgb(153,153,153);fill-rule:nonzero;"/>
        </g>
        <g transform="matrix(1,0,0,1,80.1562,43.4593)">
            <path d="M0,-0.424L0.633,-1.057L3.826,1.685L4.381,2.251L4.478,2.155L3.93,1.583L2.527,-0.463L3.172,-1.108L5.167,0.345L5.738,0.894L5.834,0.798L5.274,0.238L2.577,-3.002L3.205,-3.63L6.79,0.701L5.896,1.595L3.947,0.221L3.494,-0.208L3.403,-0.118L3.834,0.334L5.178,2.313L4.285,3.206L0,-0.424Z" style="fill:rgb(153,153,153);fill-rule:nonzero;"/>
        </g>
        <g transform="matrix(1,0,0,1,84.1718,39.4432)">
            <path d="M0,-0.424L0.633,-1.057L3.827,1.685L4.382,2.251L4.479,2.155L3.93,1.583L2.527,-0.463L3.172,-1.108L5.168,0.345L5.738,0.894L5.835,0.798L5.275,0.238L2.578,-3.002L3.205,-3.63L6.791,0.701L5.896,1.595L3.947,0.221L3.494,-0.209L3.404,-0.118L3.834,0.334L5.18,2.313L4.286,3.206L0,-0.424Z" style="fill:rgb(153,153,153);fill-rule:nonzero;"/>
        </g>
        <g transform="matrix(1,0,0,1,88.1894,35.4271)">
            <path d="M0,-0.425L0.633,-1.058L3.826,1.684L4.381,2.25L4.477,2.154L3.929,1.582L2.526,-0.464L3.172,-1.109L5.167,0.344L5.738,0.893L5.834,0.797L5.273,0.237L2.577,-3.003L3.205,-3.63L6.79,0.7L5.896,1.594L3.946,0.22L3.494,-0.209L3.403,-0.119L3.833,0.333L5.178,2.312L4.285,3.205L0,-0.425Z" style="fill:rgb(153,153,153);fill-rule:nonzero;"/>
        </g>
        <g transform="matrix(0.707107,0.707107,0.707107,-0.707107,95.5992,33.917)">
            <path d="M0.501,-0.209C0.094,-0.209 -0.201,0.103 -0.202,0.503C-0.203,0.911 0.094,1.215 0.501,1.215C0.909,1.215 1.213,0.911 1.213,0.503C1.213,0.103 0.917,-0.209 0.501,-0.209" style="fill:rgb(153,153,153);fill-rule:nonzero;"/>
        </g>
        <g transform="matrix(1,0,0,1,93.8896,29.1144)">
            <path d="M0,0.187L0.718,-0.531L4.699,1.9L5.095,2.25L5.19,2.154L4.841,1.758L2.409,-2.222L3.127,-2.94L6.067,2.036L4.976,3.127L0,0.187Z" style="fill:rgb(153,153,153);fill-rule:nonzero;"/>
        </g>
        <g transform="matrix(1,0,0,1,101.282,23.2561)">
            <path d="M0,5.347L0.967,4.38L-1.77,1.644L-2.736,2.611L-3.347,2L-0.735,-0.611L-0.125,-0.001L-1.091,0.966L1.646,3.702L2.611,2.736L3.222,3.347L0.61,5.958L0,5.347Z" style="fill:rgb(153,153,153);fill-rule:nonzero;"/>
        </g>
        <g transform="matrix(1,0,0,1,102.036,24.4339)">
            <path d="M0,-3.279L0.679,-3.958L4.003,-0.633L5.835,-2.465L6.468,-1.831L3.958,0.679L0,-3.279Z" style="fill:rgb(153,153,153);fill-rule:nonzero;"/>
        </g>
        <g transform="matrix(1,0,0,1,105.826,20.6444)">
            <path d="M0,-3.279L0.678,-3.958L4.003,-0.633L5.834,-2.465L6.468,-1.831L3.957,0.679L0,-3.279Z" style="fill:rgb(153,153,153);fill-rule:nonzero;"/>
        </g>
        <g transform="matrix(1,0,0,1,113.055,15.9896)">
            <path d="M0,-1.781L-1.635,-2.759L-2.036,-3.104L-2.132,-3.009L-1.787,-2.607L-0.814,-0.967L0,-1.781ZM-2.98,-2.872L-1.9,-3.952L3.137,-1.074L2.408,-0.345L0.773,-1.323L-0.352,-0.198L0.621,1.442L-0.108,2.171L-2.98,-2.872Z" style="fill:rgb(153,153,153);fill-rule:nonzero;"/>
        </g>
        <g transform="matrix(1,0,0,1,114.882,9.3492)">
            <path d="M0,2.919C-1.386,1.534 -1.538,0.317 -0.47,-0.751C0.361,-1.582 1.521,-1.531 2.386,-0.655L1.685,0.046C1.159,-0.479 0.594,-0.536 0.158,-0.101C-0.458,0.515 -0.294,1.2 0.712,2.207C1.724,3.218 2.403,3.421 2.946,2.878C3.37,2.455 3.284,1.873 2.714,1.199L1.877,2.036L1.278,1.437L2.753,-0.039L4.834,2.042L4.2,2.675L3.5,1.647L3.403,1.743C3.907,2.517 3.918,3.139 3.386,3.67C2.556,4.501 1.34,4.259 0,2.919" style="fill:rgb(153,153,153);fill-rule:nonzero;"/>
        </g>
        <g transform="matrix(1,0,0,1,30.2451,114.863)">
            <path d="M0,-1.78L-1.634,-2.759L-2.035,-3.104L-2.132,-3.008L-1.787,-2.606L-0.814,-0.966L0,-1.78ZM-2.98,-2.872L-1.9,-3.952L3.137,-1.073L2.408,-0.344L0.773,-1.323L-0.352,-0.198L0.621,1.443L-0.108,2.172L-2.98,-2.872Z" style="fill:rgb(153,153,153);fill-rule:nonzero;"/>
        </g>
        <g transform="matrix(1,0,0,1,32.0722,108.223)">
            <path d="M0,2.919C-1.386,1.533 -1.538,0.317 -0.47,-0.751C0.362,-1.582 1.521,-1.531 2.386,-0.655L1.685,0.046C1.159,-0.479 0.595,-0.537 0.158,-0.101C-0.458,0.516 -0.294,1.199 0.713,2.206C1.725,3.218 2.403,3.422 2.946,2.879C3.37,2.455 3.284,1.873 2.714,1.199L1.877,2.036L1.278,1.438L2.753,-0.039L4.834,2.042L4.2,2.676L3.501,1.647L3.403,1.742C3.907,2.517 3.919,3.139 3.387,3.67C2.556,4.501 1.34,4.259 0,2.919" style="fill:rgb(153,153,153);fill-rule:nonzero;"/>
        </g>
        <g transform="matrix(1,0,0,1,34.2285,106.576)">
            <path d="M0,-1.549L2.409,-3.958L3.042,-3.324L1.312,-1.594L2.341,-0.565L4.015,-2.238L4.642,-1.611L2.968,0.063L3.997,1.093L5.728,-0.638L6.366,0.001L3.958,2.409L0,-1.549Z" style="fill:rgb(153,153,153);fill-rule:nonzero;"/>
        </g>
        <g transform="matrix(0.707809,0.706404,0.706404,-0.707809,41.4132,104.169)">
            <path d="M0.501,-0.209C0.092,-0.209 -0.203,0.104 -0.203,0.505C-0.202,0.912 0.095,1.216 0.501,1.215C0.91,1.215 1.213,0.91 1.212,0.502C1.211,0.103 0.915,-0.209 0.501,-0.209" style="fill:rgb(153,153,153);fill-rule:nonzero;"/>
        </g>
        <g transform="matrix(1,0,0,1,45.2402,97.9736)">
            <path d="M0,2.861C0.548,2.312 0.345,1.611 -0.633,0.633C-1.611,-0.345 -2.313,-0.548 -2.86,0C-3.409,0.548 -3.206,1.25 -2.228,2.228C-1.249,3.206 -0.548,3.41 0,2.861M-2.939,2.94C-4.296,1.584 -4.489,0.351 -3.5,-0.639C-2.511,-1.629 -1.277,-1.436 0.079,-0.078C1.437,1.277 1.628,2.509 0.639,3.5C-0.351,4.49 -1.583,4.297 -2.939,2.94" style="fill:rgb(153,153,153);fill-rule:nonzero;"/>
        </g>
        <g transform="matrix(1,0,0,1,46.372,95.8003)">
            <path d="M0,-0.372L-0.688,-0.927L-0.785,-0.83L2.521,2.478L1.872,3.127L-2.086,-0.831L-1.057,-1.86L2.465,0.013L3.156,0.565L3.252,0.47L-0.067,-2.85L0.582,-3.499L4.541,0.458L3.512,1.487L0,-0.372Z" style="fill:rgb(153,153,153);fill-rule:nonzero;"/>
        </g>
        <g transform="matrix(1,0,0,1,48.2568,92.5467)">
            <path d="M0,-1.548L2.409,-3.957L3.043,-3.323L1.312,-1.593L2.342,-0.564L4.016,-2.237L4.643,-1.61L2.969,0.063L3.998,1.093L5.729,-0.638L6.367,0.001L3.959,2.409L0,-1.548Z" style="fill:rgb(153,153,153);fill-rule:nonzero;"/>
        </g>
        <g transform="matrix(1,0,0,1,54.5654,85.1161)">
            <path d="M0,-0.426L0.633,-1.059L3.826,1.683L4.381,2.25L4.477,2.154L3.929,1.582L2.526,-0.464L3.172,-1.11L5.167,0.344L5.738,0.892L5.834,0.797L5.273,0.236L2.577,-3.003L3.205,-3.631L6.79,0.7L5.896,1.594L3.946,0.22L3.494,-0.209L3.403,-0.119L3.833,0.333L5.178,2.312L4.285,3.205L0,-0.426Z" style="fill:rgb(153,153,153);fill-rule:nonzero;"/>
        </g>
        <g transform="matrix(1,0,0,1,58.581,81.0974)">
            <path d="M0,-0.423L0.634,-1.057L3.828,1.686L4.383,2.251L4.479,2.155L3.93,1.583L2.527,-0.462L3.173,-1.108L5.168,0.346L5.739,0.894L5.836,0.798L5.275,0.238L2.578,-3.001L3.206,-3.629L6.791,0.702L5.897,1.596L3.947,0.222L3.494,-0.208L3.404,-0.117L3.834,0.335L5.18,2.313L4.287,3.206L0,-0.423Z" style="fill:rgb(153,153,153);fill-rule:nonzero;"/>
        </g>
        <g transform="matrix(1,0,0,1,62.5976,77.0818)">
            <path d="M0,-0.424L0.634,-1.058L3.827,1.685L4.382,2.251L4.478,2.155L3.93,1.583L2.527,-0.463L3.173,-1.109L5.167,0.345L5.739,0.893L5.835,0.798L5.274,0.237L2.577,-3.001L3.206,-3.63L6.79,0.702L5.897,1.595L3.947,0.221L3.494,-0.208L3.403,-0.118L3.834,0.334L5.179,2.313L4.286,3.206L0,-0.424Z" style="fill:rgb(153,153,153);fill-rule:nonzero;"/>
        </g>
        <g transform="matrix(0.707809,0.706404,0.706404,-0.707809,70.0089,75.5731)">
            <path d="M0.501,-0.209C0.092,-0.209 -0.203,0.104 -0.203,0.505C-0.202,0.912 0.095,1.216 0.501,1.215C0.91,1.215 1.213,0.91 1.212,0.502C1.211,0.103 0.915,-0.209 0.501,-0.209" style="fill:rgb(153,153,153);fill-rule:nonzero;"/>
        </g>
        <g transform="matrix(1,0,0,1,68.2998,70.7687)">
            <path d="M0,0.187L0.718,-0.531L4.699,1.9L5.094,2.251L5.19,2.155L4.84,1.759L2.408,-2.221L3.127,-2.94L6.066,2.037L4.976,3.127L0,0.187Z" style="fill:rgb(153,153,153);fill-rule:nonzero;"/>
        </g>
        <g transform="matrix(1,0,0,1,75.6923,64.9094)">
            <path d="M0,5.349L0.967,4.382L-1.77,1.646L-2.736,2.613L-3.348,2.001L-0.736,-0.61L-0.125,0.001L-1.092,0.968L1.645,3.704L2.611,2.738L3.222,3.348L0.61,5.959L0,5.349Z" style="fill:rgb(153,153,153);fill-rule:nonzero;"/>
        </g>
        <g transform="matrix(1,0,0,1,76.4443,66.0882)">
            <path d="M0,-3.277L0.68,-3.957L4.004,-0.632L5.836,-2.463L6.469,-1.83L3.959,0.68L0,-3.277Z" style="fill:rgb(153,153,153);fill-rule:nonzero;"/>
        </g>
        <g transform="matrix(1,0,0,1,80.2353,62.2991)">
            <path d="M0,-3.279L0.679,-3.958L4.004,-0.633L5.835,-2.465L6.469,-1.832L3.958,0.679L0,-3.279Z" style="fill:rgb(153,153,153);fill-rule:nonzero;"/>
        </g>
        <g transform="matrix(1,0,0,1,87.4638,57.6444)">
            <path d="M0,-1.78L-1.635,-2.759L-2.036,-3.104L-2.133,-3.008L-1.787,-2.606L-0.814,-0.966L0,-1.78ZM-2.98,-2.872L-1.9,-3.952L3.137,-1.073L2.408,-0.344L0.773,-1.322L-0.352,-0.198L0.621,1.442L-0.108,2.172L-2.98,-2.872Z" style="fill:rgb(153,153,153);fill-rule:nonzero;"/>
        </g>
        <g transform="matrix(1,0,0,1,89.2919,51.004)">
            <path d="M0,2.919C-1.386,1.534 -1.539,0.317 -0.471,-0.751C0.361,-1.582 1.52,-1.53 2.385,-0.655L1.684,0.046C1.158,-0.479 0.594,-0.536 0.158,-0.101C-0.459,0.516 -0.295,1.2 0.712,2.207C1.724,3.218 2.402,3.421 2.945,2.879C3.369,2.455 3.284,1.873 2.713,1.2L1.876,2.037L1.277,1.438L2.753,-0.039L4.834,2.042L4.2,2.675L3.5,1.647L3.402,1.743C3.906,2.517 3.918,3.139 3.386,3.67C2.555,4.501 1.34,4.259 0,2.919" style="fill:rgb(153,153,153);fill-rule:nonzero;"/>
        </g>
        <g transform="matrix(1,0,0,1,91.4482,49.3577)">
            <path d="M0,-1.55L2.408,-3.958L3.041,-3.325L1.311,-1.594L2.34,-0.565L4.014,-2.239L4.641,-1.612L2.967,0.062L3.996,1.092L5.727,-0.639L6.365,0L3.957,2.408L0,-1.55Z" style="fill:rgb(153,153,153);fill-rule:nonzero;"/>
        </g>
        <g transform="matrix(0.707458,0.706755,0.706755,-0.707458,98.6322,46.9494)">
            <path d="M0.501,-0.209C0.093,-0.21 -0.203,0.104 -0.202,0.503C-0.203,0.911 0.094,1.215 0.501,1.214C0.909,1.215 1.213,0.911 1.213,0.502C1.212,0.103 0.916,-0.21 0.501,-0.209" style="fill:rgb(153,153,153);fill-rule:nonzero;"/>
        </g>
        <g transform="matrix(1,0,0,1,102.458,40.7543)">
            <path d="M0,2.862C0.549,2.314 0.346,1.612 -0.632,0.634C-1.61,-0.345 -2.313,-0.547 -2.86,0.001C-3.408,0.549 -3.205,1.25 -2.227,2.229C-1.248,3.207 -0.548,3.41 0,2.862M-2.939,2.941C-4.296,1.584 -4.488,0.351 -3.5,-0.638C-2.51,-1.628 -1.277,-1.435 0.08,-0.078C1.437,1.279 1.629,2.511 0.639,3.501C-0.35,4.49 -1.582,4.298 -2.939,2.941" style="fill:rgb(153,153,153);fill-rule:nonzero;"/>
        </g>
        <g transform="matrix(1,0,0,1,103.592,38.5826)">
            <path d="M0,-0.374L-0.689,-0.928L-0.786,-0.831L2.521,2.476L1.872,3.126L-2.087,-0.832L-1.058,-1.861L2.465,0.011L3.155,0.564L3.251,0.469L-0.068,-2.851L0.581,-3.5L4.54,0.458L3.511,1.486L0,-0.374Z" style="fill:rgb(153,153,153);fill-rule:nonzero;"/>
        </g>
        <g transform="matrix(1,0,0,1,105.477,35.3289)">
            <path d="M0,-1.55L2.408,-3.958L3.042,-3.325L1.312,-1.594L2.341,-0.565L4.015,-2.239L4.642,-1.612L2.968,0.062L3.997,1.092L5.728,-0.639L6.366,0L3.958,2.408L0,-1.55Z" style="fill:rgb(153,153,153);fill-rule:nonzero;"/>
        </g>
        <g transform="matrix(1,0,0,1,111.784,27.8958)">
            <path d="M0,-0.424L0.633,-1.057L3.826,1.685L4.381,2.251L4.478,2.155L3.93,1.583L2.527,-0.463L3.172,-1.108L5.167,0.345L5.738,0.894L5.834,0.798L5.274,0.238L2.577,-3.002L3.205,-3.63L6.79,0.701L5.896,1.595L3.947,0.221L3.494,-0.208L3.403,-0.118L3.834,0.334L5.178,2.313L4.285,3.206L0,-0.424Z" style="fill:rgb(153,153,153);fill-rule:nonzero;"/>
        </g>
        <g transform="matrix(1,0,0,1,39.0024,116.744)">
            <path d="M0,-0.425L0.633,-1.058L3.826,1.684L4.381,2.249L4.477,2.153L3.929,1.582L2.526,-0.464L3.172,-1.109L5.167,0.344L5.738,0.893L5.834,0.797L5.273,0.237L2.577,-3.003L3.205,-3.63L6.79,0.7L5.896,1.594L3.946,0.22L3.494,-0.21L3.403,-0.119L3.833,0.333L5.178,2.311L4.285,3.205L0,-0.425Z" style="fill:rgb(153,153,153);fill-rule:nonzero;"/>
        </g>
        <g transform="matrix(1,0,0,1,43.018,112.727)">
            <path d="M0,-0.426L0.634,-1.059L3.828,1.683L4.383,2.25L4.479,2.153L3.93,1.582L2.527,-0.465L3.173,-1.11L5.168,0.344L5.739,0.892L5.836,0.797L5.275,0.236L2.578,-3.003L3.206,-3.631L6.791,0.7L5.897,1.594L3.947,0.22L3.494,-0.209L3.404,-0.119L3.834,0.332L5.18,2.312L4.287,3.205L0,-0.426Z" style="fill:rgb(153,153,153);fill-rule:nonzero;"/>
        </g>
        <g transform="matrix(1,0,0,1,47.0346,108.711)">
            <path d="M0,-0.425L0.634,-1.058L3.827,1.684L4.382,2.25L4.478,2.153L3.93,1.582L2.527,-0.464L3.173,-1.109L5.167,0.345L5.739,0.893L5.835,0.797L5.274,0.237L2.577,-3.003L3.206,-3.63L6.79,0.7L5.897,1.595L3.947,0.22L3.494,-0.209L3.403,-0.118L3.834,0.333L5.179,2.312L4.286,3.205L0,-0.425Z" style="fill:rgb(153,153,153);fill-rule:nonzero;"/>
        </g>
        <g transform="matrix(0.707107,0.707107,0.707107,-0.707107,54.4466,107.2)">
            <path d="M0.501,-0.209C0.094,-0.211 -0.203,0.103 -0.202,0.502C-0.203,0.91 0.094,1.215 0.501,1.213C0.908,1.215 1.212,0.911 1.212,0.502C1.212,0.102 0.917,-0.211 0.501,-0.209" style="fill:rgb(153,153,153);fill-rule:nonzero;"/>
        </g>
        <g transform="matrix(1,0,0,1,52.7368,102.397)">
            <path d="M0,0.188L0.718,-0.531L4.699,1.901L5.093,2.251L5.191,2.155L4.84,1.758L2.408,-2.221L3.127,-2.939L6.066,2.037L4.976,3.127L0,0.188Z" style="fill:rgb(153,153,153);fill-rule:nonzero;"/>
        </g>
        <g transform="matrix(1,0,0,1,60.1289,96.5384)">
            <path d="M0,5.347L0.967,4.38L-1.77,1.644L-2.736,2.611L-3.347,2L-0.736,-0.611L-0.125,-0.001L-1.092,0.966L1.645,3.702L2.611,2.736L3.223,3.347L0.611,5.958L0,5.347Z" style="fill:rgb(153,153,153);fill-rule:nonzero;"/>
        </g>
        <g transform="matrix(1,0,0,1,60.8808,97.7181)">
            <path d="M0,-3.28L0.68,-3.959L4.004,-0.634L5.836,-2.466L6.469,-1.832L3.959,0.679L0,-3.28Z" style="fill:rgb(153,153,153);fill-rule:nonzero;"/>
        </g>
        <g transform="matrix(1,0,0,1,64.6718,93.9271)">
            <path d="M0,-3.279L0.68,-3.958L4.004,-0.633L5.836,-2.465L6.469,-1.831L3.959,0.679L0,-3.279Z" style="fill:rgb(153,153,153);fill-rule:nonzero;"/>
        </g>
        <g transform="matrix(1,0,0,1,71.9003,89.2718)">
            <path d="M0,-1.779L-1.635,-2.758L-2.035,-3.103L-2.133,-3.008L-1.787,-2.605L-0.814,-0.966L0,-1.779ZM-2.98,-2.871L-1.9,-3.951L3.137,-1.073L2.408,-0.343L0.773,-1.322L-0.352,-0.197L0.621,1.444L-0.107,2.172L-2.98,-2.871Z" style="fill:rgb(153,153,153);fill-rule:nonzero;"/>
        </g>
        <g transform="matrix(1,0,0,1,73.7285,82.6314)">
            <path d="M0,2.92C-1.385,1.534 -1.539,0.318 -0.471,-0.75C0.361,-1.582 1.52,-1.529 2.385,-0.654L1.684,0.047C1.158,-0.478 0.594,-0.535 0.158,-0.1C-0.459,0.516 -0.295,1.2 0.713,2.207C1.725,3.219 2.402,3.422 2.945,2.879C3.369,2.455 3.285,1.873 2.713,1.2L1.877,2.037L1.277,1.438L2.754,-0.038L4.834,2.043L4.201,2.676L3.5,1.647L3.402,1.744C3.906,2.518 3.918,3.139 3.387,3.671C2.555,4.502 1.34,4.26 0,2.92" style="fill:rgb(153,153,153);fill-rule:nonzero;"/>
        </g>
        <g transform="matrix(1,0,0,1,75.8847,80.9852)">
            <path d="M0,-1.549L2.408,-3.957L3.041,-3.324L1.311,-1.594L2.34,-0.565L4.014,-2.238L4.641,-1.611L2.967,0.062L3.996,1.092L5.727,-0.639L6.365,0L3.957,2.408L0,-1.549Z" style="fill:rgb(153,153,153);fill-rule:nonzero;"/>
        </g>
        <g transform="matrix(0.707107,0.707107,0.707107,-0.707107,83.0691,78.5766)">
            <path d="M0.501,-0.209C0.094,-0.211 -0.203,0.103 -0.202,0.502C-0.202,0.911 0.094,1.215 0.501,1.213C0.908,1.215 1.212,0.911 1.212,0.502C1.213,0.104 0.917,-0.211 0.501,-0.209" style="fill:rgb(153,153,153);fill-rule:nonzero;"/>
        </g>
        <g transform="matrix(1,0,0,1,86.8945,72.3817)">
            <path d="M0,2.863C0.549,2.314 0.346,1.613 -0.631,0.634C-1.609,-0.344 -2.313,-0.547 -2.859,0.002C-3.408,0.55 -3.205,1.251 -2.227,2.229C-1.248,3.207 -0.547,3.411 0,2.863M-2.939,2.941C-4.295,1.585 -4.488,0.351 -3.5,-0.637C-2.51,-1.627 -1.277,-1.434 0.08,-0.077C1.437,1.279 1.629,2.511 0.639,3.502C-0.35,4.49 -1.582,4.299 -2.939,2.941" style="fill:rgb(153,153,153);fill-rule:nonzero;"/>
        </g>
        <g transform="matrix(1,0,0,1,88.0293,70.2095)">
            <path d="M0,-0.373L-0.689,-0.927L-0.787,-0.83L2.52,2.477L1.871,3.127L-2.088,-0.832L-1.059,-1.86L2.465,0.012L3.154,0.565L3.25,0.47L-0.068,-2.85L0.58,-3.5L4.539,0.459L3.51,1.487L0,-0.373Z" style="fill:rgb(153,153,153);fill-rule:nonzero;"/>
        </g>
        <g transform="matrix(1,0,0,1,89.914,66.9569)">
            <path d="M0,-1.55L2.408,-3.958L3.041,-3.325L1.311,-1.595L2.34,-0.566L4.014,-2.239L4.641,-1.612L2.967,0.062L3.996,1.092L5.727,-0.639L6.365,0L3.957,2.408L0,-1.55Z" style="fill:rgb(153,153,153);fill-rule:nonzero;"/>
        </g>
        <g transform="matrix(1,0,0,1,96.2207,59.5232)">
            <path d="M0,-0.423L0.633,-1.057L3.826,1.686L4.381,2.251L4.479,2.155L3.93,1.583L2.527,-0.462L3.172,-1.108L5.168,0.346L5.738,0.894L5.834,0.798L5.275,0.238L2.578,-3.001L3.205,-3.629L6.791,0.702L5.896,1.596L3.947,0.222L3.494,-0.208L3.404,-0.117L3.834,0.335L5.178,2.313L4.285,3.206L0,-0.423Z" style="fill:rgb(153,153,153);fill-rule:nonzero;"/>
        </g>
        <g transform="matrix(1,0,0,1,100.236,55.5076)">
            <path d="M0,-0.424L0.633,-1.057L3.828,1.685L4.383,2.251L4.479,2.155L3.93,1.583L2.527,-0.463L3.172,-1.108L5.168,0.345L5.738,0.894L5.836,0.798L5.275,0.238L2.578,-3.002L3.205,-3.63L6.791,0.701L5.896,1.595L3.947,0.221L3.494,-0.209L3.404,-0.118L3.834,0.334L5.18,2.313L4.287,3.206L0,-0.424Z" style="fill:rgb(153,153,153);fill-rule:nonzero;"/>
        </g>
        <g transform="matrix(1,0,0,1,104.254,51.4915)">
            <path d="M0,-0.425L0.633,-1.058L3.826,1.684L4.381,2.25L4.477,2.154L3.93,1.582L2.527,-0.464L3.172,-1.109L5.168,0.344L5.738,0.893L5.834,0.797L5.273,0.237L2.578,-3.003L3.205,-3.63L6.791,0.7L5.896,1.594L3.947,0.22L3.494,-0.209L3.404,-0.119L3.834,0.333L5.178,2.312L4.285,3.205L0,-0.425Z" style="fill:rgb(153,153,153);fill-rule:nonzero;"/>
        </g>
        <g transform="matrix(0.707458,0.706755,0.706755,-0.707458,111.664,49.9821)">
            <path d="M0.501,-0.209C0.093,-0.21 -0.203,0.103 -0.202,0.503C-0.204,0.911 0.094,1.215 0.501,1.214C0.909,1.215 1.213,0.911 1.213,0.502C1.212,0.102 0.916,-0.21 0.501,-0.209" style="fill:rgb(153,153,153);fill-rule:nonzero;"/>
        </g>
        <g transform="matrix(1,0,0,1,109.955,45.1788)">
            <path d="M0,0.187L0.717,-0.531L4.699,1.9L5.094,2.25L5.189,2.154L4.84,1.758L2.408,-2.222L3.127,-2.94L6.066,2.036L4.975,3.127L0,0.187Z" style="fill:rgb(153,153,153);fill-rule:nonzero;"/>
        </g>
        <g transform="matrix(1,0,0,1,61.3046,114.038)">
            <path d="M0,2.861C0.549,2.312 0.346,1.611 -0.633,0.633C-1.611,-0.345 -2.313,-0.548 -2.859,0C-3.408,0.548 -3.205,1.25 -2.227,2.228C-1.248,3.206 -0.547,3.41 0,2.861M-2.939,2.94C-4.295,1.584 -4.489,0.351 -3.5,-0.639C-2.51,-1.629 -1.277,-1.436 0.08,-0.078C1.437,1.277 1.629,2.509 0.639,3.5C-0.35,4.49 -1.582,4.297 -2.939,2.94" style="fill:rgb(153,153,153);fill-rule:nonzero;"/>
        </g>
        <g transform="matrix(1,0,0,1,62.4375,111.865)">
            <path d="M0,-0.372L-0.689,-0.927L-0.785,-0.83L2.521,2.478L1.871,3.127L-2.086,-0.831L-1.057,-1.86L2.465,0.013L3.156,0.565L3.252,0.47L-0.068,-2.85L0.582,-3.499L4.541,0.458L3.512,1.487L0,-0.372Z" style="fill:rgb(153,153,153);fill-rule:nonzero;"/>
        </g>
        <g transform="matrix(1,0,0,1,64.3222,108.611)">
            <path d="M0,-1.548L2.408,-3.957L3.043,-3.323L1.312,-1.593L2.342,-0.564L4.016,-2.237L4.643,-1.61L2.969,0.063L3.998,1.093L5.729,-0.638L6.367,0.001L3.959,2.409L0,-1.548Z" style="fill:rgb(153,153,153);fill-rule:nonzero;"/>
        </g>
        <g transform="matrix(1,0,0,1,70.6308,101.18)">
            <path d="M0,-0.426L0.633,-1.059L3.826,1.683L4.381,2.25L4.477,2.154L3.928,1.582L2.525,-0.464L3.172,-1.11L5.166,0.344L5.738,0.892L5.834,0.797L5.273,0.236L2.576,-3.003L3.205,-3.631L6.789,0.7L5.896,1.594L3.945,0.22L3.494,-0.209L3.402,-0.119L3.832,0.333L5.178,2.312L4.285,3.205L0,-0.426Z" style="fill:rgb(153,153,153);fill-rule:nonzero;"/>
        </g>
        <g transform="matrix(1,0,0,1,74.6464,97.1619)">
            <path d="M0,-0.423L0.633,-1.057L3.828,1.686L4.383,2.251L4.479,2.155L3.93,1.583L2.527,-0.462L3.172,-1.108L5.168,0.346L5.738,0.894L5.836,0.798L5.275,0.238L2.578,-3.001L3.205,-3.629L6.791,0.702L5.896,1.596L3.947,0.222L3.494,-0.208L3.404,-0.117L3.834,0.335L5.18,2.313L4.287,3.206L0,-0.423Z" style="fill:rgb(153,153,153);fill-rule:nonzero;"/>
        </g>
        <g transform="matrix(1,0,0,1,78.6621,93.1463)">
            <path d="M0,-0.424L0.635,-1.058L3.828,1.685L4.383,2.251L4.479,2.155L3.93,1.583L2.527,-0.463L3.174,-1.109L5.168,0.345L5.74,0.893L5.836,0.798L5.275,0.237L2.578,-3.001L3.207,-3.63L6.791,0.702L5.898,1.595L3.947,0.221L3.494,-0.208L3.404,-0.118L3.834,0.334L5.18,2.313L4.287,3.206L0,-0.424Z" style="fill:rgb(153,153,153);fill-rule:nonzero;"/>
        </g>
        <g transform="matrix(0.707809,0.706404,0.706404,-0.707809,86.0743,91.6376)">
            <path d="M0.501,-0.209C0.092,-0.209 -0.203,0.104 -0.203,0.505C-0.203,0.911 0.095,1.216 0.501,1.215C0.91,1.215 1.213,0.91 1.212,0.502C1.211,0.103 0.915,-0.209 0.501,-0.209" style="fill:rgb(153,153,153);fill-rule:nonzero;"/>
        </g>
        <g transform="matrix(1,0,0,1,84.3652,86.8331)">
            <path d="M0,0.187L0.717,-0.531L4.699,1.9L5.094,2.251L5.189,2.155L4.84,1.759L2.408,-2.221L3.127,-2.94L6.066,2.037L4.975,3.127L0,0.187Z" style="fill:rgb(153,153,153);fill-rule:nonzero;"/>
        </g>
        <g transform="matrix(1,0,0,1,91.7578,80.9739)">
            <path d="M0,5.349L0.967,4.382L-1.77,1.646L-2.736,2.613L-3.348,2.001L-0.736,-0.61L-0.125,0.001L-1.092,0.968L1.645,3.704L2.611,2.738L3.221,3.348L0.609,5.959L0,5.349Z" style="fill:rgb(153,153,153);fill-rule:nonzero;"/>
        </g>
        <g transform="matrix(1,0,0,1,92.5097,82.1526)">
            <path d="M0,-3.277L0.68,-3.957L4.004,-0.632L5.836,-2.463L6.469,-1.83L3.959,0.68L0,-3.277Z" style="fill:rgb(153,153,153);fill-rule:nonzero;"/>
        </g>
        <g transform="matrix(1,0,0,1,96.3007,78.3636)">
            <path d="M0,-3.279L0.678,-3.958L4.004,-0.633L5.834,-2.465L6.469,-1.832L3.957,0.679L0,-3.279Z" style="fill:rgb(153,153,153);fill-rule:nonzero;"/>
        </g>
        <g transform="matrix(1,0,0,1,103.529,73.7083)">
            <path d="M0,-1.78L-1.635,-2.759L-2.037,-3.103L-2.133,-3.007L-1.787,-2.605L-0.814,-0.966L0,-1.78ZM-2.98,-2.872L-1.9,-3.952L3.137,-1.073L2.408,-0.344L0.773,-1.322L-0.352,-0.198L0.621,1.443L-0.109,2.172L-2.98,-2.872Z" style="fill:rgb(153,153,153);fill-rule:nonzero;"/>
        </g>
        <g transform="matrix(1,0,0,1,105.357,67.0689)">
            <path d="M0,2.918C-1.387,1.533 -1.539,0.316 -0.471,-0.752C0.361,-1.582 1.52,-1.531 2.385,-0.655L1.684,0.045C1.158,-0.48 0.594,-0.537 0.158,-0.102C-0.459,0.516 -0.295,1.199 0.711,2.206C1.723,3.218 2.402,3.421 2.945,2.879C3.369,2.454 3.283,1.872 2.713,1.199L1.875,2.036L1.277,1.438L2.752,-0.039L4.834,2.041L4.199,2.675L3.5,1.647L3.402,1.742C3.906,2.517 3.918,3.139 3.385,3.67C2.555,4.5 1.34,4.258 0,2.918" style="fill:rgb(153,153,153);fill-rule:nonzero;"/>
        </g>
        <g transform="matrix(1,0,0,1,107.514,65.4227)">
            <path d="M0,-1.551L2.408,-3.959L3.041,-3.325L1.311,-1.595L2.34,-0.566L4.014,-2.239L4.641,-1.612L2.967,0.062L3.996,1.092L5.727,-0.639L6.365,-0L3.957,2.408L0,-1.551Z" style="fill:rgb(153,153,153);fill-rule:nonzero;"/>
        </g>
        <g transform="matrix(1,0,0,1,76.1933,112.603)">
            <path d="M0,5.347L0.967,4.38L-1.77,1.644L-2.736,2.611L-3.348,2L-0.736,-0.611L-0.125,-0.001L-1.092,0.966L1.645,3.702L2.611,2.736L3.223,3.347L0.611,5.958L0,5.347Z" style="fill:rgb(153,153,153);fill-rule:nonzero;"/>
        </g>
        <g transform="matrix(1,0,0,1,76.9453,113.783)">
            <path d="M0,-3.28L0.68,-3.959L4.004,-0.634L5.836,-2.466L6.469,-1.832L3.959,0.679L0,-3.28Z" style="fill:rgb(153,153,153);fill-rule:nonzero;"/>
        </g>
        <g transform="matrix(1,0,0,1,80.7363,109.991)">
            <path d="M0,-3.279L0.68,-3.958L4.004,-0.633L5.836,-2.465L6.469,-1.831L3.959,0.679L0,-3.279Z" style="fill:rgb(153,153,153);fill-rule:nonzero;"/>
        </g>
        <g transform="matrix(1,0,0,1,87.9648,105.336)">
            <path d="M0,-1.779L-1.635,-2.758L-2.035,-3.103L-2.133,-3.008L-1.787,-2.605L-0.814,-0.966L0,-1.779ZM-2.98,-2.871L-1.9,-3.951L3.137,-1.073L2.408,-0.343L0.773,-1.322L-0.352,-0.197L0.621,1.444L-0.107,2.172L-2.98,-2.871Z" style="fill:rgb(153,153,153);fill-rule:nonzero;"/>
        </g>
        <g transform="matrix(1,0,0,1,89.7929,98.6958)">
            <path d="M0,2.92C-1.385,1.534 -1.539,0.318 -0.471,-0.75C0.361,-1.582 1.52,-1.529 2.385,-0.654L1.684,0.047C1.158,-0.478 0.594,-0.535 0.158,-0.1C-0.459,0.516 -0.295,1.2 0.713,2.207C1.725,3.219 2.402,3.422 2.945,2.879C3.369,2.455 3.285,1.873 2.713,1.2L1.877,2.037L1.277,1.438L2.754,-0.038L4.834,2.043L4.201,2.676L3.5,1.647L3.402,1.744C3.906,2.518 3.918,3.139 3.387,3.671C2.555,4.502 1.34,4.26 0,2.92" style="fill:rgb(153,153,153);fill-rule:nonzero;"/>
        </g>
        <g transform="matrix(1,0,0,1,91.9492,97.0496)">
            <path d="M0,-1.549L2.408,-3.957L3.041,-3.324L1.311,-1.594L2.34,-0.565L4.014,-2.238L4.641,-1.611L2.967,0.062L3.996,1.092L5.727,-0.639L6.365,0L3.957,2.408L0,-1.549Z" style="fill:rgb(153,153,153);fill-rule:nonzero;"/>
        </g>
        <g transform="matrix(0.707107,0.707107,0.707107,-0.707107,99.1336,94.6411)">
            <path d="M0.501,-0.209C0.094,-0.211 -0.203,0.103 -0.202,0.502C-0.202,0.911 0.094,1.215 0.501,1.213C0.908,1.215 1.212,0.911 1.212,0.502C1.213,0.104 0.917,-0.211 0.501,-0.209" style="fill:rgb(153,153,153);fill-rule:nonzero;"/>
        </g>
        <g transform="matrix(1,0,0,1,102.959,88.4462)">
            <path d="M0,2.863C0.549,2.314 0.346,1.613 -0.631,0.634C-1.609,-0.344 -2.313,-0.547 -2.859,0.002C-3.408,0.55 -3.205,1.251 -2.227,2.229C-1.248,3.207 -0.547,3.411 0,2.863M-2.939,2.941C-4.295,1.585 -4.488,0.351 -3.5,-0.637C-2.51,-1.627 -1.277,-1.434 0.08,-0.077C1.437,1.279 1.629,2.511 0.639,3.502C-0.35,4.49 -1.582,4.299 -2.939,2.941" style="fill:rgb(153,153,153);fill-rule:nonzero;"/>
        </g>
        <g transform="matrix(1,0,0,1,104.094,86.274)">
            <path d="M0,-0.373L-0.689,-0.927L-0.787,-0.83L2.52,2.477L1.871,3.127L-2.088,-0.832L-1.059,-1.86L2.465,0.012L3.154,0.565L3.25,0.47L-0.068,-2.85L0.58,-3.5L4.539,0.459L3.51,1.487L0,-0.373Z" style="fill:rgb(153,153,153);fill-rule:nonzero;"/>
        </g>
        <g transform="matrix(1,0,0,1,105.978,83.0213)">
            <path d="M0,-1.55L2.408,-3.958L3.041,-3.325L1.311,-1.595L2.34,-0.566L4.014,-2.239L4.641,-1.612L2.967,0.062L3.996,1.092L5.727,-0.639L6.365,0L3.957,2.408L0,-1.55Z" style="fill:rgb(153,153,153);fill-rule:nonzero;"/>
        </g>
        <g transform="matrix(1,0,0,1,112.285,75.5877)">
            <path d="M0,-0.423L0.633,-1.057L3.826,1.686L4.381,2.251L4.479,2.155L3.93,1.583L2.527,-0.462L3.172,-1.108L5.168,0.346L5.738,0.894L5.834,0.798L5.275,0.238L2.578,-3.001L3.205,-3.629L6.791,0.702L5.896,1.596L3.947,0.222L3.494,-0.208L3.404,-0.117L3.834,0.335L5.178,2.313L4.285,3.206L0,-0.423Z" style="fill:rgb(153,153,153);fill-rule:nonzero;"/>
        </g>
        <g transform="matrix(1,0,0,1,90.7109,113.229)">
            <path d="M0,-0.426L0.634,-1.059L3.828,1.683L4.383,2.25L4.479,2.153L3.93,1.582L2.527,-0.465L3.173,-1.11L5.168,0.344L5.739,0.892L5.836,0.797L5.275,0.236L2.578,-3.003L3.206,-3.631L6.791,0.7L5.897,1.594L3.947,0.22L3.494,-0.209L3.404,-0.119L3.834,0.332L5.18,2.312L4.287,3.205L0,-0.426Z" style="fill:rgb(153,153,153);fill-rule:nonzero;"/>
        </g>
        <g transform="matrix(1,0,0,1,94.7275,109.213)">
            <path d="M0,-0.425L0.634,-1.058L3.827,1.684L4.382,2.25L4.478,2.153L3.93,1.582L2.527,-0.464L3.173,-1.109L5.167,0.345L5.739,0.893L5.835,0.797L5.274,0.237L2.577,-3.003L3.206,-3.63L6.79,0.7L5.897,1.595L3.947,0.22L3.494,-0.209L3.403,-0.118L3.834,0.333L5.179,2.312L4.286,3.205L0,-0.425Z" style="fill:rgb(153,153,153);fill-rule:nonzero;"/>
        </g>
        <g transform="matrix(0.707107,0.707107,0.707107,-0.707107,102.139,107.702)">
            <path d="M0.501,-0.209C0.094,-0.211 -0.203,0.103 -0.202,0.502C-0.203,0.91 0.094,1.215 0.501,1.213C0.908,1.215 1.212,0.911 1.212,0.502C1.212,0.102 0.917,-0.211 0.501,-0.209" style="fill:rgb(153,153,153);fill-rule:nonzero;"/>
        </g>
        <g transform="matrix(1,0,0,1,100.43,102.898)">
            <path d="M0,0.188L0.718,-0.531L4.699,1.901L5.094,2.251L5.19,2.155L4.84,1.758L2.408,-2.221L3.127,-2.939L6.066,2.037L4.976,3.127L0,0.188Z" style="fill:rgb(153,153,153);fill-rule:nonzero;"/>
        </g>
        <g transform="matrix(1,0,0,1,107.822,97.0403)">
            <path d="M0,5.347L0.967,4.38L-1.77,1.644L-2.736,2.611L-3.348,2L-0.736,-0.611L-0.125,-0.001L-1.092,0.966L1.645,3.702L2.611,2.736L3.222,3.347L0.61,5.958L0,5.347Z" style="fill:rgb(153,153,153);fill-rule:nonzero;"/>
        </g>
        <g transform="matrix(1,0,0,1,108.574,98.2201)">
            <path d="M0,-3.28L0.68,-3.959L4.004,-0.634L5.836,-2.466L6.469,-1.832L3.959,0.679L0,-3.28Z" style="fill:rgb(153,153,153);fill-rule:nonzero;"/>
        </g>
        <g transform="matrix(1,0,0,1,112.365,94.429)">
            <path d="M0,-3.279L0.679,-3.958L4.004,-0.633L5.835,-2.465L6.469,-1.831L3.958,0.679L0,-3.279Z" style="fill:rgb(153,153,153);fill-rule:nonzero;"/>
        </g>
        <g transform="matrix(1,0,0,1,105.858,114.762)">
            <path d="M0,2.918C-1.386,1.533 -1.539,0.316 -0.471,-0.752C0.361,-1.582 1.52,-1.531 2.385,-0.655L1.684,0.045C1.158,-0.48 0.594,-0.537 0.158,-0.102C-0.459,0.516 -0.295,1.199 0.712,2.206C1.724,3.218 2.402,3.421 2.945,2.879C3.369,2.454 3.284,1.872 2.713,1.199L1.876,2.036L1.277,1.438L2.753,-0.039L4.834,2.041L4.2,2.675L3.5,1.647L3.402,1.742C3.906,2.517 3.918,3.139 3.386,3.67C2.555,4.5 1.34,4.258 0,2.918" style="fill:rgb(153,153,153);fill-rule:nonzero;"/>
        </g>
        <g transform="matrix(1,0,0,1,108.015,113.116)">
            <path d="M0,-1.551L2.408,-3.959L3.041,-3.325L1.311,-1.595L2.34,-0.566L4.014,-2.239L4.641,-1.612L2.967,0.062L3.996,1.092L5.727,-0.639L6.365,-0L3.957,2.408L0,-1.551Z" style="fill:rgb(153,153,153);fill-rule:nonzero;"/>
        </g>
    </g>
</svg>
