<svg fill="none" height="48" viewBox="0 0 120 48" width="120" xmlns="http://www.w3.org/2000/svg"><path d="m0 45.5837.264321-.3473.327556.2061c.168205-.1899.341468-.3748.505883-.5734.14038-.1686.27317-.2498.51726-.1574.43379.1637.87516.2499 1.34184.0387.14291-.0662.36043.0438.54002.0275.15682-.0137.30606-.1062.46414-.1349.344-.0612.69053-.2498 1.04338-.0112.03794.0249.14038 0 .18717-.0375.39314-.2878.86133-.4585 1.34943-.4922.07823-.004.15177-.0381.20488-.095.10497-.1724.20235-.2498.43759-.1986.16314.0325.3794-.0762.53876-.1749.1451-.0929.30808-.1552.47871-.1829s.34522-.0203.51281.0218c.08815.0151.17883.0056.26179-.0275.52485-.1912 1.03576-.4997 1.57456-.5547.4123-.045.7588-.3185 1.1825-.2498.0657.0125.1264.0462.1947.0637s.1531.0587.2037.035c.5501-.2661 1.1584-.1999 1.7225-.3174.4603-.0962.9384.105 1.3987-.2036.4604-.3086 1.0307-.2498 1.572-.2273.0671 0 .167 0 .1948-.035.2327-.3073.4818-.1462.7221-.0313.1265.06.2201.125.2897-.0674.0113-.035.1682 0 .2352-.04.7752-.436 1.6858-.0887 2.4788-.421.0359-.0043.0723-.0011.1069.0092s.0667.0276.0942.0508c.3048.2236.564.1899.946.0787.3516-.1012.6741-.3561 1.1205-.2986.3566.0462.7917.1174 1.161-.1487.0797-.0574.2984.075.4831.125.1378-.2649.2808-.1362.5274-.035s.5969 0 .8941-.05c.3655-.0624.7664-.306 1.0775-.2173.4035.1149.707-.3074 1.1054-.0625.1125.0687.3983-.1487.6096-.2174.0895-.0318.1874-.0318.2769 0 .411.2012.8195.1187 1.2495.0675.4629-.0537.941.0337 1.4114.0125.3681-.0163.7702-.0275 1.0889-.1799s.597-.2324.9498-.1587c.0883.0087.1774-.0007.2619-.0275.0844-.0269.1623-.0707.2288-.1286.0528-.0651.1291-.1075.2128-.1182s.1684.0111.2362.0607c.2681.1424.5248.2786.8309.0075.0986-.0874.3883-.055.5362.0225.3946.2061.7525 0 1.1092-.0625.2337-.0413.4734-.0375.7057.0113.2149.0314.4335.0285.6475-.0088.2011-.0262.3996-.1924.5893.03.0143.0171.0323.0309.0526.0405.0204.0094.0426.0144.0651.0145.2946-.0725.6323-.0875.8663-.2499.0788-.0578.1685-.0996.2638-.123s.1943-.0278.2914-.0131c.2946.0199.5703.0649.7487-.2849.0506-.0974.3414-.0749.6083-.1249.1821-.0175.4528-.1012.6981-.055.1365.0357.2791.0423.4185.0195.1393-.0228.2721-.0746.3896-.1519.1733-.1187.339-.1636.4212.1249.3237-.1349.6146-.321.927-.3747.5628-.0862 1.1382-.09 1.7086-.125.1644-.0112.3529.03.492-.0337.5476-.2498 1.0611-.0824 1.577.0775.3086.0962.4515-.1624.6324-.2899.1075-.0737-.2011-.4909-.4009-.5309-.0725-.0107-.1456-.0174-.2188-.02.0303-.4909.0405-.9619.0961-1.4291.043-.2089.1176-.4102.2213-.5972.0279-.0599.1429-.1424.1784-.1249.2719.1249.4489-.0275.6766-.1436.2706-.1387.3465.0949.3338.2735.1584.0926.3112.1939.4579.3036.2377.2024.4515.1899.7057-.1537.0581.2561.091.4073.1264.5572.0387.2219.0966.4401.1733.6521.0658.1499.7904.0188.903-.1187.2618-.3185.5362-.6246.8258-.9244.1455-.1487.3149-.2499.2998-.5072-.0076-.1249-.0139-.3335.2415-.3685.0848-.0113.1518-.1924.215-.3023.0911-.1562.1429-.3448.2643-.4723.1968-.1847.4055-.3566.6248-.5147-.037-.0737-.0579-.1544-.0612-.2367-.0032-.0823.0111-.1643.0421-.2407.0311-.0764.0781-.1455.1381-.2028.0599-.0572.1314-.1012.2098-.1293-.1037-.3398.1265-.8082.4237-.9994.1265-.0874.2934-.3423.2529-.4384-.1796-.4048.1265-.6459.2467-.9507.0556-.1449.0923-.2948.1631-.5222.1391-.065.411-.1424.3592-.486 0-.0437.0999-.1386.1656-.1536.4199-.0912.3643-.3973.3795-.7046 0-.1449.115-.2886.1846-.4285.0405-.0837.1012-.1574.1404-.2411.1783-.3748.1745-.787.2049-1.1918.0081-.2225.0583-.4415.1479-.6458.253-.511.1063-1.1618.5831-1.5966.0657-.0612.0531-.2049.0784-.311.0253-.1062.0455-.1962.0733-.2936.0278-.0975.0999-.1799.0759-.2424-.1265-.3323.0582-.5334.2441-.7782.1829-.2674.3288-.5577.4338-.8633.0379-.0924-.0354-.2273-.062-.3585-.0923.04-.172.0487-.191.0862-.2124.426-.411.857-.6235 1.2817-.0422.0644-.1018.1158-.172.1487-.2934.1649-.5337.3635-.5741.7295-.0076.0687-.1176.1912-.1594.1824-.2757-.0524-.301.1549-.3958.3148-.0852.1128-.1827.2159-.2909.3074-.0443.0462-.1265.0999-.1265.1424.0557.4997-.4059.6133-.6614.8882-.2909.3148-.5059.6933-.7765 1.0331-.0995.0904-.2051.1739-.3162.2499-.0688.0783-.1314.1619-.1872.2498-.0784.1062-.153.2136-.2352.3148-.1328.1612-.2795.3111-.406.476-.2807.3648-.5539.7308-.97.9681-.0987.0563-.153.1849-.2441.2636-.2668.2336-.5362.4648-.8182.6796-.0384.0243-.0821.039-.1275.0429s-.091-.0031-.1331-.0204c-.2782-.1861-.4072.0475-.6121.1474-.1834.09-.4401.0463-.664.04-.0834 0-.1644-.0712-.2529-.1012-.1922-.0712-.3541-.1836-.6032-.0937-.1758.0637-.3415-.0974-.2467-.356-.3161-.0263-.5501-.0725-.4338-.4835.038-.1249-.1467-.3473-.2668-.4997-.2656-.3285-.3023-.6933-.2529-1.0868.0113-.0875-.0253-.1812 0-.2574.0417-.1574.0809-.316.1264-.4722.062-.2086.0746-.4634.2074-.6121.2226-.2499.406-.471.3213-.822-.0999-.4148.2643-.6746.368-1.0256.0993-.296.243-.5756.4262-.8295.11-.1349.2571-.2356.4237-.2899.2719-.1037.4843-.2148.4679-.5596 0-.1137.0974-.2336.1543-.3498.0329-.0675.11-.1374.1037-.1999-.0392-.3585.2264-.4997.449-.6971.3287-.293.6316-.6132.9055-.9569.3313-.4185.6058-.8745.927-1.3067.1164-.1549.3073-.2499.4452-.3948.3705-.3835.7082-.802 1.1015-1.1605.2909-.2649.7196-.4023.9587-.6971.3639-.425.813-.7708 1.319-1.0157.597-.3148 1.2647-.4897 1.9173-.7058.1113-.0375.253.015.3794.04.2454.05.4869.1087.8512.1911.2074-.2198.4768-.5234.7702-.8045.107-.0793.2321-.1316.3642-.1524.2284-.0581.4598-.1044.6931-.1387.0753.0045.1492.0232.2175.055-.0949.3373.3073.2836.3895.481s.1758.431.2618.6471c.0097.0434.025.0853.0455.1249.3036.3985.3023.396-.0683.7695-.0493.05-.11.1687-.0885.1962.2251.2836.1265.6046.0177.8557-.1884.416-.1593.8657-.3022 1.2805-.062.1799-.2214.3273-.2884.5072-.0961.2573-.148.5297-.2188.7958-.0455.1711-.0809.3447-.1404.5096-.0709.2032-.1554.4014-.2529.5934-.0202.04-.1265.04-.1859.0588.0303.3485.0594.697.0961 1.1243-.0915.0727-.1761.1534-.2529.2411-.0658.0812-.1442.2111-.1265.2936.0359.1153.0444.2373.0249.3565-.0195.1191-.0665.2322-.1375.3305-.0775.1457-.1025.3132-.0708.4748.0232.0953.0208.195-.007.2892-.0277.0942-.0798.1797-.1511.2479-.0602.0913-.1004.1941-.118.3017-.0177.1075-.0123.2175.0156.323.086.3123.0341.4909-.2643.5659-.1265.4422.0784.8944-.1948 1.3167-.1543.2373-.1657.5671-.239.8545 0 .0199.0101.0624 0 .0637-.4895.1486-.2833.8882-.8486.9794-.0405.0062-.0911.0999-.0949.1561-.0341.491-.2529.9407-.1859 1.4716.067.531-.2529 1.0569-.5059 1.5429-.0835.1574-.2858.2498-.3794.4047-.0759.1249-.0733.2948-.105.4448 0 .0212.014.0499 0 .0662-.2314.406-.459.8145-.7019 1.2142-.029.0488-.1366.0587-.2099.0725-.2732.0525-.3617.2386-.1644.4135.1732.1536.1669.2498.0278.4147-.0961.115-.1113.2924-.1922.4248-.1159.1902-.2457.3718-.3883.5434-.1657.1986-.4173.3411-.3389.6709.0202.0837-.0696.1923-.1075.286.473-.0437.908-.3323 1.3507.025.048.04.172-.02.2618-.0175.1353 0 .2719.0325.4072.0313.1353-.0013.2314-.0313.3478-.0425.1922-.0175.4275-.1062.5704-.03.2883.1537.5058.0587.7588-.0487.0829-.0291.1673-.0537.2529-.0737.1755-.0461.3474-.1041.5147-.1737.1404-.0674.2315-.1349.344.055.0439.0428.0973.0748.1559.0935.0587.0186.1209.0234.1818.0139.2593-.0499.4831-.1849.7867-.1249.1568.0312.3655-.1999.5539-.3061.0556-.0312.1429-.0787.1846-.0574.4187.2098.7146-.1249 1.0636-.2211.1247-.0299.2516-.0495.3795-.0588.1264-.0112.244 0 .3642-.0174.277-.03.5539-.0588.8271-.1087.1485-.0178.2911-.0681.4173-.1474.2998-.2224.5907-.3611.9764-.1949.1402.0372.2892.0248.4211-.035.4174-.1612.9157-.0625 1.285-.401.0632-.0575.2415.0075.4439.0212l.1821-.2273c.4464.3997.9295-.0275 1.3987.0774.2773.0634.5686.0187.8132-.1249.0709-.0287.1475-.0411.2239-.0362.4249-.0125.836.2186 1.2849-.055.1834-.1124.535.0425.8094.0799.1281.0378.26.0617.3933.0713.2998-.0275.5957-.115.8955-.125.2225 0 .4464.0875.6728.1175.1263.0083.2531.0083.3794 0 .1643-.014.3297-.0065.4919.0224.3453.1.6716.1937.9928-.0749.062-.0512.2618-.0562.2922-.0125.1555.2311.3478.1037.521.0712.253-.0487.5059-.1811.7588-.1799.5843 0 1.1686.0637 1.7706.1037.1379-.2498.3314-.3161.6539-.2049.2036.0712.3794.1249.6197-.0462.196-.1349.5552-.0412.841-.0462.019 0 .0392.0325.0582.0325l1.2343-.0438c.1379-.0062.32-.0724.4047-.0087.2997.2211.4958.04.6741-.1399s.3427-.3498.6589-.1687c.153.0887.4009.0188.607.0188h.4895l.7588-.3186c-.0228.2049-.0354.3098-.0468.4098.0329.02.0544.0437.0708.0412.6248-.1249 1.2483-.2711 1.8768-.381.2788-.0311.5593-.0441.8398-.0388.1844.0089.3662-.0454.5147-.1536.1745-.1324.4642-.11.6969-.1799.2901-.066.5877-.0945.8853-.085.4426-.0187.9434-.0224 1.3494-.3285.0961-.0712.2833-.0162.4262-.04.3566-.0574.707.1762 1.0914-.0624.1999-.125.5489-.0175.8297-.0075.134 0 .3174.0874.3933.0287.3187-.2499.6538-.1249.9763-.0737.2353.0375.4199.0487.6324-.105.1669-.1249.3794-.2236.6323-.0861.0987.0537.2833-.0438.4288-.0775.1305-.0432.2641-.077.3996-.1012.3647-.035.7327-.0762 1.0767.1137.029.017.062.0273.096.0301s.069-.0019.101-.0139c.23-.1724.421-.0899.612.105.188-.2649.367-.3636.692-.1937.182.095.477-.0449.717-.0287.457.0429.917.0496 1.375.02.547-.05 1.105-.1049 1.644-.1112.39 0 .666-.2498 1.038-.2386.283.0125.57-.1037.859-.1412.089.0053.172.0448.232.11.219.2173.459.2198.759.2236.554.0105 1.099-.1323 1.575-.4123.051-.0104.104-.009.154.0042.051.0132.097.0379.137.072.064.0646.141.1154.227.1494.085.0339.176.0503.268.0481s.182-.023.266-.061c.083-.0381.158-.0926.219-.1602.302-.346.411-.3498 1.012-.1537.175.0632.369.0578.541-.0149.294-.1774.536-.2337.794.0324.033.0338.1.035.127.0425.037-.1249.073-.341.104-.3398.174.0028.345.0371.506.1012.217.0862.408.2498.633.3036.437.1037.454.1149.46.5459 0 .2061.096.4085.127.6159.03.2073.044.4185.058.6246.014.0904.009.1828-.015.2711-.043.1062-.127.2748-.194.2798-.264.0187-.424.1849-.625.3098-.169.105-.417.095-.632.1187-.259.03-.521.0412-.842.065-.247-.2199-.869-.3248-1.235-.0687-.365.2561-.571.0199-.827-.125-.049-.037-.094-.0789-.135-.1249-.335.1137-.672.3236-1.001.3136-.388-.0246-.777.0129-1.153.1111-.346.0975-.775-.0886-1.16-.1486-.221.3185-.444.3748-.648.1936-.261.1399-.506.3398-.771.3948-.235.0475-.505-.0737-.758-.11-.212-.0299-.398-.0287-.58.1525-.082.0824-.326.0512-.48.01-.471-.125-.93-.1899-1.375.0724-.019.0125-.049.0337-.061.0275-.379-.2311-.689.0575-1.035.1249-.347.0675-.769-.0112-1.13-.1249-.399-.1249-.733.0512-1.096.0987-.298.04-.6036.1374-.8856.0962-.8145-.115-1.6188-.3086-2.4333-.4248-.3101-.0329-.6237-.0014-.9207.0925-.3022.0874-.5729.2823-.9118.1724-.0253-.0075-.0633.0237-.0936.0374-.2732.125-.4717.3411-.8638.2499-.2972-.0675-.6602.1624-.9966.2498-.1075.0288-.2529.0775-.3313.0325-.4111-.2273-.7272.0712-1.0839.1499-.2039.031-.4096.0481-.6159.0513-.2592.0212-.5185.0499-.7778.0699-.1391.0113-.2959.05-.4148 0-.2302-.0924-.4123-.1249-.6058.08-.0835.0877-.1962.1428-.3175.1549-.1213.0122-.243-.0193-.3427-.0887-.2251-.125-.4148-.2349-.6879-.0887-.1518.0812-.4756-.1949-.5059.2236l.0215-.2361-1.3988.2224c-.1664.0091-.3331.0091-.4995 0-.0746-.0075-.1391-.095-.2163-.1162-.1265-.0338-.282-.0975-.3794-.0512-.2776.1632-.603.2288-.9232.1861-.3074-.0513-.6233.0038-.8942.1561-.1935.1187-.5058.125-.7411.09-.5122-.085-.9915.0075-1.4759.1324-.0408.0146-.0833.0243-.1264.0287-.6096.0113-1.2205-.0112-1.8263.04-.3098.0263-.5235-.0824-.779-.2086-.4502-.2236-.9169-.1149-1.3621.0787-.058.028-.1214.0438-.1859.0462-.3124 0-.6235-.0175-.9359-.0212-.2276 0-.4704.1249-.6703-.1025-.0293-.0155-.0621-.0236-.0954-.0236-.0334 0-.0662.0081-.0955.0236-.4186.2824-.8423.025-1.2647.025-.1265 0-.2833-.0324-.3794.0238-.3554.1936-.7323.1249-1.1003.1149-.1809 0-.3554-.1099-.5388-.1399-.0898-.015-.196.0674-.2858.0512-.1658-.0387-.3285-.0892-.4869-.1512-.0923.2674-.3086.2124-.5451.115-.0774-.0349-.1615-.0528-.2466-.0525-.1986.4385-.5615.1112-.836.1799-.1218.0278-.2451.0486-.3693.0625-.1062.0137-.2137.0125-.3187.0312-.1391.025-.2744.06-.411.0974-.0303.0075-.0645.0625-.0809.0562-.4528-.1923-.7525.2312-1.1522.2974-.4209.0772-.8499.1032-1.2773.0774-.043 0-.1113 0-.1265.025-.2959.4098-.8359.2024-1.1938.4585-.0393.0287-.1417-.0487-.2113-.0425-.2162.02-.4299.0512-.6437.0875-.0961.0162-.1973.0949-.282.0774-.3288-.0662-.3263-.0762-.4464.2124-.1469-.0469-.2989-.0762-.4528-.0875-.2315.0063-.4604.0625-.6918.0875-.1201.0125-.2416 0-.3996 0-.1265.0787-.2934.1911-.468.2911-.0546.0273-.1166.0369-.177.0274-.6324-.0699-1.2546-.1886-1.8832-.2036-.3604-.0087-.7221.1974-1.0876.2224-.5894.04-1.1686.1636-1.7567.1811-.1543 0-.3123-.1249-.4426-.1399-.2466.0362-.4932.07-.7386.1087-.0553.0054-.1092.0201-.1593.0437-.4654.2499-.9726.3323-1.4848.4298-.2808.0524-.5362.2311-.8043.3485-.0559.0268-.1176.0397-.1796.0375-.1428-.014-.2847-.0361-.425-.0662-.1163-.025-.2301-.0675-.2959-.0875-.1783.0612-.363.1949-.5059.1587-.3744-.0992-.7731-.0518-1.1129.1324-.0716.0244-.1459.0404-.2213.0475-.043-.0987-.0848-.1974-.1606-.3748-.1892.0988-.3874.18-.5919.2423-.2134.024-.4286.0269-.6425.0088l-.086.1661c-.0405.0088-.067.025-.0822.0175-.2049-.0949-.3794-.0712-.607 0-.3337.1181-.6938.1432-1.0409.0725-.3642-.0825-.8056.0474-1.1825.1736-.2833.095-.3528.1249-.4199-.2423-.244.0574-.4869.1049-.7259.1724-.2896.0812-.5754.1761-.8613.2698-.0654.0167-.1257.0488-.1757.0937-.3213.3423-.7184.1911-1.0978.1774-.1929-.0082-.3861.0031-.5767.0337-.2018.0277-.3985.0836-.5843.1662-.3402.1674-.6703-.035-.9991.0137-.1467.0212-.2757.1424-.4224.1812-.3174.0836-.6412.1424-.9624.2136-.1847.0412-.3719.0749-.5502.1336-.2984.0987-.5577.2112-.8853-.0075-.1416-.0924-.4603.0563-.6905.125-.1669.0487-.3238.2573-.4667-.03-.0113-.0237-.0948-.0262-.1403-.0175-.5274.0962-1.0485.2261-1.5936.0899-.0923-.0224-.2251.115-.3262.1325-.3516.0262-.7045.0512-1.0561.0787-.2529.02-.5058.0399-.7588.0649-.2188.0213-.4363.0475-.6551.075-.067.0075-.1404.0512-.1973.0337-.6134-.1811-1.2217.1512-1.8351.0125-.1006-.0145-.2033.0068-.2896.06-.3364.2036-.693.1511-1.0535.1124-.0726-.0034-.145.0103-.2112.04-.0454.0286-.0877.0617-.1264.0987-.3592-.3686-.7462.3598-1.1003-.0288-.0092-.0065-.0199-.0107-.0312-.0123-.0112-.0015-.0227-.0003-.0333.0036-.2884.2099-.5287.1249-.8031-.06-.1024-.0699-.3731-.0287-.4806.0612-.473.3948-1.0611.1574-1.572.3198-.0481.015-.1265-.0512-.1847-.0674-.0973-.025-.2529-.0875-.287-.0487-.2631.2785-.5995.2498-.9321.2673-.0734 0-.1455.0387-.2175.0387-.2173-.0162-.4354-.0162-.6526 0-.3326.0525-.6551.1662-.9878.2249-.1201.02-.2529-.0475-.4021-.08-.2125.3523-.6134.2799-.9549.3623-.2529.0612-.5059.1449-.7588.2174-.086.025-.1733.0475-.2605.07-.277.0712-.6045.0737-.8208.2273-.2972.2124-.5931.0975-.8853.1487-.2921.0512-.5438.1661-.8208.2173-.1264.0238-.2681-.0537-.4034-.0574-.1246-.0089-.2496.0103-.3655.0562-.1556.075-.2732.2498-.4819.1249-.0253-.0162-.0746-.0287-.0935-.015-.339.2336-.6893.0463-1.0371.0475-.2803.0119-.5551.0812-.8069.2036-.3629.1624-.6892.3361-1.1167.1487-.0979-.0194-.1993-.0133-.2942.0176-.0948.0308-.18.0855-.2471.1585-.148.2574-.3048.2124-.5059.1599-.20105-.0524-.39834-.0887-.51596-.1136-.25294.0849-.44391.1411-.63235.2161-.2795.1137-.55141.2498-.83217.3585-.09614.0354-.19853.0511-.30099.0462-.17833-.0075-.36677-.0837-.53244-.0474-.40723.0874-.80055.2311-1.20526.3298-.10497.0262-.23017-.0475-.34652-.05-.30479-.0088-.60958 0-.91311 0 .03541.3523-.06829.431-.46414.2723-.25294-.1037-.46794-.0462-.71076.0662-.4281.2051-.87375.3724-1.33173.4997-.15935.0425-.37941-.1249-.63993-.2136l.08853.466h-.50715c-.20361-.1612-.398375-.3373-.614638-.4797-.153028-.1012-.400908-.1162-.486907-.2499-.10497-.1549-.103705-.391-.1087641-.5934 0-.2223.0480581-.4472.0480581-.6696 0-.0624-.0961165-.1249-.147969-.1886zm59.1687-27.8845c-.2529.1774-.4515.2949-.6222.4435-.3098.2674-.7449.3561-.9637.7758-.1265.2498-.4237.4547-.6918.5809-.4211.1974-.7449.4385-.8524.9057-.0123.0406-.037.0763-.0708.1024-.3073.2499-.6222.4997-.9245.7496-.0582.0487-.0708.1499-.1138.2199-.0936.1499-.1581.361-.2947.4309-.6614.3361-.9687.9457-1.2482 1.5554-.2112.4634-.3794.6496-.9309.6596.0805.1503.1116.3217.089.4903-.0227.1686-.098.326-.2154.4503-.1189.1362-.2858.2611-.3364.4198-.1632.5172-.6324.8857-.6653 1.4704-.0164.351-.1353.697-.215 1.0768.2416.0187.5059.1099.578.03.277-.2873.5742-.6021.707-.9644.1138-.3061.1897-.3848.4376-.2361.0822-.1312.1378-.3211.2251-.3373.3288-.06.3908-.3361.5526-.5435.2075-.2673.2808-.682.7475-.7008-.0481-.4772.2415-.7495.583-.9706.2163-.135.2416-.3249.3023-.5272.0303-.105.1264-.2686.1909-.2711.253-.0075.2783-.1862.3592-.3461.1707-.3398.2808-.7283.6399-.8882.009-.1344.0358-.2671.0797-.3947.1063-.2074.1998-.4747.3794-.5759.4439-.2499.7664-.5322.7373-1.0756.3668-.04.2821-.3661.3795-.5784.0215-.0463.0632-.115.1024-.125.3389-.0374.3503-.3235.4477-.5496.0331-.0794.0884-.1478.1593-.1974.3795-.2361.4465-.6009.4477-1.0794zm33.5903-12.56865c.1164-.12492.3251-.18738.3795-.3248.2074-.48096.8587-.40975 1.0686-.87447.0544-.12493.2049-.19863.3099-.29857.0721-.08024.1499-.15538.2327-.22487.3579-.24985.798-.30731 1.1723-.56466.2302-.15865.5793-.26984.8765-.39601.4097-.1724.8739-.29232 1.3418-.11868.0455.01749.1265-.05497.1885-.08994.2529-.14117.54-.24985.8018-.11369.306.15491.6488.15616.9704.30232.35.15991.672.30357.954.56591.057.03175.122.04843.187.04843s.13-.01668.187-.04843c.287-.28608.271-.78703.008-1.10433-.026-.03124-.017-.0862-.036-.12493-.051-.12267-.115-.23921-.193-.34729-.222-.25984-.461-.499699-.694-.749548-.025-.036031-.058-.065948-.096-.087447-.4591-.163652-1.0054.01624-1.419-.347291-.0316-.027484-.1125 0-.1682 0-.3735-.045806-.7461-.094527-1.118-.1461623-.1682-.0237357-.3629-.1249247-.4957-.0699578-.4552.1837901-.9438.2730891-1.4354.2623421-.2467 0-.6147.1649-.8676.31481-.253.14991-.6324.138667-.7234.510944 0 .02748-.0772.04247-.1189.05996-.454.18364-.9156.35229-1.3608.55717-.1568.07245-.277.22986-.411.35104-.1033.10725-.2127.2086-.3276.30356-.2529.18489-.5969.28983-.6324.67085-.6171-.0787-.7031.58715-1.1382.76454-.0164.00749 0 .08495 0 .12492-.0253.14741-.0556.29358-.091.47222-.449-.32855-.5502-.28358-.6779.17989-.0228.07995-.153.12492-.2277.19738-.1163.10994-.3187.21862-.3262.33605-.0241.41225-.3466.55841-.597.77703-.0886.06117-.1625.14095-.2162.23361-.128.35392-.3645.6596-.6767.87447-.2339.15991-.3692.46472-.5375.71082-.0986.14492-.1618.31357-.2693.44973-.2365.29982-.492.58465-.7348.87448-.0332.04503-.0513.09919-.0519.1549-.0101.56217-.0974.67085-.5956.72832-.0027.08363-.0103.16703-.0228.24983-.1265.6022-.4566 1.1243-.7841 1.624-.4414.6721-.5464 1.4429-.8056 2.1675-.0999.2786-.081.6446-.2606.8395-.4198.4572-.1859 1.0506-.4312 1.5378-.105.2086.0164.5322-.0949.7346-.1796.326-.4135.6008-.1922.9994.0292.0867.0292.1805 0 .2673-.0974.4035-.215.802-.3048 1.208-.0797.3598-.148.7108 0 1.0931.1138.2936.1012.6359.1366.9569 0 .035-.0392.0812-.0708.1112-.2644.2636-.253.5185.0442.7558l-.2301.1249.3958.1437c.1265.5322.2239 1.0856.3959 1.6153.0785.2126.0785.4457 0 .6583-.1632.4797.0379.822.5501.937.0204.1883.0175.3783-.0089.5659-.0531.2073.0076.2648.191.3448.1834.0799.4376.2186.4705.3747.0506.2324.1176.3661.3794.3961-.1492.3335-.0342.5196.2921.5883.0227.0014.0444.0097.062.0238.253.2736.497.5447.7323.8282.0594.0725.0531.1949.1049.2786.0444.0853.1172.1528.2062.1911.406.0962.822.1537 1.2267.2499.3459.0912.6865.2004 1.0206.3273.2024.075.3175.03.4642-.1337.1113-.1249.3237-.1624.5375-.2598-.0253.1699-.0392.2636-.0519.356.1162.0445.2425.0563.365.0343.1226-.0221.2365-.0772.3293-.1592.3567-.2767.7559-.4952 1.1825-.6471.4022-.1437.8575-.1674 1.1243-.5522.2019-.3169.4219-.6222.659-.9144.2605-.2973.5185-.5809.8701-.6571.4489-.0975.5286-.4997.803-.7308.0873-.0737.1341-.2499.2163-.2649.4199-.0574.6324-.2648.6058-.6883 0-.0238.0278-.05.0417-.075.0873-.1661.1758-.331.2606-.4997.0392-.0762.0581-.2173.1049-.2261.3402-.0587.3503-.3648.4869-.5784s.253-.5159.449-.5809c.4047-.1337.4376-.4472.5438-.7495.1354-.3748.1581-.862.4186-1.0956.296-.2661.3364-.6421.6134-.8907.1802-.1846.3307-.3952.4465-.6247.1795-.3085.5425-.5709.3174-.9544.1228-.0927.2352-.1983.3351-.3148.0902-.1582.1684-.3227.234-.4922.0228-.0487.0809-.1049.0696-.1424-.1581-.5509.2213-.9557.4531-1.3567.253-.4372.543-.827.505-1.3579 0-.0425.008-.1175.03-.125.311-.0936.271-.3585.316-.5921.081-.4285.178-.8532.272-1.2792.009-.0425.035-.08.046-.125.052-.1873.105-.3747.151-.5621.022-.092.037-.1855.044-.2798.032-.3523.127-.7159.072-1.0582-.088-.5846-.077-.692.401-.8994-.069-.4422-.139-.88198-.206-1.30173.482-.19863.549-.46472.29-.80951-.034-.04498 0-.14242 0-.21612v-.90571c.216-.1699.387-.4922.196-.92694-.07-.1618-.117-.33255-.138-.50719-.032-.23986-.019-.47472-.343-.55092-.14-.03962-.26-.13198-.332-.25735-.099-.22483-.184-.45556-.253-.69083-.314-.11493-.523-.19738-.736-.26734-.391-.12493-.7833-.34479-1.1779-.35354-.3174-.00624-.5666-.03248-.8081-.22736-.03-.02124-.0645-.03553-.1008-.04181-.0364-.00627-.0737-.00436-.1092.00558-.301.12493-.5956.25984-.8954.39351l-.3035-.15115-.5628.62462c-.2466-.20863-.4313-.24985-.6096.02124-.1054.11916-.2168.23299-.3339.34104-.1887.19816-.3558.41549-.4982.64836-.253.48721-.7235.68334-1.1851.85324-.1538.04527-.2845.14665-.3655.28358-.1707.27233-.1618.62462-.4881.84199-.2074.13991-.2732.48096-.3883.70208-.1828.15557-.352.32607-.5059.50969-.2946.41974-.5577.86073-.8321 1.29547-.0586.1232-.128.2411-.2075.3523-.2605.2773-.1454.7633-.559.9557-.0291.0251-.052.0566-.0669.0919s-.0215.0735-.0191.1117c.0241.3385.0797.6758.0936 1.0144.0139.311-.043.6246.1265.9144.0127.02-.0329.0725-.0215.0937.0531.1012.0987.2661.1771.2836.2896.0675.5906.0812.8852.1249.2618.0387.4452-.0587.6653-.2111.3541-.2498.3794-.7321.7828-.9282.1039-.04.1932-.11.2562-.201.0629-.0909.0966-.1985.0967-.3087 0-.0487.0784-.1124.134-.1486.2783-.1787.3794-.3986.1809-.6709.2618-.3535.5236-.6733.7436-1.0181.1075-.1699.1391-.3873.2062-.58342l-.1151-.08121c.2017-.08743.3933-.1959.5716-.32355.2176-.18864.6045-.26984.5249-.69084-.0076-.04122.0721-.14116.11-.14116.5438 0 .5324-.52094.7588-.80452.1265-.16739.196-.30856.4338-.3323.2378-.02373.4528-.05746.5059-.36353.0114-.0737.2036-.1549.3187-.1649.1366-.00999.3073.11868.4148.07371.301-.12493.5059.10868.7588.14866.0468.00749.0873.14116.105.22112.043.21362.0733.42974.1265.7383-.1853.46555-.2801.9614-.2795 1.46162.0151.84452.2681 1.71392-.2176 2.52222-.0935.1562-.1985.3898-.1441.5297.1049.2711-.1025.4022-.1493.5984-.0657.2748-.4666.4022-.306.782.0556.1249 0 .426-.0974.481-.4022.2211-.3326.6646-.3794.9506-.0467.3409-.2198.6525-.4857.8745-.1036.0682-.1984.1487-.282.2399-.0256.0415-.0415.0883-.0463.1368-.0048.0484.0015.0973.0185.143.1581.2848.0291.5684-.3073.5922-.1923.0137-.2606.0924-.2631.2735-.0093.0871-.0346.1718-.0746.2499-.2036.4797-.3579.9906-.6324 1.4304-.2744.4397-.2529 1.0731-.7853 1.3941-.0999.0613-.1391.3024-.2125.3049-.3958.0174-.3895.2885-.4452.5584-.0303.1449-.1517.2711-.2314.4072-.0959.1805-.201.356-.3149.526-.0707.1055-.1721.1874-.2909.2348-.301.09-.7044.5097-.7664.8095-.0296.1932-.1064.3763-.2239.5335s-.272.2837-.4502.3685c-.0907.0527-.1633.131-.2087.2248-.0594.1175-.0733.2561-.1264.3748-.1859.4285-.425.5359-.8588.3998-.0177 0-.043.01-.0556.0137l.0177.3098c-.2732-.1724-.3465-.0924-.2605.1724-.6223-.0749-.8689.3848-1.1294.7496-.4717.1249-.8853.0762-1.2419-.2261-.2251.2636-.2163.2498-.4186.0075-.1581-.1924-.3137-.4523-.5261-.5235-.4515-.1524-.473-.4684-.5401-.8457-.0619-.3498-.2529-.6809-.4059-1.0082-.2011-.416-.6703-.7595-.3251-1.3104.0241-.0375-.0177-.1174-.0329-.1762-.091-.3747-.3111-.7195-.1264-1.143.0544-.1249-.0974-.3398-.1556-.5135l-.0986.0113c.091-.2399.1935-.4772.2706-.7221.038-.1249.0696-.3585.0392-.3748-.177-.0637-.0885-.1724-.0898-.2735 0-.125-.0379-.2574-.0366-.3861 0-.336-.0696-.7108.0543-.9994.1847-.4272.1379-.8869.3036-1.3054.0189-.0487 0-.1125 0-.1687.0038-.1303.0263-.2594.067-.3835.1037-.2299.2403-.4235.1492-.7183-.0506-.1662.0835-.3898.1442-.5847.0228-.0687.0885-.1249.1164-.1911.086-.2149.1555-.4347.2453-.6471.1897-.4447.3883-.8845.5792-1.328.0165-.0374-.0101-.0936 0-.1336.0481-.1249.0734-.2824.1657-.3536.3073-.2348.4945-.4897.4768-.9069 0-.1587.1821-.4323.325-.466.2188-.0487.253-.1586.3288-.3148.057-.1249.1809-.2211.253-.3435.0809-.1425.1897-.2999.1884-.44977 0-.29856-.1264-.61338.3162-.72331.0582-.01499.0873-.12492.1366-.18614.0809-.10119.172-.19488.2529-.29482.1543-.19113.3035-.38477.454-.57715.105-.13367.2024-.27359.3137-.39976.0506-.05622.1378-.07745.1935-.12493.2997-.27858.3073-.81076.8145-.9132.024 0 .0442-.04872.0607-.0787.1264-.22736.2339-.46222.3705-.68084.1202-.19613.215-.48096.4528-.31231.1593-.20238.2947-.38852.4527-.55342zm-43.0236 17.01105-.2745.0374v.0662c.0089.125.0645.2774.0215.3861-.1365.3423-.325.6633-.4628.9994-.1202.301-.1809.6246-.3036.9244-.1131.2384-.2398.4703-.3794.6946-.0265.0487-.0771.1249-.0594.1511.3149.3823-.1164.7396-.0354 1.1131.0042.0223.0029.0453-.0037.067-.0066.0218-.0183.0416-.0343.0579-.3225.1999-.349.541-.478.8495-.0532.1082-.0792.2275-.0759.3477.0033.1203.0358.238.0949.3432.0713.1498.0992.3163.0804.4808s-.0834.3207-.1867.4511c-.0733.0975-.0063.3011 0 .4547.0076.1325.038.2636.0329.3948-.0114.331-.0354.6633-.0582.9994-.0164.2411.1265.5247-.2124.6808-.0633.03-.0848.1524-.1189.2336-.0671.16-.0746.3286-.3225.3848-.1998.045-.3453.1249-.5704.015s-.5261-.0949-.774-.1849c-.1699-.0821-.3239-.1929-.4553-.3273-.1189-.1049-.2807-.1586-.2428-.4072.0329-.2174-.11-.456-.1328-.6896-.0101-.0987.086-.2086.1492-.3448-.2327-.1799-.1859-.3985-.048-.6884.1062-.2236.0809-.5196.0708-.782-.018-.0526-.0494-.0997-.0913-.1367s-.0928-.0626-.1477-.0744c-.1277.0204-.2427.0883-.3213.1899-.0907.1298-.1563.2751-.1935.4285-.0155.1002-.062.1932-.1331.2663-.071.0731-.1632.1228-.264.1422-.1264.0287-.3035.0837-.1656.306.0253.0413-.1025.2099-.191.2786-.3111.2424-.6399.4597-.9511.6996-.087.0872-.1657.1821-.2352.2836-.0688.0637-.1338.1313-.1948.2024-.1264.1973-.239.4097-.3794.6033-.1786.2782-.3822.5399-.6083.7821-.1012.0987-.3225.1024-.4894.1024-.2251 0-.4199-.0512-.583.2036-.1784.2811-.7412.3573-1.1193.2162-.1556-.0575-.2529-.0987-.4376.0374-.1265.095-.4907-.0687-.7234-.1724-.2206-.1153-.4275-.2544-.6172-.4147-.061-.0514-.1051-.1197-.1264-.1961-.1101-.3748-.3111-.6347-.7386-.6859-.0493-.0062-.1265-.2286-.1012-.3273.0721-.2686.1265-.4884-.363-.446.1012-.4997.2163-.9456.2682-1.3941.0316-.2649-.0367-.5397-.0633-.8108-.0101-.0987-.0771-.2348-.0341-.2898.3301-.4185.0657-.882.1264-1.3167.0185-.1526.0726-.2989.1581-.4273.1265-.1799.3984-.2973.191-.5859-.0164-.0237.024-.1174.062-.1424.5286-.346.4262-.9444.607-1.4304.1189-.3185-.0088-.7495.4288-.9481.0493-.0225.043-.2274.0164-.3373-.0304-.0828-.0303-.1734.0003-.2561.0305-.0827.0895-.1521.1666-.1962.2846-.2098.6425-.4185.4895-.8869-.0152-.0462.0518-.1474.1062-.1837.3314-.2111.4679-.5646.6918-.847.2643-.3348.2441-.8744.7588-1.0443.1265-.0413.1353-.3323.253-.4498.2099-.2048.3895-.3747.3566-.7183-.0278-.2948.3162-.3635.5059-.4559.3538-.1751.6286-.4745.7702-.8395.0303-.0663.0885-.1824.1176-.1774.4477.0649.3212-.3511.4591-.5372.0227-.03-.0683-.1424-.1455-.2898.1417-.085.2972-.1762.4515-.2699.0292-.0178.0556-.0397.0784-.0649.2682-.3036.516-.6247.8107-.9032.1897-.1774.4464-.2836.6905-.4323-.043-.2398-.0506-.4097.3402-.4997.3099-.0762.7007-.2686.7905-.6958.0708-.3336.2744-.391.5463-.1437.1202-.1561.2302-.3185.363-.4609.3364-.3623.8764-.3886 1.3229-.1525.3794.1974.8056.1475 1.1989.015.1518-.0512.2403-.1124.3313.06.0241.045.1063.0575.1581.0887.1153.0585.2246.128.3263.2074.1265.1249.2188.2923.3617.3835.0577.0259.1208.0375.184.0341.0632-.0035.1246-.0221.179-.0541.1603-.1407.2977-.3051.4072-.4872.0726-.1016.1668-.1862.276-.2481s.2307-.0994.3561-.11.2517.006.3699.0487c.1182.0426.2256.1103.3146.1982.0394.0443.0816.086.1264.1249.5793.4897.578.5522.3655 1.2493-.1138.3748-.0999.7858-.3275 1.1318-.0892.1201-.1595.2527-.2087.3935-.0847.3086-.1416.6246-.2011.9394-.0088.05.0481.125.0304.1625-.1682.4022-.3466.8007-.5224 1.1992-.1757.3985-.3111.7733-.5058 1.1381-.1376.2807-.3252.5346-.554.7495-.0972.0778-.175.1766-.2275.2888-.0524.1122-.078.2348-.0747.3584 0 .4272-.0569.8557-.0936 1.3192zm-10.8359 8.1288c.0417-.0225.0872-.0312.0961-.0525.1518-.391.7588-.3448.8183-.8332 0-.0212.1264-.0262.1884-.045.073-.0189.1438-.0453.2112-.0787.3528-.2011.7082-.401.7588-.862 0-.0337.0746-.0562.0898-.0937.0246-.0706.0444-.1428.0595-.2161.1264-.1012.3794-.2211.3705-.3148-.0468-.4547.3478-.5896.5501-.8532-.0265-.1062-.0518-.2086-.0657-.2661.4009-.2886.7752-.5184.8663-1.0107.0215-.1161.1556-.2111.2378-.3173.0914-.0891.1686-.1914.2289-.3035.086-.2386.086-.5185.2112-.7308.1366-.2336.4009-.3911.5628-.6134.2013-.2438.3556-.522.4553-.8208.086-.3373.1707-.6246.478-.8382.1594-.1125.1935-.446.3503-.4997.468-.1687.3491-.6721.6324-.9295.1163-.1074.2643-.2173.3111-.3547.1176-.3373.1834-.6921.2529-.9782.1493-.075.277-.0974.3326-.1724.3453-.4585.7007-.912.9979-1.4004.1808-.2948.2618-.6484.392-.9732.021-.0493.0592-.0896.1075-.1137.253-.0999.2783-.276.2378-.5159-.0249-.2127-.0308-.4271-.0177-.6409 0-.286-.2909-.5621-.5603-.4847-.2972.0862-.626.1674-.8562.3523-.3376.2724-.8612.471-.6854 1.0844-.1383.0268-.2732.0687-.4022.1249-.1259.0843-.2424.1814-.3478.2898-.1581.1412-.2972.386-.4705.4098-.3035.0424-.3427.2861-.3794.4372-.1113.4148-.2529.7496-.7322.8433-.0999.0187-.1885.1249-.2719.1936-.1265.1162-.2327.2798-.3794.3535s-.215.1037-.1101.2561c.0304.0425.0709.1187.0532.1487-.186.306-.406.5884-.4945.9507-.0253.1024-.2846.1461-.3137.2498-.1151.4098-.4452.6046-.7259.8745-.2454.2361-.3541.6146-.5059.9382-.1265.2611-.215.5359-.3351.7982-.0873.1937-.1581.4198-.3074.5522-.1694.1499-.263.2498-.2137.4997.0266.1249-.0948.3023-.1846.4322-.148.2149-.4313.3948-.4655.6172-.0632.411-.4717.7283-.3098 1.1917.0164.05-.0898.1425-.1404.2137-.0367.0512-.0948.0949-.1125.1511-.0506.1662-.086.3373-.1265.5072.0303.2824.0658.5859.0936.892 0 .0237-.038.0525-.062.0762-.1391.1424-.2833.2811-.4186.4272-.063.052-.1043.1253-.1157.2056-.0115.0803.0077.162.0537.2292.1391.2836.3895.6121.0582.9444.0166.0241.0347.047.0544.0687zm-31.12795-3.4104c.03162-.3173 0-.6671.12647-.9407.15935-.3361.33008-.6709.50588-.9994.19602-.3748.0645-.902.52232-1.1606.01391-.0075-.02277-.0849-.01897-.1249.01644-.2136-.01139-.4485.06955-.6359.15936-.3747.47047-.7033.55141-1.0856.09991-.4747.70949-.7245.53369-1.2917-.0063-.0212.0569-.0587.081-.0937.067-.0826.1267-.1708.1783-.2636.1176-.2498.2365-.4772.2226-.7882-.0102-.2374.2188-.4847.3452-.7246.3035-.5784.7146-1.1243.8853-1.7415.1606-.5821.6159-.9781.7677-1.554.0885-.3373.4009-.6171.6083-.9245.0288-.0573.0533-.1165.0733-.1774.1233-.3061.2647-.6048.4237-.8944.2808-.4572.6969-.8395.7588-1.4154.0089-.0762.1088-.1499.1796-.2111.0468-.0425.1708-.0675.167-.0887-.0494-.3511.2365-.5122.3933-.7571.3528-.5446.3313-1.15303.1378-1.74892-.0543-.1699-.091-.40476-.2162-.47721-.1467-.0862-.3794-.02624-.5742-.02874-.0459-.00249-.0919-.00249-.1378 0-.4908.03123-.9549.56092-.9106.94318-.1588.17597-.3063.36169-.4414.55589-.1053.2031-.1994.4116-.282.6247-.0418.0924-.0987.1773-.1404.2685-.1417.3074-.1745.6809-.5868.8133-.062.02-.0633.2286-.0924.351l.0936.03c-.2441.2599-.5476.4498-.6993.8158-.1999.4822-.53.9107-.774 1.3742-.2441.4634-.3428 1.0268-.8398 1.3391.19224.2412.19097.2399-.03794.4723-.02901.036-.0474.0792-.05312.1249-.11888.5946-.30226 1.148-.74616 1.6065-.16568.1712-.19477.466-.33768.6684-.20361.291-.57038.4997-.43126.9407.01012.0337-.05059.0924-.08347.1361-.07351.0826-.13913.1716-.19603.2661-.16947.361-.33388.7258-.48311 1.0956-.0234.1191-.03693.2398-.04047.361-.06829.3511-.05312.7708-.25294 1.0257-.13659.1749-.45529.1986-.32503.5409 0 .015-.07335.0512-.09105.0874-.06071.125-.15936.2499-.15556.3748.01265.3935-.37941.6734-.29215 1.0856.01012.0462-.12647.1112-.17832.1811-.0691.0948-.12524.1981-.16694.3074-.07967.2286-.09485.4922-.22258.6858-.18591.2811-.28077.5309-.09233.8345.03354.0402.05695.0878.0683.1387 0 .1349-.02403.271-.03794.406-.11383-.02-.22765-.0413-.34147-.0587-.04341.0085-.0858.0214-.12647.0387v.3885c0 .3098.03668.6246-.32882.8108-.08853.0449-.10624.2498-.12647.381-.03162.1636.02403.4122-.06829.4847-.30859.2386-.22638.5272-.20362.822.00937.0924-.00141.1857-.03162.2736-.15808.4085-.32629.8132-.48943 1.2167-.23524-.1249-.3048-.3885-.17706-.6845.06115-.126.09271-.2639.09232-.4036-.03415-.4759-.10623-.9494-.13785-1.4253.00136-.1903.02212-.3798.06197-.566.02023-.1399.05565-.2773.07715-.4172.02655-.1674.12646-.391.05564-.4997-.23144-.3348-.14164-.6796-.09864-1.0131.08094-.6097.41355-1.1818.25293-1.8302-.0115-.1213.01546-.2431.07715-.3485.16905-.351.2019-.751.09232-1.1243-.10876-.3448-.05691-.4935.26559-.5897-.00793-.0866-.03104-.1711-.06829-.2498-.13533-.1737-.08727-.2499.07082-.4098s.33641-.4297.16694-.7271c-.03794-.0662-.05438-.2161-.01771-.2423.40597-.2936.05312-.7496.26179-1.1243.20868-.3748.086-.8995.18592-1.343.15049-.6721.36676-1.3317.55899-1.9988.01138-.0387.07082-.0637.086-.1024.0822-.2186.1682-.436.23144-.6596.07335-.2499.12647-.5172.18211-.7783.03415-.1649.12015-.361.0645-.4997-.17579-.421-.06197-.7733.16062-1.1243.0576-.0681.09831-.1485.11888-.2349.00759-.2623-.02909-.5259-.01391-.787.01391-.2086.0215-.4535.12647-.6146.22764-.3323.13279-.6721.07209-.9919-.02567-.1519-.09146-.2943-.19073-.413-.09926-.1187-.22848-.2093-.37459-.2629-.28203-.1249-.52991-.02-.78917-.0649-.47806-.08249-.77273.1624-.84229.6421-.05311.3648-.14038.7245-.19982 1.0881.00591.0806.02293.16.05059.2361.05059.3098.19729.6508.11382.9232-.07462.2423-.05438.4584-.08094.6883-.05394.3994-.13207.7953-.23397 1.1855-.07335.3024-.1935.5934-.26432.897s-.11003.6459-.16694.9694c-.05691.3236-.13785.6509-.17832.9794-.04047.3286-.49829.5135-.26306.907.01644.0287-.01264.0887-.03035.1249-.12647.2848-.26053.5672-.37941.8557-.0215.0538.01391.125.01518.1949.01359.074.01014.15-.01012.2224-.22638.461-.37056.9219-.17706 1.4404.04174.1124 0 .356-.07335.3922-.37941.1837-.23397.4723-.21879.7496-.0017.1897-.02676.3784-.07462.5621-.04806.2499-.45529.3986-.1897.7309.01391.0162-.08221.1011-.09738.1624-.10118.3872-.19477.7757-.28583 1.1655 0 .0262.03162.0587.03542.0912.01011.0812.04932.1974.01011.2386-.28582.3023-.20488.7321-.14923.9994.11509.5634-.473 1.0619-.08094 1.604 0 0-.01012.02-.01391.03-.18718.6584-.30606 1.318-.04174 1.9863.00647.0214.00743.044.0028.0658-.00464.0218-.01473.0422-.02936.0592-.28582.2585-.19729.5521-.09611.8519.02572.081.03977.1651.04173.2499.01771.4585-.02276.9269.05818 1.3742.10876.6083.30858 1.2005.47426 1.7976.02013.065.05182.1259.09359.1799.24702.3834.51424.7537.80055 1.1093.1467.1687.53623.3848.59061.3348.31744-.286.88529-.1336 1.07878-.6096.02909-.0712.19856-.0762.28835-.1337.11762-.0749.32124-.1823.31365-.2598-.06829-.7583.71708-1.2043.70823-1.9313 0-.0388.0392-.0775.05185-.1187.07209-.2361.15556-.471.20615-.7121.043-.2061 0-.4372.07714-.6246.08853-.2174.26938-.3985.40471-.5996.05438-.08.15429-.1887.12646-.2499-.18338-.5084.086-.9219.26053-1.3567.18334-.4033.34213-.8172.47553-1.2392.07208-.2811.01391-.5959.01391-.932.33894.0088.42494-.2036.45276-.4759zm101.30245-3.1232c-.03-.0469-.05-.0997-.057-.1546-.007-.055-.003-.1109.014-.1639.15-.3248.278-.6846.516-.9369.337-.3561.126-.7259.132-1.0831 0-.2024-.081-.3748.151-.5197.061-.0363.075-.1849.069-.2799-.012-.2386-.092-.4797-.063-.7108.034-.2748.156-.5397.234-.8095.026-.063.031-.1325.015-.1986-.137-.2961.071-.4485.229-.6446.076-.095.127-.3261.074-.3911-.274-.3073-.089-.5871-.019-.8857.027-.1186.019-.331-.048-.3672-.201-.1075-.147-.1912-.071-.3461.059-.154.092-.3164.098-.481.017-.1399.013-.2835.018-.4247 0-.0725.008-.1462.008-.2186 0-.1249-.012-.2499 0-.3823.014-.3173.126-.6608.035-.9457-.188-.6071-.418-1.2255-.959-1.634-.151-.1127-.341-.1625-.529-.1386-.402.1043-.797.2294-1.185.3747-.127.0425-.253.1349-.374.125-.493-.0425-.897.2198-.987.6983-.057.3023-.138.5459-.593.4172.304.6421-.414.6321-.548 1.0819-.076-.0902-.126-.1986-.146-.3142s-.008-.2344.033-.3442c.073-.2373.16-.4709.219-.7108.084-.3398.134-.6871.225-1.0244.075-.2773.372-.4997.21-.8407-.017-.04.058-.1175.079-.1812.036-.0943.059-.1931.068-.2935 0-.2686-.075-.521.21-.7496.084-.0912.145-.2009.177-.31996.033-.11904.036-.24402.01-.36461-.101-.29857-.355-.55092-.563-.80702-.034-.02836-.076-.04777-.12-.05649-.044-.00873-.09-.00648-.133.00652-.317.18989-.721.28858-.751.77953-.014.22612-.162.44349-.241.66583-.112.3136-.224.6246-.318.9445-.042.1411-.014.3023-.058.4422-.095.3011-.264.5846-.316.8895-.105.6096-.196 1.2117-.633 1.6977-.04.0658-.065.1403-.07.2173-.048.2399-.072.4873-.142.7209-.126.4072-.259.8095-.41 1.208-.071.1899-.192.361-.274.5472-.035.092-.055.1891-.058.2873.005.0932.005.1866 0 .2798-.028.1374-.115.2686-.119.4035-.013.486-.303.852-.563 1.2068-.24.3273-.379.5909-.275.767-.134.2499-.261.471-.364.6984-.189.4197-.203.8894-.506 1.2929-.15.2024-.153.5235-.36.7671-.1392.1636-.0911.4784-.1354.7233-.0265.1424-.024.3485-.1138.4097-.3579.2424-.1973.6584-.3794.9757-.2365.4247-.2416.9719-.3706 1.4604-.0379.1449-.1656.2661-.244.401-.1265.2124-.32.386-.1645.6946.0834.2139.1074.4459.0696.6721-.0253.2623-.0215.4622.2858.5471.1401.052.2758.1146.406.1874.1265.055.2529.1549.3794.1462.3719-.0263.7909.1386 1.0979-.2211.047-.0324.106-.045.163-.035.297.0262.388-.1512.449-.3973.086-.3435.191-.6833.311-1.0169.047-.0973.128-.1742.229-.2161.281-.1249.395-.316.314-.6021-.108-.3748-.04-.5522.292-.7433.408-.2349.447-.3548.272-.7108.203-.4067.385-.8237.544-1.2493.07-.2174.437-.2636.306-.5684.335-.1749.565-.3823.428-.822-.039-.1249.109-.3186.182-.5097.208.0075.198 0 .298-.2986.029-.0887.126-.1524.199-.2273-.017-.1587.021-.3185.107-.4535.197-.2499.126-.6134.427-.8283.156-.1086.215-.3635.296-.5609.062-.1524.058-.3348.139-.4734.175-.3024.388-.5834.578-.8745.033-.0525.012-.1362.039-.1949.127-.2686.198-.5859.394-.7845.196-.1987.506-.2611.379-.6346-.007-.02.025-.0588.044-.0862.137-.2136.285-.4193.446-.6159.092-.0881.215-.1381.344-.1399.053 0 .158.1761.147.2611-.038.299-.096.5953-.174.8869-.135.5222-.28 1.0431-.435 1.5591-.046.1915-.133.3715-.253.5284-.171.1912-.202.3236-.015.5172.062.0961.084.2119.062.3236-.037.18-.083.358-.138.5334-.028.174-.068.346-.119.5147-.176.4472-.439.8745-.535 1.3317-.056.2673.114.5484-.126.8407-.194.2311-.261.5697-.36.8745-.033.1176-.033.2421 0 .3598.06.2261.159.4347-.034.6596-.135.1514-.238.3275-.305.5184-.126.391-.193.7958-.293 1.1931-.094.3747-.296.722-.178 1.1518.077.2798.114.5746.181.8607s.153.3086.264.2986c.147.1461.253.3323.338.326.7-.0587 1.473.0138 1.854-.7833.047-.1266.086-.2564.115-.3885.157-.5097.536-.9332.56-1.4991.02-.451.605-.7495.355-1.3017-.077-.1686-.012-.3998-.012-.6583.188-.1437.323-.3511.114-.6622zm-83.8105 7.4143c.2188-.426.473-.8457.4579-1.3529 0-.1499.0341-.3123-.2226-.2261-.0316.0112-.1113-.1-.1606-.1612-.1075-.1311-.1885-.296-.3225-.3847-.0569-.0375-.2214.0837-.2985.1161-.2005-.0101-.4015-.0101-.602 0-.1324.0334-.2625.0752-.3895.125-.0721.0175-.1695-.0188-.2226.0162-.3212.2136-.6728.3923-.8562.762-.0354.07-.1379.1612-.2024.1562-.3794-.03-.5235.2249-.6323.4997s-.325.2336-.5135.1849c-.1884-.0487-.2744-.1949-.1656-.3973.0164-.0426.0164-.0897 0-.1324-.1455-.4572.1694-.8857.0847-1.3417-.0068-.1496.0021-.2994.0265-.4472-.0049-.2372.0036-.4745.0253-.7108.0456-.2786.2757-.6109.1834-.812-.2188-.4723.4414-.8545.0633-1.2955-.0089-.01.0581-.0687.0695-.1099.0632-.2561.1265-.5147.1809-.7708.0063-.125.1871-.3011.1543-.3598-.1999-.3685.0379-.5884.2314-.832.1467-.1837.4553-.3173.1884-.6246-.0227-.0263.062-.1325.0784-.2049.0329-.1474.0544-.2973.0785-.446.0013-.0741.0127-.1476.0341-.2186.1075-.2311.2529-.4497.3351-.6871.0823-.2374.0456-.5222.1822-.6946.2795-.351.2782-.742.325-1.1393.0318-.1791.0835-.3543.1543-.5222.0544-.1474.1947-.2961.1808-.431-.0493-.4597.1771-.797.4199-1.1418.077-.1042.1328-.2221.1644-.3473.0645-.2985.0671-.6146.1594-.9032.1644-.5097.3794-.9994.5716-1.4991.0203-.05.0784-.0887.0923-.1399.0519-.1936.0822-.3923.1442-.5821.0455-.1058.1046-.2053.1758-.2961.1353-.2011.3124-.3823.4009-.6009.1632-.3948.277-.8095.4047-1.2168.1708-.5434.215-1.1443.7323-1.5266.0278-.0212.0202-.0837.0341-.1249.067-.2136.1366-.42597.2024-.63959.0202-.06996.0316-.14242.0468-.21362.0392-.18739.024-.4185.1264-.55342.2757-.34729.2087-.73956.1822-1.10558-.0026-.10938-.028-.21705-.0749-.3162-.0468-.09916-.1139-.18764-.1971-.25985s-.1807-.12658-.2863-.15967c-.1055-.03309-.2169-.04418-.327-.03257-.4149.06371-.7184.34104-.965.65585-.0708.0912-.0316.25985-.0607.38977-.0231.07972-.0599.15494-.1088.22236-.0632.09245-.1669.16366-.2112.26235-.3022.66335-.5918 1.33294-.8853 1.99877-.1783.3998-.368.7945-.54 1.198-.048.1331-.0831.2703-.105.4098-.0316.1499.1101.3885-.2263.381-.0595 0-.1809.1662-.172.2436.0518.4335-.1354.7496-.4174 1.0581-.1151.125-.2681.3436-.2264.4548.1265.326-.0657.5846-.0999.8744-.0278.2324-.134.3973-.4034.4085-.0268.0066-.0516.0193-.0724.0371-.0209.0178-.0373.0402-.0478.0654-.0935.2861-.177.5746-.2592.8632-.0255.1617-.0679.3204-.1265.4735-.1467.2673-.4806.4672-.2529.847.0253.0424-.0215.1249-.0392.1936-.0607.2261-.1265.4522-.1885.6908-.2441-.0075-.3174.125-.3705.3648-.1348.6101-.3024 1.2127-.5021 1.8052-.1657.4897-.3984.9569-.5982 1.4354-.0177.051-.0177.1064 0 .1574.1695.4859-.0417.9157-.1948 1.3554-.153.4397-.6601.7408-.5261 1.2955.1138.4709-.4439.7233-.3908 1.1968.038.3335-.0316.6783-.0531 1.0193 0 .0225.0101.045.0101.0675.0157.1872.0123.3756-.0101.5622-.0708.3435-.2453.677-.2529 1.0181-.0139.5147-.2226 1.0743.2352 1.5378.0974.0987.1265.2836.148.4335.0062.0428.0032.0863-.0088.1279-.012.0415-.0327.0801-.0608.1132-.1302.1092-.2143.2627-.2356.4301-.0213.1675.0217.3367.1205.4744.1362.2287.248.4706.3339.722.0607.1599.0291.3536.3238.3148.1403-.0174.3098.1012.4515.1837.1808.1062.3338.2673.5235.3473.1644.0456.3357.0621.5059.0487.1265 0 .2631-.0175.3946-.0175.0936 0 .2112.0562.2782.0187.0984-.0668.2126-.1075.3315-.1182.1189-.0108.2387.0089.3477.057.0417.0188.1391-.0462.191-.0937.1542-.1461.287-.3173.4527-.4497.2343-.1832.4788-.3534.7323-.5097.3375-.2345.6927-.4433 1.0623-.6246.3592-.1524.4604-.2499.3857-.6321.143-.1025.3086-.1562.3655-.2674zm39.2486-1.9713c.1264-.3823-.2719-.5846-.4401-.8894-.0354-.0675-.1265-.125-.1265-.1874 0-.3398.0291-.6796.0215-1.0194-.0076-.2898-.067-.5784-.0746-.867 0-.1137.0822-.2274.1138-.3435.0443-.1549.1568-.3985.0974-.4548-.3048-.2848-.067-.416.1151-.5771.0417-.0375.0822-.0762.1391-.1249-.2529-.2986-.1429-.5597.0784-.8121.0493-.0562.1265-.1536.1062-.1961-.1454-.3348 0-.5259.2884-.6821.0518-.0275.0658-.1461.0746-.2248.0379-.3323-.1341-.7121.3098-.942.1328-.0687.1518-.3335.253-.4922.1012-.1586.2453-.3135.3554-.4784.0733-.1087.1151-.2374.1808-.3523.1404-.2499.2858-.4897.4338-.7321.0519-.0862.1492-.1586.1682-.2498.0734-.3636.3301-.6009.5539-.8683.1126-.1349.1581-.3298.2821-.4509.2364-.2404.4985-.4549.7816-.6397.1264-.0749.2137-.0849.1606-.2498-.0101-.0337.0455-.1062.0885-.1349.3933-.2624.5514-.7633.9435-.9882.2896-.1661.5349-.5771.9877-.3673.0327.004.0659-.0003.0965-.0125.0305-.0123.0574-.032.078-.0574.2454-.486.7753-.2699 1.1382-.4572.0156-.0077.0327-.0117.05-.0117.0174 0 .0345.004.05.0117.2706.2161.6184.1449.9131.2498.5134.1749 1.0016.4235 1.5012.6409l-.0822.0849c.0518.2279.0869.4592.1049.6921.0076.3748-.0253.7371-.0366 1.1056 0 .035.0417.0675.0543.1037.062.1724.0582.2973-.172.351-.2807.0637-.349.2711-.3326.5434-.0048.1759-.032.3505-.0809.5197-.0277.0711-.0497.1442-.0658.2186-.0177.3748-.1707.6384-.5792.7059.0114.0924.0215.1786.0329.2611-.2454.1499-.6121.1649-.5666.5771 0 .0275-.0746.0637-.1138.0975-.1202.1036-.2416.2061-.3579.3123-.2185.2195-.4482.428-.688.6246-.3136.2258-.6395.4343-.9764.6246-.1271.0703-.2666.116-.411.1349-.2289.0313-.4465 0-.6222.2499-.0645.0912-.401.0225-.6033-.0188-.286-.0537-.5654-.1375-.8334-.2498-.167-.075-.2934-.2399-.5059-.4235-.1032.1386-.1942.2858-.2719.4397-.1711.3823-.3123.777-.4224 1.1806-.0911.3935-.0822.807-.1392 1.2092-.0164.115-.11.2212-.1922.3748.0885.115.1796.2936-.0607.3673.0449.245.0694.4931.0734.7421-.0304.4897.2238.807.7196.8744.1723.0435.3397.1042.4995.1812.0822-.065.1872-.1487.2176-.1712.1991.0316.4003.0483.602.05.5374-.045 1.0851-.0525 1.5593-.3748.0898-.0612.253 0 .3693-.0437.1586-.0661.3124-.1429.4604-.2299.1391.0737.7474 0 .7221-.1062-.0658-.2635.153-.3485.2529-.4922.0407-.0432.09-.0775.1449-.1008.0549-.0232.1141-.0348.1738-.0341.2259.0157.45.0496.6703.1012.0721.015.1746.0512.1961.1037.1467.366.3794.401.7588.1124v.4448c.0088.1811-.0253.3885.0531.5359.172.3235.1353.5509-.1632.7733-.1121.0847-.1865.2093-.2074.3473-.0113.2261-.067.3248-.3111.3935-.2162.0599-.3908.2611-.6323.431-.3541-.1412-.4161-.115-.8347.2973-.101.0724-.2218.1129-.3466.1162-.2794.0362-.5615.0474-.8422.0749-.3794.0375-.7588.0787-1.1458.1249-.0557.0063-.1392.0175-.1581.0538-.3149.6009-.7298.1736-1.1079.1062-.0417-.0075-.0987-.0725-.1138-.0613-.4364.3086-.8271-.2048-1.2546-.0674-.0367.0112-.0936-.025-.1341-.0487-.0404-.0238-.0708-.085-.1037-.0837-.6412.0362-.9991-.441-1.4379-.7708-.1316-.1237-.2719-.2411-.4768-.4048zm3.6676-7.4955c.2074.1087.3794.2574.5843.2949.4388.0824.7285-.2786.9953-.4997.4566-.3873.8157-.8858 1.3988-1.1244.0659-.036.1156-.0954.1391-.1661.0683-.1937.0961-.4023.1821-.5872.0722-.1943.1906-.3687.3452-.5084.3617-.2636.597-.5822.5805-1.0256 0-.1749-.0847-.4448-.2048-.4935-.1556-.0625-.4073.01-.578.0987-.3162.1637-.5995.386-.903.5747-.1113.0687-.2605.0862-.3566.1674-.3719.3173-.5375.817-.965 1.0893-.0177.0112-.0266.0375-.0392.055-.191.2598-.3655.5334-.5742.7782-.3439.3723-.5557.845-.6032 1.3467zm-35.032-11.2969c-.2947.3086-.2973.6171-.105.9644.0139.0225-.0076.065-.0127.0987-.1125.0547-.2055.1418-.2668.2498-.0658.0975-.1265.1974-.1998.2924-.0367.0512-.105.0887-.1265.1436-.1151.3136-.1998.6396-.3352.9432-.1062.2374-.1871.4435-.0961.7171.0506.1511-.0354.3523-.0784.5272-.0448.223-.1108.4413-.1973.6521-.0751.2036-.1998.3859-.3629.5309-.2859.2049-.3314.2736-.1265.5597.1682.2286.2365.4797.0594.717-.2529.3461-.3048.8158-.6715 1.0981-.0266.0213.0126.1162.0088.1762-.0164.2823-.024.5659-.0632.8445-.019.1374-.1189.2623-.148.401-.091.441-.1492.8894-.2529 1.3292-.0949.411-.253.8095-.3352 1.223-.0653.3714-.1.7474-.1037 1.1243-.0075.2761-.215.4735-.2592.6983-.0633.3211-.0797.6534-.148.9844-.1138.5572-.1328 1.1331-.2251 1.6965-.0519.3148-.215.6146-.2529.9307-.0608.5372-.062 1.0819-.0886 1.624 0 .0787.0203.1949-.024.2299-.2921.2498-.1138.426.1024.6246-.2529.2998-.3161.5797-.1909.9994.1454.486.0341 1.0444.0556 1.5703.021.1959.0634.389.1265.5759.1555.5972.8347.6034 1.1686.9994.0088.0113.0455.0075.067 0 .4274-.0913.8496-.2051 1.2647-.341.349-.125.6627-.3473.9991-.511.0746-.0362.1821 0 .2732 0 .134 0 .3161.0525.392-.0137.1818-.1671.3385-.3589.4654-.5697.1594-.2498.4098-.4922.1682-.8357-.0493-.07-.0265-.1874-.0354-.2636l-.478-.3123c-.8082.2199-1.4759.8745-2.3132.842.0266-.2124.1164-.4335.0645-.6147-.1125-.3985-.2529-.7782-.1416-1.2017.0278-.1481.0447-.298.0506-.4485.1028-.1252.1724-.2738.2023-.4322.0671-.2711.1189-.546.1973-.8146.019-.0662.1556-.1049.167-.1686.0619-.3386.0986-.6821.1479-1.0231.0115-.2011.0463-.4002.1037-.5934.1075-.2699.2719-.516.4022-.7783.006-.0259.006-.0528.0001-.0788-.0059-.0259-.0176-.0502-.0342-.0711-.1088-.1374-.0822-.2399-.0241-.4098.0582-.1699.0279-.386.253-.4997.048-.025.0442-.1624.0493-.2498-.0099-.1857-.0019-.3718.024-.5559.0822-.3024.2138-.5909.3137-.8895.0107-.0313.0142-.0646.0103-.0975-.0039-.0328-.0152-.0644-.0331-.0924-.2049-.1811-.1543-.3398 0-.5209.0468-.0537.0316-.1599.0481-.2411.0164-.0812.0151-.1962.0543-.2112.3415-.1249.2125-.3885.229-.6346.024-.3747.0265-.8082.2225-1.0968.2378-.3498.1632-.7071.253-1.0519.0548-.2662.1586-.5202.306-.7495.1594-.2112.2226-.3748.0759-.5984-.0704-.134-.1049-.2835-.1003-.4344.0047-.1509.0484-.2981.1269-.4276.1872-.2299.4983-.4835.4894-.7183.0067-.3051.0436-.6089.11-.907.0102-.1918.0347-.3826.0734-.5709.1012-.3248.4603-.4847.3617-.9831-.0809-.4048.1872-.9432.6071-1.2805.0415-.0467.0717-.1021.0881-.1621.0165-.06.0188-.123.0067-.184-.0512-.2027-.0463-.4153.0142-.6155.0606-.2002.1745-.3807.3298-.5225.3794-.3748.5299-.7771.4452-1.28674-.0023-.07529.0115-.1502.0404-.21987.0582-.19488.1265-.38977.1847-.58465.0343-.08155.0639-.16497.0885-.24985.0425-.12624.058-.2598.0455-.39226-.0567-.21453-.1417-.42076-.2529-.61338-.062-.10744-.2074-.26484-.2858-.24985-.325.06371-.5565-.22237-.9536-.09744-.5995.18863-.7259.18239-.9574.77203-.1264.32855-.2883.69458-.7006.81451.1024.31106-.0936.89946-.3465 1.06186 0 .17864.0607.37854-.0114.45474zm78.5023 14.7124c-.139-.1962-.238-.3373-.351-.4997l.262-.2224-.063-.0162c.032-.1549.062-.3111.094-.466.016-.075.072-.1699.044-.2199-.242-.441.035-.8582.048-1.2854.01-.3498.155-.7171-.151-1.0194.091-.1524.17-.2998.263-.4385.181-.2674.121-.4835-.075-.7308-.114-.1449-.127-.3748-.172-.5659-.067-.2811-.234-.4997-.208-.8495.058-.7596.462-1.3917 1.214-1.5603.272-.06.471-.1449.562-.4423.082-.2471.203-.4801.358-.6908.077-.1087.245-.1537.379-.2311l.261-.2811c.022-.0225.068-.0525.063-.0662-.12-.3748.172-.346.389-.426.218-.0799.448-.1936.209-.5559.369-.1112.696-.2036 1.012-.3098.205-.0572.403-.1372.589-.2386.18-.11.271-.0463.362.0924.209.3198.521.3286.851.2699.33-.0588.682-.1724.904.2248.019.0211.042.0376.068.048.026.0105.055.0146.083.012.608-.1174.689.4197.946.7358.043.0748.092.1466.145.2149.224.2148.201.3535-.091.4847.119.4647.238.9282.352 1.3941.008.043 0 .0876-.023.125-.185.2848-.379.5646-.562.8494-.038.054-.066.114-.084.1774-.127.5297-.469.9082-.873 1.2493-.155.1249-.353.2436-.45.411-.137.2361-.361.2348-.563.3135-.071.0275-.176.0713-.19.125-.087.3573-.34.3635-.645.3747-.141 0-.269.2012-.412.2961-.112.0912-.241.1603-.379.2036-.454.0887-.913.145-1.37.2212-.102.0218-.201.0514-.298.0887.024.5958.045 1.1518.069 1.7064.003.048.013.0952.03.1399.073.1737.15.3448.226.5172l-.089.0388 1.778 1.4066c.271-.1538.556-.2838.85-.3885.127-.0375.371.0837.466.2049.126.1661.231.1586.419.1474.273-.0324.541-.097.798-.1924.052-.0089.105-.0054.155.0103s.095.043.132.0796c.176.2424.318.5072.476.7621.062.0987.145.1849.196.2873.039.0966.068.1971.085.2998.034.1524.06.3073.087.4423-.101.162-.186.3336-.253.5122-.095.3185-.188.3547-.517.3023-.093-.0046-.186.0096-.273.0416-.086.032-.166.0812-.233.1445-.24.2336-.431.3323-.73.0812-.068-.0562-.312.0225-.427.1037-.16.1124-.26.1637-.452.045-.168-.1037-.404-.0937-.59-.1762-.329-.1474-.633-.3548-1.026-.2948-.07.01-.163-.1312-.278-.2311-.063.035-.174.0625-.224.1324-.176.2499-.354.1937-.541.0275-.167-.1487-.33-.3036-.495-.456-.042-.0387-.073-.0987-.126-.1137-.314-.1024-.633-.1948-.913-.2798-.202-.5534-.202-1.1381-.729-1.4728-.095-.06-.137-.1949-.224-.2736-.203-.1762-.21-.1724-.145-.3498zm4.78-8.2538c-.139-.0407-.289-.0325-.424.0233-.134.0557-.245.1556-.313.2828-.108.216-.231.4247-.367.6246-.177.2748-.168.6246-.393.887-.137.1624-.135.4359-.223.7607.061.1012.206.2049.451.0388.187-.125.37-.2911.579-.3423.41-.1.621-.3748.805-.7058.059-.105.141-.1974.21-.2974.179-.2561.43-.4922.506-.7758.076-.2835-.025-.5896-.052-.9481zm-103.7198 8.2051c.1454.3373.0265.5246-.253.6983-.0847.0525-.1833.2411-.1517.2936.2529.4147.0139.8207 0 1.2255-.0127.2823-.1518.5559-.2062.8395-.0784.4022-.2529.777-.177 1.223.0556.3435-.0961.7183-.1353 1.0806-.0279.2498.0569.5446-.0494.7495-.2203.4213-.3311.8901-.3225 1.3642 0 .1524.0911.3835.0228.4422-.2947.2499-.1922.506-.105.7846.0184.0894.0184.1816 0 .2711-.0455.331-.0986.662-.1492.9931-.0063.0425-.0266.1012-.0076.1249.2529.3148.5059.6247.7791.9307.0493.0562.1922.1087.2352.08.3073-.2062.6715-.3836.8853-.6684.2143-.3306.3569-.7015.4186-1.0893.0822-.4123.0607-.8433.086-1.2668.0018-.0433.0126-.0858.0316-.1249.2049-.3748.5059-.737.2226-1.2068-.0215-.0362.0379-.1161.0481-.1761.0101-.06.0531-.1836.0177-.2261-.1834-.2199-.0721-.3161.1264-.4335.0898-.0525.1265-.2011.1771-.3023-.3212-.2124-.3718-.3848-.1467-.6072.2251-.2223.1707-.411.091-.5334.0974-.3897.1973-.6996.253-1.0181.0619-.3848.0847-.7758.1264-1.1643.0102-.1125-.0455-.2886.0089-.3286.5185-.3747.2403-1.0568.6108-1.4991.1265-.1561.1442-.4247.1695-.6471.019-.1536-.0923-.3373-.043-.4684.153-.3973.3567-.7758.5464-1.1768-.2049-.1499-.1733-.3248-.0582-.5285.0872-.1425.1424-.3018.1619-.4672.0455-.7583.3579-1.4429.5615-2.1587.0721-.2498.4401-.5259.1265-.7908.1708-.3707.3203-.7506.4477-1.138.1264-.491.1846-.9994.2997-1.4991.0721-.3086.2694-.5997-.0266-.9032-.0321-.0467-.0534-.0998-.0623-.1555-.009-.0557-.0054-.1127.0105-.1668.0898-.2736-.1164-.3748-.277-.476-.0974-.0587-.2592 0-.3908-.0187-.4311-.0468-.8668.029-1.2558.2186-.0827.0482-.1448.1246-.1745.2149-.1151.3822-.0291.7982-.2783 1.1705-.1467.2199-.1264.5447-.2327.7995-.1593.3748-.4932.6421-.4199 1.1356.0317.2173-.2529.4822-.3983.7258-.1129.173-.2131.3538-.2998.5409-.0253.065.0481.1862.105.2586.0913.0919.1908.1755.2972.2499-.3503.0212-.4882.1249-.4173.421.0049.1205-.0208.2403-.0747.3485-.0518.1587-.153.3086-.1707.4697-.0316.2823-.0177.5434-.2378.7983-.22.2548-.2997.5759 0 .8745.0279.0318.0477.0696.0581.1104.0103.0408.0108.0834.0014.1244-.1404.2823-.3099.5497-.4578.8295-.0353.09-.0591.184-.0709.2798l.2833.1125c-.0834.1736-.2048.3498-.1593.456zm6.3146-12.4475c.0923-.1187.2061-.2212.3073-.3336.1546-.1475.2928-.3108.4123-.4872.129-.2319.2248-.4804.2846-.7383.0544-.2386.2744-.4572.0986-.7383-.0999-.1599-.1353-.3573-.2251-.5247s-.1884-.39351-.3073-.4085c-.2715-.04641-.5509-.01115-.8018.10119-.5451.30481-.8664.83951-1.1838 1.35671-.0735.1616-.1189.3343-.134.5109-.0355.1762-.0608.3548-.0797.5334-.0139.145-.0746.3586 0 .4248.2034.1861.4385.3353.6943.441.1265.0499.2997-.04.478-.07l.1733.3748c.1189-.1899.191-.3236.2833-.4422z" fill="#072744"/></svg>