<svg width="258" height="67" viewBox="0 0 258 67" fill="none" xmlns="http://www.w3.org/2000/svg">
<path d="M232.512 13L232.988 13.0137C237.866 13.2969 241.401 17.902 240.319 22.7441L234.734 47.7441C233.918 51.4002 230.673 54 226.927 54H22.4883C17.3667 54 13.5641 49.2543 14.6807 44.2559L20.2656 19.2559C21.0824 15.5998 24.327 13 28.0732 13H232.512Z" fill="white" stroke="#00FFCC" stroke-width="4"/>
<path d="M233.541 12C238.65 12.0003 242.45 16.7244 241.354 21.7148L235.649 47.7148C234.844 51.385 231.592 54 227.835 54H21.459C16.3499 53.9997 12.5504 49.2756 13.6455 44.2852L19.3506 18.2852C20.156 14.615 23.4075 12 27.165 12H233.541Z" stroke="black" stroke-width="4"/>
<path d="M32.884 47.612C30.04 47.612 27.952 46.352 27.016 43.724C26.656 42.752 26.476 41.492 26.476 40.052C26.476 36.38 27.304 31.124 28.672 27.416C30.256 23.24 32.236 21.188 36.412 21.188C39.256 21.188 41.344 22.412 42.316 25.076C42.676 26.048 42.82 27.308 42.82 28.748C42.82 32.456 41.992 37.712 40.624 41.384C39.04 45.596 37.06 47.612 32.884 47.612ZM31.264 40.124C31.264 41.06 31.408 41.744 31.624 42.248C31.984 42.932 32.524 43.148 33.172 43.148C34.72 43.148 35.584 41.6 36.34 38.864C37.204 36.056 38.032 30.692 38.032 28.676C38.032 27.74 37.888 27.056 37.672 26.552C37.312 25.832 36.736 25.616 36.124 25.616C34.576 25.616 33.712 27.2 32.956 29.936C32.128 32.708 31.264 38.108 31.264 40.124ZM42.9423 47L45.7863 21.8H50.4663L48.5223 37.964L47.6223 43.472H48.3783L49.4943 37.964L53.9943 21.8H60.2223L58.4583 37.964L57.4143 43.472H58.2063L59.4303 37.964L63.7863 21.8H68.4663L61.5183 47H53.8503L55.7583 30.872L56.8383 25.328H56.0463L54.9303 30.872L50.6103 47H42.9423ZM65.6814 47L70.5774 21.8H77.5974L77.5254 35.084L76.0854 43.472H76.8414L81.0534 21.8H85.2294L80.3334 47H73.3134L73.3494 33.644L74.8254 25.328H74.0334L69.8214 47H65.6814ZM95.9051 47.468C93.7091 47.468 92.2331 46.496 91.5491 44.48C91.1891 43.472 91.0451 42.032 91.0451 40.556C91.0451 36.956 91.8731 31.052 93.4931 26.84C94.8251 23.492 96.5531 21.332 99.9011 21.332C101.989 21.332 103.573 22.232 104.293 24.32C104.653 25.328 104.797 26.768 104.797 28.28C104.797 32.024 103.897 37.964 102.349 41.96C100.981 45.38 99.1811 47.468 95.9051 47.468ZM92.8091 40.304C92.7731 41.78 92.8811 42.968 93.2051 43.904C93.7091 45.272 94.6091 45.848 95.9051 45.848C98.3171 45.848 99.6851 44.012 100.729 41.204C102.349 36.992 102.961 31.052 103.033 28.496C103.069 26.984 102.961 25.832 102.601 24.896C102.061 23.42 101.053 22.952 99.8651 22.952C97.5251 22.952 96.1211 24.788 95.0771 27.596C93.5291 31.664 92.8451 37.712 92.8091 40.304ZM109.58 47.468C105.26 47.468 104.288 44.516 105.008 40.772L108.716 21.8H110.408L106.7 40.772C106.124 43.544 106.664 45.848 109.652 45.848C112.46 45.848 113.72 43.472 114.188 41.024L117.968 21.8H119.66L115.916 41.024C115.232 44.552 113.396 47.468 109.58 47.468ZM117.441 47L122.337 21.8H125.253C127.989 21.8 129.753 22.772 130.689 24.356C131.229 25.328 131.445 26.408 131.445 27.704C131.445 29.216 131.121 30.476 130.437 31.664C129.249 33.68 126.981 34.688 124.605 34.832V35.228L125.289 35.552L128.313 47H126.477L123.453 35.192H121.437L119.133 47H117.441ZM121.725 33.716H123.165C126.225 33.716 127.917 32.744 128.889 31.016C129.429 30.08 129.681 29.072 129.681 27.884C129.681 26.876 129.465 25.976 129.069 25.328C128.385 24.104 127.161 23.42 125.109 23.42H123.705L121.725 33.716ZM138.03 47L142.926 21.8H154.374L153.51 26.228H146.778L145.626 32.168H151.998L151.098 36.596H144.762L142.746 47H138.03ZM158.788 47.612C153.496 47.612 151.516 44.516 152.452 39.764L155.98 21.8H160.696L157.168 39.764C156.772 41.888 157.132 43.148 159.112 43.148C160.624 43.148 161.524 42.032 161.884 40.16L165.448 21.8H170.164L166.6 40.16C165.808 44.336 163.468 47.612 158.788 47.612ZM171.224 47L175.292 26.228H170.396L171.26 21.8H185.696L184.832 26.228H180.008L175.94 47H171.224ZM189.621 47.612C184.329 47.612 182.349 44.516 183.285 39.764L186.813 21.8H191.529L188.001 39.764C187.605 41.888 187.965 43.148 189.945 43.148C191.457 43.148 192.357 42.032 192.717 40.16L196.281 21.8H200.997L197.433 40.16C196.641 44.336 194.301 47.612 189.621 47.612ZM198.853 47L203.749 21.8H209.545C212.461 21.8 214.441 23.024 215.449 24.752C216.061 25.832 216.313 26.984 216.313 28.28C216.313 29.576 216.025 30.764 215.377 31.916C214.477 33.464 212.749 34.616 210.157 35.048V35.732L211.453 36.236L213.397 47H208.501L206.629 36.128H205.693L203.569 47H198.853ZM206.413 32.492H207.493C209.293 32.492 210.409 31.772 210.949 30.764C211.309 30.152 211.453 29.54 211.453 28.856C211.453 28.28 211.345 27.812 211.129 27.38C210.661 26.624 209.905 26.228 208.753 26.228H207.637L206.413 32.492ZM215.043 47L219.939 21.8H231.387L230.523 26.228H223.791L222.639 32.168H229.011L228.111 36.596H221.775L220.623 42.572H227.355L226.491 47H215.043Z" fill="#00FFCC"/>
<path d="M31.884 46.612C29.04 46.612 26.952 45.352 26.016 42.724C25.656 41.752 25.476 40.492 25.476 39.052C25.476 35.38 26.304 30.124 27.672 26.416C29.256 22.24 31.236 20.188 35.412 20.188C38.256 20.188 40.344 21.412 41.316 24.076C41.676 25.048 41.82 26.308 41.82 27.748C41.82 31.456 40.992 36.712 39.624 40.384C38.04 44.596 36.06 46.612 31.884 46.612ZM30.264 39.124C30.264 40.06 30.408 40.744 30.624 41.248C30.984 41.932 31.524 42.148 32.172 42.148C33.72 42.148 34.584 40.6 35.34 37.864C36.204 35.056 37.032 29.692 37.032 27.676C37.032 26.74 36.888 26.056 36.672 25.552C36.312 24.832 35.736 24.616 35.124 24.616C33.576 24.616 32.712 26.2 31.956 28.936C31.128 31.708 30.264 37.108 30.264 39.124ZM41.9423 46L44.7863 20.8H49.4663L47.5223 36.964L46.6223 42.472H47.3783L48.4943 36.964L52.9943 20.8H59.2223L57.4583 36.964L56.4143 42.472H57.2063L58.4303 36.964L62.7863 20.8H67.4663L60.5183 46H52.8503L54.7583 29.872L55.8383 24.328H55.0463L53.9303 29.872L49.6103 46H41.9423ZM64.6814 46L69.5774 20.8H76.5974L76.5254 34.084L75.0854 42.472H75.8414L80.0534 20.8H84.2294L79.3334 46H72.3134L72.3494 32.644L73.8254 24.328H73.0334L68.8214 46H64.6814ZM94.9051 46.468C92.7091 46.468 91.2331 45.496 90.5491 43.48C90.1891 42.472 90.0451 41.032 90.0451 39.556C90.0451 35.956 90.8731 30.052 92.4931 25.84C93.8251 22.492 95.5531 20.332 98.9011 20.332C100.989 20.332 102.573 21.232 103.293 23.32C103.653 24.328 103.797 25.768 103.797 27.28C103.797 31.024 102.897 36.964 101.349 40.96C99.9811 44.38 98.1811 46.468 94.9051 46.468ZM91.8091 39.304C91.7731 40.78 91.8811 41.968 92.2051 42.904C92.7091 44.272 93.6091 44.848 94.9051 44.848C97.3171 44.848 98.6851 43.012 99.7291 40.204C101.349 35.992 101.961 30.052 102.033 27.496C102.069 25.984 101.961 24.832 101.601 23.896C101.061 22.42 100.053 21.952 98.8651 21.952C96.5251 21.952 95.1211 23.788 94.0771 26.596C92.5291 30.664 91.8451 36.712 91.8091 39.304ZM108.58 46.468C104.26 46.468 103.288 43.516 104.008 39.772L107.716 20.8H109.408L105.7 39.772C105.124 42.544 105.664 44.848 108.652 44.848C111.46 44.848 112.72 42.472 113.188 40.024L116.968 20.8H118.66L114.916 40.024C114.232 43.552 112.396 46.468 108.58 46.468ZM116.441 46L121.337 20.8H124.253C126.989 20.8 128.753 21.772 129.689 23.356C130.229 24.328 130.445 25.408 130.445 26.704C130.445 28.216 130.121 29.476 129.437 30.664C128.249 32.68 125.981 33.688 123.605 33.832V34.228L124.289 34.552L127.313 46H125.477L122.453 34.192H120.437L118.133 46H116.441ZM120.725 32.716H122.165C125.225 32.716 126.917 31.744 127.889 30.016C128.429 29.08 128.681 28.072 128.681 26.884C128.681 25.876 128.465 24.976 128.069 24.328C127.385 23.104 126.161 22.42 124.109 22.42H122.705L120.725 32.716ZM137.03 46L141.926 20.8H153.374L152.51 25.228H145.778L144.626 31.168H150.998L150.098 35.596H143.762L141.746 46H137.03ZM157.788 46.612C152.496 46.612 150.516 43.516 151.452 38.764L154.98 20.8H159.696L156.168 38.764C155.772 40.888 156.132 42.148 158.112 42.148C159.624 42.148 160.524 41.032 160.884 39.16L164.448 20.8H169.164L165.6 39.16C164.808 43.336 162.468 46.612 157.788 46.612ZM170.224 46L174.292 25.228H169.396L170.26 20.8H184.696L183.832 25.228H179.008L174.94 46H170.224ZM188.621 46.612C183.329 46.612 181.349 43.516 182.285 38.764L185.813 20.8H190.529L187.001 38.764C186.605 40.888 186.965 42.148 188.945 42.148C190.457 42.148 191.357 41.032 191.717 39.16L195.281 20.8H199.997L196.433 39.16C195.641 43.336 193.301 46.612 188.621 46.612ZM197.853 46L202.749 20.8H208.545C211.461 20.8 213.441 22.024 214.449 23.752C215.061 24.832 215.313 25.984 215.313 27.28C215.313 28.576 215.025 29.764 214.377 30.916C213.477 32.464 211.749 33.616 209.157 34.048V34.732L210.453 35.236L212.397 46H207.501L205.629 35.128H204.693L202.569 46H197.853ZM205.413 31.492H206.493C208.293 31.492 209.409 30.772 209.949 29.764C210.309 29.152 210.453 28.54 210.453 27.856C210.453 27.28 210.345 26.812 210.129 26.38C209.661 25.624 208.905 25.228 207.753 25.228H206.637L205.413 31.492ZM214.043 46L218.939 20.8H230.387L229.523 25.228H222.791L221.639 31.168H228.011L227.111 35.596H220.775L219.623 41.572H226.355L225.491 46H214.043Z" fill="black"/>
</svg>
