<svg width="544" height="544" viewBox="0 0 544 544" fill="none" xmlns="http://www.w3.org/2000/svg">
<g clip-path="url(#clip0_35_145)">
<path d="M272 544C422.221 544 544 422.221 544 272C544 121.779 422.221 0 272 0C121.779 0 0 121.779 0 272C0 422.221 121.779 544 272 544Z" fill="#FEED01"/>
<path d="M160.846 155.167C169.933 192.852 166.166 204.513 130.65 194.562C148.534 225.082 146.315 235.762 113.035 239.406C146.471 267.037 136.026 281.394 82 305.623C142.812 309.814 157.491 313.167 141.554 361.363C180.858 344.81 182.301 358.702 175.105 394.472C216.328 371.89 224.985 382.777 224.593 428C247.851 393.837 259.657 393.183 278.276 428C285.405 396.149 305.117 399.082 320.634 424.647C331.431 394.566 341.837 390.724 367.606 405.369C366.544 372.394 375.994 364.716 406.61 372.26C391.512 348.79 406.61 333.284 423.805 331.188C408.287 302.874 412.243 290.545 441 274.61C406.795 264.565 403.027 252.184 420.03 219.708C383.543 223.061 386.06 204.621 406.61 171.931C368.881 189.014 360.403 178.738 361.735 134.631C329.628 162.853 320.224 155.799 315.182 112C295.89 144.69 269.468 155.167 263.178 112C247.241 153.072 231.658 154.7 204.463 120.801C208.237 171.931 182.235 171.931 160.846 155.167Z" fill="#E10F1C"/>
<path d="M121.067 388.988L109.868 423.201L133.623 404.369C135.185 403.132 136.565 402.582 137.876 402.632C139.188 402.683 140.285 403.265 141.169 404.381C142.098 405.552 142.415 406.754 142.164 408.042C141.914 409.33 141.064 410.548 139.503 411.786L108.108 436.674C104.595 439.459 101.717 439.379 99.4179 436.48C98.8433 435.755 98.4243 434.997 98.1496 434.307C97.9306 433.572 97.8231 432.75 97.8714 431.894C97.9196 431.038 98.0794 430.095 98.3392 429.162C98.599 428.23 98.9029 427.353 99.1627 426.421L110.392 392.819L87.0274 411.341C85.4661 412.579 84.0413 413.073 82.7302 413.022C81.3748 412.916 80.2772 412.334 79.3931 411.218C78.4648 410.047 78.1479 408.846 78.3981 407.558C78.6041 406.214 79.51 404.951 81.0156 403.757L111.797 379.356C113.08 378.339 114.272 377.666 115.218 377.371C116.319 377.042 117.431 377.069 118.596 377.508C119.716 377.891 120.658 378.506 121.41 379.454C121.984 380.179 122.359 380.881 122.534 381.56C122.697 382.338 122.772 383.005 122.691 383.705C122.554 384.449 122.362 385.237 122.058 386.114C121.742 387.091 121.383 388.011 121.067 388.988Z" fill="black"/>
<path d="M167.311 437.679L148.998 423.323L141.271 433.18L158.129 446.394C159.361 447.36 160.093 448.386 160.214 449.385C160.391 450.428 160.157 451.42 159.454 452.316C158.752 453.212 157.801 453.733 156.802 453.854C155.747 453.931 154.576 453.465 153.344 452.499L136.486 439.285L127.531 450.71L146.46 465.548C147.748 466.558 148.481 467.584 148.67 468.727C148.847 469.77 148.569 470.817 147.778 471.826C147.032 472.778 146.081 473.298 145.026 473.375C143.871 473.465 142.7 472.998 141.412 471.989L119.346 454.692C117.554 453.287 116.629 451.929 116.46 450.53C116.29 449.132 116.908 447.536 118.269 445.8L141.887 415.67C142.809 414.493 143.723 413.673 144.63 413.208C145.593 412.788 146.536 412.623 147.527 412.857C148.574 413.136 149.602 413.67 150.778 414.592L172.228 431.406C173.516 432.416 174.249 433.442 174.382 434.541C174.615 435.628 174.324 436.576 173.578 437.528C172.832 438.48 171.981 438.988 170.826 439.078C169.771 439.155 168.599 438.688 167.311 437.679Z" fill="black"/>
<path d="M158.716 476.122L178.256 441.066C179.261 439.263 180.458 438.138 181.786 437.656C183.113 437.175 184.474 437.363 185.78 438.091C187.147 438.854 187.961 439.878 188.311 441.295C188.634 442.616 188.307 444.226 187.268 446.091L167.728 481.147C166.723 482.95 165.491 484.137 164.198 484.556C162.809 485.003 161.509 484.849 160.142 484.087C158.837 483.359 158.023 482.335 157.672 480.918C157.384 479.535 157.711 477.925 158.716 476.122Z" fill="black"/>
<path d="M205.861 454.596L214.873 489.449L224.729 460.781C225.376 458.897 226.243 457.69 227.374 457.025C228.506 456.361 229.744 456.26 231.09 456.722C232.503 457.208 233.418 458.05 233.902 459.269C234.385 460.489 234.327 461.974 233.679 463.858L220.654 501.745C219.197 505.984 216.73 507.469 213.231 506.266C212.356 505.965 211.594 505.553 210.991 505.12C210.411 504.619 209.876 503.984 209.456 503.238C209.035 502.491 208.661 501.61 208.377 500.685C208.093 499.759 207.877 498.857 207.593 497.932L198.936 463.577L189.242 491.774C188.595 493.658 187.661 494.842 186.529 495.506C185.331 496.148 184.092 496.249 182.746 495.786C181.333 495.3 180.418 494.459 179.935 493.239C179.384 491.996 179.466 490.444 180.09 488.628L192.86 451.481C193.393 449.933 194.034 448.724 194.671 447.965C195.422 447.094 196.373 446.518 197.59 446.259C198.74 445.978 199.866 445.988 201.01 446.381C201.884 446.682 202.578 447.071 203.091 447.549C203.649 448.116 204.071 448.638 204.381 449.271C204.667 449.971 204.929 450.739 205.146 451.641C205.407 452.634 205.6 453.603 205.861 454.596Z" fill="black"/>
<path d="M260.706 462.199L274.155 462.102C277.642 462.077 280.633 462.411 283.128 463.034C285.694 463.656 287.909 464.85 289.985 466.614C295.355 471.129 298.037 478.013 298.104 487.263C298.126 490.323 297.861 493.1 297.381 495.666C296.83 498.16 296.064 500.443 294.94 502.515C293.816 504.515 292.406 506.376 290.709 507.953C289.366 509.173 287.879 510.18 286.248 510.974C284.616 511.698 282.912 512.208 280.993 512.578C279.145 512.876 277.083 513.033 274.734 513.05L261.286 513.146C259.435 513.16 258.01 512.885 257.01 512.323C256.081 511.76 255.435 510.982 255.142 509.917C254.851 508.923 254.699 507.572 254.687 505.935L254.418 468.577C254.402 466.371 254.889 464.731 255.878 463.728C256.867 462.724 258.5 462.214 260.706 462.199ZM264.75 470.353L264.998 504.936L272.826 504.88C274.533 504.867 275.885 504.787 276.881 504.708C277.805 504.63 278.799 504.339 279.864 503.975C280.929 503.612 281.779 503.108 282.557 502.39C286.023 499.448 287.694 494.383 287.643 487.267C287.607 482.286 286.797 478.521 285.285 475.97C283.772 473.49 281.84 471.938 279.629 471.242C277.418 470.618 274.712 470.282 271.581 470.304L264.75 470.353Z" fill="black"/>
<path d="M338.804 498.641L335.016 492.938L314.831 497.56L313.933 504.482C313.534 507.201 313.152 509.041 312.719 510.016C312.231 511.077 311.286 511.731 309.76 512.08C308.512 512.366 307.307 512.204 306.113 511.456C304.935 510.776 304.212 509.847 303.942 508.668C303.783 507.974 303.693 507.264 303.812 506.507C303.845 505.697 303.97 504.646 304.223 503.201L309.531 468.04C309.671 467.059 309.833 465.854 310.087 464.409C310.27 462.979 310.587 461.812 310.935 460.783C311.3 459.824 311.904 458.955 312.748 458.178C313.538 457.486 314.654 456.939 316.041 456.621C317.429 456.303 318.671 456.311 319.684 456.59C320.783 456.922 321.704 457.441 322.45 458.146C323.265 458.836 323.957 459.626 324.526 460.518C325.165 461.394 325.936 462.531 326.926 463.984L347.235 493.06C348.831 495.25 349.73 496.942 349.984 498.052C350.238 499.162 350.007 500.383 349.242 501.507C348.493 502.7 347.495 503.44 346.107 503.758C345.344 503.932 344.619 503.952 344 503.802C343.382 503.652 342.817 503.416 342.29 503.026C341.832 502.62 341.241 501.952 340.517 501.023C339.878 500.147 339.325 499.324 338.804 498.641ZM315.735 489.396L330.579 485.997L318.402 467.25L315.735 489.396Z" fill="black"/>
<path d="M352.863 450.963L384.077 468.899L370.481 441.805C369.587 440.024 369.33 438.56 369.647 437.287C369.963 436.013 370.757 435.057 372.029 434.419C373.365 433.749 374.606 433.684 375.816 434.191C377.026 434.698 378.046 435.779 378.94 437.56L396.908 473.367C398.919 477.374 398.254 480.176 394.947 481.835C394.12 482.25 393.293 482.506 392.562 482.634C391.798 482.699 390.97 482.637 390.143 482.415C389.315 482.194 388.423 481.845 387.563 481.4C386.704 480.956 385.907 480.48 385.047 480.036L354.439 462.195L367.812 488.844C368.705 490.625 368.898 492.12 368.582 493.394C368.202 494.699 367.408 495.655 366.136 496.293C364.8 496.963 363.559 497.029 362.349 496.521C361.075 496.046 360.024 494.902 359.162 493.184L341.544 458.076C340.81 456.614 340.395 455.309 340.298 454.323C340.201 453.177 340.454 452.095 341.121 451.044C341.724 450.025 342.518 449.228 343.599 448.685C344.426 448.27 345.19 448.047 345.89 448.014C346.685 448.013 347.354 448.075 348.022 448.297C348.723 448.583 349.455 448.932 350.252 449.408C351.143 449.916 351.972 450.455 352.863 450.963Z" fill="black"/>
<path d="M390.239 428.966L401.902 442.495L403.463 413.245C403.513 411.886 403.648 410.736 403.862 409.894C404.022 409.099 404.583 408.333 405.446 407.59C406.577 406.614 407.773 406.147 409.031 406.19C410.235 406.279 411.309 406.762 412.146 407.733C413.121 408.864 413.504 410.507 413.294 412.661L411.568 429.84L436.03 436.092C437.713 436.519 439.143 436.978 440.217 437.462C441.291 437.945 442.204 438.567 442.854 439.322C443.598 440.184 443.925 441.218 443.782 442.468C443.646 443.619 443.008 444.732 441.823 445.754C440.745 446.684 439.697 447.211 438.578 447.33C437.505 447.503 436.355 447.368 435.273 446.985C434.138 446.648 433.056 446.265 432.168 445.998L410.685 439.714L409.568 451.388L416.445 459.364C417.839 460.981 418.483 462.492 418.433 463.851C418.376 465.31 417.731 466.523 416.599 467.499C415.952 468.057 415.166 468.453 414.194 468.633C413.322 468.821 412.419 468.754 411.585 468.44C410.897 468.187 410.278 467.687 409.667 467.087C409.055 466.486 408.211 465.617 407.143 464.377L382.424 435.704C381.077 434.141 380.432 432.63 380.382 431.264C380.385 429.851 381.03 428.638 382.216 427.615C383.402 426.593 384.643 426.181 386.095 426.338C387.446 426.489 388.845 427.35 390.239 428.966Z" fill="black"/>
<path d="M438.727 379.747L424.994 398.531L435.105 405.923L447.746 388.632C448.67 387.368 449.671 386.602 450.665 386.447C451.702 386.235 452.701 386.437 453.62 387.108C454.539 387.78 455.091 388.713 455.246 389.707C455.358 390.759 454.931 391.946 454.007 393.21L441.366 410.501L453.085 419.068L467.28 399.652C468.246 398.331 469.247 397.564 470.383 397.337C471.42 397.125 472.476 397.368 473.51 398.124C474.486 398.838 475.039 399.77 475.151 400.822C475.279 401.974 474.852 403.16 473.886 404.481L457.339 427.115C455.995 428.953 454.669 429.923 453.277 430.139C451.885 430.355 450.27 429.792 448.489 428.49L417.583 405.895C416.377 405.013 415.526 404.127 415.032 403.236C414.579 402.288 414.382 401.351 414.584 400.352C414.827 399.296 415.327 398.251 416.208 397.045L432.294 375.043C433.26 373.722 434.261 372.955 435.355 372.785C436.433 372.516 437.39 372.775 438.366 373.489C439.343 374.203 439.88 375.036 440.008 376.187C440.12 377.239 439.693 378.426 438.727 379.747Z" fill="black"/>
<path d="M80.4809 189.004L90.1365 191.596C91.4051 191.936 92.4243 192.359 93.1427 192.775C93.8421 193.26 94.4142 193.935 94.8074 194.71C95.2521 195.574 95.6589 196.576 95.9383 197.768C96.7441 201.185 97.146 204.419 97.1629 207.4C97.1798 210.382 96.698 213.528 95.8069 216.787C94.7641 220.601 93.2524 223.917 91.2011 226.716C89.1308 229.585 86.6484 231.747 83.7864 233.361C80.9244 234.975 77.7208 235.901 74.1375 236.279C70.5732 236.588 66.8271 236.178 62.8099 235.1C58.8631 234.041 55.4204 232.521 52.5007 230.472C49.562 228.493 47.2873 226.022 45.6387 223.197C43.9196 220.354 42.9676 217.196 42.6605 213.615C42.3345 210.103 42.686 206.327 43.8046 202.236C44.7147 198.907 45.9528 196.039 47.5705 193.719C49.1882 191.399 50.8846 189.621 52.7302 188.405C54.5054 187.169 56.3267 186.318 58.0857 185.971C59.8638 185.555 61.3166 185.499 62.5147 185.82C63.7834 186.161 64.7783 186.949 65.448 188.096C66.0284 189.294 66.2184 190.536 65.8581 191.853C65.6685 192.547 65.2675 193.184 64.796 193.801C64.254 194.4 63.609 194.823 62.861 195.068C60.5463 195.787 58.7819 196.43 57.5677 196.997C56.264 197.615 55.096 198.567 53.9931 199.834C52.9606 201.12 52.1153 202.829 51.4896 205.117C50.864 207.405 50.7181 209.599 50.9815 211.68C51.3343 213.71 52.0259 215.607 53.2351 217.271C54.4254 219.005 56.0629 220.487 58.1286 221.785C60.1943 223.084 62.5663 224.093 65.3149 224.831C71.2351 226.419 76.1764 226.331 80.0873 224.478C83.9793 222.694 86.6241 219.384 87.9323 214.6C88.5769 212.242 88.8827 210.016 88.8172 207.766C88.7327 205.585 88.3852 203.258 87.8263 200.875L79.6509 198.681L77.5275 206.448C77.0156 208.32 76.3355 209.701 75.5252 210.451C74.696 211.271 73.5765 211.491 72.167 211.113C71.0393 210.81 70.2369 210.148 69.7406 209.196C69.1929 208.156 69.1249 207.021 69.5041 205.634L72.6323 194.192C73.0115 192.806 73.4747 191.664 73.9516 190.75C74.4989 189.855 75.2713 189.244 76.2877 188.847C77.3745 188.468 78.719 188.531 80.4809 189.004Z" fill="black"/>
<path d="M82.6207 139.441L70.5767 159.691L81.6662 166.113L92.7525 147.473C93.5628 146.111 94.504 145.24 95.5024 144.986C96.5376 144.67 97.5777 144.773 98.5859 145.356C99.594 145.94 100.255 146.823 100.517 147.807C100.742 148.853 100.431 150.088 99.6204 151.451L88.5341 170.091L101.388 177.535L113.837 156.604C114.684 155.179 115.625 154.309 116.76 153.967C117.796 153.651 118.899 153.79 120.033 154.447C121.104 155.067 121.765 155.95 121.99 156.996C122.241 158.14 121.93 159.376 121.083 160.8L106.571 185.199C105.393 187.181 104.141 188.288 102.743 188.644C101.346 189 99.6387 188.594 97.6855 187.463L63.7869 167.831C62.4638 167.065 61.5031 166.259 60.905 165.413C60.3437 164.505 60.0451 163.582 60.1459 162.558C60.2835 161.473 60.6838 160.372 61.4572 159.072L75.5637 135.354C76.4109 133.929 77.3521 133.059 78.4503 132.779C79.5224 132.401 80.5256 132.566 81.5968 133.186C82.6679 133.806 83.3029 134.59 83.554 135.735C83.7789 136.781 83.4678 138.016 82.6207 139.441Z" fill="black"/>
<path d="M101.104 112.34L137.398 119.146L115.054 97.7765C113.585 96.3719 112.841 95.0598 112.716 93.7397C112.59 92.4197 113.035 91.2449 114.05 90.2153C115.116 89.1342 116.295 88.6616 117.639 88.7462C118.982 88.8307 120.335 89.5251 121.804 90.9296L151.333 119.171C154.637 122.332 154.944 125.225 152.305 127.902C151.645 128.572 150.931 129.089 150.266 129.453C149.549 129.767 148.727 129.981 147.85 130.043C146.974 130.105 145.993 130.067 145.01 129.927C144.027 129.787 143.095 129.596 142.112 129.456L106.436 122.54L128.412 143.559C129.881 144.963 130.575 146.327 130.7 147.647C130.774 149.018 130.33 150.193 129.315 151.223C128.249 152.304 127.07 152.776 125.726 152.692C124.332 152.659 122.926 151.914 121.51 150.56L92.558 122.87C91.3516 121.716 90.5074 120.609 90.0793 119.699C89.597 118.638 89.4751 117.521 89.7644 116.297C90.0028 115.125 90.5019 114.102 91.3646 113.227C92.0244 112.558 92.6875 112.092 93.3541 111.829C94.1239 111.565 94.7921 111.404 95.5145 111.395C96.2894 111.436 97.1167 111.527 98.0489 111.718C99.0843 111.908 100.069 112.15 101.104 112.34Z" fill="black"/>
<path d="M166.843 65.1183L146.468 77.2875L153.157 88.1106L171.912 76.909C173.283 76.0903 174.532 75.7651 175.535 76.0079C176.6 76.2135 177.468 76.7897 178.076 77.7736C178.685 78.7575 178.843 79.8417 178.6 80.8288C178.294 81.8532 177.425 82.7933 176.054 83.612L157.3 94.8136L165.053 107.359L186.113 94.78C187.546 93.9241 188.795 93.5989 189.961 93.8288C191.026 94.0344 191.932 94.672 192.616 95.779C193.262 96.8244 193.421 97.9086 193.115 98.9329C192.786 100.056 191.916 100.996 190.483 101.852L165.934 116.515C163.94 117.705 162.303 118.094 160.899 117.754C159.495 117.414 158.184 116.26 157.006 114.354L136.56 81.2692C135.762 79.9778 135.302 78.8207 135.182 77.798C135.124 76.7381 135.305 75.7882 135.887 74.9354C136.531 74.0455 137.414 73.2656 138.723 72.484L162.586 58.2309C164.02 57.3749 165.269 57.0498 166.372 57.3169C167.5 57.4852 168.306 58.0986 168.952 59.144C169.598 60.1894 169.78 61.1749 169.451 62.298C169.145 63.3223 168.276 64.2624 166.843 65.1183Z" fill="black"/>
<path d="M204.034 72.7694L200.488 73.8731L205.598 89.6382C206.264 91.6945 206.266 93.354 205.696 94.6634C205.103 95.9044 204.007 96.7737 202.547 97.2281C200.948 97.7258 199.541 97.6355 198.304 96.8887C197.067 96.1418 196.162 94.7637 195.517 92.7759L183.277 55.0081C182.588 52.8833 182.564 51.1553 183.226 49.8927C183.888 48.6301 185.332 47.6526 187.487 46.9818L203.893 41.8748C206.118 41.1824 208.109 40.7136 209.753 40.3529C211.418 40.0609 213.011 40.0177 214.51 40.1549C216.262 40.3643 217.941 40.8226 219.523 41.6885C221.152 42.4642 222.522 43.6223 223.658 45.0041C224.795 46.3858 225.629 48.0129 226.206 49.795C227.384 53.4279 227.296 56.6999 225.921 59.5425C224.547 62.385 221.837 64.8884 217.908 67.1681C220.004 67.4965 222.139 68.4166 224.385 69.6794C226.584 71.0324 228.666 72.4972 230.676 74.2109C232.593 75.8777 234.166 77.4254 235.395 78.8541C236.693 80.2611 237.418 81.3182 237.618 81.9351C237.84 82.6205 237.832 83.3023 237.614 84.0491C237.397 84.7958 237.019 85.5173 236.365 86.098C235.803 86.7257 235.013 87.1224 234.04 87.4254C232.928 87.7716 231.866 87.8004 230.945 87.5586C230.003 87.2483 229.086 86.7793 228.285 86.1984C227.462 85.549 226.389 84.6001 224.905 83.3266L218.718 77.9329C216.481 75.9883 214.56 74.5487 213.025 73.5926C211.513 72.7051 210.043 72.1819 208.705 72.0699C207.368 71.958 205.841 72.2068 204.034 72.7694ZM203.117 50.3416L193.801 53.2413L198.178 66.7445L207.215 63.9313C209.649 63.1739 211.598 62.3408 213.133 61.4101C214.668 60.4795 215.698 59.4046 216.199 58.1167C216.791 56.8758 216.764 55.3751 216.187 53.5929C215.742 52.2221 215.017 51.165 213.989 50.3532C212.96 49.5415 211.72 49.0219 210.313 48.9316C208.976 48.8197 206.593 49.2596 203.117 50.3416Z" fill="black"/>
<path d="M275.017 76.8329L272.123 70.5224L250.928 71.7791L248.878 78.5269C248.025 81.1703 247.335 82.9398 246.736 83.8396C246.068 84.8156 245.003 85.3108 243.4 85.4058C242.089 85.4836 240.896 85.1222 239.812 84.1782C238.732 83.3059 238.152 82.2599 238.073 81.0402C238.027 80.3227 238.053 79.6009 238.298 78.8661C238.466 78.0639 238.765 77.0378 239.259 75.64L250.431 41.4864C250.735 40.5321 251.097 39.3582 251.592 37.9604C252.014 36.567 252.527 35.4562 253.049 34.4889C253.576 33.5934 254.331 32.8284 255.313 32.1939C256.228 31.6355 257.448 31.2751 258.904 31.1887C260.361 31.1024 261.618 31.3159 262.597 31.762C263.654 32.2756 264.502 32.9456 265.14 33.772C265.851 34.5941 266.421 35.4966 266.85 36.4795C267.352 37.4581 267.946 38.7193 268.708 40.3307L284.472 72.6711C285.727 75.1175 286.357 76.9528 286.432 78.1007C286.506 79.2487 286.07 80.4269 285.111 81.4201C284.156 82.4851 283.023 83.0564 281.567 83.1428C280.765 83.1903 280.028 83.09 279.427 82.8376C278.825 82.5851 278.292 82.2566 277.823 81.7803C277.426 81.2996 276.938 80.5363 276.359 79.4903C275.857 78.5117 275.432 77.6006 275.017 76.8329ZM253.19 63.7944L268.776 62.8702L259.541 42.1707L253.19 63.7944Z" fill="black"/>
<path d="M321.751 44.627L310.322 43.0797L305.282 80.1081C304.992 82.2444 304.272 83.7424 303.196 84.612C302.038 85.543 300.74 85.875 299.221 85.6693C297.702 85.4637 296.468 84.7889 295.601 83.5837C294.796 82.4595 294.512 80.7531 294.793 78.6881L299.833 41.6596L288.403 40.1122C286.595 39.8674 285.351 39.2639 284.59 38.3631C283.818 37.5335 283.53 36.4066 283.704 35.1248C283.879 33.8431 284.458 32.8337 285.505 32.1777C286.47 31.5831 287.83 31.3322 289.566 31.5672L322.914 36.082C324.722 36.3268 326.039 36.9402 326.8 37.841C327.561 38.7418 327.86 39.7975 327.685 41.0792C327.511 42.361 326.932 43.3703 325.967 43.9649C324.92 44.6209 323.559 44.8719 321.751 44.627Z" fill="black"/>
<path d="M323.536 83.9742L335.101 45.1075C335.696 43.1091 336.637 41.736 337.856 40.968C339.074 40.2 340.478 40.0855 341.949 40.5146C343.49 40.9642 344.537 41.794 345.21 43.1138C345.834 44.3443 345.873 46.0034 345.258 48.0708L333.693 86.9374C333.098 88.9359 332.136 90.3778 330.938 91.0769C329.65 91.8245 328.316 91.9595 326.775 91.5099C325.304 91.0807 324.257 90.2509 323.584 88.9311C322.981 87.6318 322.942 85.9726 323.536 83.9742Z" fill="black"/>
<path d="M365.14 55.6573L360.553 91.7737L386.595 65.6956C387.946 64.2675 388.945 63.3894 389.526 62.8691C390.106 62.3489 390.852 61.9878 391.763 61.7857C392.674 61.5836 393.655 61.7344 394.773 62.2696C395.561 62.6474 396.255 63.2191 396.721 63.9216C397.254 64.6556 397.494 65.489 397.571 66.3241C397.648 67.1592 397.528 67.8998 397.179 68.6106C396.956 69.0629 396.637 69.5484 396.251 70.0023C395.866 70.4563 395.449 70.9749 394.998 71.3974C394.579 71.7552 394.096 72.2423 393.645 72.6648L367.422 97.4588C366.456 98.433 365.456 99.3111 364.554 100.156C363.652 101.001 362.748 101.685 361.841 102.209C360.903 102.797 359.862 103.097 358.72 103.108C357.612 103.216 356.368 102.939 355.119 102.341C353.804 101.711 352.88 100.949 352.182 100.056C351.581 99.1298 351.176 98.1373 350.997 97.014C350.852 95.9867 350.836 94.8617 350.95 93.6389C351.063 92.4161 351.143 91.0973 351.32 89.7453L354.874 54.4108C354.93 53.7994 355.019 53.1234 355.076 52.512C355.132 51.9007 355.221 51.2246 355.375 50.5801C355.561 49.871 355.749 49.3226 355.939 48.9349C356.479 47.8364 357.349 47.056 358.714 46.5922C359.981 46.1614 361.32 46.2444 362.635 46.874C364.278 47.6611 365.141 48.7133 365.388 50.0289C365.569 51.3129 365.465 53.1786 365.14 55.6573Z" fill="black"/>
<path d="M432.645 101.503L414.288 86.4184L406.08 96.1201L422.977 110.005C424.212 111.02 424.933 112.08 425.028 113.092C425.179 114.151 424.91 115.144 424.164 116.026C423.417 116.908 422.428 117.403 421.4 117.493C420.316 117.537 419.128 117.029 417.893 116.014L400.996 102.129L391.481 113.374L410.456 128.966C411.747 130.027 412.468 131.087 412.629 132.246C412.78 133.305 412.464 134.354 411.624 135.346C410.832 136.283 409.842 136.778 408.758 136.822C407.571 136.875 406.384 136.366 405.093 135.305L382.974 117.13C381.178 115.654 380.269 114.253 380.136 112.835C380.003 111.418 380.683 109.827 382.129 108.118L407.221 78.4617C408.2 77.3041 409.162 76.5054 410.105 76.0655C411.104 75.6718 412.076 75.5358 413.085 75.8047C414.151 76.1198 415.189 76.6925 416.368 77.6612L437.869 95.329C439.16 96.39 439.881 97.4498 439.986 98.5636C440.193 99.6684 439.867 100.616 439.074 101.553C438.282 102.49 437.395 102.976 436.208 103.029C435.124 103.072 433.936 102.564 432.645 101.503Z" fill="black"/>
<path d="M448.359 185.296L452.854 179.997L442.4 161.754L435.336 162.859C432.546 163.248 430.627 163.403 429.541 163.261C428.356 163.092 427.436 162.362 426.646 160.983C425.999 159.855 425.806 158.64 426.192 157.27C426.515 155.935 427.216 154.968 428.296 154.37C428.931 154.018 429.602 153.729 430.381 153.628C431.187 153.429 432.256 153.25 433.75 153.083L469.859 148.194C470.864 148.05 472.096 147.863 473.59 147.696C475.048 147.466 476.288 147.44 477.401 147.484C478.451 147.563 479.481 147.901 480.492 148.497C481.404 149.066 482.269 149.991 482.987 151.245C483.705 152.499 484.062 153.705 484.084 154.767C484.079 155.926 483.839 156.967 483.364 157.891C482.926 158.878 482.351 159.774 481.642 160.58C480.968 161.449 480.076 162.521 478.939 163.894L456.312 191.874C454.628 194.046 453.228 195.4 452.212 195.963C451.195 196.526 449.928 196.65 448.599 196.23C447.207 195.845 446.188 195.088 445.469 193.834C445.074 193.145 444.842 192.447 444.808 191.805C444.775 191.163 444.841 190.548 445.07 189.925C445.335 189.366 445.818 188.602 446.52 187.636C447.193 186.767 447.839 185.996 448.359 185.296ZM450.688 160.3L458.376 173.717L473.233 156.566L450.688 160.3Z" fill="black"/>
<path d="M453.511 198.76L492.257 185.206C494.249 184.51 495.933 184.455 497.283 184.975C498.634 185.496 499.559 186.547 500.076 187.969C500.618 189.46 500.556 190.779 499.871 192.088C499.229 193.305 497.89 194.308 495.829 195.029L457.084 208.582C455.091 209.279 453.339 209.358 452.057 208.814C450.681 208.226 449.781 207.242 449.239 205.752C448.722 204.329 448.784 203.01 449.469 201.701C450.18 200.46 451.518 199.457 453.511 198.76Z" fill="black"/>
<path d="M491.195 206.28C493.412 205.845 495.775 206.114 498.354 207.075C500.933 208.035 503.213 209.714 505.267 212.098C507.32 214.482 508.674 217.444 509.414 221.039C510.096 224.352 510.061 227.439 509.368 230.216C508.602 233.006 507.364 235.303 505.508 237.134C503.638 238.895 501.422 240.063 498.919 240.555C496.988 240.934 495.127 240.932 493.451 240.381C491.861 239.887 490.385 239.223 489.008 238.32C487.718 237.473 485.523 235.85 482.368 233.536C481.493 232.901 480.719 232.393 480.045 232.012C479.457 231.687 478.884 231.433 478.34 231.32C477.852 231.122 477.394 231.065 476.865 231.023C476.406 230.966 475.591 230.979 474.388 230.922C471.869 230.976 470.363 229.805 469.899 227.55C469.652 226.351 469.878 225.28 470.491 224.28C471.118 223.35 472.175 222.702 473.749 222.393C475.68 222.014 477.455 221.959 479.002 222.242C480.563 222.596 482.01 223.118 483.286 223.895C484.562 224.671 486.125 225.757 487.975 227.154C489.567 228.382 490.786 229.243 491.561 229.751C492.335 230.259 493.238 230.669 494.112 230.937C495.072 231.262 495.973 231.305 496.903 231.122C498.763 230.757 500.192 229.743 501.203 228.151C502.215 226.559 502.496 224.67 502.046 222.485C501.524 219.947 500.503 218.241 498.969 217.295C497.435 216.35 495.301 215.742 492.623 215.387C489.817 215.131 488.225 213.904 487.775 211.719C487.514 210.45 487.711 209.238 488.467 208.209C489.208 207.11 490.122 206.491 491.195 206.28ZM456.381 230.57C456.091 229.16 456.273 227.878 456.986 226.638C457.698 225.398 458.884 224.651 460.529 224.328C462.031 224.034 463.349 224.288 464.553 225.079C465.772 225.939 466.519 227.039 466.824 228.52C467.129 230 466.875 231.297 466.076 232.48C465.278 233.664 464.164 234.396 462.662 234.691C461.017 235.014 459.628 234.773 458.48 233.898C457.333 233.024 456.657 231.909 456.381 230.57Z" fill="black"/>
<path d="M291.388 191.763C291.388 191.763 283.661 192.97 264.265 192.97C244.868 195.335 234.614 211.16 225.724 217.639H199.862C193.003 217.639 186.425 220.37 181.575 225.23C176.725 230.09 174 236.682 174 243.555V262.992C174 269.866 176.725 276.457 181.575 281.318C186.425 286.178 193.003 288.908 199.862 288.908H211.985C214.205 288.92 216.386 289.499 218.321 290.591C220.256 291.682 221.882 293.249 223.045 295.144C223.045 295.144 226.532 311.506 237.038 329.74C247.545 347.974 267.749 375.409 270.982 381.888C282.7 381.888 288.358 372.979 284.721 362.568C280.567 350.667 275.14 340.548 273.625 327.302C273.406 325.367 274.893 322.443 276.857 322.443L329.171 318.313" stroke="black" stroke-width="7" stroke-linecap="round" stroke-linejoin="round"/>
<path d="M337.023 294.176L298.729 294.906C289.156 295.577 283.412 299.428 283.412 305.847C283.412 312.266 290.113 316.365 298.729 316.788L337.023 318.247C345.448 318.247 352.341 312.266 352.341 305.847V305.785C352.32 302.7 350.696 299.748 347.826 297.573C344.956 295.397 341.072 294.176 337.023 294.176Z" stroke="black" stroke-width="7" stroke-miterlimit="10"/>
<path d="M343.389 271.2L296.74 271.918C289.243 272.219 283.412 276.373 283.412 282.688C283.412 289.01 289.243 293.049 296.74 293.458L343.389 294.176C346.921 294.167 350.304 292.953 352.802 290.801C355.299 288.648 356.707 285.732 356.718 282.688C356.707 279.644 355.299 276.727 352.802 274.575C350.304 272.423 346.921 271.209 343.389 271.2Z" stroke="black" stroke-width="7" stroke-miterlimit="10"/>
<path d="M315.112 188.685L291.963 191.993C284.395 193.348 280.705 196.761 281.268 202.298C281.831 207.834 287.458 211.203 293.851 210.552L317.16 208.818C320.239 208.497 323.082 207.134 325.068 205.026C327.054 202.919 328.021 200.238 327.759 197.569C327.479 194.903 325.992 192.472 323.622 190.807C321.252 189.142 318.193 188.38 315.112 188.685Z" stroke="black" stroke-width="7" stroke-miterlimit="10"/>
<path d="M341.181 228.529L301.136 229.179C293.211 229.452 287.788 233.206 287.788 238.923C287.788 244.64 293.211 248.291 301.136 248.668L341.181 249.317C344.718 249.31 348.108 248.212 350.609 246.264C353.11 244.317 354.519 241.677 354.529 238.923C354.519 236.169 353.11 233.53 350.609 231.582C348.108 229.634 344.718 228.537 341.181 228.529Z" stroke="black" stroke-width="7" stroke-miterlimit="10"/>
<path d="M345.339 249.317L301.355 250.001C292.65 250.288 286.694 254.241 286.694 260.259C286.694 266.276 292.65 270.119 301.355 270.516L345.339 271.2C349.224 271.192 352.947 270.036 355.694 267.986C358.441 265.936 359.989 263.158 360 260.259C359.989 257.359 358.441 254.581 355.694 252.531C352.947 250.481 349.224 249.326 345.339 249.317Z" stroke="black" stroke-width="7" stroke-miterlimit="10"/>
<path d="M330.303 208.708L295.193 210.595C288.249 211.102 283.618 214.755 283.812 220.051C284.006 225.348 288.887 228.556 295.853 228.651L331.008 227.967C334.111 227.847 337.047 226.721 339.175 224.836C341.304 222.952 342.451 220.461 342.366 217.909C342.264 215.358 340.938 212.957 338.678 211.233C336.417 209.509 333.406 208.601 330.303 208.708Z" stroke="black" stroke-width="7" stroke-miterlimit="10"/>
</g>
<defs>
<clipPath id="clip0_35_145">
<rect width="544" height="544" fill="white"/>
</clipPath>
</defs>
</svg>
