<svg width="443" height="445" viewBox="0 0 443 445" fill="none" xmlns="http://www.w3.org/2000/svg">
<rect width="443" height="445.009" rx="13" fill="#FFE141"/>
<path d="M40.96 127L38.8 43H55.72L56.8 98.32V113.8H59.2V98.32L60.16 43H89.44L90.4 98.32V113.8H92.8V98.32L93.88 43H110.8L108.64 127H77.68L75.88 72.04V56.2H73.48V72.04L71.92 127H40.96ZM138.174 128.2C126.894 128.2 121.134 123.52 118.614 116.44C117.294 112.72 116.814 108.52 116.814 85C116.814 61.48 117.294 57.28 118.614 53.56C121.134 46.48 126.894 41.8 138.174 41.8C149.454 41.8 155.214 46.48 157.734 53.56C159.054 57.28 159.534 61.48 159.534 85C159.534 108.52 159.054 112.72 157.734 116.44C155.214 123.52 149.454 128.2 138.174 128.2ZM136.614 85C136.614 110.8 136.734 112.12 136.974 112.84C137.214 113.56 137.574 113.8 138.174 113.8C138.774 113.8 139.134 113.56 139.374 112.84C139.614 112.12 139.734 110.8 139.734 85C139.734 59.2 139.614 57.88 139.374 57.16C139.134 56.44 138.774 56.2 138.174 56.2C137.574 56.2 137.214 56.44 136.974 57.16C136.734 57.88 136.614 59.2 136.614 85ZM167.903 127V43H190.223C198.023 43 203.903 45.52 206.903 50.8C209.663 55.48 209.663 59.8 209.663 67.24C209.663 73.6 209.423 77.08 207.023 81.28C205.103 84.64 201.983 86.56 198.503 87.64V89.44L208.223 91.96L211.343 127H191.063L189.383 96.52H187.103V127H167.903ZM187.103 79C188.423 79 188.783 78.88 189.383 77.92C189.863 76.96 189.983 75.16 189.983 67.24C189.983 58.72 189.863 57.88 189.503 57.28C189.143 56.68 188.543 56.2 187.583 56.2H187.103V79ZM218.613 127V43H237.813V59.44L231.573 83.8H233.733L245.973 43H266.853L251.613 81.64L266.373 127H245.853L239.493 103.48L237.813 108.04V127H218.613ZM274.009 127V43H307.369V61H293.209V76H306.169V94H293.209V109H307.369V127H274.009ZM314.523 127V43H336.843C344.643 43 350.523 45.52 353.523 50.8C356.283 55.48 356.283 59.8 356.283 67.24C356.283 73.6 356.043 77.08 353.643 81.28C351.723 84.64 348.603 86.56 345.123 87.64V89.44L354.843 91.96L357.963 127H337.683L336.003 96.52H333.723V127H314.523ZM333.723 79C335.043 79 335.403 78.88 336.003 77.92C336.483 76.96 336.603 75.16 336.603 67.24C336.603 58.72 336.483 57.88 336.123 57.28C335.763 56.68 335.163 56.2 334.203 56.2H333.723V79ZM385.393 128.2C371.113 128.2 364.633 121.96 364.633 107.56V98.08H383.833V112.12C383.833 113.32 384.433 113.8 385.273 113.8C385.873 113.8 386.113 113.68 386.353 113.2C386.713 112.48 386.833 108.76 386.833 104.08C386.833 98.32 386.473 98.2 385.993 97.36C385.393 96.28 384.433 95.44 382.993 94.84L375.913 92.08C372.073 90.64 369.553 88.24 367.993 85.6C365.713 81.64 365.593 79.84 365.593 68.32C365.593 57.4 365.713 54.4 368.113 50.2C371.233 44.8 377.353 41.8 386.593 41.8C400.873 41.8 407.113 48.16 407.113 62.56V71.92H387.913V57.88C387.913 56.68 387.553 56.2 386.713 56.2C386.113 56.2 385.873 56.32 385.633 56.8C385.273 57.52 385.153 61.6 385.153 64.96C385.153 70.36 385.513 71.44 385.993 72.28C386.593 73.36 387.553 74.2 388.993 74.8L396.433 78.04C399.793 79.48 402.433 81.76 403.993 84.4C406.273 88.36 406.393 90.16 406.393 101.68C406.393 112.72 406.273 115.72 403.873 119.92C400.753 125.32 394.633 128.2 385.393 128.2ZM47.126 255V187.9H37.61V169.6H76.162V187.9H66.646V255H47.126ZM103.999 256.22C92.531 256.22 86.675 251.462 84.113 244.264C82.771 240.482 82.283 236.212 82.283 212.3C82.283 188.388 82.771 184.118 84.113 180.336C86.675 173.138 92.531 168.38 103.999 168.38C115.467 168.38 121.323 173.138 123.885 180.336C125.227 184.118 125.715 188.388 125.715 212.3C125.715 236.212 125.227 240.482 123.885 244.264C121.323 251.462 115.467 256.22 103.999 256.22ZM102.413 212.3C102.413 238.53 102.535 239.872 102.779 240.604C103.023 241.336 103.389 241.58 103.999 241.58C104.609 241.58 104.975 241.336 105.219 240.604C105.463 239.872 105.585 238.53 105.585 212.3C105.585 186.07 105.463 184.728 105.219 183.996C104.975 183.264 104.609 183.02 103.999 183.02C103.389 183.02 103.023 183.264 102.779 183.996C102.535 184.728 102.413 186.07 102.413 212.3ZM147.034 256.22C142.154 256.22 137.274 254.024 134.834 246.704C133.614 242.922 133.004 238.53 133.004 212.056C133.004 188.388 133.492 184.118 134.834 180.336C137.396 173.138 143.252 168.38 154.842 168.38C171.556 168.38 176.314 178.262 176.314 193.512V201.564H156.062V185.704C156.062 183.996 155.818 183.02 154.72 183.02C154.11 183.02 153.744 183.264 153.5 183.996C153.256 184.728 153.134 186.436 153.134 212.056C153.134 236.578 153.256 238.286 153.5 239.018C153.744 239.75 154.232 240.36 155.452 240.36C157.282 240.36 157.77 239.14 157.77 237.554V225.964H155.94V208.884H176.07V255H158.99L163.382 242.312H160.942C157.038 253.658 152.28 256.22 147.034 256.22ZM185.182 255V169.6H219.098V187.9H204.702V203.15H217.878V221.45H204.702V236.7H219.098V255H185.182ZM234.043 255V187.9H224.527V169.6H263.079V187.9H253.563V255H234.043ZM292.868 255V221.45H289.94V255H270.42V169.6H289.94V203.15H292.868V169.6H312.388V255H292.868ZM322.094 255V169.6H356.01V187.9H341.614V203.15H354.79V221.45H341.614V236.7H356.01V255H322.094ZM363.283 255V169.6H385.975C393.905 169.6 399.883 172.162 402.933 177.53C405.739 182.288 405.739 186.68 405.739 194.244C405.739 200.71 405.495 204.248 403.055 208.518C401.103 211.934 397.931 213.886 394.393 214.984V216.814L404.275 219.376L407.447 255H386.829L385.121 224.012H382.803V255H363.283ZM382.803 206.2C384.145 206.2 384.511 206.078 385.121 205.102C385.609 204.126 385.731 202.296 385.731 194.244C385.731 185.582 385.609 184.728 385.243 184.118C384.877 183.508 384.267 183.02 383.291 183.02H382.803V206.2ZM65.757 409.49C48.026 409.49 39.98 401.742 39.98 383.862V372.091H63.82V389.524C63.82 391.014 64.565 391.61 65.608 391.61C66.353 391.61 66.651 391.461 66.949 390.865C67.396 389.971 67.545 385.352 67.545 379.541C67.545 372.389 67.098 372.24 66.502 371.197C65.757 369.856 64.565 368.813 62.777 368.068L53.986 364.641C49.218 362.853 46.089 359.873 44.152 356.595C41.321 351.678 41.172 349.443 41.172 335.139C41.172 321.58 41.321 317.855 44.301 312.64C48.175 305.935 55.774 302.21 67.247 302.21C84.978 302.21 92.726 310.107 92.726 327.987V339.609H68.886V322.176C68.886 320.686 68.439 320.09 67.396 320.09C66.651 320.09 66.353 320.239 66.055 320.835C65.608 321.729 65.459 326.795 65.459 330.967C65.459 337.672 65.906 339.013 66.502 340.056C67.247 341.397 68.439 342.44 70.227 343.185L79.465 347.208C83.637 348.996 86.915 351.827 88.852 355.105C91.683 360.022 91.832 362.257 91.832 376.561C91.832 390.269 91.683 393.994 88.703 399.209C84.829 405.914 77.23 409.49 65.757 409.49ZM111.022 408V326.05H99.3996V303.7H146.484V326.05H134.862V408H111.022ZM155.449 408V303.7H183.163C192.848 303.7 200.149 306.829 203.874 313.385C207.301 319.196 207.301 324.56 207.301 333.798C207.301 341.695 207.003 346.016 204.023 351.231C201.639 355.403 197.765 357.787 193.444 359.128V361.363L205.513 364.492L209.387 408H184.206L182.12 370.154H179.289V408H155.449ZM179.289 348.4C180.928 348.4 181.375 348.251 182.12 347.059C182.716 345.867 182.865 343.632 182.865 333.798C182.865 323.219 182.716 322.176 182.269 321.431C181.822 320.686 181.077 320.09 179.885 320.09H179.289V348.4ZM243.445 409.49C229.439 409.49 222.287 403.679 219.158 394.888C217.519 390.269 216.923 385.054 216.923 355.85C216.923 326.646 217.519 321.431 219.158 316.812C222.287 308.021 229.439 302.21 243.445 302.21C257.451 302.21 264.603 308.021 267.732 316.812C269.371 321.431 269.967 326.646 269.967 355.85C269.967 385.054 269.371 390.269 267.732 394.888C264.603 403.679 257.451 409.49 243.445 409.49ZM241.508 355.85C241.508 387.885 241.657 389.524 241.955 390.418C242.253 391.312 242.7 391.61 243.445 391.61C244.19 391.61 244.637 391.312 244.935 390.418C245.233 389.524 245.382 387.885 245.382 355.85C245.382 323.815 245.233 322.176 244.935 321.282C244.637 320.388 244.19 320.09 243.445 320.09C242.7 320.09 242.253 320.388 241.955 321.282C241.657 322.176 241.508 323.815 241.508 355.85ZM280.359 408V303.7H316.417L318.95 328.881L319.695 391.61H322.675V303.7H343.535V408H307.328L304.646 382.521L304.199 320.09H301.219V408H280.359ZM371.045 409.49C365.085 409.49 359.125 406.808 356.145 397.868C354.655 393.249 353.91 387.885 353.91 355.552C353.91 326.646 354.506 321.431 356.145 316.812C359.274 308.021 366.426 302.21 380.581 302.21C400.994 302.21 406.805 314.279 406.805 332.904V342.738H382.071V323.368C382.071 321.282 381.773 320.09 380.432 320.09C379.687 320.09 379.24 320.388 378.942 321.282C378.644 322.176 378.495 324.262 378.495 355.552C378.495 385.501 378.644 387.587 378.942 388.481C379.24 389.375 379.836 390.12 381.326 390.12C383.561 390.12 384.157 388.63 384.157 386.693V372.538H381.922V351.678H406.507V408H385.647L391.011 392.504H388.031C383.263 406.361 377.452 409.49 371.045 409.49Z" fill="#EFB00D"/>
<path d="M38.96 124L36.8 40H53.72L54.8 95.32V110.8H57.2V95.32L58.16 40H87.44L88.4 95.32V110.8H90.8V95.32L91.88 40H108.8L106.64 124H75.68L73.88 69.04V53.2H71.48V69.04L69.92 124H38.96ZM136.174 125.2C124.894 125.2 119.134 120.52 116.614 113.44C115.294 109.72 114.814 105.52 114.814 82C114.814 58.48 115.294 54.28 116.614 50.56C119.134 43.48 124.894 38.8 136.174 38.8C147.454 38.8 153.214 43.48 155.734 50.56C157.054 54.28 157.534 58.48 157.534 82C157.534 105.52 157.054 109.72 155.734 113.44C153.214 120.52 147.454 125.2 136.174 125.2ZM134.614 82C134.614 107.8 134.734 109.12 134.974 109.84C135.214 110.56 135.574 110.8 136.174 110.8C136.774 110.8 137.134 110.56 137.374 109.84C137.614 109.12 137.734 107.8 137.734 82C137.734 56.2 137.614 54.88 137.374 54.16C137.134 53.44 136.774 53.2 136.174 53.2C135.574 53.2 135.214 53.44 134.974 54.16C134.734 54.88 134.614 56.2 134.614 82ZM165.903 124V40H188.223C196.023 40 201.903 42.52 204.903 47.8C207.663 52.48 207.663 56.8 207.663 64.24C207.663 70.6 207.423 74.08 205.023 78.28C203.103 81.64 199.983 83.56 196.503 84.64V86.44L206.223 88.96L209.343 124H189.063L187.383 93.52H185.103V124H165.903ZM185.103 76C186.423 76 186.783 75.88 187.383 74.92C187.863 73.96 187.983 72.16 187.983 64.24C187.983 55.72 187.863 54.88 187.503 54.28C187.143 53.68 186.543 53.2 185.583 53.2H185.103V76ZM216.613 124V40H235.813V56.44L229.573 80.8H231.733L243.973 40H264.853L249.613 78.64L264.373 124H243.853L237.493 100.48L235.813 105.04V124H216.613ZM272.009 124V40H305.369V58H291.209V73H304.169V91H291.209V106H305.369V124H272.009ZM312.523 124V40H334.843C342.643 40 348.523 42.52 351.523 47.8C354.283 52.48 354.283 56.8 354.283 64.24C354.283 70.6 354.043 74.08 351.643 78.28C349.723 81.64 346.603 83.56 343.123 84.64V86.44L352.843 88.96L355.963 124H335.683L334.003 93.52H331.723V124H312.523ZM331.723 76C333.043 76 333.403 75.88 334.003 74.92C334.483 73.96 334.603 72.16 334.603 64.24C334.603 55.72 334.483 54.88 334.123 54.28C333.763 53.68 333.163 53.2 332.203 53.2H331.723V76ZM383.393 125.2C369.113 125.2 362.633 118.96 362.633 104.56V95.08H381.833V109.12C381.833 110.32 382.433 110.8 383.273 110.8C383.873 110.8 384.113 110.68 384.353 110.2C384.713 109.48 384.833 105.76 384.833 101.08C384.833 95.32 384.473 95.2 383.993 94.36C383.393 93.28 382.433 92.44 380.993 91.84L373.913 89.08C370.073 87.64 367.553 85.24 365.993 82.6C363.713 78.64 363.593 76.84 363.593 65.32C363.593 54.4 363.713 51.4 366.113 47.2C369.233 41.8 375.353 38.8 384.593 38.8C398.873 38.8 405.113 45.16 405.113 59.56V68.92H385.913V54.88C385.913 53.68 385.553 53.2 384.713 53.2C384.113 53.2 383.873 53.32 383.633 53.8C383.273 54.52 383.153 58.6 383.153 61.96C383.153 67.36 383.513 68.44 383.993 69.28C384.593 70.36 385.553 71.2 386.993 71.8L394.433 75.04C397.793 76.48 400.433 78.76 401.993 81.4C404.273 85.36 404.393 87.16 404.393 98.68C404.393 109.72 404.273 112.72 401.873 116.92C398.753 122.32 392.633 125.2 383.393 125.2ZM45.126 252V184.9H35.61V166.6H74.162V184.9H64.646V252H45.126ZM101.999 253.22C90.531 253.22 84.675 248.462 82.113 241.264C80.771 237.482 80.283 233.212 80.283 209.3C80.283 185.388 80.771 181.118 82.113 177.336C84.675 170.138 90.531 165.38 101.999 165.38C113.467 165.38 119.323 170.138 121.885 177.336C123.227 181.118 123.715 185.388 123.715 209.3C123.715 233.212 123.227 237.482 121.885 241.264C119.323 248.462 113.467 253.22 101.999 253.22ZM100.413 209.3C100.413 235.53 100.535 236.872 100.779 237.604C101.023 238.336 101.389 238.58 101.999 238.58C102.609 238.58 102.975 238.336 103.219 237.604C103.463 236.872 103.585 235.53 103.585 209.3C103.585 183.07 103.463 181.728 103.219 180.996C102.975 180.264 102.609 180.02 101.999 180.02C101.389 180.02 101.023 180.264 100.779 180.996C100.535 181.728 100.413 183.07 100.413 209.3ZM145.034 253.22C140.154 253.22 135.274 251.024 132.834 243.704C131.614 239.922 131.004 235.53 131.004 209.056C131.004 185.388 131.492 181.118 132.834 177.336C135.396 170.138 141.252 165.38 152.842 165.38C169.556 165.38 174.314 175.262 174.314 190.512V198.564H154.062V182.704C154.062 180.996 153.818 180.02 152.72 180.02C152.11 180.02 151.744 180.264 151.5 180.996C151.256 181.728 151.134 183.436 151.134 209.056C151.134 233.578 151.256 235.286 151.5 236.018C151.744 236.75 152.232 237.36 153.452 237.36C155.282 237.36 155.77 236.14 155.77 234.554V222.964H153.94V205.884H174.07V252H156.99L161.382 239.312H158.942C155.038 250.658 150.28 253.22 145.034 253.22ZM183.182 252V166.6H217.098V184.9H202.702V200.15H215.878V218.45H202.702V233.7H217.098V252H183.182ZM232.043 252V184.9H222.527V166.6H261.079V184.9H251.563V252H232.043ZM290.868 252V218.45H287.94V252H268.42V166.6H287.94V200.15H290.868V166.6H310.388V252H290.868ZM320.094 252V166.6H354.01V184.9H339.614V200.15H352.79V218.45H339.614V233.7H354.01V252H320.094ZM361.283 252V166.6H383.975C391.905 166.6 397.883 169.162 400.933 174.53C403.739 179.288 403.739 183.68 403.739 191.244C403.739 197.71 403.495 201.248 401.055 205.518C399.103 208.934 395.931 210.886 392.393 211.984V213.814L402.275 216.376L405.447 252H384.829L383.121 221.012H380.803V252H361.283ZM380.803 203.2C382.145 203.2 382.511 203.078 383.121 202.102C383.609 201.126 383.731 199.296 383.731 191.244C383.731 182.582 383.609 181.728 383.243 181.118C382.877 180.508 382.267 180.02 381.291 180.02H380.803V203.2ZM63.757 406.49C46.026 406.49 37.98 398.742 37.98 380.862V369.091H61.82V386.524C61.82 388.014 62.565 388.61 63.608 388.61C64.353 388.61 64.651 388.461 64.949 387.865C65.396 386.971 65.545 382.352 65.545 376.541C65.545 369.389 65.098 369.24 64.502 368.197C63.757 366.856 62.565 365.813 60.777 365.068L51.986 361.641C47.218 359.853 44.089 356.873 42.152 353.595C39.321 348.678 39.172 346.443 39.172 332.139C39.172 318.58 39.321 314.855 42.301 309.64C46.175 302.935 53.774 299.21 65.247 299.21C82.978 299.21 90.726 307.107 90.726 324.987V336.609H66.886V319.176C66.886 317.686 66.439 317.09 65.396 317.09C64.651 317.09 64.353 317.239 64.055 317.835C63.608 318.729 63.459 323.795 63.459 327.967C63.459 334.672 63.906 336.013 64.502 337.056C65.247 338.397 66.439 339.44 68.227 340.185L77.465 344.208C81.637 345.996 84.915 348.827 86.852 352.105C89.683 357.022 89.832 359.257 89.832 373.561C89.832 387.269 89.683 390.994 86.703 396.209C82.829 402.914 75.23 406.49 63.757 406.49ZM109.022 405V323.05H97.3996V300.7H144.484V323.05H132.862V405H109.022ZM153.449 405V300.7H181.163C190.848 300.7 198.149 303.829 201.874 310.385C205.301 316.196 205.301 321.56 205.301 330.798C205.301 338.695 205.003 343.016 202.023 348.231C199.639 352.403 195.765 354.787 191.444 356.128V358.363L203.513 361.492L207.387 405H182.206L180.12 367.154H177.289V405H153.449ZM177.289 345.4C178.928 345.4 179.375 345.251 180.12 344.059C180.716 342.867 180.865 340.632 180.865 330.798C180.865 320.219 180.716 319.176 180.269 318.431C179.822 317.686 179.077 317.09 177.885 317.09H177.289V345.4ZM241.445 406.49C227.439 406.49 220.287 400.679 217.158 391.888C215.519 387.269 214.923 382.054 214.923 352.85C214.923 323.646 215.519 318.431 217.158 313.812C220.287 305.021 227.439 299.21 241.445 299.21C255.451 299.21 262.603 305.021 265.732 313.812C267.371 318.431 267.967 323.646 267.967 352.85C267.967 382.054 267.371 387.269 265.732 391.888C262.603 400.679 255.451 406.49 241.445 406.49ZM239.508 352.85C239.508 384.885 239.657 386.524 239.955 387.418C240.253 388.312 240.7 388.61 241.445 388.61C242.19 388.61 242.637 388.312 242.935 387.418C243.233 386.524 243.382 384.885 243.382 352.85C243.382 320.815 243.233 319.176 242.935 318.282C242.637 317.388 242.19 317.09 241.445 317.09C240.7 317.09 240.253 317.388 239.955 318.282C239.657 319.176 239.508 320.815 239.508 352.85ZM278.359 405V300.7H314.417L316.95 325.881L317.695 388.61H320.675V300.7H341.535V405H305.328L302.646 379.521L302.199 317.09H299.219V405H278.359ZM369.045 406.49C363.085 406.49 357.125 403.808 354.145 394.868C352.655 390.249 351.91 384.885 351.91 352.552C351.91 323.646 352.506 318.431 354.145 313.812C357.274 305.021 364.426 299.21 378.581 299.21C398.994 299.21 404.805 311.279 404.805 329.904V339.738H380.071V320.368C380.071 318.282 379.773 317.09 378.432 317.09C377.687 317.09 377.24 317.388 376.942 318.282C376.644 319.176 376.495 321.262 376.495 352.552C376.495 382.501 376.644 384.587 376.942 385.481C377.24 386.375 377.836 387.12 379.326 387.12C381.561 387.12 382.157 385.63 382.157 383.693V369.538H379.922V348.678H404.507V405H383.647L389.011 389.504H386.031C381.263 403.361 375.452 406.49 369.045 406.49Z" fill="#221A04"/>
<path d="M37 149H407" stroke="#EFB00D" stroke-width="13"/>
<path d="M35 146H405" stroke="#221A04" stroke-width="13"/>
<path d="M37 280H407" stroke="#EFB00D" stroke-width="13"/>
<path d="M35 277H405" stroke="#221A04" stroke-width="13"/>
</svg>
