<svg width="284" height="117" viewBox="0 0 284 117" fill="none" xmlns="http://www.w3.org/2000/svg">
<path d="M102.952 1.5L246.18 1.5C263.364 1.5 275.209 18.7301 269.055 34.7744L250.43 83.3311C247.19 91.7778 239.078 97.3535 230.031 97.3535L228.11 97.3535C220.869 97.3536 214.123 101.029 210.196 107.113C206.822 112.341 201.025 115.5 194.803 115.5L49.8848 115.5C39.1912 115.5 29.7325 108.564 26.5176 98.3652L12.0898 52.5957C7.1132 36.8075 18.903 20.7305 35.457 20.7305L74.5566 20.7305C81.4237 20.7305 87.5988 16.5484 90.1475 10.1719C92.2407 4.93468 97.3121 1.5 102.952 1.5Z" fill="#FF0055" stroke="#80002B" stroke-width="3"/>
<path d="M229.774 61L238.054 83.68L229.666 83.68L227.758 78.496L230.458 78.496L229.198 75.004L227.002 75.004L225.202 70.036L227.398 70.036L224.086 61L229.774 61ZM215.776 60.64C219.016 60.64 220.888 62.368 222.148 65.824L225.28 74.428C225.964 76.336 226.144 77.308 226.144 78.676C226.144 82.024 223.984 84.04 220.672 84.04C217.432 84.04 215.56 82.312 214.3 78.856L211.168 70.252C210.484 68.344 210.304 67.372 210.304 66.004C210.304 62.656 212.464 60.64 215.776 60.64ZM220.852 78.28C220.852 78.1 220.816 77.812 220.564 77.128L216.892 66.976C216.568 66.076 216.388 65.824 216.064 65.824C215.74 65.824 215.596 66.04 215.596 66.4C215.596 66.58 215.632 66.868 215.884 67.552L219.556 77.704C219.88 78.604 220.06 78.856 220.384 78.856C220.708 78.856 220.852 78.64 220.852 78.28ZM206.379 61L214.623 83.68L207.891 83.68C204.327 83.68 201.519 82.672 200.187 79.036L199.899 78.244C199.215 76.336 199.791 73.636 201.555 72.808L201.447 72.52C199.719 71.908 198.855 71.08 197.631 68.956L196.011 66.184L195.111 66.184L193.239 61L196.155 61C198.783 61 199.971 61.72 200.907 64.276L202.455 68.524C202.851 69.64 203.139 69.964 203.643 70.036L203.967 70.036L200.691 61L206.379 61ZM207.099 78.64L205.479 74.212L205.191 74.212C204.687 74.212 204.399 74.536 204.903 75.94L205.479 77.524C205.731 78.208 206.091 78.64 206.703 78.64L207.099 78.64ZM171.425 61L177.249 76.872L179.425 76.872L173.601 61L183.713 61L198.433 101.32L188.321 101.32L182.753 86.088L180.577 86.088L186.145 101.32L176.033 101.32L161.313 61L171.425 61ZM150.448 60.36C156.208 60.36 159.6 63.432 161.84 69.576L173.36 101.32L163.248 101.32L152.496 71.624C151.92 70.024 151.6 69.576 151.024 69.576C150.448 69.576 150.192 69.96 150.192 70.6C150.192 70.92 150.256 71.432 150.704 72.648L161.136 101.32L151.024 101.32L142.384 77.448C141.168 73.992 140.784 72.264 140.784 69.832C140.784 63.944 144.624 60.36 150.448 60.36ZM122.547 61L136.563 90.568L137.139 90.568C134.515 84.36 130.611 74.824 128.755 69.896L125.427 61L133.683 61L148.403 101.32L134.835 101.32L127.603 84.936L127.091 84.936L131.891 101.32L117.363 101.32L102.643 61L112.179 61L115.379 69.896C117.171 74.952 120.115 84.232 122.099 90.568L122.547 90.568L115.059 61L122.547 61ZM100.945 61L112.081 101.32L95.6331 101.32L77.3291 61L87.2491 61L91.9211 72.136L94.6731 72.136L91.2171 61L100.945 61ZM101.457 93.768L98.1931 83.4L97.5531 81.352L95.7611 81.352L96.5931 83.272L100.945 93.768L101.457 93.768ZM65.4161 61L78.7921 90.568L79.3041 90.568C76.5521 83.656 73.9281 77.064 71.4961 70.536L67.9121 61L75.5281 61L90.2482 101.32L76.2322 101.32L62.8561 71.752L62.3441 71.752C65.0961 78.664 67.7201 85.256 70.1521 91.784L73.7362 101.32L66.1202 101.32L51.4001 61L65.4161 61ZM40.9611 60.36C46.7211 60.36 50.0491 63.304 52.2891 69.576L53.4411 72.776L43.9051 74.12L42.8811 71.304C42.3051 69.704 41.9851 69.256 41.4091 69.256C40.8331 69.256 40.5771 69.64 40.5771 70.28C40.5771 77.384 59.3931 77.704 59.3931 92.424C59.3931 98.376 55.8091 101.96 49.6651 101.96C43.9051 101.96 40.6411 99.08 38.3371 92.744L37.2491 89.736L46.6571 88.392L47.6171 91.016C48.1931 92.616 48.5131 93.064 49.0891 93.064C49.6651 93.064 49.9211 92.68 49.9211 92.04C49.9211 84.936 31.2331 84.616 31.2331 69.896C31.2331 63.944 35.0731 60.36 40.9611 60.36Z" fill="#80002B"/>
<path d="M229.774 63L238.054 85.68L229.666 85.68L227.758 80.496L230.458 80.496L229.198 77.004L227.002 77.004L225.202 72.036L227.398 72.036L224.086 63L229.774 63ZM215.776 62.64C219.016 62.64 220.888 64.368 222.148 67.824L225.28 76.428C225.964 78.336 226.144 79.308 226.144 80.676C226.144 84.024 223.984 86.04 220.672 86.04C217.432 86.04 215.56 84.312 214.3 80.856L211.168 72.252C210.484 70.344 210.304 69.372 210.304 68.004C210.304 64.656 212.464 62.64 215.776 62.64ZM220.852 80.28C220.852 80.1 220.816 79.812 220.564 79.128L216.892 68.976C216.568 68.076 216.388 67.824 216.064 67.824C215.74 67.824 215.596 68.04 215.596 68.4C215.596 68.58 215.632 68.868 215.884 69.552L219.556 79.704C219.88 80.604 220.06 80.856 220.384 80.856C220.708 80.856 220.852 80.64 220.852 80.28ZM206.379 63L214.623 85.68L207.891 85.68C204.327 85.68 201.519 84.672 200.187 81.036L199.899 80.244C199.215 78.336 199.791 75.636 201.555 74.808L201.447 74.52C199.719 73.908 198.855 73.08 197.631 70.956L196.011 68.184L195.111 68.184L193.239 63L196.155 63C198.783 63 199.971 63.72 200.907 66.276L202.455 70.524C202.851 71.64 203.139 71.964 203.643 72.036L203.967 72.036L200.691 63L206.379 63ZM207.099 80.64L205.479 76.212L205.191 76.212C204.687 76.212 204.399 76.536 204.903 77.94L205.479 79.524C205.731 80.208 206.091 80.64 206.703 80.64L207.099 80.64ZM171.425 63L177.249 78.872L179.425 78.872L173.601 63L183.713 63L198.433 103.32L188.321 103.32L182.753 88.088L180.577 88.088L186.145 103.32L176.033 103.32L161.313 63L171.425 63ZM150.448 62.36C156.208 62.36 159.6 65.432 161.84 71.576L173.36 103.32L163.248 103.32L152.496 73.624C151.92 72.024 151.6 71.576 151.024 71.576C150.448 71.576 150.192 71.96 150.192 72.6C150.192 72.92 150.256 73.432 150.704 74.648L161.136 103.32L151.024 103.32L142.384 79.448C141.168 75.992 140.784 74.264 140.784 71.832C140.784 65.944 144.624 62.36 150.448 62.36ZM122.547 63L136.563 92.568L137.139 92.568C134.515 86.36 130.611 76.824 128.755 71.896L125.427 63L133.683 63L148.403 103.32L134.835 103.32L127.603 86.936L127.091 86.936L131.891 103.32L117.363 103.32L102.643 63L112.179 63L115.379 71.896C117.171 76.952 120.115 86.232 122.099 92.568L122.547 92.568L115.059 63L122.547 63ZM100.945 63L112.081 103.32L95.6331 103.32L77.3291 63L87.2491 63L91.9211 74.136L94.6731 74.136L91.2171 63L100.945 63ZM101.457 95.768L98.1931 85.4L97.5531 83.352L95.7611 83.352L96.5931 85.272L100.945 95.768L101.457 95.768ZM65.4161 63L78.7921 92.568L79.3041 92.568C76.5521 85.656 73.9281 79.064 71.4961 72.536L67.9121 63L75.5281 63L90.2482 103.32L76.2322 103.32L62.8561 73.752L62.3441 73.752C65.0961 80.664 67.7201 87.256 70.1521 93.784L73.7362 103.32L66.1202 103.32L51.4001 63L65.4161 63ZM40.9611 62.36C46.7211 62.36 50.0491 65.304 52.2891 71.576L53.4411 74.776L43.9051 76.12L42.8811 73.304C42.3051 71.704 41.9851 71.256 41.4091 71.256C40.8331 71.256 40.5771 71.64 40.5771 72.28C40.5771 79.384 59.3931 79.704 59.3931 94.424C59.3931 100.376 55.8091 103.96 49.6651 103.96C43.9051 103.96 40.6411 101.08 38.3371 94.744L37.2491 91.736L46.6571 90.392L47.6171 93.016C48.1931 94.616 48.5131 95.064 49.0891 95.064C49.6651 95.064 49.9211 94.68 49.9211 94.04C49.9211 86.936 31.2331 86.616 31.2331 71.896C31.2331 65.944 35.0731 62.36 40.9611 62.36Z" fill="white"/>
<path d="M229.774 63L230.244 62.8285L230.124 62.5L229.774 62.5L229.774 63ZM238.054 85.68L238.054 86.18L238.769 86.18L238.524 85.5085L238.054 85.68ZM229.666 85.68L229.197 85.8527L229.318 86.18L229.666 86.18L229.666 85.68ZM227.758 80.496L227.758 79.996L227.042 79.996L227.289 80.6687L227.758 80.496ZM230.458 80.496L230.458 80.996L231.17 80.996L230.929 80.3263L230.458 80.496ZM229.198 77.004L229.669 76.8343L229.549 76.504L229.198 76.504L229.198 77.004ZM227.002 77.004L226.532 77.1743L226.652 77.504L227.002 77.504L227.002 77.004ZM225.202 72.036L225.202 71.536L224.489 71.536L224.732 72.2063L225.202 72.036ZM227.398 72.036L227.398 72.536L228.114 72.536L227.868 71.8639L227.398 72.036ZM224.086 63L224.086 62.5L223.371 62.5L223.617 63.1721L224.086 63ZM229.774 63L229.305 63.1715L237.585 85.8515L238.054 85.68L238.524 85.5085L230.244 62.8285L229.774 63ZM238.054 85.68L238.054 85.18L229.666 85.18L229.666 85.68L229.666 86.18L238.054 86.18L238.054 85.68ZM229.666 85.68L230.136 85.5073L228.228 80.3233L227.758 80.496L227.289 80.6687L229.197 85.8527L229.666 85.68ZM227.758 80.496L227.758 80.996L230.458 80.996L230.458 80.496L230.458 79.996L227.758 79.996L227.758 80.496ZM230.458 80.496L230.929 80.3263L229.669 76.8343L229.198 77.004L228.728 77.1737L229.988 80.6657L230.458 80.496ZM229.198 77.004L229.198 76.504L227.002 76.504L227.002 77.004L227.002 77.504L229.198 77.504L229.198 77.004ZM227.002 77.004L227.472 76.8337L225.672 71.8657L225.202 72.036L224.732 72.2063L226.532 77.1743L227.002 77.004ZM225.202 72.036L225.202 72.536L227.398 72.536L227.398 72.036L227.398 71.536L225.202 71.536L225.202 72.036ZM227.398 72.036L227.868 71.8639L224.556 62.8279L224.086 63L223.617 63.1721L226.929 72.2081L227.398 72.036ZM224.086 63L224.086 63.5L229.774 63.5L229.774 63L229.774 62.5L224.086 62.5L224.086 63ZM222.148 67.824L222.618 67.653L222.618 67.6527L222.148 67.824ZM225.28 76.428L225.751 76.2593L225.75 76.257L225.28 76.428ZM214.3 80.856L213.83 81.027L213.831 81.0273L214.3 80.856ZM211.168 72.252L210.698 72.4207L210.698 72.423L211.168 72.252ZM220.564 79.128L220.094 79.2981L220.095 79.3009L220.564 79.128ZM216.892 68.976L216.422 69.1454L216.422 69.1461L216.892 68.976ZM215.884 69.552L216.354 69.3819L216.353 69.3792L215.884 69.552ZM219.556 79.704L220.027 79.5346L220.026 79.5339L219.556 79.704ZM215.776 62.64L215.776 63.14C217.3 63.14 218.458 63.5431 219.384 64.3192C220.321 65.105 221.064 66.3107 221.679 67.9953L222.148 67.824L222.618 67.6527C221.972 65.8813 221.15 64.495 220.026 63.5529C218.891 62.6009 217.493 62.14 215.776 62.14L215.776 62.64ZM222.148 67.824L221.678 67.995L224.81 76.599L225.28 76.428L225.75 76.257L222.618 67.653L222.148 67.824ZM225.28 76.428L224.81 76.5967C225.48 78.4679 225.644 79.3814 225.644 80.676L226.144 80.676L226.644 80.676C226.644 79.2346 226.448 78.2041 225.751 76.2593L225.28 76.428ZM226.144 80.676L225.644 80.676C225.644 82.2395 225.143 83.4419 224.303 84.2541C223.461 85.0684 222.227 85.54 220.672 85.54L220.672 86.04L220.672 86.54C222.43 86.54 223.932 86.0036 224.998 84.9729C226.066 83.9401 226.644 82.4605 226.644 80.676L226.144 80.676ZM220.672 86.04L220.672 85.54C219.149 85.54 217.991 85.1369 217.065 84.3609C216.128 83.575 215.384 82.3693 214.77 80.6847L214.3 80.856L213.831 81.0273C214.476 82.7987 215.299 84.185 216.423 85.1272C217.558 86.0791 218.956 86.54 220.672 86.54L220.672 86.04ZM214.3 80.856L214.77 80.685L211.638 72.081L211.168 72.252L210.698 72.423L213.83 81.027L214.3 80.856ZM211.168 72.252L211.639 72.0833C210.968 70.2121 210.804 69.2986 210.804 68.004L210.304 68.004L209.804 68.004C209.804 69.4454 210 70.4759 210.698 72.4207L211.168 72.252ZM210.304 68.004L210.804 68.004C210.804 66.4405 211.306 65.2381 212.146 64.4259C212.988 63.6116 214.222 63.14 215.776 63.14L215.776 62.64L215.776 62.14C214.019 62.14 212.517 62.6764 211.451 63.7071C210.383 64.7399 209.804 66.2195 209.804 68.004L210.304 68.004ZM220.852 80.28L221.352 80.28C221.352 80.0145 221.294 79.6624 221.033 78.9551L220.564 79.128L220.095 79.3009C220.339 79.9616 220.352 80.1855 220.352 80.28L220.852 80.28ZM220.564 79.128L221.034 78.9579L217.362 68.8059L216.892 68.976L216.422 69.1461L220.094 79.2981L220.564 79.128ZM216.892 68.976L217.363 68.8066C217.202 68.3608 217.056 68.0102 216.884 67.7709C216.793 67.6433 216.678 67.5246 216.529 67.4409C216.374 67.3544 216.215 67.324 216.064 67.324L216.064 67.824L216.064 68.324C216.076 68.324 216.061 68.3251 216.041 68.314C216.026 68.3057 216.038 68.3063 216.072 68.3541C216.152 68.4658 216.258 68.6912 216.422 69.1454L216.892 68.976ZM216.064 67.824L216.064 67.324C215.781 67.324 215.503 67.4253 215.313 67.6713C215.141 67.894 215.096 68.1661 215.096 68.4L215.596 68.4L216.096 68.4C216.096 68.3418 216.102 68.305 216.108 68.2848C216.113 68.2653 216.115 68.2689 216.104 68.2827C216.099 68.2897 216.092 68.2976 216.082 68.3051C216.072 68.3126 216.063 68.3179 216.055 68.3214C216.039 68.3283 216.038 68.324 216.064 68.324L216.064 67.824ZM215.596 68.4L215.096 68.4C215.096 68.6655 215.155 69.0176 215.415 69.7249L215.884 69.552L216.353 69.3792C216.11 68.7185 216.096 68.4945 216.096 68.4L215.596 68.4ZM215.884 69.552L215.414 69.7221L219.086 79.8741L219.556 79.704L220.026 79.5339L216.354 69.3819L215.884 69.552ZM219.556 79.704L219.086 79.8734C219.246 80.3192 219.392 80.6698 219.564 80.9091C219.656 81.0368 219.77 81.1554 219.92 81.2391C220.075 81.3256 220.234 81.356 220.384 81.356L220.384 80.856L220.384 80.356C220.373 80.356 220.388 80.3549 220.408 80.366C220.422 80.3743 220.411 80.3737 220.376 80.3259C220.296 80.2142 220.19 79.9888 220.027 79.5346L219.556 79.704ZM220.384 80.856L220.384 81.356C220.667 81.356 220.945 81.2547 221.135 81.0087C221.308 80.786 221.352 80.514 221.352 80.28L220.852 80.28L220.352 80.28C220.352 80.3382 220.346 80.375 220.341 80.3952C220.336 80.4147 220.333 80.4111 220.344 80.3973C220.349 80.3903 220.357 80.3824 220.367 80.3749C220.376 80.3674 220.386 80.3621 220.393 80.3586C220.409 80.3517 220.41 80.356 220.384 80.356L220.384 80.856ZM206.379 63L206.849 62.8292L206.73 62.5L206.379 62.5L206.379 63ZM214.623 85.68L214.623 86.18L215.337 86.18L215.093 85.5092L214.623 85.68ZM200.187 81.036L199.718 81.2069L199.718 81.208L200.187 81.036ZM199.899 80.244L199.429 80.4127L199.43 80.4149L199.899 80.244ZM201.555 74.808L201.768 75.2606L202.186 75.0645L202.024 74.6324L201.555 74.808ZM201.447 74.52L201.916 74.3444L201.834 74.1264L201.614 74.0487L201.447 74.52ZM197.631 70.956L198.065 70.7063L198.063 70.7037L197.631 70.956ZM196.011 68.184L196.443 67.9317L196.298 67.684L196.011 67.684L196.011 68.184ZM195.111 68.184L194.641 68.3538L194.76 68.684L195.111 68.684L195.111 68.184ZM193.239 63L193.239 62.5L192.527 62.5L192.769 63.1698L193.239 63ZM200.907 66.276L201.377 66.1048L201.377 66.1041L200.907 66.276ZM202.455 70.524L202.927 70.3568L202.925 70.3528L202.455 70.524ZM203.643 72.036L203.573 72.531L203.608 72.536L203.643 72.536L203.643 72.036ZM203.967 72.036L203.967 72.536L204.681 72.536L204.437 71.8656L203.967 72.036ZM200.691 63L200.691 62.5L199.978 62.5L200.221 63.1704L200.691 63ZM207.099 80.64L207.099 81.14L207.815 81.14L207.569 80.4682L207.099 80.64ZM205.479 76.212L205.949 76.0402L205.829 75.712L205.479 75.712L205.479 76.212ZM204.903 77.94L204.433 78.1089L204.434 78.1109L204.903 77.94ZM205.479 79.524L205.01 79.6949L205.01 79.6969L205.479 79.524ZM206.379 63L205.909 63.1708L214.154 85.8508L214.623 85.68L215.093 85.5092L206.849 62.8292L206.379 63ZM214.623 85.68L214.623 85.18L207.891 85.18L207.891 85.68L207.891 86.18L214.623 86.18L214.623 85.68ZM207.891 85.68L207.891 85.18C206.149 85.18 204.65 84.9322 203.439 84.2811C202.244 83.6386 201.285 82.5796 200.657 80.864L200.187 81.036L199.718 81.208C200.421 83.1284 201.533 84.3914 202.966 85.1619C204.383 85.9238 206.07 86.18 207.891 86.18L207.891 85.68ZM200.187 81.036L200.657 80.8651L200.369 80.0731L199.899 80.244L199.43 80.4149L199.718 81.2069L200.187 81.036ZM199.899 80.244L200.37 80.0753C200.065 79.2251 200.038 78.1786 200.292 77.2533C200.546 76.3245 201.061 75.5924 201.768 75.2606L201.555 74.808L201.343 74.3554C200.286 74.8516 199.63 75.8835 199.327 76.9887C199.023 78.0974 199.05 79.3549 199.429 80.4127L199.899 80.244ZM201.555 74.808L202.024 74.6324L201.916 74.3444L201.447 74.52L200.979 74.6956L201.087 74.9836L201.555 74.808ZM201.447 74.52L201.614 74.0487C200.798 73.7595 200.215 73.4307 199.693 72.9404C199.161 72.4417 198.668 71.7538 198.065 70.7064L197.631 70.956L197.198 71.2057C197.819 72.2822 198.37 73.0703 199.008 73.6696C199.656 74.2773 200.369 74.6685 201.28 74.9913L201.447 74.52ZM197.631 70.956L198.063 70.7037L196.443 67.9317L196.011 68.184L195.58 68.4363L197.2 71.2083L197.631 70.956ZM196.011 68.184L196.011 67.684L195.111 67.684L195.111 68.184L195.111 68.684L196.011 68.684L196.011 68.184ZM195.111 68.184L195.582 68.0142L193.71 62.8302L193.239 63L192.769 63.1698L194.641 68.3538L195.111 68.184ZM193.239 63L193.239 63.5L196.155 63.5L196.155 63L196.155 62.5L193.239 62.5L193.239 63ZM196.155 63L196.155 63.5C197.435 63.5 198.268 63.6781 198.887 64.0944C199.502 64.5083 199.985 65.2117 200.438 66.4479L200.907 66.276L201.377 66.1041C200.894 64.7843 200.315 63.8497 199.445 63.2646C198.579 62.6819 197.504 62.5 196.155 62.5L196.155 63ZM200.907 66.276L200.438 66.4472L201.986 70.6952L202.455 70.524L202.925 70.3528L201.377 66.1048L200.907 66.276ZM202.455 70.524L201.984 70.6912C202.185 71.2563 202.378 71.6851 202.619 71.9848C202.888 72.3185 203.202 72.478 203.573 72.531L203.643 72.036L203.714 71.541C203.581 71.522 203.499 71.4835 203.399 71.3582C203.27 71.1989 203.122 70.9077 202.927 70.3568L202.455 70.524ZM203.643 72.036L203.643 72.536L203.967 72.536L203.967 72.036L203.967 71.536L203.643 71.536L203.643 72.036ZM203.967 72.036L204.437 71.8656L201.161 62.8296L200.691 63L200.221 63.1704L203.497 72.2064L203.967 72.036ZM200.691 63L200.691 63.5L206.379 63.5L206.379 63L206.379 62.5L200.691 62.5L200.691 63ZM207.099 80.64L207.569 80.4682L205.949 76.0402L205.479 76.212L205.01 76.3838L206.63 80.8118L207.099 80.64ZM205.479 76.212L205.479 75.712L205.191 75.712L205.191 76.212L205.191 76.712L205.479 76.712L205.479 76.212ZM205.191 76.212L205.191 75.712C205.02 75.712 204.808 75.7383 204.612 75.8523C204.399 75.9761 204.256 76.1731 204.188 76.4144C204.125 76.6388 204.129 76.8907 204.171 77.1557C204.214 77.4251 204.301 77.7406 204.433 78.1089L204.903 77.94L205.374 77.7711C205.254 77.4374 205.188 77.1859 205.159 76.9996C205.129 76.809 205.142 76.7167 205.151 76.6846C205.155 76.6694 205.147 76.6977 205.114 76.7168C205.098 76.7262 205.111 76.712 205.191 76.712L205.191 76.212ZM204.903 77.94L204.434 78.1109L205.01 79.6949L205.479 79.524L205.949 79.3531L205.373 77.7691L204.903 77.94ZM205.479 79.524L205.01 79.6969C205.148 80.0712 205.333 80.4286 205.607 80.6961C205.896 80.9782 206.263 81.14 206.703 81.14L206.703 80.64L206.703 80.14C206.532 80.14 206.413 80.0858 206.306 79.9809C206.184 79.8614 206.063 79.6608 205.949 79.3512L205.479 79.524ZM206.703 80.64L206.703 81.14L207.099 81.14L207.099 80.64L207.099 80.14L206.703 80.14L206.703 80.64ZM171.425 63L171.895 62.8278L171.774 62.5L171.425 62.5L171.425 63ZM177.249 78.872L176.78 79.0442L176.9 79.372L177.249 79.372L177.249 78.872ZM179.425 78.872L179.425 79.372L180.141 79.372L179.895 78.6998L179.425 78.872ZM173.601 63L173.601 62.5L172.885 62.5L173.132 63.1722L173.601 63ZM183.713 63L184.183 62.8285L184.063 62.5L183.713 62.5L183.713 63ZM198.433 103.32L198.433 103.82L199.148 103.82L198.903 103.149L198.433 103.32ZM188.321 103.32L187.852 103.492L187.972 103.82L188.321 103.82L188.321 103.32ZM182.753 88.088L183.223 87.9163L183.103 87.588L182.753 87.588L182.753 88.088ZM180.577 88.088L180.577 87.588L179.862 87.588L180.108 88.2597L180.577 88.088ZM186.145 103.32L186.145 103.82L186.86 103.82L186.615 103.148L186.145 103.32ZM176.033 103.32L175.563 103.491L175.683 103.82L176.033 103.82L176.033 103.32ZM161.313 63L161.313 62.5L160.598 62.5L160.843 63.1715L161.313 63ZM171.425 63L170.956 63.1722L176.78 79.0442L177.249 78.872L177.719 78.6998L171.895 62.8278L171.425 63ZM177.249 78.872L177.249 79.372L179.425 79.372L179.425 78.872L179.425 78.372L177.249 78.372L177.249 78.872ZM179.425 78.872L179.895 78.6998L174.071 62.8278L173.601 63L173.132 63.1722L178.956 79.0442L179.425 78.872ZM173.601 63L173.601 63.5L183.713 63.5L183.713 63L183.713 62.5L173.601 62.5L173.601 63ZM183.713 63L183.243 63.1715L197.963 103.491L198.433 103.32L198.903 103.149L184.183 62.8285L183.713 63ZM198.433 103.32L198.433 102.82L188.321 102.82L188.321 103.32L188.321 103.82L198.433 103.82L198.433 103.32ZM188.321 103.32L188.791 103.148L183.223 87.9163L182.753 88.088L182.284 88.2597L187.852 103.492L188.321 103.32ZM182.753 88.088L182.753 87.588L180.577 87.588L180.577 88.088L180.577 88.588L182.753 88.588L182.753 88.088ZM180.577 88.088L180.108 88.2597L185.676 103.492L186.145 103.32L186.615 103.148L181.047 87.9163L180.577 88.088ZM186.145 103.32L186.145 102.82L176.033 102.82L176.033 103.32L176.033 103.82L186.145 103.82L186.145 103.32ZM176.033 103.32L176.503 103.149L161.783 62.8285L161.313 63L160.843 63.1715L175.563 103.491L176.033 103.32ZM161.313 63L161.313 63.5L171.425 63.5L171.425 63L171.425 62.5L161.313 62.5L161.313 63ZM161.84 71.576L162.31 71.4054L162.31 71.4047L161.84 71.576ZM173.36 103.32L173.36 103.82L174.074 103.82L173.83 103.149L173.36 103.32ZM163.248 103.32L162.778 103.49L162.897 103.82L163.248 103.82L163.248 103.32ZM152.496 73.624L152.026 73.7934L152.026 73.7942L152.496 73.624ZM150.704 74.648L151.174 74.4771L151.173 74.4752L150.704 74.648ZM161.136 103.32L161.136 103.82L161.85 103.82L161.606 103.149L161.136 103.32ZM151.024 103.32L150.554 103.49L150.673 103.82L151.024 103.82L151.024 103.32ZM142.384 79.448L141.912 79.614L141.914 79.6182L142.384 79.448ZM150.448 62.36L150.448 62.86C153.232 62.86 155.401 63.5993 157.145 65.0485C158.899 66.5069 160.267 68.7206 161.37 71.7473L161.84 71.576L162.31 71.4047C161.173 68.2874 159.725 65.8931 157.784 64.2795C155.831 62.6567 153.424 61.86 150.448 61.86L150.448 62.36ZM161.84 71.576L161.37 71.7466L172.89 103.491L173.36 103.32L173.83 103.149L162.31 71.4054L161.84 71.576ZM173.36 103.32L173.36 102.82L163.248 102.82L163.248 103.32L163.248 103.82L173.36 103.82L173.36 103.32ZM163.248 103.32L163.718 103.15L152.966 73.4538L152.496 73.624L152.026 73.7942L162.778 103.49L163.248 103.32ZM152.496 73.624L152.967 73.4546C152.68 72.6588 152.436 72.0842 152.166 71.7084C152.026 71.5125 151.862 71.3475 151.66 71.2344C151.453 71.1187 151.237 71.076 151.024 71.076L151.024 71.576L151.024 72.076C151.099 72.076 151.14 72.0893 151.172 72.1076C151.21 72.1285 151.271 72.1755 151.354 72.2916C151.532 72.5398 151.736 72.9892 152.026 73.7934L152.496 73.624ZM151.024 71.576L151.024 71.076C150.615 71.076 150.246 71.2193 149.996 71.5423C149.765 71.8421 149.692 72.2261 149.692 72.6L150.192 72.6L150.692 72.6C150.692 72.334 150.747 72.206 150.788 72.1537C150.81 72.1247 150.857 72.076 151.024 72.076L151.024 71.576ZM150.192 72.6L149.692 72.6C149.692 73.0055 149.778 73.5816 150.235 74.8209L150.704 74.648L151.173 74.4752C150.734 73.2825 150.692 72.8345 150.692 72.6L150.192 72.6ZM150.704 74.648L150.234 74.819L160.666 103.491L161.136 103.32L161.606 103.149L151.174 74.4771L150.704 74.648ZM161.136 103.32L161.136 102.82L151.024 102.82L151.024 103.32L151.024 103.82L161.136 103.82L161.136 103.32ZM151.024 103.32L151.494 103.15L142.854 79.2778L142.384 79.448L141.914 79.6182L150.554 103.49L151.024 103.32ZM142.384 79.448L142.856 79.2821C141.649 75.8508 141.284 74.1836 141.284 71.832L140.784 71.832L140.284 71.832C140.284 74.3444 140.688 76.1332 141.912 79.614L142.384 79.448ZM140.784 71.832L141.284 71.832C141.284 68.9999 142.205 66.77 143.78 65.2475C145.357 63.7228 147.639 62.86 150.448 62.86L150.448 62.36L150.448 61.86C147.434 61.86 144.884 62.7892 143.085 64.5285C141.283 66.27 140.284 68.7761 140.284 71.832L140.784 71.832ZM122.547 63L122.999 62.7858L122.863 62.5L122.547 62.5L122.547 63ZM136.563 92.568L136.111 92.7822L136.247 93.068L136.563 93.068L136.563 92.568ZM137.139 92.568L137.139 93.068L137.893 93.068L137.6 92.3733L137.139 92.568ZM128.755 71.896L128.287 72.0712L128.287 72.0722L128.755 71.896ZM125.427 63L125.427 62.5L124.706 62.5L124.959 63.1752L125.427 63ZM133.683 63L134.153 62.8285L134.033 62.5L133.683 62.5L133.683 63ZM148.403 103.32L148.403 103.82L149.118 103.82L148.873 103.149L148.403 103.32ZM134.835 103.32L134.378 103.522L134.509 103.82L134.835 103.82L134.835 103.32ZM127.603 86.936L128.061 86.7341L127.929 86.436L127.603 86.436L127.603 86.936ZM127.091 86.936L127.091 86.436L126.424 86.436L126.611 87.0766L127.091 86.936ZM131.891 103.32L131.891 103.82L132.559 103.82L132.371 103.179L131.891 103.32ZM117.363 103.32L116.893 103.491L117.013 103.82L117.363 103.82L117.363 103.32ZM102.643 63L102.643 62.5L101.928 62.5L102.173 63.1715L102.643 63ZM112.179 63L112.65 62.8308L112.531 62.5L112.179 62.5L112.179 63ZM115.379 71.896L115.85 71.729L115.85 71.7268L115.379 71.896ZM122.099 92.568L121.622 92.7174L121.732 93.068L122.099 93.068L122.099 92.568ZM122.547 92.568L122.547 93.068L123.19 93.068L123.032 92.4453L122.547 92.568ZM115.059 63L115.059 62.5L114.417 62.5L114.574 63.1228L115.059 63ZM122.547 63L122.095 63.2142L136.111 92.7822L136.563 92.568L137.015 92.3538L122.999 62.7858L122.547 63ZM136.563 92.568L136.563 93.068L137.139 93.068L137.139 92.568L137.139 92.068L136.563 92.068L136.563 92.568ZM137.139 92.568L137.6 92.3733C134.976 86.167 131.075 76.6383 129.223 71.7198L128.755 71.896L128.287 72.0722C130.147 77.0097 134.054 86.5531 136.679 92.7627L137.139 92.568ZM128.755 71.896L129.223 71.7208L125.895 62.8248L125.427 63L124.959 63.1752L128.287 72.0712L128.755 71.896ZM125.427 63L125.427 63.5L133.683 63.5L133.683 63L133.683 62.5L125.427 62.5L125.427 63ZM133.683 63L133.213 63.1715L147.933 103.491L148.403 103.32L148.873 103.149L134.153 62.8285L133.683 63ZM148.403 103.32L148.403 102.82L134.835 102.82L134.835 103.32L134.835 103.82L148.403 103.82L148.403 103.32ZM134.835 103.32L135.293 103.118L128.061 86.7341L127.603 86.936L127.146 87.1379L134.378 103.522L134.835 103.32ZM127.603 86.936L127.603 86.436L127.091 86.436L127.091 86.936L127.091 87.436L127.603 87.436L127.603 86.936ZM127.091 86.936L126.611 87.0766L131.411 103.461L131.891 103.32L132.371 103.179L127.571 86.7954L127.091 86.936ZM131.891 103.32L131.891 102.82L117.363 102.82L117.363 103.32L117.363 103.82L131.891 103.82L131.891 103.32ZM117.363 103.32L117.833 103.149L103.113 62.8285L102.643 63L102.173 63.1715L116.893 103.491L117.363 103.32ZM102.643 63L102.643 63.5L112.179 63.5L112.179 63L112.179 62.5L102.643 62.5L102.643 63ZM112.179 63L111.709 63.1692L114.909 72.0653L115.379 71.896L115.85 71.7268L112.65 62.8308L112.179 63ZM115.379 71.896L114.908 72.063C116.696 77.1086 119.637 86.3793 121.622 92.7174L122.099 92.568L122.576 92.4186C120.593 86.0847 117.646 76.7954 115.85 71.729L115.379 71.896ZM122.099 92.568L122.099 93.068L122.547 93.068L122.547 92.568L122.547 92.068L122.099 92.068L122.099 92.568ZM122.547 92.568L123.032 92.4453L115.544 62.8773L115.059 63L114.574 63.1228L122.062 92.6908L122.547 92.568ZM115.059 63L115.059 63.5L122.547 63.5L122.547 63L122.547 62.5L115.059 62.5L115.059 63ZM100.945 63L101.427 62.8669L101.326 62.5L100.945 62.5L100.945 63ZM112.081 103.32L112.081 103.82L112.738 103.82L112.563 103.187L112.081 103.32ZM95.6331 103.32L95.1779 103.527L95.311 103.82L95.6331 103.82L95.6331 103.32ZM77.3291 63L77.3291 62.5L76.553 62.5L76.8739 63.2067L77.3291 63ZM87.2491 63L87.7102 62.8066L87.5816 62.5L87.2491 62.5L87.2491 63ZM91.9211 74.136L91.4601 74.3294L91.5887 74.636L91.9211 74.636L91.9211 74.136ZM94.6731 74.136L94.6731 74.636L95.3518 74.636L95.1507 73.9878L94.6731 74.136ZM91.2171 63L91.2171 62.5L90.5384 62.5L90.7396 63.1482L91.2171 63ZM101.457 95.768L101.457 96.268L102.139 96.268L101.934 95.6179L101.457 95.768ZM98.1931 85.4L97.7159 85.5492L97.7162 85.5502L98.1931 85.4ZM97.5531 83.352L98.0304 83.2029L97.9207 82.852L97.5531 82.852L97.5531 83.352ZM95.7611 83.352L95.7611 82.852L94.9995 82.852L95.3024 83.5508L95.7611 83.352ZM96.5931 85.272L97.0551 85.0805L97.0519 85.0732L96.5931 85.272ZM100.945 95.768L100.483 95.9595L100.611 96.268L100.945 96.268L100.945 95.768ZM100.945 63L100.463 63.1331L111.599 103.453L112.081 103.32L112.563 103.187L101.427 62.8669L100.945 63ZM112.081 103.32L112.081 102.82L95.6331 102.82L95.6331 103.32L95.6331 103.82L112.081 103.82L112.081 103.32ZM95.6331 103.32L96.0884 103.113L77.7844 62.7933L77.3291 63L76.8739 63.2067L95.1779 103.527L95.6331 103.32ZM77.3291 63L77.3291 63.5L87.2491 63.5L87.2491 63L87.2491 62.5L77.3291 62.5L77.3291 63ZM87.2491 63L86.7881 63.1934L91.4601 74.3294L91.9211 74.136L92.3822 73.9426L87.7102 62.8066L87.2491 63ZM91.9211 74.136L91.9211 74.636L94.6731 74.636L94.6731 74.136L94.6731 73.636L91.9211 73.636L91.9211 74.136ZM94.6731 74.136L95.1507 73.9878L91.6947 62.8518L91.2171 63L90.7396 63.1482L94.1956 74.2842L94.6731 74.136ZM91.2171 63L91.2171 63.5L100.945 63.5L100.945 63L100.945 62.5L91.2171 62.5L91.2171 63ZM101.457 95.768L101.934 95.6179L98.6701 85.2499L98.1931 85.4L97.7162 85.5502L100.98 95.9182L101.457 95.768ZM98.1931 85.4L98.6704 85.2509L98.0304 83.2029L97.5531 83.352L97.0759 83.5012L97.7159 85.5492L98.1931 85.4ZM97.5531 83.352L97.5531 82.852L95.7611 82.852L95.7611 83.352L95.7611 83.852L97.5531 83.852L97.5531 83.352ZM95.7611 83.352L95.3024 83.5508L96.1344 85.4708L96.5931 85.272L97.0519 85.0732L96.2199 83.1532L95.7611 83.352ZM96.5931 85.272L96.1313 85.4635L100.483 95.9595L100.945 95.768L101.407 95.5765L97.055 85.0805L96.5931 85.272ZM100.945 95.768L100.945 96.268L101.457 96.268L101.457 95.768L101.457 95.268L100.945 95.268L100.945 95.768ZM65.4161 63L65.8717 62.7939L65.7387 62.5L65.4161 62.5L65.4161 63ZM78.7921 92.568L78.3366 92.7741L78.4696 93.068L78.7921 93.068L78.7921 92.568ZM79.3042 92.568L79.3042 93.068L80.0414 93.068L79.7687 92.3831L79.3042 92.568ZM71.4962 72.536L71.9647 72.3615L71.9642 72.3601L71.4962 72.536ZM67.9122 63L67.9122 62.5L67.1901 62.5L67.4441 63.1759L67.9122 63ZM75.5281 63L75.9978 62.8285L75.8779 62.5L75.5281 62.5L75.5281 63ZM90.2482 103.32L90.2482 103.82L90.963 103.82L90.7178 103.149L90.2482 103.32ZM76.2321 103.32L75.7766 103.526L75.9096 103.82L76.2321 103.82L76.2321 103.32ZM62.8562 73.752L63.3117 73.5459L63.1787 73.252L62.8562 73.252L62.8562 73.752ZM62.3441 73.752L62.3441 73.252L61.6069 73.252L61.8796 73.937L62.3441 73.752ZM70.1521 93.784L69.6836 93.9586L69.6841 93.9599L70.1521 93.784ZM73.7361 103.32L73.7361 103.82L74.4582 103.82L74.2042 103.144L73.7361 103.32ZM66.1201 103.32L65.6505 103.491L65.7704 103.82L66.1201 103.82L66.1201 103.32ZM51.4001 63L51.4001 62.5L50.6853 62.5L50.9305 63.1715L51.4001 63ZM65.4161 63L64.9606 63.2061L78.3366 92.7741L78.7921 92.568L79.2477 92.3619L65.8717 62.7939L65.4161 63ZM78.7921 92.568L78.7921 93.068L79.3042 93.068L79.3042 92.568L79.3042 92.068L78.7921 92.068L78.7921 92.568ZM79.3042 92.568L79.7687 92.3831C77.0163 85.4701 74.3944 78.8833 71.9647 72.3615L71.4962 72.536L71.0276 72.7106C73.4619 79.2447 76.088 85.8419 78.8396 92.753L79.3042 92.568ZM71.4962 72.536L71.9642 72.3601L68.3802 62.8241L67.9122 63L67.4441 63.1759L71.0281 72.7119L71.4962 72.536ZM67.9122 63L67.9122 63.5L75.5281 63.5L75.5281 63L75.5281 62.5L67.9122 62.5L67.9122 63ZM75.5281 63L75.0585 63.1715L89.7785 103.491L90.2482 103.32L90.7178 103.149L75.9978 62.8285L75.5281 63ZM90.2482 103.32L90.2482 102.82L76.2321 102.82L76.2321 103.32L76.2321 103.82L90.2482 103.82L90.2482 103.32ZM76.2321 103.32L76.6877 103.114L63.3117 73.5459L62.8562 73.752L62.4006 73.9581L75.7766 103.526L76.2321 103.32ZM62.8562 73.752L62.8562 73.252L62.3441 73.252L62.3441 73.752L62.3441 74.252L62.8562 74.252L62.8562 73.752ZM62.3441 73.752L61.8796 73.937C64.632 80.8499 67.2539 87.4367 69.6836 93.9586L70.1521 93.784L70.6207 93.6095C68.1864 87.0753 65.5603 80.4781 62.8087 73.5671L62.3441 73.752ZM70.1521 93.784L69.6841 93.9599L73.2681 103.496L73.7361 103.32L74.2042 103.144L70.6202 93.6081L70.1521 93.784ZM73.7361 103.32L73.7361 102.82L66.1201 102.82L66.1201 103.32L66.1201 103.82L73.7361 103.82L73.7361 103.32ZM66.1201 103.32L66.5898 103.149L51.8698 62.8285L51.4001 63L50.9305 63.1715L65.6505 103.491L66.1201 103.32ZM51.4001 63L51.4001 63.5L65.4162 63.5L65.4161 63L65.4161 62.5L51.4001 62.5L51.4001 63ZM52.2891 71.576L51.8183 71.7442L51.8187 71.7454L52.2891 71.576ZM53.4411 74.776L53.5109 75.2711L54.1199 75.1853L53.9116 74.6067L53.4411 74.776ZM43.9051 76.12L43.4352 76.2909L43.5737 76.6717L43.9749 76.6151L43.9051 76.12ZM42.8811 73.304L42.4107 73.4734L42.4112 73.4749L42.8811 73.304ZM38.3371 94.744L37.8669 94.9141L37.8672 94.9149L38.3371 94.744ZM37.2491 91.736L37.1784 91.241L36.5698 91.328L36.7789 91.9061L37.2491 91.736ZM46.6571 90.392L47.1267 90.2202L46.9875 89.8397L46.5864 89.897L46.6571 90.392ZM47.6171 93.016L48.0876 92.8467L48.0867 92.8442L47.6171 93.016ZM40.9611 62.36L40.9611 62.86C43.7495 62.86 45.9011 63.5698 47.6259 65.0008C49.362 66.4413 50.714 68.6524 51.8183 71.7442L52.2891 71.576L52.76 71.4078C51.6242 68.2277 50.1923 65.8308 48.2644 64.2312C46.3252 62.6223 43.9328 61.86 40.9611 61.86L40.9611 62.36ZM52.2891 71.576L51.8187 71.7454L52.9707 74.9454L53.4411 74.776L53.9116 74.6067L52.7596 71.4067L52.2891 71.576ZM53.4411 74.776L53.3714 74.2809L43.8354 75.6249L43.9051 76.12L43.9749 76.6151L53.5109 75.2711L53.4411 74.776ZM43.9051 76.12L44.375 75.9491L43.351 73.1331L42.8811 73.304L42.4112 73.4749L43.4352 76.2909L43.9051 76.12ZM42.8811 73.304L43.3516 73.1347C43.0651 72.3388 42.8211 71.7643 42.5513 71.3884C42.4106 71.1925 42.2473 71.0275 42.0449 70.9145C41.8375 70.7987 41.6224 70.756 41.4091 70.756L41.4091 71.256L41.4091 71.756C41.4839 71.756 41.5247 71.7694 41.5574 71.7876C41.595 71.8086 41.6556 71.8555 41.739 71.9716C41.9171 72.2198 42.1212 72.6692 42.4107 73.4734L42.8811 73.304ZM41.4091 71.256L41.4091 70.756C41 70.756 40.6311 70.8993 40.3815 71.2223C40.1499 71.5221 40.0771 71.9061 40.0771 72.28L40.5771 72.28L41.0771 72.28C41.0771 72.014 41.1324 71.886 41.1728 71.8337C41.1952 71.8047 41.2422 71.756 41.4091 71.756L41.4091 71.256ZM40.5771 72.28L40.0771 72.28C40.0771 74.3115 41.4331 75.7939 43.2267 77.074C45.0094 78.3463 47.4301 79.5531 49.7288 80.9253C54.399 83.7131 58.8931 87.3434 58.8931 94.424L59.3931 94.424L59.8931 94.424C59.8931 86.7847 54.9793 82.8949 50.2414 80.0667C47.8362 78.6309 45.5529 77.5057 43.8076 76.26C42.0731 75.0221 41.0771 73.8005 41.0771 72.28L40.5771 72.28ZM59.3931 94.424L58.8931 94.424C58.8931 97.2992 58.0296 99.5428 56.4822 101.068C54.9339 102.594 52.6406 103.46 49.6651 103.46L49.6651 103.96L49.6651 104.46C52.8337 104.46 55.4044 103.534 57.1841 101.78C58.9647 100.025 59.8931 97.5009 59.8931 94.424L59.3931 94.424ZM49.6651 103.96L49.6651 103.46C46.8748 103.46 44.7398 102.765 43.0242 101.343C41.2964 99.9108 39.944 97.6998 38.807 94.5731L38.3371 94.744L37.8672 94.9149C39.0343 98.1242 40.4659 100.521 42.386 102.113C44.3185 103.715 46.6955 104.46 49.6651 104.46L49.6651 103.96ZM38.3371 94.744L38.8073 94.5739L37.7193 91.566L37.2491 91.736L36.7789 91.9061L37.8669 94.9141L38.3371 94.744ZM37.2491 91.736L37.3198 92.231L46.7278 90.887L46.6571 90.392L46.5864 89.897L37.1784 91.241L37.2491 91.736ZM46.6571 90.392L46.1876 90.5638L47.1476 93.1878L47.6171 93.016L48.0867 92.8442L47.1267 90.2202L46.6571 90.392ZM47.6171 93.016L47.1467 93.1854C47.4332 93.9812 47.6771 94.5558 47.947 94.9316C48.0876 95.1275 48.251 95.2926 48.4534 95.4056C48.6608 95.5214 48.8759 95.564 49.0891 95.564L49.0891 95.064L49.0891 94.564C49.0144 94.564 48.9735 94.5507 48.9409 94.5325C48.9033 94.5115 48.8427 94.4645 48.7593 94.3484C48.5811 94.1003 48.3771 93.6508 48.0876 92.8467L47.6171 93.016ZM49.0891 95.064L49.0891 95.564C49.4982 95.564 49.8672 95.4207 50.1168 95.0977C50.3484 94.798 50.4211 94.414 50.4211 94.04L49.9211 94.04L49.4211 94.04C49.4211 94.3061 49.3659 94.4341 49.3255 94.4863C49.3031 94.5153 49.256 94.564 49.0891 94.564L49.0891 95.064ZM49.9211 94.04L50.4211 94.04C50.4211 92.0101 49.0752 90.5277 47.2929 89.247C45.5222 87.9745 43.1174 86.7674 40.8347 85.3955C36.1976 82.6085 31.7331 78.9784 31.7331 71.896L31.2331 71.896L30.7331 71.896C30.7331 79.5337 35.6126 83.4236 40.3196 86.2526C42.7089 87.6886 44.9761 88.8135 46.7093 90.0591C48.4311 91.2963 49.4211 92.518 49.4211 94.04L49.9211 94.04ZM31.2331 71.896L31.7331 71.896C31.7331 69.0305 32.6548 66.7852 34.2367 65.2555C35.8209 63.7236 38.1184 62.86 40.9611 62.86L40.9611 62.36L40.9611 61.86C37.9158 61.86 35.3494 62.7884 33.5416 64.5366C31.7315 66.2869 30.7331 68.8095 30.7331 71.896L31.2331 71.896Z" fill="#80002B"/>
<path d="M26.632 56L33.992 35.84L41.448 35.84L39.752 40.448L37.352 40.448L36.232 43.552H38.184L36.584 47.968L34.632 47.968L31.688 56L26.632 56ZM35.8108 56L43.1388 35.84L47.4908 35.84C51.7148 35.84 53.4428 38.656 52.0988 42.368L51.9708 42.72C51.2988 44.544 49.8588 45.696 47.5228 46.112L47.4268 46.368C48.3868 47.008 48.7388 47.936 48.5468 49.76L48.3868 51.392H49.1868L47.4908 56L45.4748 56C42.8828 56 42.3068 54.336 43.2028 51.936L44.0988 49.536C44.5788 48.224 44.2908 47.968 43.8748 47.968H43.7788L40.8668 56L35.8108 56ZM45.1228 44.256H45.5068C46.0508 44.256 46.3708 43.872 46.5948 43.264L47.1068 41.856C47.5548 40.608 47.2988 40.32 46.8508 40.32H46.5628L45.1228 44.256ZM56.121 56.32C53.177 56.32 51.257 54.528 51.257 51.552C51.257 50.336 51.417 49.472 52.025 47.776L54.809 40.128C55.929 37.056 57.593 35.52 60.473 35.52C63.417 35.52 65.337 37.312 65.337 40.288C65.337 41.504 65.177 42.368 64.569 44.064L61.785 51.712C60.665 54.784 59.001 56.32 56.121 56.32ZM55.961 51.2C55.961 51.52 56.089 51.712 56.377 51.712C56.665 51.712 56.825 51.488 57.113 50.688L60.377 41.664C60.601 41.056 60.633 40.8 60.633 40.64C60.633 40.32 60.505 40.128 60.217 40.128C59.929 40.128 59.769 40.352 59.481 41.152L56.217 50.176C55.993 50.784 55.961 51.04 55.961 51.2ZM67.3538 56L71.0978 41.216H70.8738C69.8818 44.384 68.4098 49.024 67.5138 51.552L65.9138 56L61.7858 56L69.1458 35.84L75.8658 35.84L73.4658 44.032H73.7218L77.3378 35.84L84.6658 35.84L77.3058 56L72.5378 56L74.2018 51.552C75.1298 49.088 77.0818 44.32 78.3938 41.216H78.1058L71.0978 56L67.3538 56ZM100.578 56L106.402 40.128L104.226 40.128L98.4019 56L88.2899 56L103.01 15.68L113.122 15.68L107.554 30.912L109.73 30.912L115.298 15.68L125.41 15.68L110.69 56L100.578 56ZM127.507 56.64C121.683 56.64 117.843 53.056 117.843 47.104C117.843 44.672 118.163 42.944 119.379 39.552L128.019 15.68L138.131 15.68L127.699 44.352C127.251 45.568 127.187 46.08 127.187 46.4C127.187 47.04 127.443 47.424 128.019 47.424C128.595 47.424 128.915 46.976 129.491 45.376L140.243 15.68L150.355 15.68L138.835 47.424C136.787 53.12 133.139 56.64 127.507 56.64ZM149.456 56L156.944 26.432L156.496 26.432C154.512 32.768 151.568 42.048 149.776 47.104L146.576 56L138.32 56L153.04 15.68L166.48 15.68L161.68 32.064H162.192L169.424 15.68L184.08 15.68L169.36 56L159.824 56L163.152 47.104C165.008 42.176 168.912 32.64 171.536 26.432L170.96 26.432L156.944 56L149.456 56ZM171.122 56L189.426 15.68L205.874 15.68L194.738 56L184.818 56L188.274 44.864L185.522 44.864L180.85 56L171.122 56ZM189.362 35.648H191.154L191.794 33.6L195.058 23.232H194.546C193.266 26.176 191.602 30.4 190.194 33.728L189.362 35.648ZM207.035 56L214.779 26.432L214.267 26.432C211.899 33.344 209.787 39.936 207.483 46.464L204.091 56L196.475 56L211.195 15.68L224.635 15.68L216.891 45.248L217.403 45.248C219.771 38.336 221.883 31.744 224.187 25.216L227.579 15.68L235.195 15.68L220.475 56L207.035 56ZM236.997 56.64C230.853 56.64 227.013 53.056 227.013 47.104C227.013 45.952 227.141 44.16 227.717 42.432L237.829 42.432C236.613 45.888 236.549 46.4 236.549 46.72C236.549 47.36 236.805 47.744 237.509 47.744C238.149 47.744 238.469 47.36 238.661 46.848C238.917 46.208 238.981 45.696 238.981 44.736C238.981 40.32 234.373 35.392 234.373 27.968C234.373 26.56 234.501 24.768 235.205 22.784C236.805 18.368 240.133 15.04 245.893 15.04C251.781 15.04 255.621 18.624 255.621 24.576C255.621 25.728 255.493 27.392 255.173 28.48L245.317 28.48C246.277 25.792 246.341 25.28 246.341 24.96C246.341 24.32 246.085 23.936 245.509 23.936C244.997 23.936 244.677 24.32 244.485 24.832C244.229 25.472 244.165 25.984 244.165 26.944C244.165 31.36 248.773 36.288 248.773 43.712C248.773 45.12 248.645 46.912 247.941 48.896C246.341 53.312 243.013 56.64 236.997 56.64Z" fill="#80002B"/>
<path d="M26.632 54L33.992 33.84L41.448 33.84L39.752 38.448L37.352 38.448L36.232 41.552H38.184L36.584 45.968L34.632 45.968L31.688 54L26.632 54ZM35.8108 54L43.1388 33.84L47.4908 33.84C51.7148 33.84 53.4428 36.656 52.0988 40.368L51.9708 40.72C51.2988 42.544 49.8588 43.696 47.5228 44.112L47.4268 44.368C48.3868 45.008 48.7388 45.936 48.5468 47.76L48.3868 49.392H49.1868L47.4908 54L45.4748 54C42.8828 54 42.3068 52.336 43.2028 49.936L44.0988 47.536C44.5788 46.224 44.2908 45.968 43.8748 45.968H43.7788L40.8668 54L35.8108 54ZM45.1228 42.256H45.5068C46.0508 42.256 46.3708 41.872 46.5948 41.264L47.1068 39.856C47.5548 38.608 47.2988 38.32 46.8508 38.32H46.5628L45.1228 42.256ZM56.121 54.32C53.177 54.32 51.257 52.528 51.257 49.552C51.257 48.336 51.417 47.472 52.025 45.776L54.809 38.128C55.929 35.056 57.593 33.52 60.473 33.52C63.417 33.52 65.337 35.312 65.337 38.288C65.337 39.504 65.177 40.368 64.569 42.064L61.785 49.712C60.665 52.784 59.001 54.32 56.121 54.32ZM55.961 49.2C55.961 49.52 56.089 49.712 56.377 49.712C56.665 49.712 56.825 49.488 57.113 48.688L60.377 39.664C60.601 39.056 60.633 38.8 60.633 38.64C60.633 38.32 60.505 38.128 60.217 38.128C59.929 38.128 59.769 38.352 59.481 39.152L56.217 48.176C55.993 48.784 55.961 49.04 55.961 49.2ZM67.3538 54L71.0978 39.216H70.8738C69.8818 42.384 68.4098 47.024 67.5138 49.552L65.9138 54L61.7858 54L69.1458 33.84L75.8658 33.84L73.4658 42.032H73.7218L77.3378 33.84L84.6658 33.84L77.3058 54L72.5378 54L74.2018 49.552C75.1298 47.088 77.0818 42.32 78.3938 39.216H78.1058L71.0978 54L67.3538 54ZM100.578 54L106.402 38.128L104.226 38.128L98.4019 54L88.2899 54L103.01 13.68L113.122 13.68L107.554 28.912L109.73 28.912L115.298 13.68L125.41 13.68L110.69 54L100.578 54ZM127.507 54.64C121.683 54.64 117.843 51.056 117.843 45.104C117.843 42.672 118.163 40.944 119.379 37.552L128.019 13.68L138.131 13.68L127.699 42.352C127.251 43.568 127.187 44.08 127.187 44.4C127.187 45.04 127.443 45.424 128.019 45.424C128.595 45.424 128.915 44.976 129.491 43.376L140.243 13.68L150.355 13.68L138.835 45.424C136.787 51.12 133.139 54.64 127.507 54.64ZM149.456 54L156.944 24.432L156.496 24.432C154.512 30.768 151.568 40.048 149.776 45.104L146.576 54L138.32 54L153.04 13.68L166.48 13.68L161.68 30.064H162.192L169.424 13.68L184.08 13.68L169.36 54L159.824 54L163.152 45.104C165.008 40.176 168.912 30.64 171.536 24.432L170.96 24.432L156.944 54L149.456 54ZM171.122 54L189.426 13.68L205.874 13.68L194.738 54L184.818 54L188.274 42.864L185.522 42.864L180.85 54L171.122 54ZM189.362 33.648H191.154L191.794 31.6L195.058 21.232H194.546C193.266 24.176 191.602 28.4 190.194 31.728L189.362 33.648ZM207.035 54L214.779 24.432L214.267 24.432C211.899 31.344 209.787 37.936 207.483 44.464L204.091 54L196.475 54L211.195 13.68L224.635 13.68L216.891 43.248L217.403 43.248C219.771 36.336 221.883 29.744 224.187 23.216L227.579 13.68L235.195 13.68L220.475 54L207.035 54ZM236.997 54.64C230.853 54.64 227.013 51.056 227.013 45.104C227.013 43.952 227.141 42.16 227.717 40.432L237.829 40.432C236.613 43.888 236.549 44.4 236.549 44.72C236.549 45.36 236.805 45.744 237.509 45.744C238.149 45.744 238.469 45.36 238.661 44.848C238.917 44.208 238.981 43.696 238.981 42.736C238.981 38.32 234.373 33.392 234.373 25.968C234.373 24.56 234.501 22.768 235.205 20.784C236.805 16.368 240.133 13.04 245.893 13.04C251.781 13.04 255.621 16.624 255.621 22.576C255.621 23.728 255.493 25.392 255.173 26.48L245.317 26.48C246.277 23.792 246.341 23.28 246.341 22.96C246.341 22.32 246.085 21.936 245.509 21.936C244.997 21.936 244.677 22.32 244.485 22.832C244.229 23.472 244.165 23.984 244.165 24.944C244.165 29.36 248.773 34.288 248.773 41.712C248.773 43.12 248.645 44.912 247.941 46.896C246.341 51.312 243.013 54.64 236.997 54.64Z" fill="white"/>
<path d="M26.632 54L26.1623 53.8285L25.9172 54.5H26.632V54ZM33.992 33.84L33.992 33.34H33.6423L33.5223 33.6685L33.992 33.84ZM41.448 33.84L41.9172 34.0127L42.1648 33.34H41.448L41.448 33.84ZM39.752 38.448V38.948L40.1008 38.948L40.2212 38.6207L39.752 38.448ZM37.352 38.448V37.948H37.0009L36.8817 38.2783L37.352 38.448ZM36.232 41.552L35.7617 41.3823L35.52 42.052L36.232 42.052L36.232 41.552ZM38.184 41.552L38.6541 41.7223L38.897 41.052L38.184 41.052V41.552ZM36.584 45.968L36.584 46.468H36.9346L37.0541 46.1383L36.584 45.968ZM34.632 45.968V45.468H34.2827L34.1625 45.7959L34.632 45.968ZM31.688 54V54.5H32.0373L32.1575 54.1721L31.688 54ZM26.632 54L27.1017 54.1715L34.4617 34.0115L33.992 33.84L33.5223 33.6685L26.1623 53.8285L26.632 54ZM33.992 33.84V34.34L41.448 34.34V33.84L41.448 33.34L33.992 33.34L33.992 33.84ZM41.448 33.84L40.9788 33.6673L39.2828 38.2753L39.752 38.448L40.2212 38.6207L41.9172 34.0127L41.448 33.84ZM39.752 38.448V37.948L37.352 37.948V38.448V38.948L39.752 38.948V38.448ZM37.352 38.448L36.8817 38.2783L35.7617 41.3823L36.232 41.552L36.7023 41.7217L37.8223 38.6177L37.352 38.448ZM36.232 41.552L36.232 42.052H38.184L38.184 41.552V41.052H36.232V41.552ZM38.184 41.552L37.7139 41.3817L36.1139 45.7977L36.584 45.968L37.0541 46.1383L38.6541 41.7223L38.184 41.552ZM36.584 45.968V45.468L34.632 45.468V45.968L34.632 46.468L36.584 46.468L36.584 45.968ZM34.632 45.968L34.1625 45.7959L31.2185 53.8279L31.688 54L32.1575 54.1721L35.1015 46.1401L34.632 45.968ZM31.688 54L31.688 53.5L26.632 53.5L26.632 54V54.5L31.688 54.5V54ZM35.8108 54L35.3408 53.8292L35.097 54.5H35.8108L35.8108 54ZM43.1388 33.84L43.1388 33.34H42.7885L42.6688 33.6692L43.1388 33.84ZM52.0988 40.368L52.5686 40.5389L52.5689 40.5382L52.0988 40.368ZM51.9708 40.72L52.4399 40.8929L52.4406 40.8909L51.9708 40.72ZM47.5228 44.112L47.4351 43.6197L47.1546 43.6697L47.0546 43.9364L47.5228 44.112ZM47.4268 44.368L46.9586 44.1924L46.8193 44.5639L47.1494 44.784L47.4268 44.368ZM48.5467 47.76L48.0495 47.7077L48.0491 47.7112L48.5467 47.76ZM48.3867 49.392L47.8891 49.3432L47.8353 49.892L48.3867 49.892V49.392ZM49.1868 49.392L49.656 49.5647L49.9036 48.892H49.1868V49.392ZM47.4907 54V54.5H47.8395L47.96 54.1727L47.4907 54ZM44.0988 47.536L44.5672 47.7109L44.5683 47.7078L44.0988 47.536ZM43.7788 45.968V45.468H43.4282L43.3087 45.7976L43.7788 45.968ZM40.8668 54L40.8668 54.5H41.2173L41.3368 54.1704L40.8668 54ZM45.1227 42.256L44.6532 42.0842L44.4074 42.756H45.1227L45.1227 42.256ZM46.5947 41.264L47.0639 41.4369L47.0646 41.4349L46.5947 41.264ZM47.1068 39.856L47.5767 40.0269L47.5773 40.0249L47.1068 39.856ZM46.5628 38.32L46.5628 37.82H46.2133L46.0932 38.1482L46.5628 38.32ZM35.8108 54L36.2807 54.1708L43.6087 34.0108L43.1388 33.84L42.6688 33.6692L35.3408 53.8292L35.8108 54ZM43.1388 33.84V34.34L47.4907 34.34L47.4907 33.84V33.34L43.1388 33.34L43.1388 33.84ZM47.4907 33.84L47.4907 34.34C49.4971 34.34 50.7993 35.0051 51.4689 35.9926C52.142 36.9852 52.2665 38.4361 51.6286 40.1978L52.0988 40.368L52.5689 40.5382C53.275 38.5879 53.2075 36.7748 52.2966 35.4314C51.3822 34.0829 49.7084 33.34 47.4907 33.34V33.84ZM52.0988 40.368L51.6289 40.1971L51.5009 40.5491L51.9708 40.72L52.4406 40.8909L52.5686 40.5389L52.0988 40.368ZM51.9708 40.72L51.5016 40.5471C50.9012 42.1768 49.6273 43.2293 47.4351 43.6197L47.5228 44.112L47.6104 44.6043C50.0902 44.1627 51.6963 42.9112 52.4399 40.8929L51.9708 40.72ZM47.5228 44.112L47.0546 43.9364L46.9586 44.1924L47.4268 44.368L47.8949 44.5436L47.9909 44.2876L47.5228 44.112ZM47.4268 44.368L47.1494 44.784C47.5505 45.0514 47.8016 45.3589 47.9455 45.7813C48.0959 46.2228 48.1421 46.8279 48.0495 47.7077L48.5467 47.76L49.044 47.8123C49.1434 46.8681 49.1096 46.0972 48.892 45.4587C48.6679 44.8011 48.263 44.3246 47.7041 43.952L47.4268 44.368ZM48.5467 47.76L48.0491 47.7112L47.8891 49.3432L48.3867 49.392L48.8844 49.4408L49.0444 47.8088L48.5467 47.76ZM48.3867 49.392V49.892H49.1868V49.392V48.892H48.3867V49.392ZM49.1868 49.392L48.7175 49.2193L47.0215 53.8273L47.4907 54L47.96 54.1727L49.656 49.5647L49.1868 49.392ZM47.4907 54V53.5L45.4748 53.5V54V54.5L47.4907 54.5V54ZM45.4748 54V53.5C44.2762 53.5 43.7155 53.1221 43.4785 52.6454C43.2165 52.1185 43.2383 51.2704 43.6712 50.1109L43.2028 49.936L42.7343 49.7611C42.2712 51.0016 42.133 52.1856 42.583 53.0906C43.058 54.0459 44.0813 54.5 45.4748 54.5V54ZM43.2028 49.936L43.6712 50.1109L44.5672 47.7109L44.0988 47.536L43.6303 47.3611L42.7343 49.7611L43.2028 49.936ZM44.0988 47.536L44.5683 47.7078C44.6947 47.3624 44.7774 47.0682 44.8182 46.818C44.8583 46.5722 44.8635 46.3364 44.8041 46.1249C44.7398 45.8957 44.6026 45.7095 44.4005 45.5942C44.2164 45.4891 44.0217 45.468 43.8748 45.468V45.968L43.8748 46.468C43.9358 46.468 43.9331 46.4789 43.905 46.4628C43.888 46.4531 43.8701 46.4382 43.856 46.4195C43.8425 46.4017 43.84 46.3903 43.8414 46.3951C43.846 46.4116 43.8592 46.4858 43.8313 46.657C43.8041 46.8238 43.7428 47.0536 43.6292 47.3642L44.0988 47.536ZM43.8748 45.968V45.468H43.7788V45.968L43.7788 46.468H43.8748L43.8748 45.968ZM43.7788 45.968L43.3087 45.7976L40.3967 53.8296L40.8668 54L41.3368 54.1704L44.2488 46.1384L43.7788 45.968ZM40.8668 54V53.5L35.8108 53.5V54L35.8108 54.5L40.8668 54.5L40.8668 54ZM45.1227 42.256L45.1227 42.756H45.5068L45.5068 42.256V41.756H45.1227V42.256ZM45.5068 42.256L45.5068 42.756C45.9131 42.756 46.2535 42.6062 46.5202 42.3456C46.7719 42.0996 46.94 41.7732 47.0639 41.4369L46.5947 41.264L46.1256 41.0911C46.0255 41.3628 45.9216 41.5324 45.8213 41.6304C45.736 41.7138 45.6444 41.756 45.5068 41.756V42.256ZM46.5947 41.264L47.0646 41.4349L47.5766 40.0269L47.1068 39.856L46.6369 39.6851L46.1249 41.0931L46.5947 41.264ZM47.1068 39.856L47.5773 40.0249C47.6956 39.6956 47.7741 39.4116 47.8126 39.1675C47.8505 38.9279 47.8551 38.695 47.7961 38.4849C47.7324 38.2579 47.597 38.0702 47.394 37.9522C47.2078 37.844 47.0085 37.82 46.8507 37.82L46.8507 38.32V38.82C46.917 38.82 46.9177 38.832 46.8915 38.8168C46.8485 38.7918 46.8331 38.7541 46.8334 38.7551C46.8384 38.773 46.851 38.8461 46.8249 39.0115C46.7994 39.1724 46.7419 39.3924 46.6362 39.6871L47.1068 39.856ZM46.8507 38.32L46.8507 37.82H46.5628L46.5628 38.32V38.82H46.8507V38.32ZM46.5628 38.32L46.0932 38.1482L44.6532 42.0842L45.1227 42.256L45.5923 42.4278L47.0323 38.4918L46.5628 38.32ZM52.025 45.776L51.5552 45.605L51.5543 45.6073L52.025 45.776ZM54.809 38.128L54.3392 37.9567L54.3392 37.957L54.809 38.128ZM64.569 42.064L65.0388 42.235L65.0397 42.2327L64.569 42.064ZM61.785 49.712L62.2548 49.8833L62.2548 49.883L61.785 49.712ZM57.113 48.688L56.6428 48.5179L56.6426 48.5186L57.113 48.688ZM60.377 39.664L59.9078 39.4911L59.9068 39.4939L60.377 39.664ZM59.481 39.152L59.9512 39.3221L59.9514 39.3214L59.481 39.152ZM56.217 48.176L56.6862 48.3489L56.6872 48.3461L56.217 48.176ZM56.121 54.32V53.82C54.7503 53.82 53.6687 53.4044 52.9326 52.6926C52.1986 51.9829 51.757 50.9295 51.757 49.552L51.257 49.552H50.757C50.757 51.1505 51.2754 52.4811 52.2374 53.4114C53.1973 54.3396 54.5477 54.82 56.121 54.82L56.121 54.32ZM51.257 49.552L51.757 49.552C51.757 48.4094 51.9009 47.6039 52.4957 45.9447L52.025 45.776L51.5543 45.6073C50.9331 47.3401 50.757 48.2626 50.757 49.552H51.257ZM52.025 45.776L52.4948 45.947L55.2788 38.299L54.809 38.128L54.3392 37.957L51.5552 45.605L52.025 45.776ZM54.809 38.128L55.2788 38.2993C55.8229 36.8067 56.4794 35.745 57.3022 35.0551C58.1134 34.3751 59.1295 34.02 60.473 34.02L60.473 33.52V33.02C58.9365 33.02 57.6806 33.4329 56.6598 34.2889C55.6506 35.135 54.9151 36.3773 54.3392 37.9567L54.809 38.128ZM60.473 33.52L60.473 34.02C61.8437 34.02 62.9253 34.4356 63.6614 35.1474C64.3954 35.8571 64.837 36.9105 64.837 38.288H65.337H65.837C65.837 36.6895 65.3186 35.3589 64.3566 34.4286C63.3967 33.5004 62.0463 33.02 60.473 33.02V33.52ZM65.337 38.288H64.837C64.837 39.4306 64.6931 40.2361 64.0983 41.8953L64.569 42.064L65.0397 42.2327C65.6609 40.4999 65.837 39.5774 65.837 38.288H65.337ZM64.569 42.064L64.0992 41.893L61.3152 49.541L61.785 49.712L62.2548 49.883L65.0388 42.235L64.569 42.064ZM61.785 49.712L61.3152 49.5407C60.7711 51.0333 60.1146 52.095 59.2918 52.7849C58.4806 53.4649 57.4645 53.82 56.121 53.82V54.32L56.121 54.82C57.6575 54.82 58.9134 54.4071 59.9342 53.5511C60.9434 52.705 61.6789 51.4627 62.2548 49.8833L61.785 49.712ZM55.961 49.2H55.461C55.461 49.4139 55.5017 49.67 55.6654 49.8817C55.8469 50.1167 56.1119 50.212 56.377 50.212V49.712V49.212C56.3601 49.212 56.3688 49.2092 56.3911 49.219C56.4023 49.2239 56.4147 49.231 56.427 49.2406C56.4392 49.2502 56.4491 49.2606 56.4566 49.2703C56.4715 49.2896 56.4722 49.3 56.4692 49.2883C56.466 49.276 56.461 49.2482 56.461 49.2L55.961 49.2ZM56.377 49.712V50.212C56.5183 50.212 56.6694 50.1833 56.8167 50.1011C56.9592 50.0215 57.0665 49.9095 57.1512 49.7916C57.309 49.5718 57.441 49.2532 57.5834 48.8574L57.113 48.688L56.6426 48.5186C56.497 48.9228 56.405 49.1162 56.3388 49.2084C56.3115 49.2465 56.3068 49.2405 56.3293 49.2279C56.3566 49.2127 56.3797 49.212 56.377 49.212V49.712ZM57.113 48.688L57.5832 48.8581L60.8472 39.8341L60.377 39.664L59.9068 39.4939L56.6428 48.5179L57.113 48.688ZM60.377 39.664L60.8462 39.8369C61.0788 39.2056 61.133 38.8855 61.133 38.64H60.633L60.133 38.64C60.133 38.7145 60.1232 38.9064 59.9078 39.4911L60.377 39.664ZM60.633 38.64H61.133C61.133 38.426 61.0923 38.17 60.9286 37.9583C60.7471 37.7233 60.4821 37.628 60.217 37.628L60.217 38.128V38.628C60.2339 38.628 60.2252 38.6308 60.2029 38.621C60.1917 38.6161 60.1793 38.609 60.167 38.5994C60.1548 38.5898 60.1449 38.5794 60.1374 38.5697C60.1225 38.5504 60.1218 38.54 60.1248 38.5517C60.128 38.564 60.133 38.5918 60.133 38.64L60.633 38.64ZM60.217 38.128L60.217 37.628C60.0757 37.628 59.9246 37.6567 59.7773 37.7389C59.6348 37.8185 59.5275 37.9305 59.4428 38.0484C59.285 38.2682 59.153 38.5868 59.0106 38.9826L59.481 39.152L59.9514 39.3214C60.097 38.9172 60.189 38.7238 60.2552 38.6316C60.2825 38.5935 60.2872 38.5995 60.2647 38.6121C60.2374 38.6273 60.2143 38.628 60.217 38.628V38.128ZM59.481 39.152L59.0108 38.9819L55.7468 48.0059L56.217 48.176L56.6872 48.3461L59.9512 39.3221L59.481 39.152ZM56.217 48.176L55.7478 48.0031C55.5152 48.6344 55.461 48.9545 55.461 49.2H55.961L56.461 49.2C56.461 49.1255 56.4708 48.9336 56.6862 48.3489L56.217 48.176ZM67.3538 54L66.8691 53.8773L66.7113 54.5L67.3538 54.5V54ZM71.0978 39.216L71.5825 39.3387L71.7402 38.716H71.0978V39.216ZM70.8738 39.216V38.716H70.5064L70.3966 39.0666L70.8738 39.216ZM67.5138 49.552L67.9842 49.7212L67.985 49.719L67.5138 49.552ZM65.9137 54V54.5H66.2653L66.3842 54.1692L65.9137 54ZM61.7858 54L61.3161 53.8285L61.0709 54.5L61.7858 54.5L61.7858 54ZM69.1458 33.84L69.1458 33.34L68.796 33.34L68.6761 33.6685L69.1458 33.84ZM75.8658 33.84L76.3456 33.9806L76.5333 33.34H75.8658L75.8658 33.84ZM73.4658 42.032L72.9859 41.8914L72.7983 42.532L73.4658 42.532V42.032ZM73.7218 42.032V42.532H74.0476L74.1792 42.2339L73.7218 42.032ZM77.3378 33.84L77.3378 33.34H77.0119L76.8803 33.6381L77.3378 33.84ZM84.6658 33.84L85.1354 34.0115L85.3806 33.34H84.6658L84.6658 33.84ZM77.3058 54V54.5H77.6555L77.7754 54.1715L77.3058 54ZM72.5378 54L72.0695 53.8248L71.8169 54.5H72.5378V54ZM74.2018 49.552L73.7338 49.3758L73.7334 49.3768L74.2018 49.552ZM78.3938 39.216L78.8543 39.4107L79.1479 38.716H78.3938V39.216ZM78.1058 39.216V38.716H77.7894L77.6539 39.0018L78.1058 39.216ZM71.0978 54V54.5H71.4141L71.5496 54.2142L71.0978 54ZM67.3538 54L67.8385 54.1227L71.5825 39.3387L71.0978 39.216L70.6131 39.0933L66.8691 53.8773L67.3538 54ZM71.0978 39.216V38.716H70.8738V39.216L70.8738 39.716H71.0978L71.0978 39.216ZM70.8738 39.216L70.3966 39.0666C69.4039 42.2367 67.9348 46.8674 67.0425 49.385L67.5138 49.552L67.985 49.719C68.8847 47.1806 70.3596 42.5313 71.3509 39.3654L70.8738 39.216ZM67.5138 49.552L67.0433 49.3828L65.4433 53.8308L65.9137 54L66.3842 54.1692L67.9842 49.7212L67.5138 49.552ZM65.9137 54V53.5L61.7858 53.5V54L61.7858 54.5L65.9137 54.5V54ZM61.7858 54L62.2554 54.1715L69.6154 34.0115L69.1458 33.84L68.6761 33.6685L61.3161 53.8285L61.7858 54ZM69.1458 33.84V34.34L75.8658 34.34V33.84L75.8658 33.34L69.1458 33.34L69.1458 33.84ZM75.8658 33.84L75.3859 33.6994L72.9859 41.8914L73.4658 42.032L73.9456 42.1726L76.3456 33.9806L75.8658 33.84ZM73.4658 42.032V42.532H73.7218V42.032L73.7218 41.532H73.4658L73.4658 42.032ZM73.7218 42.032L74.1792 42.2339L77.7952 34.0419L77.3378 33.84L76.8803 33.6381L73.2643 41.8301L73.7218 42.032ZM77.3378 33.84V34.34L84.6658 34.34V33.84L84.6658 33.34L77.3378 33.34L77.3378 33.84ZM84.6658 33.84L84.1961 33.6685L76.8361 53.8285L77.3058 54L77.7754 54.1715L85.1354 34.0115L84.6658 33.84ZM77.3058 54V53.5L72.5378 53.5V54V54.5L77.3058 54.5V54ZM72.5378 54L73.0061 54.1752L74.6701 49.7272L74.2018 49.552L73.7334 49.3768L72.0695 53.8248L72.5378 54ZM74.2018 49.552L74.6697 49.7282C75.5941 47.2737 77.543 42.513 78.8543 39.4107L78.3938 39.216L77.9332 39.0213C76.6205 42.127 74.6654 46.9023 73.7338 49.3758L74.2018 49.552ZM78.3938 39.216V38.716H78.1058V39.216L78.1058 39.716H78.3938L78.3938 39.216ZM78.1058 39.216L77.6539 39.0018L70.6459 53.7858L71.0978 54L71.5496 54.2142L78.5576 39.4302L78.1058 39.216ZM71.0978 54V53.5L67.3538 53.5V54V54.5L71.0978 54.5V54ZM100.578 54L100.109 53.8278L99.8619 54.5L100.578 54.5V54ZM106.402 38.128L106.871 38.3002L107.118 37.628H106.402V38.128ZM104.226 38.128V37.628H103.877L103.757 37.9558L104.226 38.128ZM98.4019 54V54.5H98.7511L98.8713 54.1722L98.4019 54ZM88.2899 54L87.8203 53.8285L87.5751 54.5L88.2899 54.5V54ZM103.01 13.68V13.18L102.66 13.18L102.54 13.5085L103.01 13.68ZM113.122 13.68L113.592 13.8517L113.837 13.18L113.122 13.18V13.68ZM107.554 28.912L107.084 28.7403L106.839 29.412L107.554 29.412V28.912ZM109.73 28.912V29.412H110.08L110.2 29.0837L109.73 28.912ZM115.298 13.68V13.18H114.948L114.828 13.5083L115.298 13.68ZM125.41 13.68L125.88 13.8515L126.125 13.18L125.41 13.18V13.68ZM110.69 54V54.5L111.04 54.5L111.16 54.1715L110.69 54ZM100.578 54L101.047 54.1722L106.871 38.3002L106.402 38.128L105.933 37.9558L100.109 53.8278L100.578 54ZM106.402 38.128V37.628L104.226 37.628V38.128V38.628L106.402 38.628V38.128ZM104.226 38.128L103.757 37.9558L97.9325 53.8278L98.4019 54L98.8713 54.1722L104.695 38.3002L104.226 38.128ZM98.4019 54V53.5L88.2899 53.5V54V54.5L98.4019 54.5V54ZM88.2899 54L88.7596 54.1715L103.48 13.8515L103.01 13.68L102.54 13.5085L87.8203 53.8285L88.2899 54ZM103.01 13.68L103.01 14.18L113.122 14.18L113.122 13.68V13.18L103.01 13.18V13.68ZM113.122 13.68L112.652 13.5083L107.084 28.7403L107.554 28.912L108.024 29.0837L113.592 13.8517L113.122 13.68ZM107.554 28.912V29.412L109.73 29.412V28.912V28.412L107.554 28.412V28.912ZM109.73 28.912L110.2 29.0837L115.768 13.8517L115.298 13.68L114.828 13.5083L109.26 28.7403L109.73 28.912ZM115.298 13.68L115.298 14.18L125.41 14.18L125.41 13.68V13.18L115.298 13.18V13.68ZM125.41 13.68L124.94 13.5085L110.22 53.8285L110.69 54L111.16 54.1715L125.88 13.8515L125.41 13.68ZM110.69 54V53.5L100.578 53.5V54V54.5L110.69 54.5V54ZM119.379 37.552L118.909 37.3818L118.908 37.3833L119.379 37.552ZM128.019 13.68V13.18L127.668 13.18L127.549 13.5098L128.019 13.68ZM138.131 13.68L138.601 13.851L138.845 13.18L138.131 13.18V13.68ZM127.699 42.352L128.168 42.5249L128.169 42.523L127.699 42.352ZM129.491 43.376L129.021 43.2058L129.02 43.2066L129.491 43.376ZM140.243 13.68V13.18L139.892 13.18L139.773 13.5098L140.243 13.68ZM150.355 13.68L150.825 13.8506L151.068 13.18L150.355 13.18V13.68ZM138.835 45.424L138.365 45.2534L138.364 45.2548L138.835 45.424ZM127.507 54.64V54.14C124.698 54.14 122.416 53.2772 120.839 51.7454C119.265 50.2155 118.343 47.9696 118.343 45.104H117.843L117.343 45.104C117.343 48.1904 118.341 50.7125 120.143 52.4626C121.942 54.2108 124.492 55.14 127.507 55.14V54.64ZM117.843 45.104H118.343C118.343 42.7454 118.647 41.0759 119.85 37.7207L119.379 37.552L118.908 37.3833C117.679 40.8121 117.343 42.5986 117.343 45.104L117.843 45.104ZM119.379 37.552L119.849 37.7222L128.489 13.8502L128.019 13.68L127.549 13.5098L118.909 37.3818L119.379 37.552ZM128.019 13.68L128.019 14.18L138.131 14.18L138.131 13.68V13.18L128.019 13.18V13.68ZM138.131 13.68L137.661 13.509L127.229 42.181L127.699 42.352L128.169 42.523L138.601 13.851L138.131 13.68ZM127.699 42.352L127.23 42.1791C126.773 43.4184 126.687 43.9945 126.687 44.4L127.187 44.4H127.687C127.687 44.1655 127.729 43.7176 128.168 42.5249L127.699 42.352ZM127.187 44.4L126.687 44.4C126.687 44.7739 126.76 45.158 126.991 45.4577C127.241 45.7807 127.61 45.924 128.019 45.924V45.424V44.924C127.852 44.924 127.805 44.8753 127.783 44.8463C127.742 44.794 127.687 44.666 127.687 44.4H127.187ZM128.019 45.424V45.924C128.232 45.924 128.447 45.8813 128.655 45.7656C128.857 45.6525 129.02 45.4875 129.161 45.2916C129.431 44.9158 129.675 44.3412 129.961 43.5454L129.491 43.376L129.02 43.2066C128.731 44.0108 128.527 44.4602 128.349 44.7084C128.265 44.8245 128.205 44.8715 128.167 44.8924C128.135 44.9107 128.094 44.924 128.019 44.924V45.424ZM129.491 43.376L129.961 43.5462L140.713 13.8502L140.243 13.68L139.773 13.5098L129.021 43.2058L129.491 43.376ZM140.243 13.68L140.243 14.18L150.355 14.18L150.355 13.68V13.18L140.243 13.18V13.68ZM150.355 13.68L149.885 13.5094L138.365 45.2534L138.835 45.424L139.305 45.5946L150.825 13.8506L150.355 13.68ZM138.835 45.424L138.364 45.2548C137.36 48.0486 135.977 50.2682 134.191 51.7871C132.413 53.2989 130.21 54.14 127.507 54.14V54.64V55.14C130.436 55.14 132.872 54.2211 134.839 52.5489C136.797 50.8838 138.262 48.4954 139.305 45.5932L138.835 45.424ZM149.456 54L148.971 53.8773L148.814 54.5H149.456V54ZM156.944 24.432L157.429 24.5547L157.586 23.932H156.944V24.432ZM156.496 24.432V23.932H156.129L156.019 24.2826L156.496 24.432ZM149.776 45.104L150.246 45.2732L150.247 45.271L149.776 45.104ZM146.576 54V54.5H146.927L147.046 54.1692L146.576 54ZM138.32 54L137.85 53.8285L137.605 54.5L138.32 54.5V54ZM153.04 13.68V13.18L152.69 13.18L152.57 13.5085L153.04 13.68ZM166.48 13.68L166.96 13.8206L167.147 13.18L166.48 13.18V13.68ZM161.68 30.064L161.2 29.9234L161.012 30.564H161.68V30.064ZM162.192 30.064V30.564L162.518 30.564L162.649 30.2659L162.192 30.064ZM169.424 13.68V13.18L169.098 13.18L168.967 13.4781L169.424 13.68ZM184.08 13.68L184.55 13.8515L184.795 13.18L184.08 13.18V13.68ZM169.36 54V54.5H169.71L169.83 54.1715L169.36 54ZM159.824 54L159.356 53.8248L159.103 54.5H159.824V54ZM163.152 45.104L162.684 44.9278L162.684 44.9288L163.152 45.104ZM171.536 24.432L171.996 24.6267L172.29 23.932H171.536L171.536 24.432ZM170.96 24.432L170.96 23.932H170.644L170.508 24.2178L170.96 24.432ZM156.944 54V54.5H157.26L157.396 54.2142L156.944 54ZM149.456 54L149.941 54.1227L157.429 24.5547L156.944 24.432L156.459 24.3092L148.971 53.8773L149.456 54ZM156.944 24.432V23.932L156.496 23.932V24.432V24.932L156.944 24.932V24.432ZM156.496 24.432L156.019 24.2826C154.034 30.6207 151.093 39.8914 149.305 44.937L149.776 45.104L150.247 45.271C152.043 40.2046 154.99 30.9153 156.973 24.5814L156.496 24.432ZM149.776 45.104L149.305 44.9348L146.105 53.8308L146.576 54L147.046 54.1692L150.246 45.2732L149.776 45.104ZM146.576 54V53.5L138.32 53.5V54V54.5L146.576 54.5V54ZM138.32 54L138.79 54.1715L153.51 13.8515L153.04 13.68L152.57 13.5085L137.85 53.8285L138.32 54ZM153.04 13.68L153.04 14.18L166.48 14.18V13.68V13.18L153.04 13.18V13.68ZM166.48 13.68L166 13.5394L161.2 29.9234L161.68 30.064L162.16 30.2046L166.96 13.8206L166.48 13.68ZM161.68 30.064V30.564H162.192V30.064V29.564H161.68V30.064ZM162.192 30.064L162.649 30.2659L169.881 13.8819L169.424 13.68L168.967 13.4781L161.735 29.8621L162.192 30.064ZM169.424 13.68V14.18L184.08 14.18V13.68V13.18L169.424 13.18V13.68ZM184.08 13.68L183.61 13.5085L168.89 53.8285L169.36 54L169.83 54.1715L184.55 13.8515L184.08 13.68ZM169.36 54V53.5L159.824 53.5V54V54.5L169.36 54.5V54ZM159.824 54L160.292 54.1752L163.62 45.2792L163.152 45.104L162.684 44.9288L159.356 53.8248L159.824 54ZM163.152 45.104L163.62 45.2802C165.472 40.3617 169.373 30.833 171.996 24.6267L171.536 24.432L171.075 24.2373C168.451 30.447 164.544 39.9903 162.684 44.9278L163.152 45.104ZM171.536 24.432L171.536 23.932L170.96 23.932L170.96 24.432V24.932L171.536 24.932V24.432ZM170.96 24.432L170.508 24.2178L156.492 53.7858L156.944 54L157.396 54.2142L171.412 24.6462L170.96 24.432ZM156.944 54V53.5L149.456 53.5V54V54.5L156.944 54.5V54ZM171.122 54L170.667 53.7933L170.346 54.5L171.122 54.5V54ZM189.426 13.68V13.18L189.104 13.18L188.971 13.4733L189.426 13.68ZM205.874 13.68L206.356 13.8131L206.531 13.18L205.874 13.18V13.68ZM194.738 54V54.5H195.119L195.22 54.1331L194.738 54ZM184.818 54L184.34 53.8518L184.139 54.5H184.818V54ZM188.274 42.864L188.751 43.0122L188.953 42.364H188.274V42.864ZM185.522 42.864V42.364H185.189L185.061 42.6706L185.522 42.864ZM180.85 54V54.5H181.182L181.311 54.1934L180.85 54ZM189.362 33.648L188.903 33.4492L188.6 34.148L189.362 34.148V33.648ZM191.154 33.648V34.148H191.522L191.631 33.7971L191.154 33.648ZM191.794 31.6L191.317 31.4499L191.317 31.4509L191.794 31.6ZM195.058 21.232L195.535 21.3821L195.74 20.732L195.058 20.732V21.232ZM194.546 21.232V20.732H194.218L194.087 21.0326L194.546 21.232ZM190.194 31.728L190.653 31.9268L190.654 31.9228L190.194 31.728ZM171.122 54L171.577 54.2067L189.881 13.8867L189.426 13.68L188.971 13.4733L170.667 53.7933L171.122 54ZM189.426 13.68V14.18L205.874 14.18V13.68V13.18L189.426 13.18V13.68ZM205.874 13.68L205.392 13.5469L194.256 53.8669L194.738 54L195.22 54.1331L206.356 13.8131L205.874 13.68ZM194.738 54V53.5L184.818 53.5V54V54.5L194.738 54.5V54ZM184.818 54L185.295 54.1482L188.751 43.0122L188.274 42.864L187.796 42.7158L184.34 53.8518L184.818 54ZM188.274 42.864V42.364L185.522 42.364V42.864V43.364L188.274 43.364V42.864ZM185.522 42.864L185.061 42.6706L180.389 53.8066L180.85 54L181.311 54.1934L185.983 43.0574L185.522 42.864ZM180.85 54V53.5L171.122 53.5V54V54.5L180.85 54.5V54ZM189.362 33.648V34.148H191.154V33.648V33.148H189.362V33.648ZM191.154 33.648L191.631 33.7971L192.271 31.7491L191.794 31.6L191.317 31.4509L190.677 33.4989L191.154 33.648ZM191.794 31.6L192.271 31.7501L195.535 21.3821L195.058 21.232L194.581 21.0819L191.317 31.4499L191.794 31.6ZM195.058 21.232V20.732H194.546V21.232V21.732H195.058V21.232ZM194.546 21.232L194.087 21.0326C192.81 23.9704 191.13 28.2326 189.733 31.5332L190.194 31.728L190.654 31.9228C192.074 28.5674 193.722 24.3816 195.004 21.4314L194.546 21.232ZM190.194 31.728L189.735 31.5292L188.903 33.4492L189.362 33.648L189.821 33.8468L190.653 31.9268L190.194 31.728ZM207.035 54L206.551 53.8733L206.387 54.5H207.035V54ZM214.779 24.432L215.263 24.5587L215.427 23.932L214.779 23.932L214.779 24.432ZM214.267 24.432L214.267 23.932L213.91 23.932L213.794 24.2699L214.267 24.432ZM207.483 44.464L207.954 44.6316L207.954 44.6304L207.483 44.464ZM204.091 54V54.5H204.444L204.562 54.1676L204.091 54ZM196.475 54L196.005 53.8285L195.76 54.5H196.475V54ZM211.195 13.68V13.18L210.845 13.18L210.725 13.5085L211.195 13.68ZM224.635 13.68L225.119 13.8067L225.283 13.18L224.635 13.18V13.68ZM216.891 43.248L216.407 43.1213L216.243 43.748H216.891V43.248ZM217.403 43.248V43.748H217.76L217.876 43.41L217.403 43.248ZM224.187 23.216L223.716 23.0484L223.715 23.0496L224.187 23.216ZM227.579 13.68V13.18L227.226 13.18L227.108 13.5124L227.579 13.68ZM235.195 13.68L235.665 13.8515L235.91 13.18L235.195 13.18V13.68ZM220.475 54V54.5L220.825 54.5L220.945 54.1715L220.475 54ZM207.035 54L207.519 54.1267L215.263 24.5587L214.779 24.432L214.295 24.3053L206.551 53.8733L207.035 54ZM214.779 24.432L214.779 23.932H214.267L214.267 24.432V24.932L214.779 24.932V24.432ZM214.267 24.432L213.794 24.2699C211.42 31.1984 209.316 37.7686 207.011 44.2976L207.483 44.464L207.954 44.6304C210.258 38.1034 212.378 31.4896 214.74 24.594L214.267 24.432ZM207.483 44.464L207.012 44.2964L203.62 53.8324L204.091 54L204.562 54.1676L207.954 44.6316L207.483 44.464ZM204.091 54V53.5L196.475 53.5V54V54.5L204.091 54.5V54ZM196.475 54L196.945 54.1715L211.665 13.8515L211.195 13.68L210.725 13.5085L196.005 53.8285L196.475 54ZM211.195 13.68V14.18L224.635 14.18V13.68V13.18L211.195 13.18V13.68ZM224.635 13.68L224.151 13.5533L216.407 43.1213L216.891 43.248L217.375 43.3747L225.119 13.8067L224.635 13.68ZM216.891 43.248V43.748L217.403 43.748V43.248V42.748L216.891 42.748V43.248ZM217.403 43.248L217.876 43.41C220.25 36.4816 222.354 29.9114 224.658 23.3824L224.187 23.216L223.715 23.0496C221.412 29.5766 219.292 36.1904 216.93 43.0859L217.403 43.248ZM224.187 23.216L224.658 23.3836L228.05 13.8476L227.579 13.68L227.108 13.5124L223.716 23.0484L224.187 23.216ZM227.579 13.68V14.18L235.195 14.18V13.68V13.18L227.579 13.18V13.68ZM235.195 13.68L234.725 13.5085L220.005 53.8285L220.475 54L220.945 54.1715L235.665 13.8515L235.195 13.68ZM220.475 54V53.5L207.035 53.5V54V54.5L220.475 54.5V54ZM227.717 40.432V39.932H227.357L227.243 40.2739L227.717 40.432ZM237.829 40.432L238.301 40.598L238.535 39.932H237.829V40.432ZM238.661 44.848L238.197 44.6623L238.193 44.6724L238.661 44.848ZM235.205 20.784L234.735 20.6137L234.734 20.6168L235.205 20.784ZM255.173 26.48V26.98L255.547 26.98L255.653 26.6211L255.173 26.48ZM245.317 26.48L244.846 26.3118L244.607 26.98L245.317 26.98V26.48ZM244.485 22.832L244.949 23.0177L244.953 23.0076L244.485 22.832ZM247.941 46.896L248.411 47.0663L248.412 47.0632L247.941 46.896ZM236.997 54.64V54.14C234.021 54.14 231.659 53.2733 230.045 51.7413C228.434 50.2125 227.513 47.9693 227.513 45.104H227.013H226.513C226.513 48.1907 227.512 50.7155 229.357 52.4667C231.199 54.2147 233.829 55.14 236.997 55.14V54.64ZM227.013 45.104H227.513C227.513 43.9813 227.639 42.2482 228.191 40.5901L227.717 40.432L227.243 40.2739C226.643 42.0718 226.513 43.9227 226.513 45.104H227.013ZM227.717 40.432L227.717 40.932L237.829 40.932L237.829 40.432V39.932L227.717 39.932V40.432ZM237.829 40.432L237.357 40.266C236.749 41.9957 236.424 43.0006 236.251 43.6172C236.078 44.238 236.049 44.4954 236.049 44.72H236.549H237.049C237.049 44.6246 237.052 44.466 237.214 43.8868C237.378 43.3034 237.693 42.3243 238.301 40.598L237.829 40.432ZM236.549 44.72H236.049C236.049 45.0925 236.121 45.4914 236.387 45.7988C236.665 46.1213 237.068 46.244 237.509 46.244V45.744V45.244C237.246 45.244 237.169 45.1747 237.143 45.1452C237.105 45.1006 237.049 44.9875 237.049 44.72H236.549ZM237.509 45.744V46.244C237.939 46.244 238.298 46.111 238.581 45.8653C238.852 45.6298 239.018 45.3208 239.129 45.0236L238.661 44.848L238.193 44.6724C238.112 44.8872 238.022 45.0262 237.925 45.1107C237.839 45.185 237.719 45.244 237.509 45.244V45.744ZM238.661 44.848L239.125 45.0337C239.415 44.3096 239.481 43.7255 239.481 42.736H238.981L238.481 42.736C238.481 43.6665 238.419 44.1064 238.197 44.6623L238.661 44.848ZM238.981 42.736H239.481C239.481 41.5482 239.172 40.3494 238.731 39.1275C238.293 37.911 237.706 36.6228 237.137 35.2845C235.991 32.5856 234.873 29.5748 234.873 25.968L234.373 25.968H233.873C233.873 29.7852 235.059 32.9504 236.217 35.6755C236.8 37.0492 237.365 38.285 237.791 39.4665C238.214 40.6426 238.481 41.7158 238.481 42.736L238.981 42.736ZM234.373 25.968L234.873 25.968C234.873 24.5919 234.998 22.8621 235.676 20.9512L235.205 20.784L234.734 20.6168C234.004 22.6739 233.873 24.5281 233.873 25.968H234.373ZM235.205 20.784L235.675 20.9543C236.452 18.8109 237.637 16.9612 239.299 15.6483C240.955 14.3399 243.116 13.54 245.893 13.54V13.04V12.54C242.91 12.54 240.527 13.4041 238.679 14.8636C236.837 16.3187 235.558 18.3411 234.735 20.6137L235.205 20.784ZM245.893 13.04V13.54C248.736 13.54 251.033 14.4036 252.617 15.9354C254.199 17.4651 255.121 19.7105 255.121 22.576L255.621 22.576H256.121C256.121 19.4895 255.123 16.9669 253.313 15.2166C251.505 13.4684 248.938 12.54 245.893 12.54V13.04ZM255.621 22.576L255.121 22.576C255.121 23.7109 254.993 25.319 254.693 26.3389L255.173 26.48L255.653 26.6211C255.993 25.465 256.121 23.7451 256.121 22.576H255.621ZM255.173 26.48V25.98L245.317 25.98V26.48V26.98L255.173 26.98V26.48ZM245.317 26.48L245.788 26.6482C246.741 23.9803 246.841 23.383 246.841 22.96H246.341L245.841 22.96C245.841 23.177 245.813 23.6037 244.846 26.3118L245.317 26.48ZM246.341 22.96H246.841C246.841 22.586 246.768 22.202 246.537 21.9023C246.287 21.5793 245.918 21.436 245.509 21.436V21.936V22.436C245.676 22.436 245.723 22.4847 245.745 22.5137C245.786 22.566 245.841 22.6939 245.841 22.96L246.341 22.96ZM245.509 21.936V21.436C244.677 21.436 244.233 22.0797 244.017 22.6564L244.485 22.832L244.953 23.0076C245.121 22.5603 245.317 22.436 245.509 22.436V21.936ZM244.485 22.832L244.021 22.6463C243.731 23.3704 243.665 23.9545 243.665 24.944L244.165 24.944H244.665C244.665 24.0135 244.727 23.5736 244.949 23.0177L244.485 22.832ZM244.165 24.944L243.665 24.944C243.665 26.1318 243.974 27.3306 244.415 28.5525C244.853 29.769 245.44 31.0571 246.009 32.3955C247.155 35.0944 248.273 38.1052 248.273 41.712H248.773H249.273C249.273 37.8948 248.087 34.7296 246.929 32.0045C246.346 30.6308 245.781 29.395 245.355 28.2135C244.932 27.0374 244.665 25.9642 244.665 24.944H244.165ZM248.773 41.712H248.273C248.273 43.0881 248.148 44.8179 247.47 46.7288L247.941 46.896L248.412 47.0632C249.142 45.0061 249.273 43.1519 249.273 41.712H248.773ZM247.941 46.896L247.471 46.7257C246.694 48.8688 245.51 50.7167 243.818 52.0289C242.132 53.3372 239.907 54.14 236.997 54.14V54.64V55.14C240.103 55.14 242.55 54.2788 244.431 52.8191C246.308 51.3633 247.588 49.3392 248.411 47.0663L247.941 46.896Z" fill="#80002B"/>
</svg>
