<?xml version="1.0" encoding="UTF-8" standalone="no"?>
<!DOCTYPE svg PUBLIC "-//W3C//DTD SVG 1.1//EN" "http://www.w3.org/Graphics/SVG/1.1/DTD/svg11.dtd">
<svg width="100%" height="100%" viewBox="0 0 473 591" version="1.1" xmlns="http://www.w3.org/2000/svg" xmlns:xlink="http://www.w3.org/1999/xlink" xml:space="preserve" xmlns:serif="http://www.serif.com/" style="fill-rule:evenodd;clip-rule:evenodd;stroke-linejoin:round;stroke-miterlimit:2;">
    <g id="Motive" transform="matrix(4.16667,0,0,4.16667,0,0)">
        <g transform="matrix(0.24,0,0,0.24,0,0)">
            <path d="M15.808,4.204C15.191,2.932 14.845,1.508 14.845,0.009L14.845,0.001L-0.001,0.001L-0.001,21.101C0.299,21.072 0.591,21.009 0.895,21.009C4.674,21.009 7.938,23.151 9.544,26.292C10.221,27.618 10.603,29.122 10.603,30.718C10.603,36.047 6.27,40.422 0.895,40.422C0.591,40.422 0.299,40.359 -0.001,40.33L-0.001,56.351C0.299,56.322 0.591,56.259 0.895,56.259C4.674,56.259 7.938,58.422 9.544,61.56C10.221,62.885 10.603,64.384 10.603,65.968C10.603,71.343 6.27,75.676 0.895,75.676C0.591,75.676 0.299,75.613 -0.001,75.588L-0.001,91.638C0.299,91.613 0.591,91.551 0.895,91.551C4.674,91.551 7.938,93.693 9.544,96.834C10.221,98.159 10.603,99.663 10.603,101.259C10.603,106.634 6.27,110.968 0.895,110.968C0.591,110.968 0.299,110.905 -0.001,110.876L-0.001,126.93C0.299,126.901 0.591,126.838 0.895,126.838C4.458,126.838 7.562,128.742 9.251,131.592C9.325,131.718 9.397,131.845 9.466,131.975L9.544,132.123C9.585,132.204 9.625,132.286 9.664,132.368L9.748,132.547L9.77,132.598C10.306,133.804 10.603,135.141 10.603,136.551C10.603,141.884 6.27,146.218 0.895,146.218C0.591,146.218 0.299,146.155 -0.001,146.126L-0.001,162.18C0.299,162.155 0.591,162.088 0.895,162.088C4.183,162.088 7.082,163.726 8.836,166.219C9.95,167.802 10.603,169.729 10.603,171.801C10.603,177.176 6.27,181.509 0.895,181.509C0.591,181.509 0.299,181.447 -0.001,181.418L-0.001,197.476C0.299,197.447 0.591,197.384 0.895,197.384C4.87,197.384 8.276,199.755 9.78,203.163L9.842,203.306L9.932,203.525C10.365,204.627 10.603,205.829 10.603,207.088C10.603,212.463 6.27,216.797 0.895,216.797C0.591,216.797 0.299,216.734 -0.001,216.709L-0.001,232.763C0.299,232.738 0.591,232.676 0.895,232.676C3.666,232.676 6.161,233.828 7.927,235.681L8.086,235.851L8.24,236.025L8.391,236.203L8.507,236.348C8.57,236.426 8.631,236.506 8.691,236.586L8.816,236.758C8.86,236.822 8.904,236.886 8.949,236.95L9.017,237.054C9.144,237.248 9.264,237.446 9.377,237.649C10.159,239.048 10.603,240.663 10.603,242.384C10.603,247.713 6.27,252.047 0.895,252.047C0.591,252.047 0.299,251.984 -0.001,251.959L-0.001,268.018C0.299,267.988 0.591,267.926 0.895,267.926C3.985,267.926 6.731,269.372 8.506,271.614L8.537,271.652C9.064,272.325 9.505,273.07 9.842,273.867L9.932,274.086C10.027,274.331 10.114,274.581 10.191,274.835L10.236,274.986L10.277,275.137C10.49,275.934 10.603,276.772 10.603,277.634C10.603,283.009 6.27,287.343 0.895,287.343C0.591,287.343 0.299,287.28 -0.001,287.255L-0.001,303.305C0.299,303.276 0.591,303.218 0.895,303.218C4.276,303.218 7.245,304.932 8.981,307.542C9.187,307.849 9.374,308.169 9.544,308.5C9.641,308.692 9.733,308.887 9.818,309.085C9.934,309.356 10.039,309.634 10.13,309.918C10.438,310.864 10.603,311.875 10.603,312.926C10.603,318.301 6.27,322.634 0.895,322.634C0.591,322.634 0.299,322.572 -0.001,322.543L-0.001,338.597C0.299,338.567 0.591,338.505 0.895,338.505C4.712,338.505 8.004,340.691 9.591,343.884C9.661,344.024 9.727,344.166 9.79,344.31L9.842,344.429L9.932,344.648L10.007,344.846C10.055,344.979 10.101,345.114 10.145,345.249C10.443,346.183 10.603,347.179 10.603,348.213C10.603,353.551 6.27,357.884 0.895,357.884C0.591,357.884 0.299,357.822 -0.001,357.793L-0.001,373.847C0.299,373.817 0.591,373.755 0.895,373.755C2.97,373.755 4.89,374.408 6.465,375.517L6.521,375.555L6.561,375.585C7.938,376.577 9.043,377.922 9.748,379.482L9.757,379.503C9.883,379.782 9.995,380.069 10.095,380.362C10.425,381.338 10.603,382.381 10.603,383.463C10.603,388.838 6.27,393.172 0.895,393.172C0.591,393.172 0.299,393.113 -0.001,393.084L-0.001,409.138C0.299,409.113 0.591,409.051 0.895,409.051C3.75,409.051 6.311,410.274 8.086,412.226L8.086,412.226C8.377,412.548 8.648,412.889 8.895,413.248C9.019,413.428 9.137,413.612 9.249,413.801L9.32,413.921L9.434,414.126L9.544,414.334C9.652,414.545 9.752,414.76 9.845,414.98L9.932,415.194L10.016,415.416L10.095,415.64C10.425,416.619 10.603,417.668 10.603,418.759C10.603,424.088 6.27,428.468 0.895,428.468C0.631,428.468 0.376,428.42 0.118,428.389L0.11,428.388L-0.001,428.376L-0.001,444.43C0.299,444.405 0.591,444.342 0.895,444.342C2.968,444.342 4.885,444.987 6.459,446.087L6.521,446.13C6.584,446.176 6.646,446.222 6.709,446.267L6.88,446.398C7.481,446.868 8.025,447.408 8.5,448.006L8.537,448.051L8.578,448.106C9.041,448.702 9.434,449.355 9.749,450.052C10.298,451.27 10.603,452.624 10.603,454.051C10.603,459.384 6.27,463.718 0.895,463.718C0.667,463.718 0.447,463.682 0.224,463.654L0.207,463.652C0.138,463.644 0.069,463.636 -0.001,463.63L-0.001,479.68C0.299,479.655 0.591,479.592 0.895,479.592C1.676,479.592 2.435,479.685 3.162,479.859L3.209,479.87L3.306,479.895C4.478,480.195 5.564,480.708 6.521,481.39L6.709,481.528L6.894,481.671C7.28,481.975 7.643,482.308 7.978,482.667L8.086,482.783C8.137,482.841 8.189,482.899 8.24,482.957L8.319,483.051C8.444,483.198 8.563,483.348 8.679,483.503L8.816,483.691C8.86,483.755 8.904,483.819 8.949,483.883L9.077,484.079L9.201,484.277L9.32,484.479C9.369,484.567 9.418,484.654 9.465,484.742C9.691,485.166 9.887,485.608 10.049,486.066L10.095,486.196L10.168,486.423C10.451,487.333 10.603,488.3 10.603,489.301C10.603,494.676 6.27,499.009 0.895,499.009C0.591,499.009 0.299,498.947 -0.001,498.918L-0.001,514.972C0.299,514.942 0.591,514.88 0.895,514.88C1.092,514.88 1.288,514.886 1.483,514.898L1.52,514.9L1.644,514.908L1.767,514.918L1.771,514.919C2.221,514.959 2.662,515.029 3.092,515.128C3.253,515.165 3.413,515.206 3.571,515.251L3.787,515.315L3.975,515.376C4.099,515.418 4.221,515.461 4.343,515.507C5.239,515.846 6.071,516.313 6.816,516.887L6.894,516.947C7.229,517.21 7.545,517.494 7.842,517.798L7.927,517.885L8.072,518.041C8.154,518.131 8.234,518.222 8.312,518.314L8.391,518.407L8.498,518.541C8.581,518.645 8.661,518.751 8.74,518.858L8.816,518.963L8.949,519.154C9.123,519.413 9.285,519.68 9.434,519.955C10.18,521.331 10.603,522.909 10.603,524.588C10.603,529.926 6.27,534.301 0.895,534.301C0.632,534.301 0.378,534.251 0.12,534.221L0.111,534.22L-0.001,534.209L-0.001,550.222C0.299,550.197 0.591,550.13 0.895,550.13C1.187,550.13 1.476,550.143 1.761,550.168L1.767,550.169C1.972,550.187 2.175,550.212 2.377,550.243C2.423,550.25 2.47,550.257 2.517,550.265C3.09,550.362 3.646,550.509 4.18,550.702L4.238,550.723L4.46,550.808C4.533,550.838 4.606,550.868 4.68,550.898L4.896,550.993C5.449,551.244 5.975,551.546 6.467,551.892C6.614,551.996 6.759,552.104 6.9,552.215L7.076,552.357L7.152,552.422C7.267,552.519 7.38,552.62 7.491,552.722C8.325,553.495 9.022,554.413 9.544,555.433C9.785,555.906 9.989,556.401 10.152,556.914C10.206,557.082 10.254,557.252 10.299,557.423C10.497,558.196 10.603,559.005 10.603,559.838C10.603,565.218 6.27,569.551 0.895,569.551C0.672,569.551 0.455,569.517 0.237,569.488C0.185,569.481 0.133,569.474 0.08,569.468L-0.001,569.459L-0.001,590.551L14.845,590.551C14.845,585.176 19.22,580.843 24.595,580.843C28.595,580.843 32.033,583.28 33.501,586.766C33.71,587.263 33.88,587.781 34.005,588.316L34.014,588.354C34.023,588.393 34.031,588.433 34.04,588.472L34.065,588.59C34.089,588.709 34.111,588.829 34.131,588.949C34.217,589.469 34.262,590.005 34.262,590.551L50.137,590.551C50.137,585.176 54.512,580.843 59.845,580.843C63.879,580.843 67.325,583.28 68.796,586.766L68.824,586.834C69.021,587.309 69.18,587.803 69.3,588.313L69.31,588.354C69.318,588.393 69.327,588.433 69.336,588.472L69.352,588.55C69.38,588.681 69.404,588.812 69.426,588.944C69.513,589.466 69.558,590.003 69.558,590.551L85.428,590.551C85.428,585.176 89.762,580.843 95.137,580.843C99.055,580.843 102.456,583.182 103.985,586.555L104.078,586.766L104.101,586.823C104.305,587.31 104.47,587.818 104.592,588.342C104.602,588.386 104.612,588.429 104.621,588.472L104.647,588.59C104.669,588.701 104.69,588.813 104.709,588.926C104.798,589.454 104.845,589.997 104.845,590.551L120.678,590.551C120.678,585.176 125.053,580.843 130.387,580.843C134.754,580.843 138.433,583.703 139.66,587.659L139.728,587.888L139.79,588.12L139.819,588.237L139.847,588.354C139.856,588.393 139.865,588.433 139.873,588.472L139.891,588.556C139.918,588.686 139.943,588.817 139.964,588.949C140.05,589.469 140.095,590.005 140.095,590.551L155.97,590.551C155.97,585.176 160.303,580.843 165.678,580.843C170.381,580.843 174.287,584.16 175.19,588.59C175.202,588.649 175.213,588.708 175.224,588.767L175.235,588.829L175.256,588.949C175.342,589.469 175.387,590.005 175.387,590.551L191.266,590.551C191.266,585.176 195.599,580.843 200.974,580.843C205.761,580.843 209.779,584.339 210.546,588.947C210.633,589.468 210.678,590.004 210.678,590.551L226.512,590.551C226.512,585.176 230.887,580.843 236.224,580.843C240.717,580.843 244.479,583.87 245.592,588.004L245.624,588.12L245.653,588.237L245.681,588.354L245.707,588.472C245.716,588.512 245.724,588.551 245.732,588.59C245.748,588.67 245.763,588.749 245.777,588.829L245.798,588.949C245.814,589.047 245.829,589.147 245.842,589.246C245.867,589.43 245.886,589.615 245.9,589.802L245.909,589.926C245.922,590.132 245.928,590.341 245.928,590.551L261.803,590.551C261.803,585.176 266.137,580.843 271.512,580.843C276.169,580.843 280.044,584.095 280.996,588.46L280.998,588.472C281.058,588.748 281.106,589.028 281.142,589.312C281.194,589.718 281.22,590.131 281.22,590.551L297.095,590.551C297.095,585.176 301.428,580.843 306.803,580.843C309.963,580.843 312.771,582.363 314.535,584.72L314.548,584.736L314.579,584.779C315.306,585.765 315.852,586.895 316.165,588.12C316.205,588.276 316.241,588.432 316.273,588.59L316.297,588.709C316.31,588.778 316.322,588.848 316.334,588.918L316.339,588.949L316.35,589.018C316.385,589.236 316.412,589.456 316.432,589.679C316.457,589.966 316.47,590.257 316.47,590.551L332.345,590.551C332.345,585.176 336.72,580.843 342.053,580.843C344.321,580.843 346.403,581.614 348.053,582.909C348.118,582.96 348.182,583.012 348.246,583.065L348.412,583.205C348.47,583.257 348.528,583.308 348.586,583.36L348.757,583.518L348.802,583.563C349.066,583.817 349.316,584.087 349.549,584.37C349.758,584.624 349.955,584.889 350.138,585.164L350.235,585.312L350.319,585.446C350.652,585.985 350.934,586.559 351.157,587.162L351.174,587.207C351.554,588.249 351.762,589.375 351.762,590.551L367.641,590.551C367.641,585.176 371.97,580.843 377.345,580.843C379.928,580.843 382.287,581.859 384.032,583.518C384.226,583.703 384.412,583.895 384.59,584.095L384.676,584.192C384.963,584.522 385.227,584.871 385.468,585.238C385.527,585.327 385.585,585.419 385.641,585.511C385.913,585.957 386.149,586.426 386.347,586.915C386.446,587.158 386.535,587.406 386.614,587.659C386.9,588.572 387.053,589.543 387.053,590.551L402.928,590.551C402.928,585.176 407.262,580.843 412.637,580.843C414.887,580.843 416.959,581.614 418.602,582.909C418.67,582.962 418.736,583.016 418.802,583.071L418.961,583.205C419.018,583.257 419.076,583.308 419.134,583.36L419.304,583.518C419.598,583.8 419.875,584.1 420.132,584.417L420.24,584.551C420.287,584.613 420.334,584.675 420.381,584.736L420.518,584.925C420.635,585.091 420.748,585.261 420.855,585.434L420.903,585.511C420.942,585.578 420.982,585.645 421.021,585.713L421.136,585.917C421.244,586.118 421.346,586.323 421.44,586.532C421.53,586.73 421.613,586.931 421.689,587.136L421.716,587.207C421.879,587.654 422.01,588.116 422.107,588.59L422.13,588.709C422.138,588.749 422.145,588.789 422.152,588.829C422.251,589.387 422.303,589.963 422.303,590.551L438.178,590.551C438.178,585.176 442.553,580.843 447.887,580.843C450.49,580.843 452.85,581.859 454.59,583.518C454.758,583.679 454.921,583.846 455.078,584.018C455.13,584.075 455.181,584.133 455.232,584.192C455.496,584.497 455.741,584.819 455.965,585.155C456.148,585.428 456.317,585.712 456.472,586.004C456.77,586.567 457.014,587.163 457.197,587.785L457.228,587.888L457.259,588.004C457.363,588.386 457.443,588.778 457.499,589.178L457.501,589.19L457.512,589.272C457.567,589.69 457.595,590.117 457.595,590.551L472.441,590.551L472.441,569.459C470.387,569.265 468.52,568.444 467.039,567.185C465.79,566.124 464.816,564.752 464.238,563.184C464.163,562.981 464.095,562.775 464.034,562.566L463.973,562.349L463.917,562.13L463.895,562.036C463.731,561.331 463.645,560.596 463.645,559.838C463.645,554.822 467.503,550.692 472.441,550.226L472.441,534.205C471.374,534.104 470.358,533.833 469.42,533.418C467.577,532.604 466.036,531.237 465.011,529.529L464.9,529.339L464.793,529.147C464.759,529.082 464.725,529.017 464.691,528.951L464.609,528.788C464.506,528.576 464.41,528.359 464.323,528.139C464.269,528.004 464.218,527.866 464.17,527.728L464.099,527.516C464.077,527.445 464.055,527.373 464.034,527.302L463.973,527.086L463.917,526.867L463.902,526.802C463.854,526.6 463.812,526.394 463.778,526.187L463.777,526.181C463.69,525.663 463.645,525.131 463.645,524.588C463.645,519.53 467.503,515.438 472.441,514.972L472.441,498.918C469.022,498.597 466.12,496.537 464.659,493.618L464.592,493.483L464.57,493.435C464.346,492.964 464.161,492.472 464.015,491.963L463.973,491.812L463.917,491.593L463.895,491.497C463.731,490.793 463.645,490.058 463.645,489.301C463.645,484.276 467.503,480.151 472.441,479.684L472.441,463.626C471.515,463.539 470.627,463.325 469.796,463C469.684,462.956 469.573,462.91 469.463,462.863C468.893,462.616 468.352,462.317 467.846,461.971C467.763,461.914 467.68,461.855 467.598,461.795L467.488,461.715L467.409,461.654C467.16,461.463 466.921,461.26 466.693,461.046C465.444,459.88 464.509,458.385 464.022,456.695L463.973,456.52L463.917,456.301L463.866,456.08C463.851,456.006 463.836,455.931 463.82,455.857L463.78,455.632L463.763,455.522C463.685,455.03 463.645,454.525 463.645,454.009C463.645,448.984 467.503,444.897 472.441,444.434L472.441,428.376C471.697,428.305 470.978,428.151 470.294,427.923L470.216,427.898L470.15,427.875C469.96,427.809 469.773,427.737 469.589,427.66C469.397,427.579 469.207,427.492 469.022,427.399C467.289,426.537 465.851,425.177 464.9,423.507L464.793,423.315C464.692,423.127 464.597,422.935 464.508,422.74C464.458,422.631 464.41,422.519 464.364,422.407L464.325,422.314L464.322,422.306C464.213,422.033 464.117,421.755 464.034,421.471L463.973,421.255C463.759,420.459 463.645,419.622 463.645,418.759C463.645,413.697 467.503,409.605 472.441,409.143L472.441,393.08C470.164,392.867 468.116,391.881 466.571,390.385L466.495,390.311L466.469,390.284C465.854,389.671 465.321,388.976 464.89,388.214C464.752,387.971 464.624,387.721 464.508,387.464C464.474,387.391 464.441,387.317 464.41,387.242L464.325,387.037C464.295,386.96 464.266,386.884 464.237,386.807C464.163,386.605 464.095,386.399 464.034,386.191C463.938,385.863 463.859,385.527 463.798,385.185L463.78,385.086L463.776,385.063C463.69,384.544 463.645,384.009 463.645,383.463C463.645,378.447 467.503,374.318 472.441,373.847L472.441,357.83C468.413,357.449 465.104,354.635 464.021,350.882C463.931,350.569 463.856,350.249 463.798,349.924L463.78,349.826L463.758,349.685C463.683,349.205 463.645,348.714 463.645,348.213C463.645,343.151 467.503,339.063 472.441,338.597L472.441,322.543C469.178,322.231 466.387,320.325 464.869,317.619L464.793,317.481L464.725,317.351C464.434,316.793 464.197,316.203 464.02,315.588L463.973,315.421L463.917,315.203L463.866,314.983C463.851,314.909 463.836,314.835 463.82,314.761L463.78,314.538L463.778,314.528C463.691,314.007 463.645,313.472 463.645,312.926C463.645,307.863 467.503,303.772 472.441,303.309L472.441,287.251C469.147,286.942 466.333,285.018 464.825,282.268C464.742,282.117 464.663,281.964 464.589,281.809L464.499,281.616C464.469,281.548 464.439,281.481 464.41,281.413L464.325,281.207C464.298,281.138 464.272,281.069 464.245,281L464.181,280.822C464.121,280.649 464.066,280.474 464.015,280.297C463.774,279.453 463.645,278.56 463.645,277.634C463.645,272.609 467.503,268.484 472.441,268.018L472.441,252.001C470.537,251.819 468.793,251.094 467.37,249.984L467.314,249.941L467.187,249.838C466.947,249.641 466.716,249.433 466.495,249.214C466.44,249.159 466.386,249.104 466.332,249.048C465.741,248.433 465.231,247.74 464.819,246.987C464.74,246.843 464.664,246.696 464.592,246.547L464.499,246.347C464.295,245.895 464.124,245.426 463.99,244.942C463.765,244.128 463.645,243.27 463.645,242.384C463.645,237.322 467.503,233.23 472.441,232.768L472.441,216.705C469.147,216.396 466.333,214.472 464.825,211.722L464.793,211.664C464.759,211.599 464.725,211.534 464.691,211.469L464.608,211.303C464.361,210.794 464.158,210.26 464.003,209.706C463.769,208.874 463.645,207.997 463.645,207.088C463.645,202.03 467.503,197.938 472.441,197.476L472.441,181.418C470.323,181.217 468.404,180.35 466.903,179.026L466.813,178.946L466.652,178.798L466.521,178.671C466.362,178.514 466.208,178.353 466.06,178.186C465.606,177.673 465.205,177.111 464.868,176.509C464.739,176.279 464.619,176.043 464.509,175.802C464.443,175.659 464.381,175.513 464.323,175.366L464.305,175.32C464.191,175.028 464.091,174.73 464.005,174.425C463.77,173.591 463.645,172.712 463.645,171.801C463.645,166.776 467.503,162.651 472.441,162.184L472.441,146.163C469.166,145.854 466.366,143.935 464.851,141.212C464.734,141.001 464.624,140.785 464.523,140.565C464.32,140.125 464.15,139.668 464.015,139.195L463.973,139.046L463.917,138.828C463.862,138.602 463.815,138.373 463.777,138.141L463.769,138.095C463.687,137.592 463.645,137.077 463.645,136.551C463.645,131.488 467.503,127.397 472.441,126.93L472.441,110.876C469.147,110.567 466.333,108.643 464.825,105.893C464.742,105.743 464.664,105.59 464.59,105.436C464.358,104.952 464.165,104.446 464.015,103.922L463.973,103.77L463.917,103.551L463.895,103.456C463.731,102.751 463.645,102.016 463.645,101.259C463.645,96.234 467.503,92.109 472.441,91.643L472.441,75.584C469.147,75.276 466.333,73.351 464.825,70.601C464.718,70.407 464.618,70.208 464.525,70.005C464.322,69.564 464.151,69.105 464.015,68.63L463.973,68.478L463.917,68.259L463.895,68.164C463.731,67.459 463.645,66.724 463.645,65.968C463.645,60.943 467.503,56.822 472.441,56.351L472.441,40.33C469.145,40.018 466.33,38.077 464.823,35.327C464.71,35.122 464.605,34.912 464.507,34.698C464.312,34.269 464.147,33.823 464.015,33.363L463.973,33.213L463.917,32.995L463.895,32.9C463.731,32.199 463.645,31.468 463.645,30.718C463.645,25.655 467.503,21.563 472.441,21.101L472.441,0.001L457.595,0.001L457.595,0.009C457.595,5.338 453.262,9.718 447.887,9.718C444.72,9.718 441.892,8.174 440.115,5.804C439.744,5.307 439.418,4.775 439.145,4.212L439.141,4.204L439.071,4.055C438.895,3.677 438.743,3.286 438.617,2.884C438.57,2.732 438.526,2.579 438.486,2.425C438.285,1.652 438.178,0.842 438.178,0.009C438.178,0.005 438.182,0.001 438.182,0.001L422.303,0.001L422.303,0.009C422.303,5.338 417.97,9.718 412.637,9.718C410.285,9.718 408.133,8.879 406.456,7.49L406.278,7.339C406.22,7.287 406.162,7.236 406.104,7.184L405.995,7.082C405.85,6.947 405.71,6.807 405.575,6.663C405.318,6.391 405.077,6.104 404.853,5.804C404.76,5.679 404.67,5.552 404.583,5.423L404.455,5.227C403.908,4.373 403.492,3.43 403.233,2.425C403.034,1.652 402.928,0.842 402.928,0.009C402.928,0.005 402.933,0.001 402.932,0.001L387.053,0.001L387.053,0.009C387.053,5.338 382.678,9.718 377.345,9.718C374.559,9.718 372.053,8.541 370.287,6.665C369.252,5.566 368.47,4.227 368.034,2.743C367.962,2.5 367.9,2.254 367.847,2.003C367.712,1.359 367.641,0.692 367.641,0.009L367.641,0.001L351.762,0.001L351.762,0.009C351.762,5.338 347.428,9.718 342.053,9.718C339.94,9.718 337.978,9.03 336.379,7.868C333.94,6.098 332.345,3.227 332.345,0.009L332.345,0.001L316.47,0.001L316.47,0.009C316.47,5.338 312.137,9.718 306.803,9.718C302.038,9.718 298.092,6.276 297.258,1.782C297.151,1.207 297.095,0.614 297.095,0.009L297.095,0.001L281.22,0.001L281.22,0.009C281.22,5.338 276.887,9.718 271.512,9.718C266.137,9.718 261.803,5.338 261.803,0.009L261.803,0.001L245.924,0.001L245.926,0.003C245.927,0.005 245.928,0.007 245.928,0.009C245.928,5.338 241.599,9.718 236.224,9.718C233.084,9.718 230.277,8.202 228.499,5.869C228.425,5.772 228.353,5.673 228.282,5.574C227.741,4.807 227.309,3.96 227.007,3.055C226.685,2.096 226.512,1.071 226.512,0.009C226.512,0.005 226.516,0.001 226.516,0.001L210.674,0.001L210.676,0.003C210.677,0.005 210.678,0.007 210.678,0.009C210.678,5.338 206.303,9.718 200.974,9.718C197.531,9.718 194.515,7.92 192.792,5.227C192.75,5.162 192.709,5.096 192.668,5.029L192.549,4.827L192.484,4.71C192.336,4.444 192.2,4.171 192.078,3.89C191.93,3.555 191.802,3.21 191.693,2.857C191.415,1.956 191.266,0.999 191.266,0.009L191.266,0.001L175.387,0.001L175.387,0.009C175.387,5.338 171.053,9.718 165.678,9.718C161.86,9.718 158.568,7.508 156.981,4.318L156.925,4.204L156.905,4.162C156.777,3.892 156.661,3.616 156.558,3.334C156.177,2.296 155.97,1.175 155.97,0.009L155.97,0.001L140.095,0.001L140.095,0.009C140.095,5.338 135.762,9.718 130.387,9.718C126.387,9.718 122.926,7.254 121.445,3.774C120.952,2.614 120.678,1.341 120.678,0.009L120.678,0.001L104.845,0.001L104.845,0.009C104.845,5.338 100.47,9.718 95.137,9.718C91.379,9.718 88.13,7.577 86.516,4.468C86.47,4.381 86.426,4.293 86.383,4.204L86.284,3.99L86.239,3.889C85.717,2.699 85.428,1.386 85.428,0.009L85.428,0.001L69.553,0.001L69.555,0.003C69.556,0.005 69.558,0.007 69.558,0.009C69.558,5.338 65.224,9.718 59.845,9.718C56.158,9.718 52.929,7.625 51.287,4.571C50.554,3.209 50.137,1.654 50.137,0.009C50.137,0.005 50.141,0.001 50.141,0.001L34.262,0.001L34.262,0.009C34.262,5.338 29.928,9.718 24.595,9.718C20.732,9.718 17.386,7.456 15.808,4.204Z" style="fill:rgb(235,91,91);fill-rule:nonzero;"/>
        </g>
        <g transform="matrix(1,0,0,1,8.5826,133.196)">
            <path d="M0,-124.613C-0.481,-124.137 -0.21,-124.016 -0.21,-123.339C-0.21,-122.662 -0.089,-122.662 -0.089,-121.985C-0.089,-121.308 -0.077,-121.308 -0.077,-120.63C-0.077,-119.952 0.002,-119.952 0.002,-119.275C0.002,-118.597 -0.125,-118.597 -0.125,-117.92C-0.125,-117.243 -0.013,-117.243 -0.013,-116.565C-0.013,-115.889 -0.022,-115.889 -0.022,-115.212C-0.022,-114.535 -0.191,-114.535 -0.191,-113.859C-0.191,-113.182 0.01,-113.182 0.01,-112.506C0.01,-111.83 -0.172,-111.83 -0.172,-111.154C-0.172,-110.478 -0.124,-110.478 -0.124,-109.802C-0.124,-109.126 0.065,-109.126 0.065,-108.45C0.065,-107.774 -0.111,-107.774 -0.111,-107.098C-0.111,-106.422 0.104,-106.422 0.104,-105.746C0.104,-105.07 -0.112,-105.07 -0.112,-104.394C-0.112,-103.718 0.099,-103.718 0.099,-103.042C0.099,-102.366 -0.199,-102.366 -0.199,-101.69C-0.199,-101.013 -0.194,-101.013 -0.194,-100.337C-0.194,-99.66 -0.25,-99.66 -0.25,-98.983C-0.25,-98.306 -0.026,-98.306 -0.026,-97.629C-0.026,-96.951 -0.152,-96.951 -0.152,-96.273C-0.152,-95.595 0.097,-95.595 0.097,-94.917C0.097,-94.239 -0.213,-94.239 -0.213,-93.561C-0.213,-92.884 -0.008,-92.884 -0.008,-92.206C-0.008,-91.529 -0.042,-91.529 -0.042,-90.852C-0.042,-90.175 -0.125,-90.175 -0.125,-89.498C-0.125,-88.822 -0.077,-88.822 -0.077,-88.145C-0.077,-87.468 -0.17,-87.468 -0.17,-86.791C-0.17,-86.115 -0.218,-86.115 -0.218,-85.438C-0.218,-84.762 -0.16,-84.762 -0.16,-84.085C-0.16,-83.408 -0.161,-83.408 -0.161,-82.731C-0.161,-82.054 -0.04,-82.054 -0.04,-81.377C-0.04,-80.7 -0.048,-80.7 -0.048,-80.022C-0.048,-79.345 -0.108,-79.345 -0.108,-78.667C-0.108,-77.989 0.045,-77.989 0.045,-77.311C0.045,-76.632 0.009,-76.632 0.009,-75.954C0.009,-75.276 0.075,-75.276 0.075,-74.599C0.075,-73.921 -0.097,-73.921 -0.097,-73.244C-0.097,-72.567 0.008,-72.567 0.008,-71.889C0.008,-71.212 0.08,-71.212 0.08,-70.535C0.08,-69.858 -0.206,-69.858 -0.206,-69.181C-0.206,-68.503 -0.073,-68.503 -0.073,-67.826C-0.073,-67.148 -0.171,-67.148 -0.171,-66.471C-0.171,-65.793 0.064,-65.793 0.064,-65.115C0.064,-64.436 -0.21,-64.436 -0.21,-63.758C-0.21,-63.08 -0.202,-63.08 -0.202,-62.401C-0.202,-61.724 -0.243,-61.724 -0.243,-61.046C-0.243,-60.368 -0.022,-60.368 -0.022,-59.691C-0.022,-59.013 0.072,-59.013 0.072,-58.336C0.072,-57.658 -0.245,-57.658 -0.245,-56.98C-0.245,-56.302 -0.103,-56.302 -0.103,-55.624C-0.103,-54.946 0.092,-54.946 0.092,-54.267C0.092,-53.589 -0.087,-53.589 -0.087,-52.911C-0.087,-52.232 -0.159,-52.232 -0.159,-51.554C-0.159,-50.876 0.036,-50.876 0.036,-50.199C0.036,-49.523 -0.235,-49.523 -0.235,-48.847C-0.235,-48.171 -0.214,-48.171 -0.214,-47.496C-0.214,-46.82 0.074,-46.82 0.074,-46.145C0.074,-45.469 0.051,-45.469 0.051,-44.793C0.051,-44.117 -0.265,-44.117 -0.265,-43.441C-0.265,-42.764 -0.098,-42.764 -0.098,-42.087C-0.098,-41.409 -0.131,-41.409 -0.131,-40.731C-0.131,-40.051 0.083,-40.051 0.083,-39.372C0.083,-38.694 0.074,-38.694 0.074,-38.016C0.074,-37.338 -0.151,-37.338 -0.151,-36.661C-0.151,-35.984 -0.145,-35.984 -0.145,-35.307C-0.145,-34.63 -0.169,-34.63 -0.169,-33.953C-0.169,-33.275 0.013,-33.275 0.013,-32.597C0.013,-31.918 -0.099,-31.918 -0.099,-31.24C-0.099,-30.56 0.067,-30.56 0.067,-29.881C0.067,-29.202 -0.127,-29.202 -0.127,-28.524C-0.127,-27.846 0.097,-27.846 0.097,-27.168C0.097,-26.49 -0.103,-26.49 -0.103,-25.811C-0.103,-25.132 -0.102,-25.132 -0.102,-24.452C-0.102,-23.773 -0.119,-23.773 -0.119,-23.094C-0.119,-22.415 -0.207,-22.415 -0.207,-21.736C-0.207,-21.057 0.003,-21.057 0.003,-20.378C0.003,-19.698 -0.218,-19.698 -0.218,-19.018C-0.218,-18.339 0.013,-18.339 0.013,-17.66C0.013,-16.98 -0.038,-16.98 -0.038,-16.3C-0.038,-15.62 0.004,-15.62 0.004,-14.941C0.004,-14.261 -0.107,-14.261 -0.107,-13.581C-0.107,-12.902 -0.023,-12.902 -0.023,-12.224C-0.023,-11.546 -0.029,-11.546 -0.029,-10.867C-0.029,-10.187 -0.064,-10.187 -0.064,-9.506C-0.064,-8.826 -0.06,-8.826 -0.06,-8.147C-0.06,-7.467 -0.207,-7.467 -0.207,-6.786C-0.207,-6.105 -0.02,-6.105 -0.02,-5.424C-0.02,-4.744 -0.164,-4.744 -0.164,-4.063C-0.164,-3.381 -0.166,-3.381 -0.166,-2.7C-0.166,-2.017 -0.26,-2.017 -0.26,-1.334C-0.26,-0.651 -0.478,-0.533 0,-0.045C0.467,0.433 0.59,0.034 1.259,0.034C1.928,0.034 1.928,-0.127 2.597,-0.127C3.266,-0.127 3.266,0.163 3.936,0.163C4.606,0.163 4.606,0.197 5.276,0.197C5.947,0.197 5.947,-0.133 6.619,-0.133C7.291,-0.133 7.291,0.166 7.964,0.166C8.635,0.166 8.635,0.203 9.307,0.203C9.977,0.203 9.977,-0.116 10.648,-0.116C11.318,-0.116 11.318,-0.113 11.988,-0.113C12.659,-0.113 12.659,0.204 13.329,0.204C14,0.204 14,-0.067 14.671,-0.067C15.343,-0.067 15.343,0.181 16.015,0.181C16.687,0.181 16.687,0.104 17.36,0.104C18.032,0.104 18.032,0.049 18.703,0.049C19.375,0.049 19.375,-0.151 20.046,-0.151C20.717,-0.151 20.717,-0.119 21.389,-0.119C22.062,-0.119 22.062,0.113 22.734,0.113C23.407,0.113 23.407,0.215 24.079,0.215C24.751,0.215 24.751,-0.053 25.423,-0.053C26.096,-0.053 26.096,0.118 26.768,0.118C27.441,0.118 27.441,-0.068 28.114,-0.068C28.787,-0.068 28.787,0.043 29.459,0.043C30.132,0.043 30.132,0.192 30.806,0.192C31.478,0.192 31.478,0.163 32.151,0.163C32.824,0.163 32.824,0.161 33.497,0.161C34.169,0.161 34.169,0.122 34.841,0.122C35.512,0.122 35.512,-0.07 36.184,-0.07C36.858,-0.07 36.858,-0.066 37.531,-0.066C38.204,-0.066 38.204,-0.067 38.877,-0.067C39.551,-0.067 39.551,-0.002 40.224,-0.002C40.899,-0.002 40.899,-0.099 41.573,-0.099C42.246,-0.099 42.246,-0.022 42.92,-0.022C43.595,-0.022 43.595,-0.038 44.27,-0.038C44.946,-0.038 44.946,0.19 45.622,0.19C46.298,0.19 46.366,0.365 47.016,0.179C47.112,-0.236 47.146,-0.834 47.252,-1.308C47.347,-1.732 47.607,-2.143 47.709,-2.611C47.802,-3.04 47.856,-3.497 47.954,-3.96C48.045,-4.393 47.968,-4.876 48.062,-5.336C48.152,-5.773 48.137,-6.241 48.228,-6.7C48.316,-7.139 48.525,-7.562 48.613,-8.02C48.698,-8.46 48.716,-8.921 48.801,-9.377C48.883,-9.82 48.953,-10.27 49.034,-10.726C49.114,-11.169 49.43,-11.577 49.508,-12.032C49.585,-12.478 49.545,-12.948 49.62,-13.402C49.694,-13.847 49.82,-14.288 49.891,-14.741C49.962,-15.188 49.99,-15.645 50.058,-16.099C50.125,-16.548 50.027,-17.023 50.092,-17.476C50.156,-17.927 50.38,-18.357 50.44,-18.811C50.5,-19.263 50.433,-19.732 50.489,-20.187C50.545,-20.64 50.905,-21.058 50.957,-21.512C51.009,-21.967 50.992,-22.43 51.039,-22.885C51.087,-23.341 51.142,-23.797 51.184,-24.252C51.226,-24.708 51.057,-25.182 51.094,-25.637C51.131,-26.094 51.308,-26.539 51.338,-26.994C51.369,-27.453 51.299,-27.917 51.323,-28.372C51.347,-28.83 51.411,-29.284 51.428,-29.737C51.445,-30.197 51.348,-30.655 51.357,-31.108C51.366,-31.566 51.672,-32.017 51.676,-32.467C51.68,-32.926 51.356,-33.382 51.356,-33.832C51.356,-34.29 51.535,-34.745 51.53,-35.194C51.526,-35.652 51.511,-36.106 51.503,-36.555C51.494,-37.013 51.47,-37.466 51.457,-37.913C51.444,-38.372 51.514,-38.828 51.497,-39.274C51.479,-39.734 51.179,-40.174 51.158,-40.62C51.136,-41.08 51.172,-41.535 51.146,-41.98C51.12,-42.441 51.141,-42.896 51.111,-43.34C51.08,-43.801 51.268,-44.27 51.234,-44.713C51.198,-45.174 50.993,-45.612 50.955,-46.053C50.915,-46.515 50.926,-46.971 50.884,-47.41C50.839,-47.875 50.914,-48.34 50.868,-48.777C50.818,-49.244 50.605,-49.677 50.554,-50.11C50.499,-50.579 50.357,-51.017 50.302,-51.445C50.241,-51.918 50.393,-52.395 50.333,-52.816C50.266,-53.297 50.085,-53.73 50.023,-54.139C49.762,-54.173 49.3,-54.217 48.679,-54.174C48.299,-54.148 47.895,-53.899 47.397,-53.796C47.001,-53.715 46.539,-53.763 46.075,-53.614C45.68,-53.486 45.293,-53.264 44.854,-53.075C44.468,-52.908 44.088,-52.688 43.67,-52.466C43.295,-52.267 42.883,-52.102 42.484,-51.853C42.122,-51.626 41.749,-51.385 41.369,-51.113C41.021,-50.863 40.638,-50.633 40.276,-50.342C39.94,-50.072 39.52,-49.872 39.173,-49.563C38.85,-49.275 38.518,-48.967 38.186,-48.644C37.875,-48.342 37.573,-48.008 37.255,-47.673C36.955,-47.357 36.717,-46.963 36.41,-46.616C36.121,-46.288 35.939,-45.856 35.644,-45.499C35.354,-45.149 34.917,-44.913 34.638,-44.546C34.361,-44.184 34.138,-43.777 33.87,-43.404C33.604,-43.032 33.188,-42.761 32.93,-42.382C32.671,-42.003 32.621,-41.483 32.369,-41.101C32.115,-40.717 31.655,-40.47 31.407,-40.088C31.155,-39.7 31.126,-39.171 30.879,-38.79C30.627,-38.4 30.227,-38.113 29.978,-37.735C29.722,-37.345 29.664,-36.83 29.411,-36.458C29.147,-36.069 28.875,-35.694 28.613,-35.331C28.336,-34.948 27.822,-34.763 27.546,-34.415C27.25,-34.043 27.123,-33.552 26.826,-33.229C26.5,-32.876 26.121,-32.604 25.791,-32.321C25.423,-32.006 25.136,-31.595 24.759,-31.383C24.341,-31.148 23.865,-31.002 23.432,-30.915C22.989,-30.826 22.532,-31.03 22.067,-31.12C21.651,-31.2 21.195,-31.24 20.757,-31.481C20.345,-31.71 19.958,-31.968 19.635,-32.276C19.303,-32.592 18.959,-32.925 18.721,-33.315C18.487,-33.698 18.533,-34.215 18.389,-34.659C18.253,-35.08 18.196,-35.502 18.14,-35.97C18.088,-36.408 17.902,-36.842 17.92,-37.313C17.937,-37.754 17.948,-38.212 18.025,-38.677C18.097,-39.113 18.137,-39.576 18.262,-40.028C18.38,-40.455 18.527,-40.895 18.692,-41.333C18.849,-41.749 19.104,-42.14 19.304,-42.563C19.494,-42.967 19.781,-43.329 20.01,-43.735C20.229,-44.125 20.295,-44.62 20.549,-45.01C20.794,-45.385 21.254,-45.62 21.531,-45.992C21.798,-46.352 22.104,-46.68 22.402,-47.036C22.69,-47.38 22.89,-47.805 23.206,-48.143C23.514,-48.472 23.747,-48.885 24.081,-49.207C24.405,-49.519 24.831,-49.731 25.18,-50.035C25.52,-50.331 25.733,-50.795 26.097,-51.082C26.452,-51.362 26.896,-51.541 27.273,-51.811C27.638,-52.072 27.979,-52.364 28.347,-52.605C28.722,-52.851 29.247,-52.848 29.623,-53.074C30.009,-53.305 30.3,-53.682 30.686,-53.892C31.08,-54.108 31.412,-54.44 31.805,-54.636C32.208,-54.836 32.609,-55.042 33.009,-55.222C33.42,-55.408 33.877,-55.479 34.283,-55.644C34.701,-55.815 35.148,-55.891 35.558,-56.041C35.982,-56.197 36.368,-56.44 36.782,-56.575C37.213,-56.716 37.656,-56.795 38.073,-56.915C38.511,-57.042 38.927,-57.214 39.347,-57.32C39.791,-57.432 40.201,-57.645 40.621,-57.736C41.072,-57.833 41.574,-57.583 41.992,-57.658C42.451,-57.742 42.855,-58.007 43.269,-58.067C43.739,-58.136 44.025,-58.186 44.429,-58.23C44.054,-58.435 43.827,-58.695 43.371,-58.91C42.974,-59.097 42.539,-59.279 42.082,-59.463C41.668,-59.629 41.262,-59.897 40.8,-60.054C40.375,-60.197 39.899,-60.259 39.434,-60.388C38.998,-60.509 38.493,-60.414 38.023,-60.517C37.578,-60.615 37.148,-60.838 36.673,-60.915C36.224,-60.989 35.749,-60.949 35.274,-61.001C34.819,-61.051 34.364,-61.227 33.885,-61.254C33.427,-61.28 32.956,-61.343 32.477,-61.345C32.022,-61.348 31.561,-61.275 31.099,-61.26C30.643,-61.245 30.178,-61.301 29.718,-61.273C29.261,-61.245 28.795,-61.27 28.337,-61.232C27.879,-61.194 27.451,-60.823 26.995,-60.779C26.536,-60.734 26.08,-60.694 25.626,-60.646C25.165,-60.596 24.693,-60.693 24.241,-60.644C23.778,-60.594 23.307,-60.676 22.856,-60.629C22.39,-60.58 21.931,-60.565 21.482,-60.524C21.013,-60.482 20.561,-60.392 20.114,-60.362C19.64,-60.331 19.191,-60.059 18.748,-60.048C18.269,-60.036 17.801,-60.079 17.365,-60.098C16.878,-60.119 16.413,-60.196 15.989,-60.265C15.499,-60.344 15.051,-60.491 14.659,-60.649C14.203,-60.832 13.863,-61.142 13.56,-61.454C13.252,-61.772 13.176,-62.18 13.051,-62.657C12.948,-63.05 12.918,-63.444 12.956,-63.962C12.988,-64.414 12.97,-64.843 13.085,-65.269C13.202,-65.701 13.279,-66.138 13.474,-66.54C13.666,-66.938 13.802,-67.386 14.065,-67.752C14.322,-68.109 14.708,-68.375 15.026,-68.699C15.333,-69.011 15.749,-69.198 16.108,-69.476C16.454,-69.744 16.685,-70.188 17.073,-70.422C17.448,-70.648 17.958,-70.631 18.368,-70.823C18.765,-71.01 19.119,-71.296 19.545,-71.45C19.959,-71.599 20.379,-71.742 20.816,-71.858C21.242,-71.971 21.675,-72.069 22.12,-72.15C22.553,-72.228 22.979,-72.421 23.429,-72.467C23.867,-72.513 24.328,-72.262 24.779,-72.276C25.22,-72.29 25.665,-72.567 26.115,-72.549C26.557,-72.531 26.996,-72.374 27.444,-72.325C27.883,-72.277 28.315,-72.17 28.759,-72.091C29.195,-72.013 29.668,-72.084 30.105,-71.975C30.535,-71.867 30.98,-71.772 31.41,-71.633C31.825,-71.499 32.262,-71.396 32.675,-71.24C33.084,-71.087 33.383,-70.648 33.789,-70.476C34.192,-70.305 34.592,-70.133 34.99,-69.946C35.388,-69.76 35.754,-69.519 36.145,-69.32C36.537,-69.12 37.041,-69.135 37.425,-68.925C37.813,-68.712 38.075,-68.282 38.452,-68.061C38.835,-67.838 39.212,-67.618 39.583,-67.389C39.961,-67.155 40.386,-67.011 40.75,-66.774C41.124,-66.531 41.61,-66.465 41.967,-66.221C42.338,-65.968 42.532,-65.475 42.882,-65.226C43.25,-64.964 43.691,-64.824 44.033,-64.57C44.399,-64.299 44.655,-63.91 44.988,-63.653C45.355,-63.371 45.888,-63.338 46.21,-63.079C46.58,-62.783 46.837,-62.358 47.143,-62.103C47.012,-62.478 46.716,-62.872 46.572,-63.323C46.447,-63.712 46.446,-64.17 46.315,-64.612C46.198,-65.011 46.038,-65.42 45.919,-65.86C45.809,-66.266 45.884,-66.736 45.776,-67.174C45.674,-67.586 45.551,-68.004 45.453,-68.442C45.359,-68.859 45.213,-69.273 45.124,-69.712C45.039,-70.131 44.856,-70.541 44.778,-70.979C44.702,-71.401 44.502,-71.813 44.433,-72.252C44.366,-72.677 44.323,-73.116 44.264,-73.556C44.207,-73.982 44.31,-74.437 44.261,-74.876C44.213,-75.306 44.317,-75.755 44.278,-76.197C44.241,-76.628 44.161,-77.057 44.133,-77.499C44.105,-77.932 43.819,-78.357 43.802,-78.799C43.785,-79.233 44.008,-79.679 44.002,-80.121C43.996,-80.593 43.872,-81.055 43.88,-81.506C43.889,-81.979 43.911,-82.442 43.935,-82.892C43.961,-83.365 44.094,-83.817 44.137,-84.265C44.181,-84.736 44.341,-85.177 44.404,-85.621C44.471,-86.09 44.215,-86.6 44.302,-87.039C44.394,-87.505 44.549,-87.951 44.663,-88.383C44.784,-88.844 45.183,-89.203 45.328,-89.624C45.483,-90.074 45.561,-90.528 45.742,-90.934C45.936,-91.37 46.144,-91.774 46.368,-92.159C46.607,-92.571 46.833,-92.966 47.104,-93.32C47.391,-93.697 47.608,-94.125 47.929,-94.437C48.266,-94.765 48.594,-95.122 48.966,-95.379C49.347,-95.643 49.897,-95.608 50.313,-95.799C50.729,-95.99 51.114,-96.224 51.562,-96.343C52,-96.459 52.421,-96.765 52.887,-96.812C53.334,-96.858 53.817,-96.873 54.288,-96.856C54.794,-96.838 55.175,-96.423 55.565,-96.282C56.02,-96.118 56.533,-96.11 56.846,-95.799C57.158,-95.487 57.372,-95.049 57.561,-94.611C57.729,-94.219 57.636,-93.733 57.718,-93.255C57.79,-92.833 58.141,-92.413 58.154,-91.934C58.166,-91.499 57.898,-91.048 57.868,-90.575C57.84,-90.136 57.744,-89.696 57.685,-89.231C57.629,-88.791 57.783,-88.31 57.704,-87.852C57.628,-87.412 57.496,-86.972 57.402,-86.52C57.311,-86.08 57.201,-85.638 57.097,-85.191C56.995,-84.751 56.902,-84.304 56.79,-83.861C56.679,-83.421 56.722,-82.937 56.604,-82.497C56.486,-82.054 56.286,-81.633 56.164,-81.195C56.042,-80.753 55.829,-80.339 55.707,-79.907C55.582,-79.462 55.48,-79.018 55.359,-78.588C55.233,-78.141 55.051,-77.717 54.937,-77.283C54.818,-76.833 54.766,-76.375 54.66,-75.939C54.549,-75.486 54.287,-75.076 54.189,-74.639C54.086,-74.183 54.29,-73.672 54.2,-73.233C54.107,-72.775 53.906,-72.35 53.825,-71.911C53.741,-71.451 53.8,-70.98 53.729,-70.541C53.654,-70.078 53.436,-69.651 53.376,-69.212C53.311,-68.744 53.042,-68.316 52.991,-67.875C52.937,-67.406 53.203,-66.919 53.164,-66.481C53.121,-66.008 53.063,-65.558 53.036,-65.123C53.005,-64.645 52.823,-64.199 52.808,-63.768C52.791,-63.285 52.835,-62.836 52.833,-62.411C52.954,-62.821 52.979,-63.285 53.129,-63.742C53.265,-64.156 53.515,-64.554 53.677,-65C53.828,-65.414 53.866,-65.891 54.041,-66.329C54.206,-66.741 54.35,-67.182 54.537,-67.611C54.716,-68.021 55.188,-68.309 55.389,-68.731C55.582,-69.136 55.645,-69.614 55.86,-70.028C56.066,-70.427 56.231,-70.86 56.459,-71.265C56.679,-71.658 57.029,-71.983 57.27,-72.379C57.504,-72.765 57.798,-73.117 58.052,-73.504C58.301,-73.881 58.383,-74.38 58.651,-74.757C58.914,-75.126 59.264,-75.439 59.547,-75.805C59.824,-76.164 60.013,-76.602 60.309,-76.957C60.6,-77.305 61.09,-77.487 61.4,-77.83C61.705,-78.167 61.826,-78.684 62.15,-79.014C62.463,-79.333 62.76,-79.673 63.08,-79.973C63.405,-80.28 63.887,-80.411 64.219,-80.699C64.557,-80.992 64.956,-81.2 65.299,-81.473C65.649,-81.752 65.847,-82.223 66.201,-82.481C66.563,-82.745 66.973,-82.938 67.338,-83.18C67.712,-83.428 68.031,-83.761 68.406,-83.986C68.79,-84.218 69.216,-84.377 69.6,-84.584C69.996,-84.797 70.408,-84.971 70.801,-85.158C71.208,-85.351 71.669,-85.399 72.071,-85.564C72.489,-85.735 72.816,-86.126 73.227,-86.267C73.654,-86.414 74.088,-86.545 74.506,-86.659C74.944,-86.779 75.413,-86.749 75.838,-86.833C76.284,-86.921 76.741,-86.829 77.17,-86.876C77.623,-86.926 78.049,-87.044 78.478,-87.048C78.935,-87.053 79.397,-87.272 79.823,-87.225C80.277,-87.175 80.713,-86.987 81.125,-86.877C81.566,-86.759 81.979,-86.567 82.365,-86.379C82.772,-86.183 83.081,-85.852 83.419,-85.578C83.762,-85.3 84.184,-85.09 84.447,-84.731C84.702,-84.384 85.011,-84.014 85.183,-83.591C85.369,-83.132 85.239,-82.626 85.281,-82.217C85.33,-81.745 85.394,-81.302 85.271,-80.885C85.146,-80.465 84.776,-80.177 84.497,-79.803C84.245,-79.464 84.081,-79.026 83.719,-78.716C83.398,-78.44 83.022,-78.192 82.626,-77.932C82.268,-77.697 81.928,-77.386 81.518,-77.159C81.14,-76.951 80.674,-76.876 80.259,-76.671C79.869,-76.479 79.523,-76.162 79.105,-75.97C78.707,-75.787 78.32,-75.551 77.901,-75.366C77.499,-75.188 77.031,-75.135 76.614,-74.953C76.208,-74.775 75.807,-74.573 75.392,-74.39C74.985,-74.21 74.569,-74.041 74.158,-73.853C73.752,-73.668 73.344,-73.482 72.936,-73.288C72.533,-73.096 72.068,-73.022 71.666,-72.819C71.266,-72.616 70.87,-72.397 70.476,-72.182C70.081,-71.967 69.749,-71.639 69.363,-71.41C68.976,-71.18 68.638,-70.878 68.263,-70.632C67.887,-70.385 67.58,-70.052 67.219,-69.787C66.861,-69.524 66.37,-69.448 66.028,-69.183C65.675,-68.909 65.383,-68.57 65.048,-68.297C64.702,-68.014 64.246,-67.872 63.919,-67.59C63.579,-67.299 63.279,-66.97 62.959,-66.682C62.627,-66.381 62.299,-66.085 61.988,-65.79C61.662,-65.481 61.53,-64.987 61.228,-64.686C60.907,-64.366 60.423,-64.225 60.129,-63.917C59.815,-63.587 59.588,-63.197 59.305,-62.884C58.996,-62.544 58.729,-62.196 58.457,-61.88C58.153,-61.527 57.71,-61.324 57.452,-61.007C57.15,-60.637 57.033,-60.192 56.794,-59.881C57.178,-60.024 57.591,-60.185 58.065,-60.351C58.468,-60.492 58.924,-60.577 59.386,-60.729C59.799,-60.864 60.263,-60.905 60.719,-61.045C61.14,-61.174 61.549,-61.398 62.002,-61.527C62.43,-61.649 62.826,-61.942 63.279,-62.061C63.713,-62.175 64.189,-62.165 64.643,-62.275C65.081,-62.38 65.535,-62.447 65.99,-62.547C66.432,-62.643 66.906,-62.6 67.362,-62.689C67.807,-62.775 68.255,-62.849 68.711,-62.926C69.159,-63.002 69.567,-63.354 70.024,-63.419C70.474,-63.484 70.925,-63.603 71.382,-63.656C71.836,-63.708 72.321,-63.477 72.78,-63.516C73.235,-63.554 73.675,-63.864 74.134,-63.888C74.592,-63.911 75.057,-63.89 75.516,-63.897C75.975,-63.904 76.435,-63.772 76.894,-63.761C77.372,-63.75 77.845,-63.849 78.299,-63.82C78.777,-63.789 79.215,-63.467 79.666,-63.417C80.143,-63.364 80.606,-63.367 81.052,-63.294C81.526,-63.216 82.027,-63.353 82.466,-63.254C82.936,-63.148 83.321,-62.781 83.751,-62.653C84.215,-62.514 84.741,-62.613 85.158,-62.451C85.609,-62.275 86.039,-62.067 86.435,-61.865C86.87,-61.644 87.197,-61.273 87.564,-61.025C87.97,-60.75 88.327,-60.461 88.649,-60.158C89.006,-59.823 89.278,-59.46 89.531,-59.098C89.808,-58.7 90.156,-58.356 90.305,-57.934C90.463,-57.488 90.337,-57.002 90.349,-56.541C90.361,-56.085 90.598,-55.583 90.466,-55.123C90.343,-54.697 90.128,-54.241 89.88,-53.82C89.641,-53.416 89.346,-53.054 89.065,-52.746C88.757,-52.409 88.412,-52.082 88.046,-51.852C87.678,-51.62 87.167,-51.671 86.734,-51.54C86.332,-51.418 85.923,-51.339 85.46,-51.297C85.047,-51.259 84.621,-51.236 84.155,-51.256C83.74,-51.274 83.309,-51.309 82.849,-51.37C82.434,-51.425 81.956,-51.237 81.502,-51.324C81.088,-51.403 80.666,-51.561 80.219,-51.664C79.807,-51.76 79.392,-51.917 78.951,-52.032C78.539,-52.138 78.107,-52.228 77.669,-52.351C77.257,-52.466 76.815,-52.526 76.378,-52.654C75.967,-52.774 75.546,-52.912 75.112,-53.043C74.701,-53.167 74.309,-53.393 73.877,-53.526C73.464,-53.653 73.069,-53.872 72.636,-54.006C72.222,-54.135 71.78,-54.206 71.348,-54.341C70.892,-54.483 70.48,-54.761 70.033,-54.879C69.571,-55.002 69.083,-55.002 68.632,-55.101C68.163,-55.204 67.719,-55.406 67.264,-55.485C66.791,-55.568 66.314,-55.602 65.857,-55.661C65.379,-55.723 64.887,-55.547 64.428,-55.586C63.948,-55.627 63.492,-55.859 63.034,-55.877C62.552,-55.897 62.079,-55.787 61.623,-55.786C61.137,-55.784 60.664,-55.845 60.212,-55.823C59.721,-55.8 59.256,-55.681 58.809,-55.64C58.314,-55.594 57.818,-55.763 57.381,-55.702C56.878,-55.631 56.433,-55.407 56.013,-55.327C55.487,-55.226 55.063,-55.077 54.679,-54.981C54.847,-54.589 54.894,-54.131 55.084,-53.672C55.251,-53.269 55.553,-52.893 55.733,-52.441C55.898,-52.03 55.909,-51.538 56.082,-51.089C56.242,-50.673 56.504,-50.28 56.67,-49.834C56.826,-49.413 56.858,-48.934 57.018,-48.489C57.171,-48.063 57.449,-47.673 57.603,-47.227C57.751,-46.798 58.071,-46.417 58.219,-45.971C58.363,-45.538 58.308,-45.033 58.45,-44.586C58.588,-44.151 58.918,-43.769 59.054,-43.321C59.187,-42.883 59.336,-42.442 59.466,-41.992C59.593,-41.551 59.647,-41.083 59.771,-40.632C59.892,-40.189 59.837,-39.695 59.954,-39.244C60.069,-38.799 60.321,-38.386 60.431,-37.934C60.54,-37.487 60.49,-37 60.592,-36.546C60.694,-36.095 60.911,-35.668 61.006,-35.213C61.101,-34.76 61.144,-34.297 61.231,-33.841C61.317,-33.386 61.493,-32.946 61.571,-32.487C61.65,-32.03 61.837,-31.588 61.907,-31.129C61.973,-30.687 61.966,-30.226 62.021,-29.771C62.074,-29.327 61.886,-28.852 61.929,-28.397C61.972,-27.952 61.977,-27.503 62.01,-27.048C62.042,-26.601 62.118,-26.156 62.142,-25.701C62.166,-25.252 62.144,-24.801 62.16,-24.346C62.176,-23.896 62.462,-23.451 62.471,-22.997C62.479,-22.545 62.473,-22.09 62.475,-21.636C62.476,-21.184 62.293,-20.731 62.289,-20.277C62.284,-19.824 62.308,-19.371 62.298,-18.918C62.287,-18.464 62.184,-18.015 62.169,-17.563C62.153,-17.107 62.251,-16.648 62.23,-16.196C62.209,-15.739 62.133,-15.288 62.108,-14.836C62.083,-14.379 62.015,-13.928 61.986,-13.477C61.956,-13.02 62.132,-12.552 62.098,-12.102C62.064,-11.645 61.919,-11.2 61.882,-10.752C61.844,-10.295 61.938,-9.831 61.897,-9.386C61.856,-8.928 61.696,-8.488 61.652,-8.045C61.607,-7.586 61.714,-7.119 61.666,-6.677C61.617,-6.216 61.387,-5.785 61.336,-5.345C61.283,-4.883 61.187,-4.439 61.134,-4.003C61.077,-3.539 61.161,-3.072 61.105,-2.64C61.044,-2.172 60.807,-1.747 60.748,-1.322C60.683,-0.847 60.73,-0.369 60.67,0.047C61.32,0.255 61.357,-0.013 62.04,-0.013C62.723,-0.013 62.723,0.109 63.406,0.109C64.09,0.109 64.09,0.119 64.774,0.119C65.459,0.119 65.459,0.09 66.144,0.09C66.828,0.09 66.828,0.21 67.512,0.21C68.196,0.21 68.196,-0.111 68.879,-0.111C69.563,-0.111 69.563,0.11 70.247,0.11C70.932,0.11 70.932,0.209 71.617,0.209C72.302,0.209 72.302,-0.044 72.986,-0.044C73.671,-0.044 73.671,-0.01 74.355,-0.01C75.039,-0.01 75.039,0.104 75.724,0.104C76.41,0.104 76.41,-0.032 77.095,-0.032C77.78,-0.032 77.78,0.12 78.464,0.12C79.15,0.12 79.15,0.16 79.835,0.16L81.206,0.16C81.891,0.16 81.891,-0.012 82.576,-0.012C83.26,-0.012 83.26,-0.15 83.944,-0.15C84.628,-0.15 84.628,0.061 85.312,0.061C85.998,0.061 85.998,0.201 86.684,0.201C87.369,0.201 87.369,0.084 88.054,0.084C88.74,0.084 88.74,0.113 89.426,0.113C90.113,0.113 90.113,0.03 90.799,0.03C91.485,0.03 91.485,0.025 92.171,0.025C92.858,0.025 92.858,0.201 93.546,0.201C94.234,0.201 94.234,0.112 94.922,0.112C95.611,0.112 95.775,0.481 96.266,-0.002C96.748,-0.476 96.156,-0.645 96.156,-1.321C96.156,-1.998 96.281,-1.998 96.281,-2.675C96.281,-3.353 96.119,-3.353 96.119,-4.03C96.119,-4.708 96.355,-4.708 96.355,-5.386C96.355,-6.063 96.164,-6.063 96.164,-6.741C96.164,-7.418 96.252,-7.418 96.252,-8.095C96.252,-8.772 96.214,-8.772 96.214,-9.449C96.214,-10.125 96.176,-10.125 96.176,-10.802C96.176,-11.478 96.286,-11.478 96.286,-12.154C96.286,-12.83 96.4,-12.83 96.4,-13.507C96.4,-14.183 96.238,-14.183 96.238,-14.859C96.238,-15.535 96.336,-15.535 96.336,-16.21C96.336,-16.886 96.394,-16.886 96.394,-17.562C96.394,-18.238 96.319,-18.238 96.319,-18.914C96.319,-19.59 96.177,-19.59 96.177,-20.266C96.177,-20.942 96.379,-20.942 96.379,-21.618C96.379,-22.295 96.23,-22.295 96.23,-22.971C96.23,-23.647 96.436,-23.647 96.436,-24.324C96.436,-25.001 96.326,-25.001 96.326,-25.678C96.326,-26.355 96.236,-26.355 96.236,-27.032C96.236,-27.71 96.217,-27.71 96.217,-28.387C96.217,-29.065 96.19,-29.065 96.19,-29.743C96.19,-30.421 96.41,-30.421 96.41,-31.099C96.41,-31.777 96.122,-31.777 96.122,-32.454C96.122,-33.131 96.411,-33.131 96.411,-33.808C96.411,-34.485 96.236,-34.485 96.236,-35.162C96.236,-35.839 96.415,-35.839 96.415,-36.516C96.415,-37.192 96.269,-37.192 96.269,-37.869C96.269,-38.546 96.349,-38.546 96.349,-39.222C96.349,-39.899 96.237,-39.899 96.237,-40.576C96.237,-41.252 96.145,-41.252 96.145,-41.929C96.145,-42.606 96.194,-42.606 96.194,-43.283C96.194,-43.961 96.113,-43.961 96.113,-44.638C96.113,-45.316 96.472,-45.316 96.472,-45.994C96.472,-46.672 96.367,-46.672 96.367,-47.35C96.367,-48.028 96.394,-48.028 96.394,-48.706C96.394,-49.384 96.113,-49.384 96.113,-50.062C96.113,-50.739 96.314,-50.739 96.314,-51.417C96.314,-52.094 96.337,-52.094 96.337,-52.771C96.337,-53.448 96.182,-53.448 96.182,-54.125C96.182,-54.803 96.286,-54.803 96.286,-55.48C96.286,-56.157 96.317,-56.157 96.317,-56.834C96.317,-57.512 96.145,-57.512 96.145,-58.19C96.145,-58.868 96.178,-58.868 96.178,-59.546C96.178,-60.224 96.324,-60.224 96.324,-60.903C96.324,-61.581 96.212,-61.581 96.212,-62.259C96.212,-62.937 96.458,-62.937 96.458,-63.615C96.458,-64.292 96.168,-64.292 96.168,-64.97C96.168,-65.647 96.141,-65.647 96.141,-66.325C96.141,-67.003 96.304,-67.003 96.304,-67.68C96.304,-68.358 96.227,-68.358 96.227,-69.036C96.227,-69.715 96.472,-69.715 96.472,-70.393C96.472,-71.072 96.32,-71.072 96.32,-71.75C96.32,-72.428 96.438,-72.428 96.438,-73.106C96.438,-73.784 96.284,-73.784 96.284,-74.462C96.284,-75.138 96.148,-75.138 96.148,-75.814C96.148,-76.489 96.239,-76.489 96.239,-77.165C96.239,-77.84 96.281,-77.84 96.281,-78.516C96.281,-79.192 96.29,-79.192 96.29,-79.867C96.29,-80.544 96.187,-80.544 96.187,-81.22C96.187,-81.897 96.376,-81.897 96.376,-82.574C96.376,-83.252 96.335,-83.252 96.335,-83.93C96.335,-84.609 96.337,-84.609 96.337,-85.288C96.337,-85.967 96.146,-85.967 96.146,-86.645C96.146,-87.322 96.484,-87.322 96.484,-88C96.484,-88.677 96.31,-88.677 96.31,-89.354C96.31,-90.031 96.277,-90.031 96.277,-90.708C96.277,-91.386 96.126,-91.386 96.126,-92.063C96.126,-92.742 96.143,-92.742 96.143,-93.421C96.143,-94.1 96.266,-94.1 96.266,-94.78C96.266,-95.458 96.214,-95.458 96.214,-96.136C96.214,-96.814 96.282,-96.814 96.282,-97.492C96.282,-98.171 96.127,-98.171 96.127,-98.849C96.127,-99.529 96.396,-99.529 96.396,-100.208C96.396,-100.887 96.485,-100.887 96.485,-101.567C96.485,-102.245 96.411,-102.245 96.411,-102.924C96.411,-103.603 96.219,-103.603 96.219,-104.282C96.219,-104.962 96.382,-104.962 96.382,-105.642C96.382,-106.322 96.431,-106.322 96.431,-107.001C96.431,-107.681 96.421,-107.681 96.421,-108.361C96.421,-109.04 96.16,-109.04 96.16,-109.72C96.16,-110.4 96.169,-110.4 96.169,-111.08C96.169,-111.758 96.294,-111.758 96.294,-112.436C96.294,-113.115 96.48,-113.115 96.48,-113.793C96.48,-114.474 96.116,-114.474 96.116,-115.155C96.116,-115.834 96.474,-115.834 96.474,-116.514C96.474,-117.194 96.282,-117.194 96.282,-117.874C96.282,-118.556 96.149,-118.556 96.149,-119.237C96.149,-119.917 96.226,-119.917 96.226,-120.597C96.226,-121.279 96.393,-121.279 96.393,-121.961C96.393,-122.644 96.403,-122.644 96.403,-123.327C96.403,-124.01 96.685,-124.113 96.204,-124.597C95.725,-125.079 95.621,-124.507 94.942,-124.507C94.264,-124.507 94.264,-124.534 93.585,-124.534C92.907,-124.534 92.907,-124.733 92.229,-124.733C91.552,-124.733 91.552,-124.588 90.874,-124.588C90.197,-124.588 90.197,-124.566 89.519,-124.566C88.842,-124.566 88.842,-124.7 88.165,-124.7C87.487,-124.7 87.487,-124.742 86.81,-124.742C86.133,-124.742 86.133,-124.731 85.456,-124.731C84.779,-124.731 84.779,-124.654 84.102,-124.654C83.424,-124.654 83.424,-124.81 82.747,-124.81C82.069,-124.81 82.069,-124.615 81.392,-124.615C80.714,-124.615 80.714,-124.837 80.036,-124.837C79.358,-124.837 79.358,-124.637 78.68,-124.637C78.001,-124.637 78.001,-124.557 77.322,-124.557C76.644,-124.557 76.644,-124.662 75.965,-124.662C75.287,-124.662 75.287,-124.553 74.608,-124.553C73.93,-124.553 73.93,-124.652 73.252,-124.652C72.575,-124.652 72.575,-124.878 71.897,-124.878C71.219,-124.878 71.219,-124.641 70.542,-124.641C69.864,-124.641 69.864,-124.539 69.186,-124.539C68.508,-124.539 68.508,-124.677 67.831,-124.677C67.152,-124.677 67.152,-124.746 66.474,-124.746C65.796,-124.746 65.796,-124.593 65.117,-124.593C64.438,-124.593 64.438,-124.643 63.759,-124.643C63.08,-124.643 63.08,-124.632 62.402,-124.632C61.723,-124.632 61.723,-124.718 61.045,-124.718C60.367,-124.718 60.367,-124.63 59.689,-124.63C59.011,-124.63 59.011,-124.715 58.333,-124.715C57.655,-124.715 57.655,-124.607 56.976,-124.607C56.298,-124.607 56.298,-124.861 55.62,-124.861C54.941,-124.861 54.941,-124.644 54.262,-124.644C53.583,-124.644 53.583,-124.605 52.904,-124.605C52.225,-124.605 52.225,-124.575 51.547,-124.575C50.868,-124.575 50.868,-124.726 50.19,-124.726C49.513,-124.726 49.513,-124.713 48.837,-124.713C48.161,-124.713 48.161,-124.532 47.485,-124.532C46.809,-124.532 46.809,-124.665 46.133,-124.665C45.456,-124.665 45.456,-124.608 44.78,-124.608C44.104,-124.608 44.104,-124.573 43.427,-124.573C42.749,-124.573 42.749,-124.613 42.072,-124.613C41.393,-124.613 41.393,-124.622 40.715,-124.622C40.035,-124.622 40.035,-124.527 39.355,-124.527C38.676,-124.527 38.676,-124.788 37.998,-124.788C37.32,-124.788 37.32,-124.739 36.642,-124.739C35.964,-124.739 35.964,-124.654 35.287,-124.654C34.609,-124.654 34.609,-124.653 33.931,-124.653C33.253,-124.653 33.253,-124.62 32.575,-124.62C31.896,-124.62 31.896,-124.71 31.217,-124.71C30.537,-124.71 30.537,-124.772 29.857,-124.772C29.178,-124.772 29.178,-124.741 28.499,-124.741C27.82,-124.741 27.82,-124.86 27.142,-124.86C26.463,-124.86 26.463,-124.695 25.784,-124.695C25.104,-124.695 25.104,-124.844 24.424,-124.844C23.744,-124.844 23.744,-124.805 23.065,-124.805C22.385,-124.805 22.385,-124.61 21.706,-124.61C21.026,-124.61 21.026,-124.804 20.347,-124.804C19.666,-124.804 19.666,-124.721 18.986,-124.721C18.306,-124.721 18.306,-124.583 17.626,-124.583C16.946,-124.583 16.946,-124.782 16.265,-124.782C15.585,-124.782 15.585,-124.589 14.905,-124.589C14.225,-124.589 14.225,-124.756 13.544,-124.756C12.865,-124.756 12.865,-124.782 12.187,-124.782C11.508,-124.782 11.508,-124.693 10.829,-124.693C10.148,-124.693 10.148,-124.624 9.466,-124.624C8.786,-124.624 8.786,-124.598 8.106,-124.598C7.425,-124.598 7.425,-124.66 6.745,-124.66C6.063,-124.66 6.063,-124.875 5.381,-124.875C4.7,-124.875 4.7,-124.623 4.02,-124.623C3.337,-124.623 3.337,-124.708 2.655,-124.708C1.972,-124.708 1.933,-124.421 1.261,-124.545C0.585,-124.67 0.486,-125.094 0,-124.613" style="fill:rgb(252,225,65);fill-rule:nonzero;"/>
        </g>
        <g transform="matrix(1,0,0,1,19.1274,24.4911)">
            <path d="M0,-9.472C0.492,-9.486 0.773,-9.233 1.096,-9.191C1.363,-9.162 1.503,-9.43 1.855,-9.331C2.403,-9.177 2.543,-8.333 1.785,-8.024C1.25,-7.8 0.632,-8.389 0.309,-7.996C-0.056,-7.547 0.421,-6.366 0.239,-5.776C0.028,-5.031 -0.506,-4.932 -0.619,-4.3C-0.688,-3.892 -0.379,-3.555 -0.365,-3.077C-0.337,-2.6 -0.829,-1.827 -0.562,-1.475C-0.309,-1.124 0.52,-1.728 0.998,-1.701C1.49,-1.672 1.714,-0.759 0.941,-0.408C0.52,-0.225 0.323,-0.604 -0.028,-0.548C-0.534,-0.464 -0.688,-0.014 -1.208,0C-1.757,0.014 -1.827,-0.337 -2.164,-0.408C-2.67,-0.506 -3.204,-0.07 -3.851,-0.211C-4.624,-0.379 -4.567,-1.49 -3.668,-1.602C-3.106,-1.672 -2.558,-1.18 -2.052,-1.574C-1.658,-1.883 -2.038,-2.572 -1.996,-2.965C-1.939,-3.443 -1.658,-3.612 -1.574,-4.132C-1.49,-4.652 -1.743,-4.947 -1.701,-5.396C-1.645,-5.846 -1.082,-6.408 -0.942,-6.83C-0.801,-7.293 -0.885,-7.982 -1.335,-8.053C-1.63,-8.095 -1.855,-7.757 -2.305,-7.827C-2.994,-7.94 -2.965,-8.938 -2.178,-9.092C-1.658,-9.177 -1.532,-8.952 -1.138,-9.036C-0.619,-9.149 -0.534,-9.458 0,-9.472" style="fill:rgb(235,91,91);fill-rule:nonzero;"/>
        </g>
        <g transform="matrix(1,0,0,1,34.1904,15.3701)">
            <path d="M0,8.545C-0.351,8.953 -0.773,8.77 -1.25,8.939C-1.785,9.107 -2.08,9.402 -2.642,9.262C-3.218,9.135 -3.316,8.629 -3.878,8.447C-4.511,8.236 -5.298,8.657 -5.706,8.067C-6.029,7.604 -5.438,7.027 -5.298,6.507C-5.171,6.029 -5.298,5.482 -4.806,5.032C-4.314,4.582 -3.612,4.821 -3.583,5.509C-3.555,6.254 -4.371,6.367 -4.131,6.985C-3.878,7.631 -3.204,7.154 -2.572,7.322C-2.249,7.407 -2.052,7.8 -1.756,7.87C-1.377,7.955 -0.927,7.857 -0.871,7.561C-0.815,7.252 -1.054,7.084 -1.026,6.788C-0.998,6.465 -0.59,6.114 -1.026,5.482C-1.56,4.68 -2.572,5.13 -2.965,4.694C-3.26,4.357 -3.078,3.936 -3.331,3.528C-3.583,3.107 -4.483,3.05 -4.314,1.996C-4.118,0.717 -3.063,0.801 -2.6,0.464C-2.094,0.127 -2.192,-0.857 -1.461,-0.857C-0.674,-0.857 -0.548,0.394 -0.141,0.717C0.323,1.083 0.759,0.872 1.125,1.336C1.476,1.771 1.195,2.699 0.408,2.6C-0.464,2.488 -0.618,1.406 -1.307,1.083C-1.981,0.774 -2.726,1.294 -2.726,1.996C-2.726,2.657 -2.206,2.558 -1.953,2.896C-1.7,3.233 -1.897,3.598 -1.574,3.921C-1.012,4.483 -0.52,4.034 0.112,4.357C0.59,4.61 0.885,5.158 0.759,5.706C0.59,6.437 0.112,6.479 0.084,6.915C0.056,7.337 0.408,8.053 0,8.545" style="fill:rgb(235,91,91);fill-rule:nonzero;"/>
        </g>
        <g transform="matrix(1,0,0,1,42.1704,15.5403)">
            <path d="M0,7.7C-0.042,7.25 0.436,6.885 0.872,6.913C1.349,6.941 1.968,7.532 2.319,7.152C2.684,6.744 2.192,5.831 2.361,4.974C2.516,4.145 2.909,4.046 3.106,3.372C3.289,2.753 3.021,2.557 3.12,1.952C3.218,1.376 3.837,1.081 3.583,0.758C3.373,0.491 2.909,0.87 2.488,0.814C1.855,0.73 1.883,-0.043 2.684,-0.437C3.148,-0.661 3.514,-0.366 4.005,-0.479C4.427,-0.577 4.469,-0.901 5.003,-0.943C5.495,-0.985 5.664,-0.619 5.931,-0.605C6.212,-0.591 6.9,-1.181 7.308,-0.648C7.645,-0.212 7.406,0.378 6.83,0.561C6.184,0.772 5.369,0.336 4.863,0.885C4.258,1.545 4.849,2.388 4.582,3.161C4.356,3.822 3.738,4.131 3.612,4.538C3.5,4.932 3.851,5.185 3.837,5.719C3.823,6.323 3.247,6.984 3.668,7.307C4.118,7.658 4.553,6.646 5.129,6.618C5.692,6.59 5.776,7.068 6.268,6.899C6.816,6.702 6.577,5.775 6.844,5.227C7.195,4.51 8.376,4.412 8.32,5.367C8.277,6.042 7.842,6.267 7.771,6.646C7.715,7.012 8.039,8.052 7.406,8.459C6.788,8.853 6.31,8.136 5.481,8.066C5.017,8.023 4.876,8.403 4.343,8.543C3.738,8.698 3.457,8.304 3.078,8.417C2.811,8.501 2.684,8.881 2.235,8.881C1.785,8.881 1.56,8.459 1.307,8.361C1.012,8.248 0.07,8.543 0,7.7" style="fill:rgb(235,91,91);fill-rule:nonzero;"/>
        </g>
        <g transform="matrix(1,0,0,1,63.1503,22.4258)">
            <path d="M0,-5.664C-0.422,-5.818 -0.394,-5.003 -0.548,-4.512C-0.731,-4.005 -1.884,-3.092 -1.518,-2.53C-1.293,-2.193 -1.055,-2.53 -0.717,-2.46C-0.464,-2.403 -0.042,-1.968 0.141,-2.347C0.337,-2.67 -0.211,-3.275 -0.183,-3.752C-0.169,-4.512 0.52,-5.509 0,-5.664M-0.239,-7.224C0.309,-7.182 0.787,-7.547 1.531,-7.449C2.516,-7.336 2.586,-6.17 1.63,-6.17C1.208,-6.17 0.998,-6.507 0.814,-6.268C0.562,-5.959 1.293,-5.509 1.349,-5.003C1.377,-4.736 1.251,-4.638 1.236,-4.413C1.223,-4.202 1.363,-4.005 1.363,-3.71C1.363,-3.331 1.082,-3.205 1.096,-2.797C1.11,-2.375 1.518,-1.912 1.546,-1.434C1.588,-0.731 1.236,0.07 1.461,0.393C1.658,0.674 1.981,0.323 2.318,0.393C2.811,0.492 2.895,1.278 2.36,1.447C1.939,1.574 1.546,1.503 1.054,1.672C0.562,1.84 0.267,2.234 -0.394,2.136C-0.928,2.051 -1.012,1.419 -0.646,1.082C-0.436,0.871 -0.099,1.054 0.196,0.857C0.548,0.604 0.449,-0.886 0,-1.054C-0.38,-1.209 -0.618,-0.956 -0.956,-0.998C-1.279,-1.068 -1.546,-1.532 -1.897,-1.476C-2.347,-1.434 -2.15,-0.886 -2.361,-0.548C-2.586,-0.211 -3.176,-0.113 -2.881,0.365C-2.713,0.66 -2.094,0.182 -1.771,0.281C-1.293,0.435 -1.181,1.11 -1.645,1.321C-1.897,1.447 -2.052,1.278 -2.276,1.307C-2.628,1.349 -2.783,1.756 -3.232,1.771C-3.752,1.798 -3.78,1.56 -4.132,1.503C-4.512,1.447 -4.736,1.756 -5.186,1.616C-5.664,1.461 -5.818,0.449 -5.045,0.309C-4.596,0.225 -4.512,0.562 -4.02,0.196C-3.569,-0.127 -3.809,-0.998 -3.584,-1.518C-3.373,-1.996 -2.769,-2.263 -2.6,-2.713C-2.403,-3.233 -2.516,-4.005 -2.291,-4.582C-2.066,-5.27 -0.857,-5.509 -0.914,-6.001C-0.97,-6.549 -1.645,-6.324 -2.023,-6.563C-2.586,-6.914 -2.6,-7.898 -1.603,-7.758C-0.914,-7.66 -0.844,-7.266 -0.239,-7.224" style="fill:rgb(235,91,91);fill-rule:nonzero;"/>
        </g>
        <g transform="matrix(1,0,0,1,80.4755,17.3664)">
            <path d="M0,3.724C-0.042,4.244 0.323,4.694 0.436,5.158C0.591,5.832 0.169,6.225 -0.365,5.973C-0.843,5.747 -1.32,5.143 -1.729,4.412C-2.402,3.176 -2.726,0.688 -3.485,0.717C-3.963,0.731 -3.556,1.7 -3.71,2.276C-3.878,2.895 -5.298,4.118 -4.75,4.652C-4.385,5.003 -3.893,4.272 -3.387,4.216C-2.937,4.16 -2.501,4.708 -2.642,5.115C-2.811,5.621 -3.246,5.523 -3.611,5.776C-3.878,5.958 -4.033,6.366 -4.37,6.493C-4.68,6.605 -4.933,6.436 -5.214,6.549C-5.621,6.717 -5.494,6.956 -6.07,7.083C-6.619,7.209 -7.068,6.535 -6.857,6.057C-6.591,5.453 -6.085,5.832 -5.775,5.242C-5.551,4.806 -5.888,3.612 -5.775,2.853C-5.635,1.925 -4.567,1.49 -4.623,-0.183C-4.651,-1.04 -4.328,-1.841 -3.752,-1.799C-3.049,-1.743 -2.853,-0.548 -2.613,-0.07C-2.402,0.337 -2.01,0.408 -1.757,0.731C-1.489,1.068 -1.588,2.01 -1.349,2.445C-1.124,2.867 -0.717,2.881 -0.646,2.347C-0.59,1.953 -0.856,1.293 -0.843,0.913C-0.829,0.365 0.127,-0.099 0.127,-0.464C0.112,-0.843 -0.168,-0.97 -0.604,-0.928C-1.729,-0.815 -2.094,-1.448 -2.094,-1.771C-2.094,-2.08 -2.037,-2.445 -0.856,-2.249C0.675,-1.996 1.167,-3.106 1.743,-3.289C2.361,-3.485 2.628,-3.05 2.628,-2.6C2.614,-1.785 1.532,-1.911 1.405,-1.096C1.279,-0.296 0.31,0.618 0.268,1.124C0.226,1.658 0.436,1.714 0.394,2.319C0.352,2.895 0.042,3.176 0,3.724" style="fill:rgb(235,91,91);fill-rule:nonzero;"/>
        </g>
        <g transform="matrix(1,0,0,1,94.0488,22.1864)">
            <path d="M0,-5.846C-0.562,-5.874 -0.97,-5.256 -1.067,-4.596C-1.166,-3.921 -0.97,-3.176 -1.166,-2.234C-1.391,-1.152 -2.276,-0.155 -2.065,0.295C-1.854,0.731 -1.391,0.478 -0.97,0.548C-0.562,0.604 -0.211,0.942 0.408,0.9C0.984,0.858 1.194,0.478 1.616,0.098C1.981,-0.225 2.474,-0.393 2.487,-1.11C2.502,-1.742 2.164,-2.136 2.137,-2.67C2.108,-3.12 2.445,-4.005 2.207,-4.385C1.968,-4.764 1.504,-4.483 1.097,-4.82C0.646,-5.185 0.773,-5.804 0,-5.846M-0.295,-8.333C0.295,-8.123 -0.211,-7.054 0.183,-6.718C0.576,-6.38 1.49,-6.787 2.094,-6.324C2.6,-5.945 2.544,-5.425 2.854,-5.116C3.148,-4.82 3.5,-4.834 3.725,-4.328C4.02,-3.654 3.556,-2.572 3.5,-1.728C3.443,-0.857 3.696,0.014 3.177,0.759C2.572,1.616 1.715,1.377 1.152,1.518C0.562,1.673 0.436,2.277 -0.436,2.277C-1.335,2.277 -1.476,1.546 -2.29,1.532C-3.147,1.518 -3.373,2.502 -4.342,2.642C-5.256,2.769 -5.705,1.616 -4.68,1.195C-4.159,0.984 -3.893,1.138 -3.583,0.914C-3.26,0.689 -3.429,0.267 -3.246,-0.084C-3.063,-0.435 -2.712,-0.731 -2.628,-1.405C-2.529,-2.248 -2.824,-2.515 -2.754,-3.232C-2.684,-3.921 -1.799,-4.511 -2.08,-5.087C-2.417,-5.748 -3.316,-4.708 -3.935,-4.862C-4.567,-5.017 -4.638,-5.818 -3.724,-6.352C-2.965,-6.787 -2.543,-6.198 -1.841,-6.507C-1.082,-6.844 -1.096,-8.615 -0.295,-8.333" style="fill:rgb(235,91,91);fill-rule:nonzero;"/>
        </g>
        <g transform="matrix(1,0,0,1,20.2797,41.5134)">
            <path d="M0,-6.114C-0.365,-5.988 -0.352,-4.962 0.042,-4.751C0.281,-4.624 0.492,-4.919 0.703,-4.975C0.941,-5.046 1.419,-4.947 1.419,-5.271C1.419,-5.65 0.941,-5.552 0.646,-5.706C0.464,-5.805 0.253,-6.198 0,-6.114M-3.78,1.559C-4.23,1.292 -4.806,1.095 -5.017,0.702C-5.284,0.168 -5.115,-0.169 -5.144,-0.998C-5.172,-1.912 -5.607,-2.32 -5.425,-3.093C-5.27,-3.781 -4.834,-3.992 -4.455,-4.456C-4.089,-4.919 -3.935,-6.465 -2.783,-6.592C-2.15,-6.662 -1.729,-6.044 -2.052,-5.383C-2.375,-4.709 -3.359,-4.61 -3.682,-3.949C-3.907,-3.458 -3.71,-2.994 -3.724,-2.446C-3.752,-1.856 -4.272,-1.589 -4.146,-0.928C-3.977,-0.183 -3.5,-0.212 -3.162,0.126C-2.769,0.548 -2.684,1.236 -1.813,1.222C-0.857,1.208 -0.731,0.449 -0.309,0.084C0.112,-0.281 0.506,-0.521 0.688,-0.914C0.871,-1.322 0.703,-1.94 0.927,-2.362C1.152,-2.797 1.476,-2.853 1.7,-3.43C1.939,-3.992 1.279,-4.399 0.787,-3.907C0.421,-3.528 -0.042,-3.317 -0.506,-3.584C-0.984,-3.823 -1.012,-4.456 -1.054,-4.751C-1.138,-5.088 -1.448,-5.242 -1.461,-5.847C-1.476,-6.592 -0.885,-7.337 -0.281,-7.337C0.155,-7.35 0.309,-6.985 0.59,-6.915C0.857,-6.831 1.04,-7.097 1.476,-6.817C1.897,-6.55 1.897,-6.03 2.136,-5.847C2.501,-5.58 2.909,-5.777 2.867,-6.353C2.839,-6.774 2.459,-7.322 2.53,-7.744C2.642,-8.657 3.893,-8.573 4.033,-7.224C4.272,-5.13 2.895,-4.989 2.656,-4.146C2.459,-3.43 2.867,-2.867 2.684,-2.193C2.459,-1.378 1.897,-1.28 1.503,-0.577C1.208,-0.029 1.434,0.772 0.914,1.39C0.408,1.953 -0.253,1.826 -0.899,1.953C-1.434,2.065 -1.869,2.543 -2.572,2.43C-3.148,2.332 -3.359,1.826 -3.78,1.559" style="fill:rgb(235,91,91);fill-rule:nonzero;"/>
        </g>
        <g transform="matrix(1,0,0,1,32.9116,43.3391)">
            <path d="M0,-9.134C0.604,-9.092 0.815,-8.755 1.279,-8.783C1.827,-8.811 2.263,-9.289 2.881,-9.345C3.5,-9.401 4.244,-8.937 4.736,-8.951C5.228,-8.966 5.453,-9.387 6.015,-9.471C6.591,-9.556 6.928,-9.218 6.788,-8.684C6.675,-8.263 6.395,-8.094 6.268,-7.743C6.155,-7.391 6.31,-7.026 6.198,-6.717C6.015,-6.281 5.298,-6.141 5.045,-6.689C4.806,-7.237 5.312,-7.56 4.905,-7.94C4.511,-8.319 3.865,-7.729 3.331,-7.743C2.797,-7.757 2.389,-8.122 2.024,-7.869C1.644,-7.631 1.996,-7.167 1.996,-6.773C1.996,-6.422 1.518,-6.071 1.546,-5.733C1.588,-5.227 2.487,-5.157 2.811,-5.382C3.218,-5.649 3.289,-6 3.64,-6.183C3.963,-6.365 4.342,-6.113 4.356,-5.663C4.371,-5.045 3.851,-4.609 3.71,-4.201C3.57,-3.752 3.794,-3.19 3.57,-2.796C3.289,-2.332 2.263,-2.192 2.22,-3.217C2.207,-3.541 2.501,-3.639 2.474,-4.005C2.431,-4.483 1.743,-4.721 1.476,-4.3C1.181,-3.85 1.448,-3.274 1.405,-2.852C1.363,-2.417 0.857,-1.798 1.068,-1.405C1.251,-1.068 1.841,-1.447 2.164,-1.236C2.6,-0.955 2.516,-0.224 1.897,-0.042C1.279,0.141 0.604,-0.098 0.056,-0.042C-0.506,0.014 -1.026,0.422 -1.447,0.324C-2.066,0.183 -2.08,-0.618 -1.49,-0.997C-0.843,-1.405 -0.351,-0.983 -0.056,-1.321C0.281,-1.7 -0.267,-2.473 -0.211,-2.965C-0.155,-3.499 0.352,-3.583 0.379,-4.033C0.408,-4.483 0.126,-5.016 0.126,-5.705C0.126,-6.492 0.899,-6.773 0.745,-7.405C0.632,-7.884 -0.211,-7.546 -0.632,-7.897C-1.068,-8.263 -0.759,-9.19 0,-9.134" style="fill:rgb(235,91,91);fill-rule:nonzero;"/>
        </g>
        <g transform="matrix(1,0,0,1,21.645,110.681)">
            <path d="M0,8.544C-0.351,8.952 -0.773,8.77 -1.25,8.938C-1.785,9.106 -2.08,9.401 -2.642,9.261C-3.218,9.135 -3.316,8.629 -3.878,8.446C-4.511,8.235 -5.298,8.657 -5.706,8.066C-6.029,7.603 -5.438,7.026 -5.298,6.507C-5.171,6.029 -5.298,5.481 -4.806,5.031C-4.314,4.581 -3.612,4.82 -3.583,5.509C-3.555,6.254 -4.371,6.366 -4.131,6.984C-3.878,7.631 -3.204,7.153 -2.572,7.321C-2.249,7.406 -2.052,7.8 -1.756,7.87C-1.377,7.954 -0.927,7.856 -0.871,7.561C-0.815,7.252 -1.054,7.083 -1.026,6.788C-0.998,6.465 -0.59,6.113 -1.026,5.481C-1.56,4.68 -2.572,5.13 -2.965,4.693C-3.26,4.357 -3.078,3.935 -3.331,3.527C-3.583,3.106 -4.483,3.05 -4.314,1.995C-4.118,0.717 -3.063,0.801 -2.6,0.464C-2.094,0.126 -2.192,-0.857 -1.461,-0.857C-0.674,-0.857 -0.548,0.394 -0.141,0.717C0.323,1.082 0.759,0.871 1.125,1.335C1.476,1.771 1.195,2.698 0.408,2.6C-0.464,2.487 -0.618,1.405 -1.307,1.082C-1.981,0.773 -2.726,1.293 -2.726,1.995C-2.726,2.656 -2.206,2.558 -1.953,2.895C-1.7,3.232 -1.897,3.598 -1.574,3.921C-1.012,4.483 -0.52,4.033 0.112,4.357C0.59,4.609 0.885,5.157 0.759,5.706C0.59,6.437 0.112,6.479 0.084,6.914C0.056,7.336 0.408,8.053 0,8.544" style="fill:rgb(235,91,91);fill-rule:nonzero;"/>
        </g>
        <g transform="matrix(1,0,0,1,35.247,117.736)">
            <path d="M0,-5.663C-0.422,-5.818 -0.394,-5.003 -0.548,-4.511C-0.731,-4.005 -1.883,-3.092 -1.518,-2.529C-1.293,-2.192 -1.054,-2.529 -0.717,-2.459C-0.464,-2.403 -0.042,-1.968 0.14,-2.347C0.337,-2.67 -0.211,-3.274 -0.183,-3.752C-0.169,-4.511 0.52,-5.509 0,-5.663M-0.239,-7.224C0.309,-7.182 0.787,-7.547 1.532,-7.448C2.515,-7.336 2.585,-6.169 1.63,-6.169C1.208,-6.169 0.998,-6.507 0.815,-6.267C0.562,-5.959 1.292,-5.509 1.349,-5.003C1.377,-4.736 1.25,-4.638 1.236,-4.413C1.223,-4.202 1.363,-4.005 1.363,-3.71C1.363,-3.331 1.082,-3.204 1.096,-2.797C1.11,-2.375 1.518,-1.911 1.546,-1.434C1.588,-0.73 1.236,0.07 1.461,0.394C1.658,0.675 1.981,0.323 2.318,0.394C2.811,0.492 2.895,1.279 2.361,1.447C1.939,1.574 1.546,1.504 1.054,1.673C0.562,1.841 0.267,2.234 -0.394,2.136C-0.928,2.052 -1.012,1.42 -0.646,1.082C-0.436,0.871 -0.099,1.054 0.197,0.858C0.548,0.605 0.45,-0.886 0,-1.054C-0.38,-1.209 -0.619,-0.955 -0.956,-0.998C-1.279,-1.068 -1.546,-1.532 -1.897,-1.476C-2.347,-1.434 -2.15,-0.886 -2.361,-0.548C-2.586,-0.211 -3.176,-0.112 -2.881,0.365C-2.712,0.66 -2.094,0.183 -1.771,0.281C-1.293,0.436 -1.181,1.11 -1.645,1.321C-1.897,1.447 -2.052,1.279 -2.277,1.307C-2.628,1.35 -2.783,1.757 -3.232,1.771C-3.752,1.799 -3.781,1.56 -4.132,1.504C-4.511,1.447 -4.736,1.757 -5.186,1.616C-5.664,1.462 -5.818,0.45 -5.045,0.31C-4.596,0.225 -4.511,0.563 -4.02,0.197C-3.57,-0.126 -3.809,-0.998 -3.584,-1.517C-3.373,-1.995 -2.769,-2.263 -2.6,-2.712C-2.403,-3.232 -2.516,-4.005 -2.291,-4.581C-2.066,-5.269 -0.857,-5.509 -0.914,-6.001C-0.97,-6.549 -1.645,-6.324 -2.024,-6.562C-2.586,-6.914 -2.6,-7.897 -1.602,-7.758C-0.914,-7.659 -0.843,-7.266 -0.239,-7.224" style="fill:rgb(235,91,91);fill-rule:nonzero;"/>
        </g>
        <g transform="matrix(1,0,0,1,51.4637,112.677)">
            <path d="M0,3.724C-0.042,4.244 0.323,4.694 0.436,5.158C0.59,5.832 0.168,6.226 -0.366,5.972C-0.843,5.747 -1.321,5.143 -1.729,4.412C-2.403,3.176 -2.727,0.689 -3.485,0.716C-3.963,0.731 -3.556,1.701 -3.71,2.277C-3.879,2.895 -5.298,4.118 -4.75,4.652C-4.385,5.003 -3.893,4.272 -3.387,4.216C-2.938,4.16 -2.501,4.707 -2.642,5.116C-2.811,5.621 -3.247,5.523 -3.612,5.776C-3.879,5.958 -4.034,6.366 -4.371,6.493C-4.68,6.605 -4.933,6.436 -5.214,6.548C-5.622,6.717 -5.495,6.956 -6.071,7.082C-6.619,7.209 -7.069,6.535 -6.858,6.057C-6.591,5.453 -6.085,5.832 -5.776,5.242C-5.551,4.806 -5.889,3.612 -5.776,2.853C-5.636,1.925 -4.567,1.49 -4.624,-0.183C-4.652,-1.04 -4.329,-1.841 -3.752,-1.799C-3.05,-1.743 -2.853,-0.548 -2.614,-0.071C-2.403,0.337 -2.01,0.408 -1.757,0.731C-1.49,1.068 -1.588,2.009 -1.349,2.445C-1.125,2.867 -0.717,2.881 -0.646,2.347C-0.59,1.953 -0.857,1.292 -0.843,0.913C-0.829,0.366 0.126,-0.098 0.126,-0.463C0.112,-0.843 -0.169,-0.969 -0.604,-0.927C-1.729,-0.815 -2.094,-1.448 -2.094,-1.771C-2.094,-2.08 -2.038,-2.446 -0.857,-2.249C0.674,-1.996 1.166,-3.106 1.743,-3.289C2.361,-3.485 2.628,-3.049 2.628,-2.6C2.614,-1.785 1.532,-1.912 1.405,-1.096C1.279,-0.296 0.309,0.619 0.267,1.124C0.225,1.659 0.436,1.714 0.394,2.319C0.351,2.895 0.042,3.176 0,3.724" style="fill:rgb(235,91,91);fill-rule:nonzero;"/>
        </g>
        <g transform="matrix(1,0,0,1,65.8433,119.802)">
            <path d="M0,-9.472C0.492,-9.486 0.773,-9.233 1.097,-9.191C1.363,-9.162 1.504,-9.43 1.855,-9.331C2.403,-9.177 2.544,-8.333 1.785,-8.025C1.251,-7.799 0.633,-8.39 0.31,-7.996C-0.056,-7.546 0.422,-6.366 0.239,-5.776C0.028,-5.031 -0.506,-4.933 -0.618,-4.3C-0.688,-3.893 -0.379,-3.555 -0.365,-3.077C-0.337,-2.6 -0.829,-1.826 -0.562,-1.476C-0.309,-1.124 0.521,-1.729 0.998,-1.701C1.49,-1.672 1.715,-0.759 0.942,-0.408C0.521,-0.225 0.323,-0.604 -0.027,-0.548C-0.533,-0.463 -0.688,-0.014 -1.208,0C-1.756,0.014 -1.826,-0.337 -2.164,-0.408C-2.67,-0.506 -3.204,-0.07 -3.851,-0.21C-4.623,-0.379 -4.567,-1.49 -3.668,-1.602C-3.105,-1.672 -2.558,-1.18 -2.052,-1.574C-1.658,-1.883 -2.037,-2.572 -1.995,-2.965C-1.938,-3.443 -1.658,-3.612 -1.573,-4.131C-1.489,-4.652 -1.742,-4.947 -1.7,-5.397C-1.644,-5.846 -1.082,-6.409 -0.941,-6.829C-0.801,-7.293 -0.885,-7.982 -1.335,-8.052C-1.63,-8.094 -1.854,-7.757 -2.305,-7.827C-2.993,-7.94 -2.965,-8.938 -2.178,-9.092C-1.658,-9.177 -1.531,-8.951 -1.138,-9.036C-0.618,-9.149 -0.533,-9.457 0,-9.472" style="fill:rgb(252,225,65);fill-rule:nonzero;"/>
        </g>
        <g transform="matrix(1,0,0,1,78.7605,118.902)">
            <path d="M0,-8.249C0.365,-8.263 0.422,-8.08 0.815,-8.095C1.293,-8.108 1.476,-8.713 2.01,-8.713C2.516,-8.713 2.769,-8.361 3.261,-8.361C3.78,-8.361 4.033,-8.951 4.483,-9.05C4.862,-9.148 5.2,-8.839 5.102,-8.361C5.018,-7.897 4.736,-7.616 4.708,-7.279C4.68,-6.956 4.849,-6.717 4.778,-6.323C4.624,-5.424 3.542,-5.368 3.373,-6.226C3.274,-6.688 3.598,-6.941 3.415,-7.293C3.204,-7.743 1.799,-7.405 1.673,-6.688C1.588,-6.226 1.813,-5.986 1.785,-5.649C1.757,-5.311 1.405,-5.129 1.335,-4.806C1.265,-4.482 1.49,-4.159 1.405,-3.78C1.321,-3.414 0.928,-3.358 0.857,-2.993C0.787,-2.628 0.928,-2.22 0.899,-1.883C0.844,-1.503 0.45,-1.109 0.618,-0.716C0.787,-0.295 1.476,-0.759 1.939,-0.674C2.698,-0.506 2.572,0.591 1.813,0.689C1.321,0.76 0.998,0.437 0.591,0.507C0.127,0.591 0.085,0.899 -0.352,0.899C-0.73,0.899 -0.857,0.577 -1.223,0.549C-1.531,0.521 -1.854,0.745 -2.333,0.619C-3.05,0.437 -2.951,-0.73 -2.065,-0.73C-1.518,-0.73 -0.928,-0.309 -0.604,-0.702C-0.352,-1.025 -0.745,-1.531 -0.675,-2.065C-0.59,-2.628 -0.056,-3.077 0.015,-3.541C0.085,-4.019 -0.253,-4.356 -0.183,-4.904C-0.141,-5.41 0.45,-5.747 0.45,-6.436C0.45,-7.181 -0.59,-7.223 -1.068,-6.731C-1.489,-6.323 -1.56,-5.804 -1.981,-5.452C-2.558,-4.988 -3.33,-5.298 -2.979,-6.155C-2.824,-6.549 -2.529,-6.675 -2.375,-7.04C-2.234,-7.434 -2.403,-7.954 -2.01,-8.137C-1.531,-8.361 -1.278,-7.841 -0.885,-7.841C-0.52,-7.841 -0.394,-8.234 0,-8.249" style="fill:rgb(235,91,91);fill-rule:nonzero;"/>
        </g>
        <g transform="matrix(1,0,0,1,92.1826,120.659)">
            <path d="M0,-9.725C0.463,-9.921 0.814,-10.624 1.405,-10.723C2.023,-10.821 2.417,-10.161 2.164,-9.571C1.911,-8.952 1.124,-8.601 1.025,-7.996C0.941,-7.504 1.223,-7.167 1.208,-6.647C1.194,-6.099 0.646,-5.804 0.646,-5.214C0.646,-4.427 2.094,-3.963 2.712,-4.848C3.119,-5.439 2.895,-5.987 3.161,-6.493C3.4,-6.943 3.682,-7.055 3.893,-7.575C4.104,-8.095 3.695,-9.261 4.566,-10.09C5.466,-10.934 6.562,-10.245 6.028,-9.303C5.691,-8.713 5.157,-8.699 5.003,-7.983C4.876,-7.407 5.157,-6.956 4.918,-6.324C4.693,-5.72 3.963,-5.327 3.766,-4.511C3.625,-3.935 4.075,-3.415 3.836,-2.811C3.499,-1.996 3.007,-1.996 2.642,-1.461C2.206,-0.829 2.36,-0.126 1.7,0.393C1.096,0.857 0.533,0.619 -0.38,0.872C-1.589,1.209 -2.769,0.562 -2.854,-0.619C-2.938,-1.729 -2.306,-2.558 -1.321,-2.558C-0.703,-2.558 -0.31,-2.319 -0.31,-1.813C-0.31,-1.111 -1.561,-1.25 -1.448,-0.464C-1.363,0.112 -0.155,0.197 0.351,-0.281C0.899,-0.787 0.772,-1.124 1.152,-1.532C1.518,-1.912 2.037,-2.024 2.375,-2.431C2.712,-2.853 2.628,-3.429 2.065,-3.387C1.7,-3.359 1.503,-2.952 0.983,-2.952C0.351,-2.952 0.267,-3.57 0.014,-3.823C-0.239,-4.076 -0.689,-4.174 -0.76,-4.736C-0.844,-5.411 -0.31,-5.538 -0.253,-6.099C-0.197,-6.69 -0.45,-6.816 -0.394,-7.238C-0.352,-7.589 0.027,-7.828 0.196,-8.179C0.393,-8.573 0.042,-8.797 -0.31,-8.601C-0.83,-8.32 -1.11,-7.757 -1.589,-7.73C-2.333,-7.687 -2.418,-8.854 -1.574,-9.261C-1.04,-9.514 -0.534,-9.5 0,-9.725" style="fill:rgb(235,91,91);fill-rule:nonzero;"/>
        </g>
        <g transform="matrix(1,0,0,1,11.3519,130.376)">
            <path d="M0,-2.799L0.424,-2.799L1.044,-0.447L1.063,-0.232L1.124,-0.232L1.144,-0.447L1.764,-2.799L2.188,-2.799L1.412,0L0.776,0L0,-2.799Z" style="fill:rgb(235,91,91);fill-rule:nonzero;"/>
        </g>
        <g transform="matrix(1,0,0,1,14.4125,127.936)">
            <path d="M0,2.08L0.711,2.08L0.711,0.001L0,0.001L0,-0.359L1.822,-0.359L1.822,0.001L1.111,0.001L1.111,2.08L1.822,2.08L1.822,2.439L0,2.439L0,2.08Z" style="fill:rgb(235,91,91);fill-rule:nonzero;"/>
        </g>
        <g transform="matrix(1,0,0,1,17.5316,130.376)">
            <path d="M0,-2.799L0.4,-2.799L0.4,-0.38L1.751,-0.38L1.751,0L0,0L0,-2.799Z" style="fill:rgb(235,91,91);fill-rule:nonzero;"/>
        </g>
        <g transform="matrix(1,0,0,1,20.4115,130.376)">
            <path d="M0,-2.799L0.4,-2.799L0.4,-0.38L1.751,-0.38L1.751,0L0,0L0,-2.799Z" style="fill:rgb(235,91,91);fill-rule:nonzero;"/>
        </g>
        <g transform="matrix(1,0,0,1,24.2914,128.936)">
            <path d="M0,0.08L-0.272,-0.911L-0.296,-1.127L-0.356,-1.127L-0.38,-0.911L-0.652,0.08L0,0.08ZM-0.644,-1.359L-0.008,-1.359L0.808,1.439L0.376,1.439L0.107,0.46L-0.756,0.46L-1.027,1.439L-1.459,1.439L-0.644,-1.359Z" style="fill:rgb(235,91,91);fill-rule:nonzero;"/>
        </g>
        <g transform="matrix(1,0,0,1,25.7963,128.976)">
            <path d="M0,0C0,-0.976 0.372,-1.459 1.12,-1.459C1.695,-1.459 2.087,-1.035 2.083,-0.42L1.676,-0.42C1.676,-0.831 1.468,-1.079 1.12,-1.079C0.632,-1.079 0.42,-0.756 0.42,0C0.42,0.748 0.612,1.079 1.04,1.079C1.376,1.079 1.575,0.815 1.611,0.328L0.952,0.328L0.952,-0.048L1.991,-0.048L1.991,1.399L1.592,1.399L1.695,0.788L1.636,0.788C1.548,1.231 1.319,1.459 0.94,1.459C0.345,1.459 0,0.947 0,0" style="fill:rgb(235,91,91);fill-rule:nonzero;"/>
        </g>
        <g transform="matrix(1,0,0,1,28.9242,130.376)">
            <path d="M0,-2.799L1.671,-2.799L1.671,-2.419L0.4,-2.419L0.4,-1.591L1.632,-1.591L1.632,-1.211L0.4,-1.211L0.4,-0.38L1.671,-0.38L1.671,0L0,0L0,-2.799Z" style="fill:rgb(235,91,91);fill-rule:nonzero;"/>
        </g>
        <g transform="matrix(1,0,0,1,94.9905,127.897)">
            <path d="M0,2.158C0.436,2.158 0.64,1.81 0.64,1.079C0.64,0.347 0.436,-0 0,-0C-0.436,-0 -0.64,0.347 -0.64,1.079C-0.64,1.81 -0.436,2.158 0,2.158M-1.06,1.079C-1.06,0.128 -0.691,-0.38 0,-0.38C0.691,-0.38 1.06,0.128 1.06,1.079C1.06,2.031 0.691,2.538 0,2.538C-0.691,2.538 -1.06,2.031 -1.06,1.079" style="fill:rgb(235,91,91);fill-rule:nonzero;"/>
        </g>
        <g transform="matrix(1,0,0,1,97.4749,129.58)">
            <path d="M0,-1.207L-0.064,-1.606L-0.124,-1.606L-0.124,0.796L-0.524,0.796L-0.524,-2.003L0.12,-2.003L0.791,-0L0.855,0.4L0.915,0.4L0.915,-2.003L1.315,-2.003L1.315,0.796L0.672,0.796L0,-1.207Z" style="fill:rgb(235,91,91);fill-rule:nonzero;"/>
        </g>
        <g transform="matrix(1,0,0,1,99.9504,130.376)">
            <path d="M0,-2.799L1.672,-2.799L1.672,-2.419L0.4,-2.419L0.4,-1.591L1.632,-1.591L1.632,-1.211L0.4,-1.211L0.4,-0.38L1.672,-0.38L1.672,0L0,0L0,-2.799Z" style="fill:rgb(235,91,91);fill-rule:nonzero;"/>
        </g>
    </g>
</svg>
